<?xml version="1.0" encoding="UTF-8"?>
<svg version="1.1" xmlns="http://www.w3.org/2000/svg" width="368" height="360">
<path d="M0 0 C5.57894737 3.15789474 5.57894737 3.15789474 7 6 C7.08586809 8.32416296 7.10711043 10.65083307 7.09765625 12.9765625 C7.09553383 14.00443375 7.09553383 14.00443375 7.09336853 15.05307007 C7.08776675 17.24375761 7.07521406 19.4343433 7.0625 21.625 C7.05748522 23.10937352 7.05292228 24.59374865 7.04882812 26.078125 C7.03779677 29.71878315 7.02053099 33.35938164 7 37 C8.98 37 10.96 37 13 37 C13.01401855 36.07719238 13.01401855 36.07719238 13.02832031 35.13574219 C13.08211085 32.33968914 13.16573819 29.5452938 13.25 26.75 C13.26417969 25.78191406 13.27835938 24.81382813 13.29296875 23.81640625 C13.54101103 16.62318015 13.54101103 16.62318015 15.921875 13.390625 C19.78645931 10.80454978 22.3225345 10.6828837 27 11 C30.81903927 12.69735078 32.49272668 14.13936782 34 18 C34.24291992 20.68554688 34.24291992 20.68554688 34.23046875 23.71875 C34.22853516 24.81574219 34.22660156 25.91273437 34.22460938 27.04296875 C34.21236328 28.18378906 34.20011719 29.32460938 34.1875 30.5 C34.1865332 32.21123047 34.1865332 32.21123047 34.18554688 33.95703125 C34.14042525 42.49003159 34.14042525 42.49003159 33.40356445 45.16601562 C32.75156709 47.26090981 32.75156709 47.26090981 34.375 50.0625 C37.45076217 53.50442433 39.50704938 54.02273585 43.8125 55.2265625 C47.6999984 56.60107086 49.94237617 59.34280773 52.109375 62.73828125 C54.51832695 68.85575134 53.86646753 77.43975687 51.8125 83.625 C49.52828077 87.87837373 47.3191764 90.24783468 42.6875 91.75 C42.130625 91.8325 41.57375 91.915 41 92 C40.9175 92.825 40.835 93.65 40.75 94.5 C39.96543292 98.16131306 38.6928634 100.896023 36.9375 104.16796875 C35.86837089 106.14378932 35.86837089 106.14378932 35 109 C35.78375 109.721875 36.5675 110.44375 37.375 111.1875 C41.86507693 115.99829671 42.24614445 119.8312719 42.125 126.3125 C42.10695312 127.56675781 42.08890625 128.82101563 42.0703125 130.11328125 C42.04710937 131.06589844 42.02390625 132.01851562 42 133 C42.92425781 133.12761719 43.84851563 133.25523437 44.80078125 133.38671875 C49.41884653 134.27198889 52.4111803 136.52075407 55.8125 139.6875 C57.65347937 143.27256508 57.75334693 147.0195297 58 151 C58.66 150.67 59.32 150.34 60 150 C62.61860735 149.84887061 65.19290882 149.76866138 67.8125 149.75 C68.88081055 149.7190625 68.88081055 149.7190625 69.97070312 149.6875 C75.60419335 149.64580905 78.74542686 150.90091466 82.8125 154.6875 C84.56877281 158.10761021 84.63538249 161.28765287 84 165 C82.26767892 168.59789763 81.0056252 170.44690614 77.5 172.375 C70.97790991 173.53965894 64.43225619 173.60806405 58 172 C58 196.42 58 220.84 58 246 C60.31 246 62.62 246 65 246 C68.87765844 247.34226638 70.55557782 248.34818081 72.875 251.75 C74.12495845 255.36099109 74.08090748 258.20633808 74 262 C74.73114014 261.98428955 75.46228027 261.9685791 76.21557617 261.95239258 C79.5394716 261.88989649 82.8632432 261.85096248 86.1875 261.8125 C87.91323242 261.77479492 87.91323242 261.77479492 89.67382812 261.73632812 C90.78564453 261.72666016 91.89746094 261.71699219 93.04296875 261.70703125 C94.06414795 261.6913208 95.08532715 261.67561035 96.13745117 261.65942383 C99.48707631 262.05795066 101.30316765 263.00170773 104 265 C106.03568758 268.05353137 106.25279189 268.67883697 106.2746582 272.11669922 C106.28419022 272.94120575 106.29372223 273.76571228 106.30354309 274.61520386 C106.30217598 275.94649826 106.30217598 275.94649826 106.30078125 277.3046875 C106.30506638 278.22081818 106.3093515 279.13694885 106.31376648 280.08084106 C106.31950999 282.01921767 106.32000989 283.95761583 106.31567383 285.89599609 C106.31251937 288.85682145 106.3359535 291.81664235 106.36132812 294.77734375 C106.36360171 296.66145707 106.36430434 298.54557308 106.36328125 300.4296875 C106.372491 301.31316864 106.38170074 302.19664978 106.39118958 303.10690308 C106.35581978 307.82461029 106.26751174 311.29970229 103 315 C98.44889073 317.46363238 94.07831698 317.28065333 89.0423584 317.25396729 C87.68754435 317.25864726 87.68754435 317.25864726 86.30536032 317.26342177 C83.27837699 317.27140008 80.25159421 317.26507873 77.22460938 317.25878906 C75.05467105 317.26149899 72.88473364 317.26505994 70.71479797 317.26940918 C64.82029533 317.27853515 58.92586261 317.27498804 53.03135872 317.26865101 C46.86640355 317.26359212 40.70145442 317.26828216 34.53649902 317.27142334 C24.18301314 317.2750633 13.82955577 317.27026308 3.47607422 317.26074219 C-8.49875705 317.24985759 -20.47348736 317.25338314 -32.44831896 317.264395 C-42.72442728 317.273467 -53.00051508 317.27475357 -63.27662611 317.26951766 C-69.41638779 317.26639749 -75.55611745 317.26598994 -81.69587708 317.27259064 C-87.46768702 317.27836217 -93.23940905 317.27437065 -99.01120949 317.26280212 C-101.13123745 317.26015452 -103.2512728 317.26092233 -105.37129784 317.26532745 C-108.26175172 317.2707803 -111.15192262 317.2639518 -114.0423584 317.25396729 C-114.88428317 317.25842873 -115.72620793 317.26289017 -116.59364557 317.26748681 C-120.79408736 317.23928117 -124.25039536 317.12727586 -128 315 C-130.01004226 311.98493661 -130.26107322 311.29707658 -130.36645508 307.89916992 C-130.39600784 307.07789108 -130.42556061 306.25661224 -130.45600891 305.41044617 C-130.47697128 304.52605362 -130.49793365 303.64166107 -130.51953125 302.73046875 C-130.54601242 301.81670975 -130.57249359 300.90295074 -130.59977722 299.96150208 C-130.65246047 298.0274422 -130.70004249 296.09323766 -130.74291992 294.15893555 C-130.81200517 291.20863166 -130.90801191 288.26001934 -131.00585938 285.31054688 C-131.05373256 283.42972875 -131.10000843 281.54886916 -131.14453125 279.66796875 C-131.19115654 278.35048897 -131.19115654 278.35048897 -131.23872375 277.00639343 C-131.32305915 271.92659477 -130.98801717 268.32636058 -128 264 C-124.90726918 261.70905757 -121.91612108 261.70151391 -118.140625 261.5859375 C-117.02558594 261.54726563 -115.91054687 261.50859375 -114.76171875 261.46875 C-113.02341797 261.42234375 -113.02341797 261.42234375 -111.25 261.375 C-110.07566406 261.33632813 -108.90132812 261.29765625 -107.69140625 261.2578125 C-104.79442732 261.1636018 -101.89745374 261.07798398 -99 261 C-98.88390381 260.307854 -98.76780762 259.61570801 -98.64819336 258.90258789 C-98.48456299 257.99758545 -98.32093262 257.09258301 -98.15234375 256.16015625 C-97.99499756 255.26176025 -97.83765137 254.36336426 -97.67553711 253.43774414 C-97 251 -97 251 -94.5625 248.4375 C-89.82496061 245.77985595 -87.91272535 246 -82 246 C-82 221.58 -82 197.16 -82 172 C-83.32 172.33 -84.64 172.66 -86 173 C-93.78306152 173.52289302 -100.35308946 173.90477495 -106.58984375 168.6640625 C-109.18493882 165.60170655 -109.22586734 161.89289002 -109 158 C-106.9747665 153.87452435 -105.23648008 151.69790026 -101 150 C-98.89355469 149.77294922 -98.89355469 149.77294922 -96.671875 149.8046875 C-95.87265625 149.81113281 -95.0734375 149.81757813 -94.25 149.82421875 C-93.425 149.84097656 -92.6 149.85773438 -91.75 149.875 C-90.90953125 149.88402344 -90.0690625 149.89304688 -89.203125 149.90234375 C-87.13529396 149.92584183 -85.06761005 149.96171092 -83 150 C-82.8983252 149.36046387 -82.79665039 148.72092773 -82.69189453 148.06201172 C-81.76511972 142.56696469 -80.62974653 139.44768359 -76 136 C-73.05949262 134.50014389 -70.07451583 133.19899419 -67 132 C-66.96261719 130.97519531 -66.92523438 129.95039063 -66.88671875 128.89453125 C-66.82102921 127.53381938 -66.75458291 126.17314389 -66.6875 124.8125 C-66.66494141 124.13896484 -66.64238281 123.46542969 -66.61914062 122.77148438 C-66.38376591 118.38495555 -65.62236677 115.53136673 -63 112 C-62.4225 111.484375 -61.845 110.96875 -61.25 110.4375 C-60.8375 109.963125 -60.425 109.48875 -60 109 C-60.47587406 106.04457165 -61.58969592 103.68089544 -63 101.0625 C-64.30561361 98.56743057 -65.00835311 96.94510815 -65.4375 94.125 C-65.623125 93.42375 -65.80875 92.7225 -66 92 C-67.64034193 91.27095914 -69.31301918 90.61344757 -71 90 C-73.96767029 87.36956497 -75.73949648 85.78151055 -77 82 C-77.14880933 79.21554845 -77.23107 76.47257615 -77.25 73.6875 C-77.270625 72.94048828 -77.29125 72.19347656 -77.3125 71.42382812 C-77.34689772 66.5264527 -76.66334554 63.26135286 -74 59 C-71.20146618 56.20146618 -68.69614673 54.829206 -65 53.625 C-61.34993637 52.3698666 -59.784838 50.76945591 -57.4765625 47.62109375 C-53.24088662 42.97081467 -46.79284536 40.19300574 -41 38 C-40.92652344 36.15535156 -40.92652344 36.15535156 -40.8515625 34.2734375 C-40.77648971 32.64060434 -40.70094385 31.00779288 -40.625 29.375 C-40.5940625 28.56675781 -40.563125 27.75851563 -40.53125 26.92578125 C-40.30595568 22.30724768 -39.86547001 18.30186678 -38 14 C-35.06635008 11.48544292 -33.30175378 11.02646963 -29.4375 10.6875 C-26.27736638 10.97478487 -24.55813461 11.1998312 -22 13 C-19.87719437 16.18420845 -19.71980463 17.20537255 -19.5859375 20.88671875 C-19.54726562 21.82451172 -19.50859375 22.76230469 -19.46875 23.72851562 C-19.4378125 24.70498047 -19.406875 25.68144531 -19.375 26.6875 C-19.33632812 27.67556641 -19.29765625 28.66363281 -19.2578125 29.68164062 C-19.16354133 32.12090707 -19.07793782 34.56016595 -19 37 C-17.02 37 -15.04 37 -13 37 C-13.02618408 36.08710205 -13.05236816 35.1742041 -13.0793457 34.23364258 C-13.16478542 30.83227656 -13.22734999 27.43205742 -13.2746582 24.0300293 C-13.29973644 22.56044475 -13.33380856 21.09098413 -13.37719727 19.62182617 C-13.43815499 17.50408319 -13.46627316 15.38799424 -13.48828125 13.26953125 C-13.51446533 11.99698486 -13.54064941 10.72443848 -13.56762695 9.41333008 C-12.85312722 5.116805 -11.32885212 3.70486855 -8 1 C-5.13391871 -0.43304064 -3.18699217 -0.30644155 0 0 Z " fill="#24AE60" transform="translate(194,23)"/>
<path d="M0 0 C0.51220502 0.42467025 1.02441004 0.8493405 1.55213642 1.28687954 C7.99652106 6.15567161 12.90992312 6.85375458 20.8503418 6.72875977 C22.00269318 6.7344548 23.15504456 6.74014984 24.34231567 6.74601746 C28.12858497 6.75707787 31.91310455 6.72512662 35.69921875 6.69140625 C38.33998919 6.68782725 40.9807635 6.68647213 43.62153625 6.6872406 C49.14512642 6.68443979 54.66821912 6.6585079 60.19165039 6.61743164 C66.56692755 6.57019406 72.94166164 6.55444024 79.31710118 6.5566383 C85.46866016 6.5584723 91.62001483 6.54280387 97.77152443 6.51826286 C100.3818029 6.5087217 102.99209723 6.50280505 105.6023922 6.50058174 C109.24781749 6.49407494 112.89256276 6.46781038 116.5378418 6.43579102 C117.61486862 6.43715057 118.69189545 6.43851013 119.80155945 6.43991089 C125.24105318 6.37007019 129.36768765 6.19306188 134 3 C134.66 2.01 135.32 1.02 136 0 C136.66 0 137.32 0 138 0 C139.12796398 3.60636233 139.11416035 6.97144004 139.09765625 10.734375 C139.09443359 12.02988281 139.09121094 13.32539063 139.08789062 14.66015625 C139.07953598 16.02343817 139.07107104 17.38671942 139.0625 18.75 C139.05748168 20.12890465 139.05291935 21.50781104 139.04882812 22.88671875 C139.03704093 26.25785659 139.02058635 29.62890628 139 33 C140.08796875 32.97679687 141.1759375 32.95359375 142.296875 32.9296875 C146.49880615 33.009471 148.54011105 33.64098481 152 36 C155.02517264 40.43691987 155.11213789 43.74197887 155 49 C155.73114014 48.98428955 156.46228027 48.9685791 157.21557617 48.95239258 C160.5394716 48.88989649 163.8632432 48.85096248 167.1875 48.8125 C168.91323242 48.77479492 168.91323242 48.77479492 170.67382812 48.73632812 C172.34155273 48.72182617 172.34155273 48.72182617 174.04296875 48.70703125 C175.06414795 48.6913208 176.08532715 48.67561035 177.13745117 48.65942383 C180.48707631 49.05795066 182.30316765 50.00170773 185 52 C187.03568758 55.05353137 187.25279189 55.67883697 187.2746582 59.11669922 C187.28419022 59.94120575 187.29372223 60.76571228 187.30354309 61.61520386 C187.30217598 62.94649826 187.30217598 62.94649826 187.30078125 64.3046875 C187.30506638 65.22081818 187.3093515 66.13694885 187.31376648 67.08084106 C187.31950999 69.01921767 187.32000989 70.95761583 187.31567383 72.89599609 C187.31251937 75.85682145 187.3359535 78.81664235 187.36132812 81.77734375 C187.36360171 83.66145707 187.36430434 85.54557308 187.36328125 87.4296875 C187.372491 88.31316864 187.38170074 89.19664978 187.39118958 90.10690308 C187.35581978 94.82461029 187.26751174 98.29970229 184 102 C179.44889073 104.46363238 175.07831698 104.28065333 170.0423584 104.25396729 C168.68754435 104.25864726 168.68754435 104.25864726 167.30536032 104.26342177 C164.27837699 104.27140008 161.25159421 104.26507873 158.22460938 104.25878906 C156.05467105 104.26149899 153.88473364 104.26505994 151.71479797 104.26940918 C145.82029533 104.27853515 139.92586261 104.27498804 134.03135872 104.26865101 C127.86640355 104.26359212 121.70145442 104.26828216 115.53649902 104.27142334 C105.18301314 104.2750633 94.82955577 104.27026308 84.47607422 104.26074219 C72.50124295 104.24985759 60.52651264 104.25338314 48.55168104 104.264395 C38.27557272 104.273467 27.99948492 104.27475357 17.72337389 104.26951766 C11.58361221 104.26639749 5.44388255 104.26598994 -0.69587708 104.27259064 C-6.46768702 104.27836217 -12.23940905 104.27437065 -18.01120949 104.26280212 C-20.13123745 104.26015452 -22.2512728 104.26092233 -24.37129784 104.26532745 C-27.26175172 104.2707803 -30.15192262 104.2639518 -33.0423584 104.25396729 C-33.88428317 104.25842873 -34.72620793 104.26289017 -35.59364557 104.26748681 C-39.79408736 104.23928117 -43.25039536 104.12727586 -47 102 C-49.01004226 98.98493661 -49.26107322 98.29707658 -49.36645508 94.89916992 C-49.39600784 94.07789108 -49.42556061 93.25661224 -49.45600891 92.41044617 C-49.47697128 91.52605362 -49.49793365 90.64166107 -49.51953125 89.73046875 C-49.55925301 88.35983025 -49.55925301 88.35983025 -49.59977722 86.96150208 C-49.65246047 85.0274422 -49.70004249 83.09323766 -49.74291992 81.15893555 C-49.81200517 78.20863166 -49.90801191 75.26001934 -50.00585938 72.31054688 C-50.05373256 70.42972875 -50.10000843 68.54886916 -50.14453125 66.66796875 C-50.19115654 65.35048897 -50.19115654 65.35048897 -50.23872375 64.00639343 C-50.32305915 58.92659477 -49.98801717 55.32636058 -47 51 C-43.90726918 48.70905757 -40.91612108 48.70151391 -37.140625 48.5859375 C-36.02558594 48.54726563 -34.91054687 48.50859375 -33.76171875 48.46875 C-32.60285156 48.4378125 -31.44398437 48.406875 -30.25 48.375 C-29.07566406 48.33632813 -27.90132812 48.29765625 -26.69140625 48.2578125 C-23.79442732 48.1636018 -20.89745374 48.07798398 -18 48 C-17.88390381 47.307854 -17.76780762 46.61570801 -17.64819336 45.90258789 C-17.48456299 44.99758545 -17.32093262 44.09258301 -17.15234375 43.16015625 C-16.99499756 42.26176025 -16.83765137 41.36336426 -16.67553711 40.43774414 C-16 38 -16 38 -13.5625 35.4375 C-9.22251125 33.00287216 -5.91297361 32.90730238 -1 33 C-1.00523682 32.03586182 -1.01047363 31.07172363 -1.01586914 30.07836914 C-1.03392118 26.51327436 -1.04543274 22.94818364 -1.05493164 19.38305664 C-1.0599714 17.83780234 -1.0668032 16.29255284 -1.07543945 14.74731445 C-1.08752076 12.53074971 -1.09323173 10.31424782 -1.09765625 8.09765625 C-1.10281754 7.4028566 -1.10797882 6.70805695 -1.11329651 5.99220276 C-1.11349277 4.3277067 -1.06189129 2.66334501 -1 1 C-0.67 0.67 -0.34 0.34 0 0 Z " fill="#081F08" transform="translate(113,236)"/>
<path d="M0 0 C0.05607422 1.13888672 0.05607422 1.13888672 0.11328125 2.30078125 C0.21189453 3.79158203 0.21189453 3.79158203 0.3125 5.3125 C0.37050781 6.29863281 0.42851562 7.28476563 0.48828125 8.30078125 C1.04622813 11.24384457 1.68540132 12.18182999 4 14 C2.125 18.75 2.125 18.75 1 21 C0.89012726 22.50985303 0.84094792 24.02434686 0.82299805 25.53808594 C0.81016281 26.47956482 0.79732758 27.4210437 0.78410339 28.39105225 C0.77671646 29.41184875 0.76932953 30.43264526 0.76171875 31.484375 C0.753647 32.53272522 0.74557526 33.58107544 0.73725891 34.66119385 C0.72341066 36.88381289 0.71269183 39.10645327 0.70483398 41.32910156 C0.68763976 44.72241777 0.64376155 48.11475516 0.59960938 51.5078125 C0.58948095 53.6666595 0.58096532 55.82551478 0.57421875 57.984375 C0.55671066 58.99707458 0.53920258 60.00977417 0.52116394 61.05316162 C0.54113035 67.56461816 1.28941366 71.28941366 6 76 C11.28 76.33 16.56 76.66 22 77 C22 57.86 22 38.72 22 19 C43.12 19 64.24 19 86 19 C86 38.14 86 57.28 86 77 C98.65114784 76.99305257 98.65114784 76.99305257 104 74 C106.01559665 71.03307266 106.25580222 68.57251474 106.2746582 65.03540039 C106.28419022 64.05080338 106.29372223 63.06620636 106.30354309 62.05177307 C106.30263168 60.99441452 106.30172028 59.93705597 106.30078125 58.84765625 C106.30720894 57.20923012 106.30720894 57.20923012 106.31376648 55.53770447 C106.31950713 53.22867526 106.320012 50.91962797 106.31567383 48.6105957 C106.31251501 45.07927575 106.33597328 41.54879444 106.36132812 38.01757812 C106.36360125 35.77343856 106.36430455 33.52929674 106.36328125 31.28515625 C106.37709587 29.70215477 106.37709587 29.70215477 106.39118958 28.08717346 C106.35753804 22.75077938 106.18291257 19.47003434 103 15 C104.1875 12.1875 104.1875 12.1875 106 9 C106.80445194 6.35201237 107.39402873 3.70356413 108 1 C113.86048184 1.55814113 117.53589476 3.70583305 121.8125 7.6875 C123.65347937 11.27256508 123.75334693 15.0195297 124 19 C124.99 18.505 124.99 18.505 126 18 C128.61860735 17.84887061 131.19290882 17.76866138 133.8125 17.75 C134.52470703 17.729375 135.23691406 17.70875 135.97070312 17.6875 C141.60419335 17.64580905 144.74542686 18.90091466 148.8125 22.6875 C150.56877281 26.10761021 150.63538249 29.28765287 150 33 C148.26767892 36.59789763 147.0056252 38.44690614 143.5 40.375 C137.04156254 41.5282924 130.36136524 41.70652091 124 40 C124.00523682 41.09989258 124.01047363 42.19978516 124.01586914 43.33300781 C124.03398464 47.41812322 124.04545599 51.50323507 124.05493164 55.58837891 C124.05995687 57.35563759 124.06677809 59.12289212 124.07543945 60.89013672 C124.08758428 63.43197657 124.09324645 65.9737614 124.09765625 68.515625 C124.10281754 69.30430969 124.10797882 70.09299438 124.11329651 70.90557861 C124.11420175 79.78009193 124.11420175 79.78009193 121.4765625 82.66796875 C120.56003906 83.42013672 120.56003906 83.42013672 119.625 84.1875 C119.01914063 84.69667969 118.41328125 85.20585937 117.7890625 85.73046875 C114.64352768 87.96256224 111.89478647 88.12877127 108.16191101 88.14717102 C107.16517365 88.15432632 106.16843628 88.16148163 105.14149475 88.16885376 C104.04896896 88.17154266 102.95644318 88.17423157 101.83081055 88.17700195 C100.67933533 88.18357315 99.52786011 88.19014435 98.3414917 88.19691467 C94.52323342 88.21665851 90.70501447 88.22831192 86.88671875 88.23828125 C85.58408396 88.24235678 84.28144917 88.2464323 82.93934059 88.25063133 C76.75743168 88.26967653 70.57553467 88.28390927 64.39360207 88.2922433 C57.26325824 88.30201532 50.13322487 88.32833629 43.00299042 88.36874419 C37.48780484 88.39892443 31.97270817 88.41371394 26.45744163 88.41702431 C23.1651347 88.41937256 19.87323524 88.43028137 16.58099937 88.45348549 C12.90620443 88.47777871 9.23222336 88.47692943 5.55737305 88.4699707 C4.47091995 88.48278076 3.38446686 88.49559082 2.26509094 88.50878906 C-3.86589259 88.46643673 -7.27647836 87.98174529 -12 84 C-13.16354004 83.42028442 -13.16354004 83.42028442 -14.35058594 82.82885742 C-17.19793114 79.67174332 -16.48623117 75.81970885 -16.390625 71.73828125 C-16.38496521 70.83248825 -16.37930542 69.92669525 -16.37347412 68.99345398 C-16.35107616 66.09926589 -16.30087392 63.2063141 -16.25 60.3125 C-16.2299394 58.35092933 -16.21168786 56.38933927 -16.1953125 54.42773438 C-16.15120018 49.61801294 -16.08214941 44.8092161 -16 40 C-16.8964624 40.24121582 -16.8964624 40.24121582 -17.81103516 40.48730469 C-23.89145397 41.91144918 -30.78218076 41.80300352 -36.625 39.6875 C-41.64309306 36.12201282 -41.64309306 36.12201282 -42.65234375 32.94921875 C-43.19192817 28.66950121 -43.26565716 26.54115347 -41.3125 22.5625 C-38.70391973 19.67191105 -36.80244935 18.19428348 -32.89355469 17.77294922 C-31.79382324 17.78865967 -31.79382324 17.78865967 -30.671875 17.8046875 C-29.87265625 17.81113281 -29.0734375 17.81757813 -28.25 17.82421875 C-27.425 17.84097656 -26.6 17.85773438 -25.75 17.875 C-24.90953125 17.88402344 -24.0690625 17.89304688 -23.203125 17.90234375 C-21.13529396 17.92584183 -19.06761005 17.96171092 -17 18 C-16.8983252 17.36046387 -16.79665039 16.72092773 -16.69189453 16.06201172 C-15.76511972 10.56696469 -14.62974653 7.44768359 -10 4 C-2.27631579 0 -2.27631579 0 0 0 Z " fill="#24AE60" transform="translate(128,155)"/>
<path d="M0 0 C4.68055917 3.43241006 7.30615854 6.29446642 9 12 C9.25608026 14.72601563 9.38363732 17.16656085 9.3125 19.875 C9.29775635 20.92445801 9.29775635 20.92445801 9.28271484 21.99511719 C9.11246717 28.85912139 8.2246703 34.87583624 5 41 C5.48699371 41.55760513 5.97398743 42.11521027 6.47573853 42.68971252 C8.25547974 45.38722467 8.37934868 46.76537282 8.38818359 49.96459961 C8.39764008 50.94919662 8.40709656 51.93379364 8.4168396 52.94822693 C8.41076691 54.00558548 8.40469421 55.06294403 8.3984375 56.15234375 C8.40130768 57.24462784 8.40417786 58.33691193 8.40713501 59.46229553 C8.40917568 61.77133706 8.40364565 64.08039588 8.39111328 66.3894043 C8.37507582 69.92080453 8.39095469 73.45105751 8.41015625 76.98242188 C8.40817352 79.22656502 8.40432922 81.47070746 8.3984375 83.71484375 C8.40451019 84.77017807 8.41058289 85.82551239 8.4168396 86.91282654 C8.32699055 96.29774601 8.32699055 96.29774601 5 100 C1 102 1 102 -13 102 C-13 82.86 -13 63.72 -13 44 C-34.12 44 -55.24 44 -77 44 C-77 63.14 -77 82.28 -77 102 C-82.28 102 -87.56 102 -93 102 C-99.11842178 94.65789387 -99.11842178 94.65789387 -99.16113281 89.44604492 C-99.17074036 88.50133835 -99.1803479 87.55663177 -99.19024658 86.58329773 C-99.19449646 85.55936417 -99.19874634 84.5354306 -99.203125 83.48046875 C-99.20882507 82.42974686 -99.21452515 81.37902496 -99.22039795 80.29646301 C-99.22985652 78.06964121 -99.23638532 75.84280536 -99.24023438 73.6159668 C-99.24993071 70.21182748 -99.2809427 66.80829416 -99.3125 63.40429688 C-99.31903086 61.24219109 -99.32428101 59.08008098 -99.328125 56.91796875 C-99.3404718 55.90010788 -99.3528186 54.88224701 -99.36553955 53.83354187 C-99.34911738 48.61231048 -99.18185517 45.34929453 -96 41 C-96.71458891 38.85623326 -97.41224417 37.58775583 -99 36 C-101.58870039 13.27696323 -101.58870039 13.27696323 -96.92578125 5.12109375 C-95.6875 3.6875 -95.6875 3.6875 -93 2 C-89.0940629 2.34464151 -86.6941514 3.65435308 -83.5625 5.9375 C-78.16696524 9.86591261 -73.29288233 11.25425666 -66.62744141 11.22705078 C-65.38660797 11.22689972 -64.14577454 11.22674866 -62.86734009 11.22659302 C-61.52874589 11.21638225 -60.19015337 11.2059503 -58.8515625 11.1953125 C-57.47008469 11.19157813 -56.08860422 11.18873316 -54.7071228 11.18673706 C-51.08706229 11.17913392 -47.46716457 11.15951437 -43.84716797 11.1373291 C-40.14683229 11.11679878 -36.44647008 11.10772004 -32.74609375 11.09765625 C-25.49732196 11.07626499 -18.24868387 11.04216964 -11 11 C-10.67 10.01 -10.34 9.02 -10 8 C-8.22265625 6.46484375 -8.22265625 6.46484375 -6.0625 4.9375 C-3.85557073 3.36341071 -1.92088796 1.92088796 0 0 Z " fill="#E54C3D" transform="translate(227,130)"/>
<path d="M0 0 C52.8 0 105.6 0 160 0 C160.33 10.23 160.66 20.46 161 31 C161.33 32.65 161.66 34.3 162 36 C162.66 36.33 163.32 36.66 164 37 C158.39 36.67 152.78 36.34 147 36 C147 36.66 147 37.32 147 38 C96.84 38 46.68 38 -5 38 C-5.33 37.34 -5.66 36.68 -6 36 C-5.01 36 -4.02 36 -3 36 C1.47213595 24.81966011 -0.38823659 12.03533433 0 0 Z " fill="#0C390E" transform="translate(102,302)"/>
<path d="M0 0 C1.118871 -0.00701431 2.237742 -0.01402863 3.39051819 -0.02125549 C4.61866745 -0.01361176 5.84681671 -0.00596802 7.11218262 0.00190735 C8.4050267 -0.00174332 9.69787079 -0.00539398 11.02989197 -0.00915527 C14.57742234 -0.01856886 18.12467704 -0.00913512 21.6721859 0.00417686 C25.3823692 0.01548431 29.09253879 0.01138439 32.80273438 0.00942993 C39.03369659 0.00854673 45.26455006 0.01963274 51.4954834 0.03804016 C58.70221951 0.05920822 65.90879629 0.06271783 73.11555719 0.0564782 C80.0444617 0.05078597 86.97331002 0.05642853 93.90220642 0.06765175 C96.85270729 0.07229962 99.80317383 0.07317078 102.75367737 0.0710659 C106.87196216 0.06883471 110.99002321 0.08328313 115.10827637 0.0995636 C116.95050026 0.09584747 116.95050026 0.09584747 118.8299408 0.09205627 C119.9488118 0.09914108 121.0676828 0.10622589 122.22045898 0.11352539 C123.19458488 0.11557826 124.16871078 0.11763113 125.17235565 0.11974621 C127.61022949 0.3742218 127.61022949 0.3742218 130.61022949 2.3742218 C130.88764575 5.08872495 130.98265419 7.54062532 130.92272949 10.2492218 C130.92595215 10.96980774 130.9291748 11.69039368 130.93249512 12.43281555 C130.89105278 16.52430439 130.48304757 18.62858565 128.61022949 22.3742218 C84.06022949 22.3742218 39.51022949 22.3742218 -6.38977051 22.3742218 C-8.57190715 18.00994852 -8.68814247 15.62938327 -8.70227051 10.8117218 C-8.71838379 10.13947571 -8.73449707 9.46722961 -8.75109863 8.77461243 C-8.75594289 3.89644433 -8.75594289 3.89644433 -7.20392609 1.68301105 C-4.71819539 -0.11027374 -3.05257205 -0.00052564 0 0 Z " fill="#6FBE70" transform="translate(120.3897705078125,317.6257781982422)"/>
<path d="M0 0 C11.55 0 23.1 0 35 0 C36.38810978 8.32865869 37.31569447 15.68964918 37.25 24 C37.26160156 25.51400391 37.26160156 25.51400391 37.2734375 27.05859375 C37.27085938 28.02925781 37.26828125 28.99992187 37.265625 30 C37.26336914 30.86625 37.26111328 31.7325 37.25878906 32.625 C36.85572697 36.32404532 35.6082669 38.3917331 33 41 C30.46557617 41.25878906 30.46557617 41.25878906 27.29296875 41.265625 C25.5769043 41.26949219 25.5769043 41.26949219 23.82617188 41.2734375 C22.62541016 41.26570313 21.42464844 41.25796875 20.1875 41.25 C18.99833984 41.25773437 17.80917969 41.26546875 16.58398438 41.2734375 C15.43607422 41.27085937 14.28816406 41.26828125 13.10546875 41.265625 C11.52995239 41.26224121 11.52995239 41.26224121 9.92260742 41.25878906 C6.85882284 40.98749914 4.72228221 40.42083638 2 39 C-0.52561648 35.21157527 -0.25391573 32.21466671 -0.1953125 27.83203125 C-0.1924826 27.03721848 -0.18965271 26.2424057 -0.18673706 25.42350769 C-0.17554705 22.88635162 -0.15044491 20.34954928 -0.125 17.8125 C-0.11496866 16.09180198 -0.10584308 14.37109841 -0.09765625 12.65039062 C-0.07731355 8.43334801 -0.03816353 4.2170697 0 0 Z " fill="#101110" transform="translate(64,299)"/>
<path d="M0 0 C4.03925611 2.69283741 5.00475043 5.35550201 6 10 C4.68 9.67 3.36 9.34 2 9 C2.33 10.32 2.66 11.64 3 13 C5.86724686 12.42655063 6.8614515 12.1385485 9 10 C10.32 10 11.64 10 13 10 C13.66 11.65 14.32 13.3 15 15 C16.95292969 14.94779297 16.95292969 14.94779297 18.9453125 14.89453125 C20.67186204 14.86638099 22.39842561 14.83908216 24.125 14.8125 C25.40890625 14.77479492 25.40890625 14.77479492 26.71875 14.73632812 C31.90872628 14.67644378 35.52546123 15.04794806 40 18 C41.60982835 21.21965671 41.46076702 24.50855412 41 28 C39.24911676 31.6364498 37.96046756 33.46120112 34.4375 35.4375 C28.7348444 36.37066182 23.02357206 35.70686828 17.41015625 34.39453125 C14.86973669 33.97867651 13.43793615 34.30836636 11 35 C11.4846875 36.05445313 11.969375 37.10890625 12.46875 38.1953125 C14.63259415 43.99533344 14.51399871 49.75056303 14.5 55.875 C14.52835938 56.99519531 14.55671875 58.11539063 14.5859375 59.26953125 C14.6040247 67.01989832 13.10371752 72.41803928 9 79 C7.68 79 6.36 79 5 79 C4.95758277 76.66705225 4.95907063 74.33297433 5 72 C5.495 71.505 5.495 71.505 6 71 C6.36760731 68.67182036 6.70241581 66.3381615 7 64 C6.34 64 5.68 64 5 64 C5.061875 64.94875 5.12375 65.8975 5.1875 66.875 C5.125625 67.90625 5.06375 68.9375 5 70 C3.515 70.99 3.515 70.99 2 72 C-0.2543598 68.6184603 -0.26628727 67.39531129 -0.31884766 63.42700195 C-0.33871735 62.28604568 -0.35858704 61.14508942 -0.37905884 59.96955872 C-0.39061005 58.73823715 -0.40216125 57.50691559 -0.4140625 56.23828125 C-0.43342865 54.97735153 -0.4527948 53.71642181 -0.4727478 52.4172821 C-0.52243737 49.06852419 -0.56369435 45.71987681 -0.60089111 42.37097168 C-0.64093081 38.95229144 -0.69202326 35.53377839 -0.7421875 32.11523438 C-0.83832561 25.41026369 -0.92335146 18.70522026 -1 12 C-1.66 12 -2.32 12 -3 12 C-3.33 11.01 -3.66 10.02 -4 9 C-3.04504326 7.30712215 -2.0409066 5.64142963 -1 4 C-0.30420546 1.80869466 -0.30420546 1.80869466 0 0 Z " fill="#23AE60" transform="translate(237,160)"/>
<path d="M0 0 C2.76276177 0.52268466 5.3260876 1.10869587 8 2 C11.63 2.33 15.26 2.66 19 3 C19 22.14 19 41.28 19 61 C13.72 61 8.44 61 3 61 C-3.11842178 53.65789387 -3.11842178 53.65789387 -3.16113281 48.44604492 C-3.17074036 47.50133835 -3.1803479 46.55663177 -3.19024658 45.58329773 C-3.19449646 44.55936417 -3.19874634 43.5354306 -3.203125 42.48046875 C-3.20882507 41.42974686 -3.21452515 40.37902496 -3.22039795 39.29646301 C-3.22985652 37.06964121 -3.23638532 34.84280536 -3.24023438 32.6159668 C-3.24993071 29.21182748 -3.2809427 25.80829416 -3.3125 22.40429688 C-3.31903086 20.24219109 -3.32428101 18.08008098 -3.328125 15.91796875 C-3.3404718 14.90010788 -3.3528186 13.88224701 -3.36553955 12.83354187 C-3.33807331 4.10098281 -3.33807331 4.10098281 0 0 Z " fill="#CFF3DD" transform="translate(131,171)"/>
<path d="M0 0 C3.02945301 2.21022741 4.72281208 3.60465191 5.4675293 7.35351562 C5.62885358 10.32934859 5.64018315 13.27006441 5.59375 16.25 C5.59379028 17.34086914 5.59383057 18.43173828 5.59387207 19.55566406 C5.5885179 21.85878266 5.57093979 24.16190085 5.54199219 26.46484375 C5.50014791 29.98754795 5.50092413 33.50833923 5.5078125 37.03125 C5.4973194 39.2708466 5.48438065 41.51043336 5.46875 43.75 C5.46854858 44.80219727 5.46834717 45.85439453 5.46813965 46.93847656 C5.31691445 56.29529646 5.31691445 56.29529646 2 60 C-2 62 -2 62 -16 62 C-16 42.86 -16 23.72 -16 4 C-10.555 3.505 -10.555 3.505 -5 3 C-1.92985223 1.63543899 -1.92985223 1.63543899 0 0 Z " fill="#D3F5E0" transform="translate(230,170)"/>
<path d="M0 0 C5.86048184 0.55814113 9.53589476 2.70583305 13.8125 6.6875 C15.65347937 10.27256508 15.75334693 14.0195297 16 18 C16.99 17.505 16.99 17.505 18 17 C20.61860735 16.84887061 23.19290882 16.76866138 25.8125 16.75 C26.52470703 16.729375 27.23691406 16.70875 27.97070312 16.6875 C32.52575514 16.65379009 35.33844086 17.2664195 39 20 C38.01 20.33 37.02 20.66 36 21 C35.67 20.67 35.34 20.34 35 20 C33.60683584 19.93759727 32.21059561 19.94046155 30.81640625 19.97265625 C29.97142578 19.98490234 29.12644531 19.99714844 28.25585938 20.00976562 C26.46411034 20.04484701 24.67243441 20.08389269 22.88085938 20.12695312 C22.03458984 20.13791016 21.18832031 20.14886719 20.31640625 20.16015625 C19.14766968 20.18541382 19.14766968 20.18541382 17.95532227 20.21118164 C16 20 16 20 14 18 C14 16.68 14 15.36 14 14 C11.08482708 15.07401108 9.22189824 15.77810176 7 18 C4.875 17.625 4.875 17.625 3 17 C2.505 14.525 2.505 14.525 2 12 C3.65 12.66 5.3 13.32 7 14 C5.84826645 11.53199953 4.95216435 9.95216435 3 8 C2.505 6.515 2.505 6.515 2 5 C1.32880451 6.4562545 0.66318193 7.91507867 0 9.375 C-0.556875 10.59316406 -0.556875 10.59316406 -1.125 11.8359375 C-2.12495013 13.91998433 -2.12495013 13.91998433 -2 16 C-1.34 16 -0.68 16 0 16 C1.27621398 18.55242796 1.14546228 20.386416 1.17358398 23.24414062 C1.18707382 24.33867554 1.20056366 25.43321045 1.21446228 26.56091309 C1.23011986 28.34060486 1.23011986 28.34060486 1.24609375 30.15625 C1.27902151 32.64713907 1.31223333 35.1380244 1.34570312 37.62890625 C1.39322202 41.57272855 1.4376641 45.51653452 1.47680664 49.46044922 C1.51636821 53.25504319 1.56794195 57.04932557 1.62109375 60.84375 C1.6295079 62.03021118 1.63792206 63.21667236 1.64659119 64.43908691 C1.66323318 65.53362183 1.67987518 66.62815674 1.69702148 67.75585938 C1.71248268 69.20575256 1.71248268 69.20575256 1.72825623 70.68493652 C1.78025049 73.19348415 1.78025049 73.19348415 4 75 C4.66 72.69 5.32 70.38 6 68 C6.66 68 7.32 68 8 68 C8.04241723 70.33294775 8.04092937 72.66702567 8 75 C7.67 75.33 7.34 75.66 7 76 C6.63239269 78.32817964 6.29758419 80.6618385 6 83 C7.32 83 8.64 83 10 83 C10.28875 82.0925 10.5775 81.185 10.875 80.25 C12 77 12 77 13.05371094 75.16796875 C14.27785399 72.36343049 14.25901512 70.11815231 14.265625 67.0625 C14.26820313 65.92039062 14.27078125 64.77828125 14.2734375 63.6015625 C14.26570312 62.41304687 14.25796875 61.22453125 14.25 60 C14.25773438 58.81148437 14.26546875 57.62296875 14.2734375 56.3984375 C14.27085937 55.25632813 14.26828125 54.11421875 14.265625 52.9375 C14.26224121 51.37322266 14.26224121 51.37322266 14.25878906 49.77734375 C13.99637051 46.96104807 13.28919263 45.46316447 12 43 C12 41.68 12 40.36 12 39 C14.43338652 37.46491972 15.67124507 36.96911696 18.578125 37.2421875 C19.45984375 37.45101562 20.3415625 37.65984375 21.25 37.875 C22.14203125 38.07867187 23.0340625 38.28234375 23.953125 38.4921875 C24.62859375 38.65976563 25.3040625 38.82734375 26 39 C26 39.33 26 39.66 26 40 C22.7 39.67 19.4 39.34 16 39 C16.00523682 40.09989258 16.01047363 41.19978516 16.01586914 42.33300781 C16.03398464 46.41812322 16.04545599 50.50323507 16.05493164 54.58837891 C16.05995687 56.35563759 16.06677809 58.12289212 16.07543945 59.89013672 C16.08758428 62.43197657 16.09324645 64.9737614 16.09765625 67.515625 C16.10281754 68.30430969 16.10797882 69.09299438 16.11329651 69.90557861 C16.11420175 78.78009193 16.11420175 78.78009193 13.4765625 81.66796875 C12.56003906 82.42013672 12.56003906 82.42013672 11.625 83.1875 C11.01914063 83.69667969 10.41328125 84.20585937 9.7890625 84.73046875 C6.64352768 86.96256224 3.89478647 87.12877127 0.16191101 87.14717102 C-0.83482635 87.15432632 -1.83156372 87.16148163 -2.85850525 87.16885376 C-3.95103104 87.17154266 -5.04355682 87.17423157 -6.16918945 87.17700195 C-7.32066467 87.18357315 -8.47213989 87.19014435 -9.6585083 87.19691467 C-13.47676658 87.21665851 -17.29498553 87.22831192 -21.11328125 87.23828125 C-22.41591604 87.24235678 -23.71855083 87.2464323 -25.06065941 87.25063133 C-31.24256832 87.26967653 -37.42446533 87.28390927 -43.60639793 87.2922433 C-50.73674176 87.30201532 -57.86677513 87.32833629 -64.99700958 87.36874419 C-70.51219516 87.39892443 -76.02729183 87.41371394 -81.54255837 87.41702431 C-84.8348653 87.41937256 -88.12676476 87.43028137 -91.41900063 87.45348549 C-95.09379557 87.47777871 -98.76777664 87.47692943 -102.44262695 87.4699707 C-103.52908005 87.48278076 -104.61553314 87.49559082 -105.73490906 87.50878906 C-111.86547754 87.4664396 -115.27738345 86.98264673 -120 83 C-120.77569336 82.60901123 -121.55138672 82.21802246 -122.35058594 81.81518555 C-125.17194984 78.71026538 -124.48738875 74.98535326 -124.390625 70.95703125 C-124.38496521 70.0734343 -124.37930542 69.18983734 -124.37347412 68.27946472 C-124.35107867 65.45659257 -124.30087727 62.63498862 -124.25 59.8125 C-124.22993906 57.89910687 -124.21168758 55.98569385 -124.1953125 54.07226562 C-124.15120357 49.38102158 -124.08215485 44.69072582 -124 40 C-123.67 40 -123.34 40 -123 40 C-122.67 51.88 -122.34 63.76 -122 76 C-121.34 76 -120.68 76 -120 76 C-118.61061923 77.96147874 -117.2739589 79.96166576 -116 82 C-114.84058962 78.52176885 -115.29179116 76.54104422 -116 73 C-114.35 73 -112.7 73 -111 73 C-110.67 72.01 -110.34 71.02 -110 70 C-109.01 70.66 -108.02 71.32 -107 72 C-107 72.99 -107 73.98 -107 75 C-100.07 75.33 -93.14 75.66 -86 76 C-86 56.86 -86 37.72 -86 18 C-64.88 18 -43.76 18 -22 18 C-22 37.14 -22 56.28 -22 76 C-9.34885216 75.99305257 -9.34885216 75.99305257 -4 73 C-1.98440335 70.03307266 -1.74419778 67.57251474 -1.7253418 64.03540039 C-1.71580978 63.05080338 -1.70627777 62.06620636 -1.69645691 61.05177307 C-1.69736832 59.99441452 -1.69827972 58.93705597 -1.69921875 57.84765625 C-1.69279106 56.20923012 -1.69279106 56.20923012 -1.68623352 54.53770447 C-1.68049287 52.22867526 -1.679988 49.91962797 -1.68432617 47.6105957 C-1.68748499 44.07927575 -1.66402672 40.54879444 -1.63867188 37.01757812 C-1.63639875 34.77343856 -1.63569545 32.52929674 -1.63671875 30.28515625 C-1.627509 29.22982193 -1.61829926 28.17448761 -1.60881042 27.08717346 C-1.64246196 21.75077938 -1.81708743 18.47003434 -5 14 C-3.8125 11.1875 -3.8125 11.1875 -2 8 C-1.19554806 5.35201237 -0.60597127 2.70356413 0 0 Z M-85 19 C-84.96040495 37.33961426 -84.96040495 37.33961426 -84.90991211 55.67919922 C-84.90699268 57.97102817 -84.90444419 60.26285765 -84.90234375 62.5546875 C-84.89722778 63.75359619 -84.89211182 64.95250488 -84.88684082 66.18774414 C-84.88671997 67.32445557 -84.88659912 68.46116699 -84.88647461 69.63232422 C-84.884254 70.62271698 -84.88203339 71.61310974 -84.87974548 72.6335144 C-85 75 -85 75 -86 77 C-88.70860665 77.05429278 -91.41610901 77.09381211 -94.125 77.125 C-94.88554687 77.14175781 -95.64609375 77.15851563 -96.4296875 77.17578125 C-101.03270731 77.21546246 -104.66464004 76.75907577 -109 75 C-110.10836423 76.88316159 -110.10836423 76.88316159 -111 79 C-110.67 79.66 -110.34 80.32 -110 81 C-107.47266765 81.65555119 -107.47266765 81.65555119 -105 82 C-104.505 83.485 -104.505 83.485 -104 85 C-90.47464 85.04626117 -76.9492987 85.08183748 -63.42387581 85.10362434 C-57.14404641 85.11407887 -50.86427099 85.12826845 -44.58447266 85.15087891 C-38.52853741 85.17254784 -32.47265421 85.18455604 -26.4166832 85.18975449 C-24.10172582 85.19346097 -21.78677142 85.20069836 -19.47183609 85.21146011 C-16.23913581 85.22589595 -13.0066529 85.22798127 -9.77392578 85.22705078 C-8.3259964 85.23783661 -8.3259964 85.23783661 -6.84881592 85.24884033 C-5.53208389 85.24471634 -5.53208389 85.24471634 -4.18875122 85.24050903 C-3.04111896 85.24327441 -3.04111896 85.24327441 -1.8703022 85.24609566 C0.2450588 85.16081949 0.2450588 85.16081949 2 83 C1.66083005 79.81180248 1.01406317 77.04218951 0 74 C0 74.66 0 75.32 0 76 C-7.19834976 77.43966995 -14.65909482 77 -22 77 C-22.495 48.29 -22.495 48.29 -23 19 C-43.46 19 -63.92 19 -85 19 Z " fill="#3FAB67" transform="translate(236,156)"/>
<path d="M0 0 C5.57894737 3.15789474 5.57894737 3.15789474 7 6 C7.11091903 8.47172349 7.16410147 10.91436933 7.16796875 13.38671875 C7.17129715 14.12195267 7.17462555 14.85718658 7.17805481 15.61470032 C7.18312271 17.17403538 7.18546318 18.73338132 7.18530273 20.29272461 C7.18747553 22.66083107 7.20559407 25.02846122 7.22460938 27.39648438 C7.2275462 28.91406092 7.22952906 30.43163966 7.23046875 31.94921875 C7.23765427 32.65052414 7.24483978 33.35182953 7.25224304 34.0743866 C7.23114175 38.69515422 6.62754538 42.66879858 5 47 C0.75693718 49.82870855 -3.01961899 49.64500016 -8 49 C-10.5625 47.4375 -10.5625 47.4375 -12 45 C-13.24922657 38.05736744 -13.29181169 31.10525508 -13.35009766 24.07470703 C-13.36674157 22.60449487 -13.39414163 21.13436634 -13.43212891 19.66455078 C-13.48698269 17.52334521 -13.50876647 15.38400128 -13.5234375 13.2421875 C-13.54325684 11.9722998 -13.56307617 10.70241211 -13.58349609 9.39404297 C-12.84879073 5.12045552 -11.31274569 3.69624677 -8 1 C-5.13391871 -0.43304064 -3.18699217 -0.30644155 0 0 Z " fill="#E74A3D" transform="translate(194,23)"/>
<path d="M0 0 C3.82057507 1.69803336 5.48923275 3.14008189 7 7 C7.25878906 9.68554688 7.25878906 9.68554688 7.265625 12.71875 C7.26949219 14.36423828 7.26949219 14.36423828 7.2734375 16.04296875 C7.26570313 17.18378906 7.25796875 18.32460938 7.25 19.5 C7.25773437 20.64082031 7.26546875 21.78164063 7.2734375 22.95703125 C7.27085937 24.05402344 7.26828125 25.15101562 7.265625 26.28125 C7.26336914 27.28220703 7.26111328 28.28316406 7.25878906 29.31445312 C6.99396522 32.06262509 6.47598099 33.68679738 5 36 C0.77570765 38.84047244 -4.10587206 38.91205046 -9 38 C-13.64539057 33.46791164 -13.92282125 27.83123212 -14.04760742 21.63671875 C-14.01915061 19.17013182 -13.92661137 16.71403186 -13.8125 14.25 C-13.79380859 13.41339844 -13.77511719 12.57679687 -13.75585938 11.71484375 C-13.47908575 5.62582398 -13.47908575 5.62582398 -11.07421875 2.484375 C-7.25545848 -0.24844779 -4.70544423 -0.31901317 0 0 Z " fill="#E74B3D" transform="translate(221,34)"/>
<path d="M0 0 C1.6875 1.1875 1.6875 1.1875 3.6875 4.1875 C4.0222168 6.23706055 4.0222168 6.23706055 4.13671875 8.57421875 C4.17990234 9.43080078 4.22308594 10.28738281 4.26757812 11.16992188 C4.32075195 12.50893555 4.32075195 12.50893555 4.375 13.875 C4.42205078 14.74833984 4.46910156 15.62167969 4.51757812 16.52148438 C5.13252032 30.01996953 5.13252032 30.01996953 1.6875 35.1875 C-1.87227966 37.56068644 -4.02022389 37.85201269 -8.21875 37.62109375 C-11.24594686 36.99419291 -12.60415467 35.71288005 -14.3125 33.1875 C-14.3125 32.5275 -14.3125 31.8675 -14.3125 31.1875 C-14.9725 31.1875 -15.6325 31.1875 -16.3125 31.1875 C-17.57240008 26.47945232 -17.2865715 22.05890533 -17 17.25 C-16.96455078 16.46431641 -16.92910156 15.67863281 -16.89257812 14.86914062 C-16.63899075 10.3462017 -16.12036172 6.40369181 -14.3125 2.1875 C-10.02908678 -1.48399705 -5.28261522 -1.856054 0 0 Z " fill="#E44C3D" transform="translate(170.3125,34.8125)"/>
<path d="M0 0 C0.66 0 1.32 0 2 0 C2.32613281 0.78246094 2.65226563 1.56492187 2.98828125 2.37109375 C3.42527344 3.38300781 3.86226562 4.39492187 4.3125 5.4375 C4.74175781 6.44683594 5.17101562 7.45617187 5.61328125 8.49609375 C6.80278223 11.31020584 6.80278223 11.31020584 10 12 C10 12.99 10 13.98 10 15 C11.32 14.67 12.64 14.34 14 14 C14.33 14.66 14.66 15.32 15 16 C15.33 15.34 15.66 14.68 16 14 C16.99 14 17.98 14 19 14 C19.33 15.32 19.66 16.64 20 18 C20.75716309 17.86215088 21.51432617 17.72430176 22.29443359 17.58227539 C31.08521143 16.09277493 39.72310376 15.61211078 48.625 15.4375 C56.68726009 15.25870776 64.70110667 15.0578841 72.7253418 14.20947266 C75.8328999 13.92329847 78.88183724 13.93070749 82 14 C82 14.66 82 15.32 82 16 C78.84274244 18.10483837 77.60149717 18.30888017 73.9375 18.5625 C70.33239957 18.77633446 70.33239957 18.77633446 67 20 C67 20.99 67 21.98 67 23 C74.26 22.67 81.52 22.34 89 22 C88.505 23.485 88.505 23.485 88 25 C84.88235671 26.23235172 81.69962487 26.1440404 78.38037109 26.17700195 C77.25174652 26.18983719 76.12312195 26.20267242 74.96029663 26.21589661 C73.13530136 26.22697701 73.13530136 26.22697701 71.2734375 26.23828125 C69.38644638 26.25038887 69.38644638 26.25038887 67.46133423 26.26274109 C64.79661386 26.27657374 62.1320168 26.28759158 59.46728516 26.29516602 C56.07817353 26.30618801 52.68972616 26.34054757 49.30084801 26.38033772 C46.04177819 26.41301354 42.78264611 26.4173011 39.5234375 26.42578125 C38.31891937 26.44328934 37.11440125 26.46079742 35.87338257 26.47883606 C25.29727241 26.451873 17.83902121 24.07423865 10 17 C9.01 16.67 8.02 16.34 7 16 C5.4296875 13.41796875 5.4296875 13.41796875 3.875 10.1875 C3.35679687 9.12917969 2.83859375 8.07085937 2.3046875 6.98046875 C1.26867178 4.61376219 0.50023081 2.51945518 0 0 Z " fill="#2AAD60" transform="translate(128,116)"/>
<path d="M0 0 C10.89 0 21.78 0 33 0 C33 5.28 33 10.56 33 16 C22.11 16 11.22 16 0 16 C0 10.72 0 5.44 0 0 Z " fill="#292929" transform="translate(264,299)"/>
<path d="M0 0 C10.56 0 21.12 0 32 0 C32 5.28 32 10.56 32 16 C21.44 16 10.88 16 0 16 C0 10.72 0 5.44 0 0 Z " fill="#292929" transform="translate(67,299)"/>
<path d="M0 0 C2.49935058 0.4628427 4.17987412 1.10887118 6.375 2.4375 C11.28317723 5.35903406 15.70114052 6.25019943 21.37255859 6.22705078 C23.23380875 6.22682419 23.23380875 6.22682419 25.13265991 6.22659302 C26.47125411 6.21638225 27.80984663 6.2059503 29.1484375 6.1953125 C30.52991531 6.19157813 31.91139578 6.18873316 33.2928772 6.18673706 C36.91293771 6.17913392 40.53283543 6.15951437 44.15283203 6.1373291 C47.85316771 6.11679878 51.55352992 6.10772004 55.25390625 6.09765625 C62.50267804 6.07626499 69.75131613 6.04216964 77 6 C77.33 5.01 77.66 4.02 78 3 C82.33333333 0 82.33333333 0 85 0 C84.63166144 6.38453501 84.63166144 6.38453501 81.5625 9.375 C77.50338034 11.94907588 75.27858217 12.14193308 70.44238281 12.19287109 C69.76897858 12.20104858 69.09557434 12.20922607 68.40176392 12.21765137 C66.16889331 12.24250159 63.93608636 12.25902202 61.703125 12.2734375 C60.94016869 12.27876118 60.17721237 12.28408485 59.39113617 12.28956985 C55.35126246 12.31630235 51.31141963 12.33567516 47.27148438 12.35009766 C43.1038799 12.36672832 38.93706886 12.41149136 34.76976395 12.4624691 C31.56120933 12.49617313 28.35284212 12.50767854 25.14412689 12.51332474 C23.60834452 12.52003069 22.07257421 12.53523594 20.53696442 12.55921555 C18.38239022 12.5909356 16.22994293 12.59089514 14.07519531 12.58349609 C12.23891571 12.59562637 12.23891571 12.59562637 10.36553955 12.60800171 C5.81619811 11.78614021 4.20128258 10.31073932 1 7 C0.125 3.1875 0.125 3.1875 0 0 Z " fill="#C2382A" transform="translate(139,135)"/>
<path d="M0 0 C0.03738281 0.75925781 0.07476562 1.51851562 0.11328125 2.30078125 C0.21189453 3.79158203 0.21189453 3.79158203 0.3125 5.3125 C0.37050781 6.29863281 0.42851562 7.28476563 0.48828125 8.30078125 C1.04622813 11.24384457 1.68540132 12.18182999 4 14 C2.125 18.75 2.125 18.75 1 21 C0.89012726 22.50985303 0.84094792 24.02434686 0.82299805 25.53808594 C0.81016281 26.47956482 0.79732758 27.4210437 0.78410339 28.39105225 C0.77671646 29.41184875 0.76932953 30.43264526 0.76171875 31.484375 C0.753647 32.53272522 0.74557526 33.58107544 0.73725891 34.66119385 C0.72341066 36.88381289 0.71269183 39.10645327 0.70483398 41.32910156 C0.68763976 44.72241777 0.64376155 48.11475516 0.59960938 51.5078125 C0.58948095 53.6666595 0.58096532 55.82551478 0.57421875 57.984375 C0.55671066 58.99707458 0.53920258 60.00977417 0.52116394 61.05316162 C0.53963801 67.07793369 1.11215092 70.34707592 5 75 C5.495 75.99 5.495 75.99 6 77 C3.625 76.75 3.625 76.75 1 76 C-1.0287612 72.94985053 -1.26627237 70.38263034 -1.31884766 66.77246094 C-1.33871735 65.73168396 -1.35858704 64.69090698 -1.37905884 63.61859131 C-1.39061005 62.50179993 -1.40216125 61.38500854 -1.4140625 60.234375 C-1.43342865 59.08584045 -1.4527948 57.93730591 -1.4727478 56.75396729 C-1.53252126 53.0860537 -1.57892064 49.41810871 -1.625 45.75 C-1.66318178 43.26300716 -1.70223362 40.77602751 -1.7421875 38.2890625 C-1.83822105 32.19282547 -1.92327529 26.09650896 -2 20 C-4.475 19.01 -4.475 19.01 -7 18 C-7.33 18.66 -7.66 19.32 -8 20 C-11.98866127 20.99716532 -15.0323069 21.0502717 -19 20 C-18.34 19.34 -17.68 18.68 -17 18 C-16.5065866 15.96591811 -16.5065866 15.96591811 -16.1875 13.6875 C-15.21059164 9.06938774 -13.8815588 6.89052251 -10 4 C-2.27631579 0 -2.27631579 0 0 0 Z " fill="#32AB61" transform="translate(128,155)"/>
<path d="M0 0 C5.57894737 3.15789474 5.57894737 3.15789474 7 6 C7.11091903 8.47172349 7.16410147 10.91436933 7.16796875 13.38671875 C7.17129715 14.12195267 7.17462555 14.85718658 7.17805481 15.61470032 C7.18312271 17.17403538 7.18546318 18.73338132 7.18530273 20.29272461 C7.18747553 22.66083107 7.20559407 25.02846122 7.22460938 27.39648438 C7.2275462 28.91406092 7.22952906 30.43163966 7.23046875 31.94921875 C7.23765427 32.65052414 7.24483978 33.35182953 7.25224304 34.0743866 C7.23114175 38.69515422 6.62754538 42.66879858 5 47 C0.75693718 49.82870855 -3.01961899 49.64500016 -8 49 C-10.5625 47.4375 -10.5625 47.4375 -12 45 C-13.24922657 38.05736744 -13.29181169 31.10525508 -13.35009766 24.07470703 C-13.36674157 22.60449487 -13.39414163 21.13436634 -13.43212891 19.66455078 C-13.48698269 17.52334521 -13.50876647 15.38400128 -13.5234375 13.2421875 C-13.54325684 11.9722998 -13.56307617 10.70241211 -13.58349609 9.39404297 C-12.84879073 5.12045552 -11.31274569 3.69624677 -8 1 C-5.13391871 -0.43304064 -3.18699217 -0.30644155 0 0 Z M-9 3 C-12.03285381 6.03285381 -11.32502867 9.51674679 -11.3359375 13.5859375 C-11.3425943 14.43926666 -11.3492511 15.29259583 -11.35610962 16.17178345 C-11.36624478 17.97908367 -11.37092637 19.78642139 -11.37060547 21.59375 C-11.37497219 24.35740036 -11.41126312 27.11944561 -11.44921875 29.8828125 C-11.45508806 31.63801537 -11.45905669 33.39322583 -11.4609375 35.1484375 C-11.47530853 35.97459564 -11.48967957 36.80075378 -11.50448608 37.65194702 C-11.46993131 42.43830634 -11.46993131 42.43830634 -9.10498047 46.52880859 C-5.66212027 48.93505721 -3.1032183 48.27354789 1 48 C1.33 46.35 1.66 44.7 2 43 C1.01 43 0.02 43 -1 43 C-1 42.34 -1 41.68 -1 41 C-0.38125 40.855625 0.2375 40.71125 0.875 40.5625 C3.03258322 40.06847775 3.03258322 40.06847775 5 39 C5 28.11 5 17.22 5 6 C4.01 5.67 3.02 5.34 2 5 C2 5.66 2 6.32 2 7 C-0.97 7 -3.94 7 -7 7 C-6.67 5.68 -6.34 4.36 -6 3 C-6.99 3 -7.98 3 -9 3 Z " fill="#CE5245" transform="translate(194,23)"/>
<path d="M0 0 C6.875 0.875 6.875 0.875 8 2 C8.12375 3.11375 8.2475 4.2275 8.375 5.375 C9.06016878 9.48004455 9.06016878 9.48004455 12 12 C14.40718864 12.43718957 14.40718864 12.43718957 17 12.3125 C18.299375 12.30669922 18.299375 12.30669922 19.625 12.30078125 C22.26417937 12.1458217 22.26417937 12.1458217 25 10 C25.79437923 7.81494871 25.79437923 7.81494871 26.1875 5.375 C26.42533203 4.14910156 26.42533203 4.14910156 26.66796875 2.8984375 C26.77753906 2.27195313 26.88710937 1.64546875 27 1 C28.98 1 30.96 1 33 1 C33.66 3.64 34.32 6.28 35 9 C34.34 9 33.68 9 33 9 C33 7.35 33 5.7 33 4 C31.68 4 30.36 4 29 4 C29 4.99 29 5.98 29 7 C28.34 7 27.68 7 27 7 C27 8.32 27 9.64 27 11 C27.99 11.33 28.98 11.66 30 12 C29.67 13.65 29.34 15.3 29 17 C28.01 17 27.02 17 26 17 C25.505 16.01 25.505 16.01 25 15 C21.97065509 14.34227572 21.97065509 14.34227572 19 14 C19 14.66 19 15.32 19 16 C18.01 16 17.02 16 16 16 C16 16.99 16 17.98 16 19 C14.68 19 13.36 19 12 19 C12.66 17.35 13.32 15.7 14 14 C10.88214887 14.64644661 10.88214887 14.64644661 10 17 C9.34 17 8.68 17 8 17 C7.01 19.475 7.01 19.475 6 22 C5.34 21.67 4.68 21.34 4 21 C4.309375 20.4225 4.61875 19.845 4.9375 19.25 C5.92583364 17.15705816 6.5168613 15.25464725 7 13 C7.66 13 8.32 13 9 13 C8.01 11.35 7.02 9.7 6 8 C4.02463255 8.34786708 4.02463255 8.34786708 2 9 C1.67 9.66 1.34 10.32 1 11 C1.66 11 2.32 11 3 11 C3.33 12.98 3.66 14.96 4 17 C3.34 17 2.68 17 2 17 C1.34 15.02 0.68 13.04 0 11 C-0.53496094 11.48726562 -1.06992188 11.97453125 -1.62109375 12.4765625 C-4.61732394 14.3953306 -6.52867452 14.4012738 -10.0625 14.375 C-11.62677734 14.38660156 -11.62677734 14.38660156 -13.22265625 14.3984375 C-16 14 -16 14 -17.890625 12.61328125 C-19 11 -19 11 -18.6875 8.8125 C-18.3471875 7.9153125 -18.3471875 7.9153125 -18 7 C-17.525625 7.825 -17.05125 8.65 -16.5625 9.5 C-13.76084632 12.23332066 -13.2143328 12.42175922 -9.5 12.5625 C-6.48718262 12.36924362 -5.13239285 12.07943571 -2.5 10.5 C-0.38725822 6.9787637 -0.27238481 4.08577216 0 0 Z " fill="#4F9E5B" transform="translate(174,59)"/>
<path d="M0 0 C-1.63412443 1.70840281 -2.86906094 2.93453047 -5 4 C-5.26904331 6.11871606 -5.52672704 8.2397585 -5.71484375 10.3671875 C-6.17712104 14.63533675 -7.09821835 18.80627757 -8 23 C-9.32 23 -10.64 23 -12 23 C-11.67 25.97 -11.34 28.94 -11 32 C-10.34 31.67 -9.68 31.34 -9 31 C-8.67 30.01 -8.34 29.02 -8 28 C-7.34 28 -6.68 28 -6 28 C-5.855625 29.093125 -5.71125 30.18625 -5.5625 31.3125 C-5.11711896 34.93122987 -5.11711896 34.93122987 -4 38 C-8.43843439 36.60506348 -10.9434964 34.48101799 -14 31 C-15.26261005 27.21216985 -15.22317056 23.63478174 -15.25 19.6875 C-15.270625 18.94048828 -15.29125 18.19347656 -15.3125 17.42382812 C-15.34686209 12.53152519 -14.68382262 9.24566714 -12 5 C-7.86427642 1.26776164 -5.53706275 -0.14571218 0 0 Z " fill="#29AD61" transform="translate(132,77)"/>
<path d="M0 0 C0.66 0 1.32 0 2 0 C2.32613281 0.78246094 2.65226563 1.56492187 2.98828125 2.37109375 C3.42527344 3.38300781 3.86226562 4.39492187 4.3125 5.4375 C4.74175781 6.44683594 5.17101562 7.45617187 5.61328125 8.49609375 C6.80278223 11.31020584 6.80278223 11.31020584 10 12 C10 12.99 10 13.98 10 15 C11.32 14.67 12.64 14.34 14 14 C14.061875 14.598125 14.12375 15.19625 14.1875 15.8125 C15.52950283 19.42558453 18.71033675 20.35516837 22 22 C28.59657942 23.01046785 35.23066318 23.14876593 41.890625 23.1328125 C42.79770203 23.13376923 43.70477905 23.13472595 44.63934326 23.13571167 C46.54520742 23.13638723 48.45107396 23.13457686 50.35693359 23.13037109 C53.22889551 23.12503918 56.10069926 23.1303246 58.97265625 23.13671875 C69.03080329 23.13998057 78.9779981 22.93490413 89 22 C88.505 23.485 88.505 23.485 88 25 C84.88235671 26.23235172 81.69962487 26.1440404 78.38037109 26.17700195 C77.25174652 26.18983719 76.12312195 26.20267242 74.96029663 26.21589661 C73.13530136 26.22697701 73.13530136 26.22697701 71.2734375 26.23828125 C69.38644638 26.25038887 69.38644638 26.25038887 67.46133423 26.26274109 C64.79661386 26.27657374 62.1320168 26.28759158 59.46728516 26.29516602 C56.07817353 26.30618801 52.68972616 26.34054757 49.30084801 26.38033772 C46.04177819 26.41301354 42.78264611 26.4173011 39.5234375 26.42578125 C38.31891937 26.44328934 37.11440125 26.46079742 35.87338257 26.47883606 C25.29727241 26.451873 17.83902121 24.07423865 10 17 C9.01 16.67 8.02 16.34 7 16 C5.4296875 13.41796875 5.4296875 13.41796875 3.875 10.1875 C3.35679687 9.12917969 2.83859375 8.07085937 2.3046875 6.98046875 C1.26867178 4.61376219 0.50023081 2.51945518 0 0 Z " fill="#738E53" transform="translate(128,116)"/>
<path d="M0 0 C0.99 0 1.98 0 3 0 C3 19.14 3 38.28 3 58 C1.35 57.67 -0.3 57.34 -2 57 C-2 56.01 -2 55.02 -2 54 C-1.01 54 -0.02 54 1 54 C1.33 52.35 1.66 50.7 2 49 C1.34 49 0.68 49 0 49 C0 32.83 0 16.66 0 0 Z " fill="#32AC61" transform="translate(210,175)"/>
<path d="M0 0 C2.49935058 0.4628427 4.17987412 1.10887118 6.375 2.4375 C11.12296885 5.26367193 15.51660895 6.24694248 21.00537109 6.31884766 C22.16612152 6.33871735 23.32687195 6.35858704 24.52279663 6.37905884 C25.76050812 6.39061005 26.9982196 6.40216125 28.2734375 6.4140625 C29.55231842 6.43342865 30.83119934 6.4527948 32.14883423 6.4727478 C35.53207162 6.52228279 38.91520382 6.56360235 42.29858398 6.60089111 C45.75774773 6.64105483 49.21674963 6.69209044 52.67578125 6.7421875 C59.45041644 6.83810704 66.22512263 6.9231921 73 7 C73 7.33 73 7.66 73 8 C52.54 8 32.08 8 11 8 C11 9.32 11 10.64 11 12 C6.75254576 11.80244399 5.25575306 11.24463336 2.125 8.25 C0.00034484 5.0005274 -0.55231227 3.75572342 0 0 Z " fill="#B4432F" transform="translate(139,135)"/>
<path d="M0 0 C0.33 0.66 0.66 1.32 1 2 C1.66 2 2.32 2 3 2 C4.27469407 4.54938815 4.12016184 6.33040998 4.11352539 9.18408203 C4.11341209 10.80553635 4.11341209 10.80553635 4.11329651 12.45974731 C4.10813522 13.63060883 4.10297394 14.80147034 4.09765625 16.0078125 C4.0962413 17.20356903 4.09482635 18.39932556 4.09336853 19.63131714 C4.08775663 23.46256987 4.07520208 27.29376484 4.0625 31.125 C4.05748653 33.71744707 4.05292336 36.30989506 4.04882812 38.90234375 C4.03778333 45.26824898 4.02103359 51.63412037 4 58 C2.35 58.66 0.7 59.32 -1 60 C-0.67501022 59.27973633 -0.35002045 58.55947266 -0.0151825 57.81738281 C1.01620053 54.95503951 1.24791512 52.94370661 1.24291992 49.921875 C1.24599655 48.93735352 1.24907318 47.95283203 1.25224304 46.93847656 C1.24505753 45.8862793 1.23787201 44.83408203 1.23046875 43.75 C1.23001053 42.65913086 1.22955231 41.56826172 1.2290802 40.44433594 C1.22606339 38.14126496 1.21819421 35.83819591 1.20581055 33.53515625 C1.18756706 30.01294715 1.18530091 26.4910014 1.18554688 22.96875 C1.18063076 20.7291644 1.17480203 18.48958057 1.16796875 16.25 C1.16685593 15.19780273 1.1657431 14.14560547 1.16459656 13.06152344 C1.15502678 11.58474121 1.15502678 11.58474121 1.14526367 10.078125 C1.14145187 9.21606445 1.13764008 8.35400391 1.13371277 7.46582031 C0.99435389 4.89587902 0.56414716 2.50817796 0 0 Z " fill="#42AB6F" transform="translate(233,170)"/>
<path d="M0 0 C0.495 0.99 0.495 0.99 1 2 C-4.43069172 5.61137782 -8.14941507 6.57999776 -14.60986328 6.48583984 C-15.44166107 6.48963654 -16.27345886 6.49343323 -17.13046265 6.49734497 C-19.86080478 6.50471253 -22.59006611 6.48342533 -25.3203125 6.4609375 C-27.22646968 6.45855111 -29.13262924 6.45764817 -31.03878784 6.4581604 C-35.02486999 6.4550391 -39.01059076 6.43852302 -42.99658203 6.41162109 C-48.10215502 6.37759616 -53.20733234 6.36999426 -58.31300545 6.37151146 C-62.24555223 6.37096736 -66.17801278 6.35999444 -70.11053085 6.34550858 C-71.99316633 6.33915223 -73.87581156 6.33520441 -75.75845718 6.33372116 C-78.38878239 6.3293784 -81.01869046 6.31185781 -83.64892578 6.29052734 C-84.81171051 6.2918869 -84.81171051 6.2918869 -85.99798584 6.29327393 C-90.09935937 6.24470948 -93.30844618 5.83236437 -97 4 C-93.74251933 2.97706647 -91.20654988 3.04468495 -87.82836914 3.42480469 C-79.80337201 4.18013064 -71.79802578 4.18378158 -63.74609375 4.203125 C-62.54360332 4.20736607 -62.54360332 4.20736607 -61.31682014 4.21169281 C-57.09231373 4.22655131 -52.86784043 4.23587052 -48.64331055 4.24023438 C-44.28535782 4.24576724 -39.92770997 4.26993261 -35.56985378 4.29820633 C-32.20617247 4.31678821 -28.84256628 4.32203544 -25.47883797 4.32357025 C-23.87084306 4.3265964 -22.26284946 4.33462368 -20.65490532 4.34775543 C-18.4173979 4.36475809 -16.18066052 4.36295293 -13.94311523 4.35644531 C-12.67136948 4.36009094 -11.39962372 4.36373657 -10.08934021 4.36749268 C-6.74680734 3.96988145 -6.01946054 3.55324373 -4 1 C-1.8125 0.3125 -1.8125 0.3125 0 0 Z " fill="#B97758" transform="translate(231,168)"/>
<path d="M0 0 C1.32 0 2.64 0 4 0 C4 1.65 4 3.3 4 5 C4.99 5 5.98 5 7 5 C7.99 6.485 7.99 6.485 9 8 C11.26503352 8.40315796 11.26503352 8.40315796 13.8125 8.25 C14.70324219 8.22421875 15.59398437 8.1984375 16.51171875 8.171875 C19.07839181 7.99458518 21.51157815 7.66357916 24 7 C24 7.66 24 8.32 24 9 C22.7934375 9.3403125 22.7934375 9.3403125 21.5625 9.6875 C20.716875 10.120625 19.87125 10.55375 19 11 C18.10613836 13.54775306 18.10613836 13.54775306 18 16 C15.69 15.01 13.38 14.02 11 13 C11 12.01 11 11.02 11 10 C8.69 10.33 6.38 10.66 4 11 C4 10.34 4 9.68 4 9 C3.071875 8.7834375 3.071875 8.7834375 2.125 8.5625 C0 8 0 8 -2 7 C-2 5.68 -2 4.36 -2 3 C-1.34 3 -0.68 3 0 3 C0 2.01 0 1.02 0 0 Z " fill="#31AB5F" transform="translate(203,63)"/>
<path d="M0 0 C1.33804687 0.30550781 1.33804687 0.30550781 2.703125 0.6171875 C3.37859375 0.78476563 4.0540625 0.95234375 4.75 1.125 C4.75 1.455 4.75 1.785 4.75 2.125 C1.45 1.795 -1.85 1.465 -5.25 1.125 C-5.24214478 2.77483887 -5.24214478 2.77483887 -5.23413086 4.45800781 C-5.21601536 8.54312322 -5.20454401 12.62823507 -5.19506836 16.71337891 C-5.19004313 18.48063759 -5.18322191 20.24789212 -5.17456055 22.01513672 C-5.16241572 24.55697657 -5.15675355 27.0987614 -5.15234375 29.640625 C-5.14718246 30.42930969 -5.14202118 31.21799438 -5.13670349 32.03057861 C-5.1358075 40.81436585 -5.1358075 40.81436585 -7.66796875 43.79296875 C-11.3934718 46.99213142 -14.11388472 49.125 -19.25 49.125 C-20.24 48.465 -21.23 47.805 -22.25 47.125 C-21.1775 46.980625 -20.105 46.83625 -19 46.6875 C-17.7625 46.501875 -16.525 46.31625 -15.25 46.125 C-14.486875 46.063125 -13.72375 46.00125 -12.9375 45.9375 C-10.91105158 45.19581059 -10.91105158 45.19581059 -10.125 42.3125 C-9.83625 41.260625 -9.5475 40.20875 -9.25 39.125 C-8.90743164 38.52171875 -8.56486328 37.9184375 -8.21191406 37.296875 C-6.9682756 34.48890348 -6.99100796 32.25382253 -6.984375 29.1875 C-6.98179687 28.04539063 -6.97921875 26.90328125 -6.9765625 25.7265625 C-6.98429688 24.53804687 -6.99203125 23.34953125 -7 22.125 C-6.99226562 20.93648437 -6.98453125 19.74796875 -6.9765625 18.5234375 C-6.97914063 17.38132813 -6.98171875 16.23921875 -6.984375 15.0625 C-6.98663086 14.01964844 -6.98888672 12.97679687 -6.99121094 11.90234375 C-7.25362949 9.08604807 -7.96080737 7.58816447 -9.25 5.125 C-9.25 3.805 -9.25 2.485 -9.25 1.125 C-5.82794357 -1.03377391 -3.8855015 -0.92025036 0 0 Z " fill="#3F9F63" transform="translate(257.25,193.875)"/>
<path d="M0 0 C-1.63412443 1.70840281 -2.86906094 2.93453047 -5 4 C-5.99 5.485 -5.99 5.485 -7 7 C-8.2684375 7.495 -8.2684375 7.495 -9.5625 8 C-10.7690625 8.495 -10.7690625 8.495 -12 9 C-12.90238747 11.70716242 -13.11851302 13.23776768 -13.09765625 16.01171875 C-13.09443359 16.76904297 -13.09121094 17.52636719 -13.08789062 18.30664062 C-13.07951172 19.09232422 -13.07113281 19.87800781 -13.0625 20.6875 C-13.05798828 21.48478516 -13.05347656 22.28207031 -13.04882812 23.10351562 C-13.0370585 25.06904257 -13.01912348 27.03453085 -13 29 C-12.34 29 -11.68 29 -11 29 C-11 29.99 -11 30.98 -11 32 C-10.34 31.67 -9.68 31.34 -9 31 C-8.67 30.01 -8.34 29.02 -8 28 C-7.34 28 -6.68 28 -6 28 C-5.855625 29.093125 -5.71125 30.18625 -5.5625 31.3125 C-5.11711896 34.93122987 -5.11711896 34.93122987 -4 38 C-8.43843439 36.60506348 -10.9434964 34.48101799 -14 31 C-15.26261005 27.21216985 -15.22317056 23.63478174 -15.25 19.6875 C-15.270625 18.94048828 -15.29125 18.19347656 -15.3125 17.42382812 C-15.34686209 12.53152519 -14.68382262 9.24566714 -12 5 C-7.86427642 1.26776164 -5.53706275 -0.14571218 0 0 Z " fill="#469F68" transform="translate(132,77)"/>
<path d="M0 0 C1.32 0.33 2.64 0.66 4 1 C-0.75 4 -0.75 4 -3 4 C-3.0825 4.825 -3.165 5.65 -3.25 6.5 C-5.38490283 16.4628799 -10.95953333 21.01123862 -19 27 C-19.66 26.67 -20.32 26.34 -21 26 C-19.6875 24 -19.6875 24 -18 22 C-17.01 22 -16.02 22 -15 22 C-15 21.34 -15 20.68 -15 20 C-13.824375 19.13375 -13.824375 19.13375 -12.625 18.25 C-9.60192016 15.65878871 -8.95078902 13.80315606 -8 10 C-9.65 10.33 -11.3 10.66 -13 11 C-13.33 9.68 -13.66 8.36 -14 7 C-13.0925 6.731875 -12.185 6.46375 -11.25 6.1875 C-8.03932599 5.19729814 -8.03932599 5.19729814 -5.875 3.375 C-4 2 -4 2 0 2 C0 1.34 0 0.68 0 0 Z " fill="#3BA565" transform="translate(238,111)"/>
<path d="M0 0 C4.68055917 3.43241006 7.30615854 6.29446642 9 12 C9.25607394 14.72594837 9.38366175 17.16661009 9.3125 19.875 C9.3026709 20.57246338 9.2928418 21.26992676 9.28271484 21.98852539 C9.15163666 27.26044107 8.58619789 31.97704001 7 37 C6.01 37.495 6.01 37.495 5 38 C5.99 29.75 6.98 21.5 8 13 C7.34 13 6.68 13 6 13 C6 12.01 6 11.02 6 10 C5.01 10 4.02 10 3 10 C3 9.34 3 8.68 3 8 C1.02 8.66 -0.96 9.32 -3 10 C-3.75 7.25 -3.75 7.25 -4 4 C-2.0625 1.625 -2.0625 1.625 0 0 Z " fill="#D15441" transform="translate(227,130)"/>
<path d="M0 0 C2.875 1.3125 2.875 1.3125 5 3 C5.33 3.99 5.66 4.98 6 6 C5.34 6 4.68 6 4 6 C3.67 5.34 3.34 4.68 3 4 C2.443125 4.33 1.88625 4.66 1.3125 5 C-1.35263324 6.15249005 -3.12393149 6.30274405 -6 6 C-6.66 5.34 -7.32 4.68 -8 4 C-8.33 4.66 -8.66 5.32 -9 6 C-9.99 6 -10.98 6 -12 6 C-11.67 15.24 -11.34 24.48 -11 34 C-14.3003152 30.6996848 -13.95956934 26.10934997 -14.04541016 21.63085938 C-14.0191362 19.16606496 -13.92652709 16.71221208 -13.8125 14.25 C-13.79380859 13.41339844 -13.77511719 12.57679687 -13.75585938 11.71484375 C-13.47908575 5.62582398 -13.47908575 5.62582398 -11.07421875 2.484375 C-7.25545848 -0.24844779 -4.70544423 -0.31901317 0 0 Z " fill="#D84F3F" transform="translate(221,34)"/>
<path d="M0 0 C0 2.97 0 5.94 0 9 C-0.763125 8.814375 -1.52625 8.62875 -2.3125 8.4375 C-5.08967375 7.77180827 -5.08967375 7.77180827 -8 9 C-8.33 9.99 -8.66 10.98 -9 12 C-10.65 12.33 -12.3 12.66 -14 13 C-14 11.35 -14 9.7 -14 8 C-12.68 7.67 -11.36 7.34 -10 7 C-10 5.35 -10 3.7 -10 2 C-6.38026598 0.68373308 -3.90432869 0 0 0 Z " fill="#1DAE60" transform="translate(127,159)"/>
<path d="M0 0 C2.4375 0.8125 2.4375 0.8125 4.4375 2.8125 C3.7775 2.8125 3.1175 2.8125 2.4375 2.8125 C3.0975 5.4525 3.7575 8.0925 4.4375 10.8125 C3.1175 11.1425 1.7975 11.4725 0.4375 11.8125 C0.1075 10.4925 -0.2225 9.1725 -0.5625 7.8125 C-0.8925 8.4725 -1.2225 9.1325 -1.5625 9.8125 C-3.5425 9.8125 -5.5225 9.8125 -7.5625 9.8125 C-7.5625 12.1225 -7.5625 14.4325 -7.5625 16.8125 C-7.8925 16.8125 -8.2225 16.8125 -8.5625 16.8125 C-9.12233773 7.29525862 -9.12233773 7.29525862 -5.5625 2.8125 C-5.10875 2.19375 -4.655 1.575 -4.1875 0.9375 C-2.5625 -0.1875 -2.5625 -0.1875 0 0 Z " fill="#E44C3B" transform="translate(136.5625,132.1875)"/>
<path d="M0 0 C1.32 0.33 2.64 0.66 4 1 C3.34 1.66 2.68 2.32 2 3 C1.7178518 6.32259247 1.7178518 6.32259247 1.8125 10.0625 C1.81894531 11.33222656 1.82539062 12.60195313 1.83203125 13.91015625 C1.64811502 16.87067553 1.64811502 16.87067553 3 18 C3.07313567 20.53049402 3.09247527 23.03304837 3.0625 25.5625 C3.05798828 26.27341797 3.05347656 26.98433594 3.04882812 27.71679688 C3.03700864 29.47790013 3.01907263 31.23896036 3 33 C1.02 33.495 1.02 33.495 -1 34 C-1 34.66 -1 35.32 -1 36 C-0.01 36.33 0.98 36.66 2 37 C-1.465 37.495 -1.465 37.495 -5 38 C-5.33 37.34 -5.66 36.68 -6 36 C-5.01 36 -4.02 36 -3 36 C-1.01602247 31.83364718 -0.69930972 28.32204372 -0.5859375 23.73046875 C-0.56657135 23.04946609 -0.5472052 22.36846344 -0.5272522 21.66682434 C-0.46781868 19.50717407 -0.421218 17.34746943 -0.375 15.1875 C-0.33678672 13.71677456 -0.29773306 12.24607071 -0.2578125 10.77539062 C-0.16214817 7.18379211 -0.07798425 3.59203087 0 0 Z " fill="#133512" transform="translate(102,302)"/>
<path d="M0 0 C0.33 0 0.66 0 1 0 C1.04970487 4.71393321 1.085863 9.4277114 1.10986328 14.1418457 C1.11987623 15.74310974 1.1334906 17.34435571 1.15087891 18.94555664 C1.17533565 21.25671876 1.18653029 23.56763762 1.1953125 25.87890625 C1.20563507 26.58648575 1.21595764 27.29406525 1.22659302 28.02308655 C1.22762484 32.66898947 0.6412885 36.64652829 -1 41 C-4.23035533 43.15357022 -5.31133458 43.29592637 -9.0625 43.3125 C-9.94035156 43.32925781 -10.81820312 43.34601563 -11.72265625 43.36328125 C-12.47417969 43.24339844 -13.22570312 43.12351563 -14 43 C-14.66 42.01 -15.32 41.02 -16 40 C-15.01 40.33 -14.02 40.66 -13 41 C-11.60560336 41.06665376 -10.20830125 41.08538199 -8.8125 41.0625 C-7.554375 41.041875 -6.29625 41.02125 -5 41 C-4.67 39.68 -4.34 38.36 -4 37 C-4.99 37 -5.98 37 -7 37 C-7 36.34 -7 35.68 -7 35 C-5.02 34.01 -3.04 33.02 -1 32 C-0.67 21.44 -0.34 10.88 0 0 Z " fill="#B55947" transform="translate(200,29)"/>
<path d="M0 0 C0.33 0 0.66 0 1 0 C1.00364563 0.58802399 1.00729126 1.17604797 1.01104736 1.78189087 C1.05292972 7.91440031 1.12231547 14.04616533 1.20751953 20.17822266 C1.23570652 22.46525621 1.25693231 24.75238677 1.27099609 27.03955078 C1.29245638 30.33155906 1.33912471 33.62240378 1.390625 36.9140625 C1.39185364 37.93303619 1.39308228 38.95200989 1.39434814 40.00186157 C1.51772393 46.01179969 2.13063144 49.35134472 6 54 C6.33 54.66 6.66 55.32 7 56 C4.625 55.75 4.625 55.75 2 55 C-0.02736674 51.95703977 -0.24488521 49.46681253 -0.22705078 45.86425781 C-0.22689972 44.84350159 -0.22674866 43.82274536 -0.22659302 42.77105713 C-0.21627045 41.67613953 -0.20594788 40.58122192 -0.1953125 39.453125 C-0.1924826 38.3267865 -0.18965271 37.200448 -0.18673706 36.03997803 C-0.17554374 32.44321054 -0.15044037 28.84669221 -0.125 25.25 C-0.11496912 22.81120151 -0.10584346 20.37239912 -0.09765625 17.93359375 C-0.07560716 11.95564418 -0.04213784 5.97783989 0 0 Z " fill="#40A96A" transform="translate(127,176)"/>
<path d="M0 0 C0.33 0.99 0.66 1.98 1 3 C2.32 3 3.64 3 5 3 C4.1535545 11.26635071 4.1535545 11.26635071 3.4375 14.6875 C2.90754908 17.48866915 2.93386394 20.15614951 3 23 C2.67 22.34 2.34 21.68 2 21 C1.34 21 0.68 21 0 21 C-1.19600901 16.50832172 -0.9185704 12.26730207 -0.5625 7.6875 C-0.51029297 6.94693359 -0.45808594 6.20636719 -0.40429688 5.44335938 C-0.27549848 3.62847291 -0.13856738 1.81416675 0 0 Z " fill="#E35042" transform="translate(154,45)"/>
<path d="M0 0 C5.94715067 0.5663953 9.79211169 2.72088948 13.9375 7 C15 9 15 9 14.6875 11.25 C14.460625 11.8275 14.23375 12.405 14 13 C14 12.01 14 11.02 14 10 C13.34 10 12.68 10 12 10 C12 9.01 12 8.02 12 7 C8.49461443 5.03698408 4.86648272 4.04097612 1 3 C0.896875 4.03125 0.79375 5.0625 0.6875 6.125 C0.00872203 9.95083945 -1.11158795 12.63370025 -3 16 C-3.66 15.34 -4.32 14.68 -5 14 C-4.54625 13.175 -4.0925 12.35 -3.625 11.5 C-1.83692258 7.64875632 -0.92631097 4.13277201 0 0 Z " fill="#579A62" transform="translate(236,156)"/>
<path d="M0 0 C0.33 0 0.66 0 1 0 C1.19555932 2.72880461 1.38170447 5.45771069 1.5625 8.1875 C1.61857422 8.95642578 1.67464844 9.72535156 1.73242188 10.51757812 C1.99508349 14.59758851 1.8742192 17.98887662 1 22 C0.93225856 24.61481958 0.90499742 27.19979256 0.9375 29.8125 C0.94201172 30.50537109 0.94652344 31.19824219 0.95117188 31.91210938 C0.96286844 33.60811068 0.98080076 35.30406703 1 37 C-1.50027077 33.24959385 -1.24449302 31.25603515 -1.23046875 26.77734375 C-1.23001053 26.0760585 -1.22955231 25.37477325 -1.2290802 24.65223694 C-1.22606288 23.17203069 -1.21819209 21.69182747 -1.20581055 20.21166992 C-1.18753971 17.94243158 -1.18530104 15.67360114 -1.18554688 13.40429688 C-1.14758107 2.29516214 -1.14758107 2.29516214 0 0 Z " fill="#0B130B" transform="translate(263,299)"/>
<path d="M0 0 C0.33 0 0.66 0 1 0 C1.0580772 4.08327357 1.09362249 8.16644083 1.125 12.25 C1.14175781 13.40886719 1.15851563 14.56773438 1.17578125 15.76171875 C1.18222656 16.87675781 1.18867188 17.99179687 1.1953125 19.140625 C1.20578613 20.16704102 1.21625977 21.19345703 1.22705078 22.25097656 C0.99567978 25.05230718 0.50912878 26.65224307 -1 29 C-4.05918559 31.1148283 -6.59248801 31.22125032 -10.25 31.125 C-11.14203125 31.10695313 -12.0340625 31.08890625 -12.953125 31.0703125 C-13.62859375 31.04710938 -14.3040625 31.02390625 -15 31 C-15.66 29.68 -16.32 28.36 -17 27 C-15.515 27.99 -15.515 27.99 -14 29 C-11.67612053 29.39387788 -9.34206251 29.73486085 -7 30 C-6.67 29.01 -6.34 28.02 -6 27 C-4.35 27 -2.7 27 -1 27 C-0.67 18.09 -0.34 9.18 0 0 Z " fill="#C05947" transform="translate(227,41)"/>
<path d="M0 0 C1.32 0 2.64 0 4 0 C4.02505615 0.91289795 4.0501123 1.8257959 4.07592773 2.76635742 C4.17131607 6.16767631 4.27053402 9.56883939 4.37231445 12.9699707 C4.41550705 14.43932768 4.45719256 15.9087298 4.49731445 17.37817383 C4.55539882 19.49574355 4.61898098 21.61308937 4.68359375 23.73046875 C4.72025146 25.00301514 4.75690918 26.27556152 4.79467773 27.58666992 C4.97119686 30.52116927 5.18934209 33.17626824 6 36 C6.66 36.33 7.32 36.66 8 37 C6.02 36.67 4.04 36.34 2 36 C2.01047363 35.01604248 2.02094727 34.03208496 2.03173828 33.01831055 C2.06794031 29.36746865 2.09090115 25.71664263 2.10986328 22.06567383 C2.11992041 20.48556856 2.13356785 18.9054819 2.15087891 17.32543945 C2.17514022 15.0541525 2.18648582 12.78311164 2.1953125 10.51171875 C2.20563507 9.80536789 2.21595764 9.09901703 2.22659302 8.3712616 C2.22743775 4.67802208 2.10720523 3.16080784 0 0 Z " fill="#113111" transform="translate(258,302)"/>
<path d="M0 0 C0.33 1.32 0.66 2.64 1 4 C-2.63 4.66 -6.26 5.32 -10 6 C-10 7.65 -10 9.3 -10 11 C-11.32 11.33 -12.64 11.66 -14 12 C-14 14.64 -14 17.28 -14 20 C-15.32 19.67 -16.64 19.34 -18 19 C-17.34 18.67 -16.68 18.34 -16 18 C-15.49782647 16.04340367 -15.49782647 16.04340367 -15.1875 13.75 C-14.2143715 9.09815088 -12.90983549 6.91157962 -9 4 C-6.05949262 2.50014389 -3.07451583 1.19899419 0 0 Z " fill="#41A367" transform="translate(127,155)"/>
<path d="M0 0 C0.33 0 0.66 0 1 0 C1 12.21 1 24.42 1 37 C1.66 37 2.32 37 3 37 C3.66 37.99 4.32 38.98 5 40 C4.67 40.99 4.34 41.98 4 43 C2.02441406 42.06518555 2.02441406 42.06518555 0 40 C-0.5905274 36.9925744 -0.46399264 34.0113617 -0.390625 30.95703125 C-0.38496521 30.0734343 -0.37930542 29.18983734 -0.37347412 28.27946472 C-0.35107867 25.45659257 -0.30087727 22.63498862 -0.25 19.8125 C-0.22993906 17.89910687 -0.21168758 15.98569385 -0.1953125 14.07226562 C-0.15120357 9.38102158 -0.08215485 4.69072582 0 0 Z " fill="#419D62" transform="translate(112,196)"/>
<path d="M0 0 C1.5 1 1.5 1 3 3 C3.54606542 7.75857007 3.45942469 10.04581027 1.375 14.375 C-1.35150184 17.38850204 -3.03225552 18.25604791 -7 19 C-9.375 18.625 -9.375 18.625 -11 18 C-10.360625 17.896875 -9.72125 17.79375 -9.0625 17.6875 C-8.0415625 17.3471875 -8.0415625 17.3471875 -7 17 C-6.67 16.01 -6.34 15.02 -6 14 C-4.02 14 -2.04 14 0 14 C1.0390717 6.97217958 1.0390717 6.97217958 0 0 Z " fill="#42A266" transform="translate(275,177)"/>
<path d="M0 0 C0 0.66 0 1.32 0 2 C-0.804375 2.226875 -1.60875 2.45375 -2.4375 2.6875 C-3.283125 3.120625 -4.12875 3.55375 -5 4 C-5.89386164 6.54775306 -5.89386164 6.54775306 -6 9 C-8.31 8.01 -10.62 7.02 -13 6 C-13 5.01 -13 4.02 -13 3 C-13.66 2.67 -14.32 2.34 -15 2 C-13.95199219 1.90912109 -13.95199219 1.90912109 -12.8828125 1.81640625 C-11.97273437 1.73261719 -11.06265625 1.64882812 -10.125 1.5625 C-9.22007812 1.48128906 -8.31515625 1.40007812 -7.3828125 1.31640625 C-4.53561148 0.9383353 -2.95461696 0 0 0 Z " fill="#4BA35D" transform="translate(227,70)"/>
<path d="M0 0 C0.7425 0.185625 1.485 0.37125 2.25 0.5625 C4.94990963 0.99203108 6.44631077 0.85122974 9 0 C9 0.66 9 1.32 9 2 C19.56 2 30.12 2 41 2 C41 2.33 41 2.66 41 3 C27.8 3 14.6 3 1 3 C0.67 2.01 0.34 1.02 0 0 Z " fill="#17B05F" transform="translate(151,136)"/>
<path d="M0 0 C0.66 0.33 1.32 0.66 2 1 C1.34 2.32 0.68 3.64 0 5 C-0.99 5 -1.98 5 -3 5 C-2.67 14.24 -2.34 23.48 -2 33 C-5.3003152 29.6996848 -4.95956934 25.10934997 -5.04541016 20.63085938 C-5.0191362 18.16606496 -4.92652709 15.71221208 -4.8125 13.25 C-4.79380859 12.41339844 -4.77511719 11.57679687 -4.75585938 10.71484375 C-4.47795067 4.60085227 -4.47795067 4.60085227 -1.94921875 1.421875 C-1.30597656 0.95265625 -0.66273438 0.4834375 0 0 Z " fill="#BF5848" transform="translate(212,35)"/>
<path d="M0 0 C1.31625194 2.63250388 0.74813658 3.80179056 0.0625 6.625 C-0.13214844 7.44226563 -0.32679687 8.25953125 -0.52734375 9.1015625 C-0.68332031 9.72804687 -0.83929688 10.35453125 -1 11 C-0.34 11 0.32 11 1 11 C1 12.32 1 13.64 1 15 C2.32 15 3.64 15 5 15 C5 15.66 5 16.32 5 17 C5.99 17.33 6.98 17.66 8 18 C7.67 18.66 7.34 19.32 7 20 C0.35638833 16.89964789 0.35638833 16.89964789 -2 14 C-3.28922191 9.64275633 -3.50041845 6.06610886 -1.5625 1.9375 C-1.046875 1.298125 -0.53125 0.65875 0 0 Z " fill="#43A066" transform="translate(88,176)"/>
<path d="M0 0 C0.33 0.99 0.66 1.98 1 3 C1.66 2.67 2.32 2.34 3 2 C5.61860735 1.84887061 8.19290882 1.76866138 10.8125 1.75 C11.52470703 1.729375 12.23691406 1.70875 12.97070312 1.6875 C17.52575514 1.65379009 20.33844086 2.2664195 24 5 C23.01 5.33 22.02 5.66 21 6 C20.67 5.67 20.34 5.34 20 5 C18.58429877 4.91348389 17.164405 4.89295096 15.74609375 4.90234375 C14.46508789 4.90717773 14.46508789 4.90717773 13.15820312 4.91210938 C11.81145508 4.92467773 11.81145508 4.92467773 10.4375 4.9375 C9.53580078 4.94201172 8.63410156 4.94652344 7.70507812 4.95117188 C5.46998686 4.96299775 3.23502563 4.9794778 1 5 C0.67 3.35 0.34 1.7 0 0 Z " fill="#449E65" transform="translate(251,171)"/>
<path d="M0 0 C0.66 0 1.32 0 2 0 C2.32613281 0.78246094 2.65226563 1.56492187 2.98828125 2.37109375 C3.42527344 3.38300781 3.86226562 4.39492187 4.3125 5.4375 C4.74175781 6.44683594 5.17101562 7.45617187 5.61328125 8.49609375 C6.80278223 11.31020584 6.80278223 11.31020584 10 12 C10 12.99 10 13.98 10 15 C11.32 14.67 12.64 14.34 14 14 C14 15.32 14 16.64 14 18 C11.61435923 17.42415568 9.33317216 16.77772405 7 16 C5.4296875 13.41796875 5.4296875 13.41796875 3.875 10.1875 C3.35679687 9.12917969 2.83859375 8.07085937 2.3046875 6.98046875 C1.26867178 4.61376219 0.50023081 2.51945518 0 0 Z " fill="#4A9D65" transform="translate(128,116)"/>
<path d="M0 0 C1 3 1 3 0 6 C0.99 6.33 1.98 6.66 3 7 C3.99 8.485 3.99 8.485 5 10 C3.35 10.33 1.7 10.66 0 11 C0 16.94 0 22.88 0 29 C-0.33 29 -0.66 29 -1 29 C-1.02465881 25.03069011 -1.04284023 21.06140966 -1.05493164 17.09204102 C-1.05997057 15.74079614 -1.06680177 14.38955674 -1.07543945 13.03833008 C-1.08752419 11.09979566 -1.09269828 9.161222 -1.09765625 7.22265625 C-1.10289307 6.05484619 -1.10812988 4.88703613 -1.11352539 3.68383789 C-1 1 -1 1 0 0 Z " fill="#0D270C" transform="translate(113,236)"/>
<path d="M0 0 C1.98 0 3.96 0 6 0 C6.66 2.64 7.32 5.28 8 8 C7.34 8 6.68 8 6 8 C6 6.35 6 4.7 6 3 C4.68 3 3.36 3 2 3 C2 3.99 2 4.98 2 6 C1.34 6 0.68 6 0 6 C0 7.65 0 9.3 0 11 C-1.65 11.33 -3.3 11.66 -5 12 C-4.52949219 11.60167969 -4.05898437 11.20335938 -3.57421875 10.79296875 C-1.68239447 8.6382607 -1.33939211 7.10908118 -0.8125 4.3125 C-0.65394531 3.50425781 -0.49539062 2.69601563 -0.33203125 1.86328125 C-0.22246094 1.24839844 -0.11289063 0.63351563 0 0 Z " fill="#64935A" transform="translate(201,60)"/>
<path d="M0 0 C1.32 0.66 2.64 1.32 4 2 C4 13.22 4 24.44 4 36 C3.67 36 3.34 36 3 36 C2.67 25.44 2.34 14.88 2 4 C0.68 4 -0.64 4 -2 4 C-2 3.34 -2 2.68 -2 2 C-1.34 2 -0.68 2 0 2 C0 1.34 0 0.68 0 0 Z " fill="#D85147" transform="translate(196,25)"/>
<path d="M0 0 C1.98 0 3.96 0 6 0 C6 1.32 6 2.64 6 4 C4.35 4.33 2.7 4.66 1 5 C0.67 6.65 0.34 8.3 0 10 C-0.99 10 -1.98 10 -3 10 C-3.33 8.68 -3.66 7.36 -4 6 C-3.34 6 -2.68 6 -2 6 C-1.7834375 5.071875 -1.7834375 5.071875 -1.5625 4.125 C-1 2 -1 2 0 0 Z " fill="#EA4736" transform="translate(158,38)"/>
<path d="M0 0 C0.49628906 0.34933594 0.99257812 0.69867188 1.50390625 1.05859375 C6.10584605 4.14110751 9.46239061 5.65389941 15 6 C14.67 6.66 14.34 7.32 14 8 C11.03 8 8.06 8 5 8 C5 7.34 5 6.68 5 6 C2.03 5.505 2.03 5.505 -1 5 C-0.67 3.35 -0.34 1.7 0 0 Z " fill="#003307" transform="translate(114,237)"/>
<path d="M0 0 C0.66 0 1.32 0 2 0 C2 1.32 2 2.64 2 4 C1.34 4 0.68 4 0 4 C-0.309375 4.639375 -0.61875 5.27875 -0.9375 5.9375 C-2 8 -2 8 -3 9 C-4.66617115 9.04063832 -6.33388095 9.042721 -8 9 C-8 8.01 -8 7.02 -8 6 C-7.05125 5.566875 -6.1025 5.13375 -5.125 4.6875 C-1.79958063 3.20697799 -1.79958063 3.20697799 0 0 Z " fill="#03340A" transform="translate(249,236)"/>
<path d="M0 0 C0.66 0 1.32 0 2 0 C2.144375 1.093125 2.28875 2.18625 2.4375 3.3125 C2.88288104 6.93122987 2.88288104 6.93122987 4 10 C1.0280615 8.87548273 -1.33440687 7.77706209 -4 6 C-4.1875 3.375 -4.1875 3.375 -4 1 C-3.67 1.99 -3.34 2.98 -3 4 C-2.34 3.67 -1.68 3.34 -1 3 C-0.67 2.01 -0.34 1.02 0 0 Z " fill="#3DA765" transform="translate(124,105)"/>
<path d="M0 0 C-0.33 1.32 -0.66 2.64 -1 4 C-1 3.01 -1 2.02 -1 1 C-1.99 1.66 -2.98 2.32 -4 3 C-4.99 3 -5.98 3 -7 3 C-6.67 3.99 -6.34 4.98 -6 6 C-7.051875 6.268125 -8.10375 6.53625 -9.1875 6.8125 C-12.57519246 7.8676829 -15.07089567 9.04726378 -18 11 C-16.52567422 7.13827168 -14.54701627 5.81800775 -11 3.8125 C-10.113125 3.30332031 -9.22625 2.79414062 -8.3125 2.26953125 C-4.90450379 0.39858738 -4.1238021 0 0 0 Z " fill="#489F69" transform="translate(154,62)"/>
<path d="M0 0 C4.75 -0.125 4.75 -0.125 7 1 C7.29296875 7.0546875 7.29296875 7.0546875 7 9 C6.01 9.66 5.02 10.32 4 11 C4 8.69 4 6.38 4 4 C3.01 3.67 2.02 3.34 1 3 C0.67 2.01 0.34 1.02 0 0 Z " fill="#CF5941" transform="translate(167,58)"/>
<path d="M0 0 C2.4375 0.8125 2.4375 0.8125 4.4375 2.8125 C3.179375 2.874375 1.92125 2.93625 0.625 3 C-2.88530358 3.45733373 -2.88530358 3.45733373 -5.5 5.875 C-6.83874607 9.57623912 -7.23015618 12.89084297 -7.5625 16.8125 C-7.8925 16.8125 -8.2225 16.8125 -8.5625 16.8125 C-9.12233773 7.29525862 -9.12233773 7.29525862 -5.5625 2.8125 C-5.10875 2.19375 -4.655 1.575 -4.1875 0.9375 C-2.5625 -0.1875 -2.5625 -0.1875 0 0 Z " fill="#C75549" transform="translate(136.5625,132.1875)"/>
<path d="M0 0 C2 3 2 3 2 6 C1.34 6 0.68 6 0 6 C0 5.34 0 4.68 0 4 C-1.32 4 -2.64 4 -4 4 C-4 4.99 -4 5.98 -4 7 C-6.97 6.505 -6.97 6.505 -10 6 C-10 5.01 -10 4.02 -10 3 C-8.72125 2.87625 -7.4425 2.7525 -6.125 2.625 C-2.65209064 2.30957601 -2.65209064 2.30957601 0 0 Z " fill="#37AA60" transform="translate(172,70)"/>
<path d="M0 0 C0.33 0.66 0.66 1.32 1 2 C2.175625 2.185625 2.175625 2.185625 3.375 2.375 C6 3 6 3 7.8125 5.0625 C8.204375 5.701875 8.59625 6.34125 9 7 C8.34 8.32 7.68 9.64 7 11 C4.77810176 8.77810176 4.07401108 6.91517292 3 4 C2.01 4.33 1.02 4.66 0 5 C0 3.35 0 1.7 0 0 Z " fill="#17AF5E" transform="translate(113,228)"/>
<path d="M0 0 C1.98 0 3.96 0 6 0 C5.45276317 3.37462715 4.9451 5.08235 3 8 C0.6875 8.3984375 0.6875 8.3984375 -2 8.375 C-2.886875 8.38273437 -3.77375 8.39046875 -4.6875 8.3984375 C-5.450625 8.26695313 -6.21375 8.13546875 -7 8 C-7.66 7.01 -8.32 6.02 -9 5 C-8.01 5.33 -7.02 5.66 -6 6 C-4.60560336 6.06665376 -3.20830125 6.08538199 -1.8125 6.0625 C-0.554375 6.041875 0.70375 6.02125 2 6 C2.33 4.68 2.66 3.36 3 2 C2.01 2 1.02 2 0 2 C0 1.34 0 0.68 0 0 Z " fill="#CB5B43" transform="translate(193,64)"/>
<path d="M0 0 C2.97 0.99 5.94 1.98 9 3 C9 3.66 9 4.32 9 5 C5.7 5.33 2.4 5.66 -1 6 C-1.33 4.68 -1.66 3.36 -2 2 C-1.34 1.34 -0.68 0.68 0 0 Z " fill="#15B060" transform="translate(127,231)"/>
<path d="M0 0 C0 0.33 0 0.66 0 1 C-1.2065625 1.185625 -1.2065625 1.185625 -2.4375 1.375 C-3.283125 1.58125 -4.12875 1.7875 -5 2 C-5.33 2.66 -5.66 3.32 -6 4 C-7.32 4 -8.64 4 -10 4 C-10.66 5.98 -11.32 7.96 -12 10 C-12.66 9.67 -13.32 9.34 -14 9 C-13.1513572 5.52827945 -12.56360689 3.48309162 -9.8125 1.125 C-6.39095112 -0.24361955 -3.6524546 -0.21485027 0 0 Z " fill="#C85147" transform="translate(168,34)"/>
<path d="M0 0 C0.103125 0.639375 0.20625 1.27875 0.3125 1.9375 C0.539375 2.618125 0.76625 3.29875 1 4 C1.99 4.33 2.98 4.66 4 5 C1.59454362 6.20272819 0.05003047 6.10071472 -2.625 6.0625 C-3.85089844 6.04896484 -3.85089844 6.04896484 -5.1015625 6.03515625 C-6.04128906 6.01775391 -6.04128906 6.01775391 -7 6 C-6.34 5.01 -5.68 4.02 -5 3 C-4.34 3 -3.68 3 -3 3 C-3 2.34 -3 1.68 -3 1 C-2.01 0.67 -1.02 0.34 0 0 Z " fill="#33AB60" transform="translate(213,133)"/>
<path d="M0 0 C1.134375 0.020625 2.26875 0.04125 3.4375 0.0625 C3.4375 1.0525 3.4375 2.0425 3.4375 3.0625 C2.4475 3.3925 1.4575 3.7225 0.4375 4.0625 C0.7675 5.3825 1.0975 6.7025 1.4375 8.0625 C0.4475 8.0625 -0.5425 8.0625 -1.5625 8.0625 C-1.5625 6.0825 -1.5625 4.1025 -1.5625 2.0625 C-2.5525 1.7325 -3.5425 1.4025 -4.5625 1.0625 C-3.5625 0.0625 -3.5625 0.0625 0 0 Z " fill="#16B060" transform="translate(158.5625,72.9375)"/>
<path d="M0 0 C0.125 6.625 0.125 6.625 -1 10 C-1.99 10 -2.98 10 -4 10 C-4.36814024 3.49618902 -4.36814024 3.49618902 -2.5625 1.0625 C-1 0 -1 0 0 0 Z " fill="#0EB05F" transform="translate(246,229)"/>
<path d="M0 0 C0.99 0.33 1.98 0.66 3 1 C3 2.32 3 3.64 3 5 C1.68 5.33 0.36 5.66 -1 6 C-1 7.65 -1 9.3 -1 11 C-1.66 10.34 -2.32 9.68 -3 9 C-3 7.68 -3 6.36 -3 5 C-2.34 5 -1.68 5 -1 5 C-0.67 3.35 -0.34 1.7 0 0 Z " fill="#14AF60" transform="translate(135,111)"/>
<path d="M0 0 C-0.33 1.32 -0.66 2.64 -1 4 C-6.61 4 -12.22 4 -18 4 C-18 3.67 -18 3.34 -18 3 C-17.18015625 2.95101562 -16.3603125 2.90203125 -15.515625 2.8515625 C-14.43796875 2.77679688 -13.3603125 2.70203125 -12.25 2.625 C-11.18265625 2.55539063 -10.1153125 2.48578125 -9.015625 2.4140625 C-5.74696712 1.96525714 -3.1830482 0 0 0 Z " fill="#42AB6B" transform="translate(232,230)"/>
<path d="M0 0 C0.33 0.99 0.66 1.98 1 3 C1.99 3.33 2.98 3.66 4 4 C3.67 4.66 3.34 5.32 3 6 C0.36 5.67 -2.28 5.34 -5 5 C-3.35 3.35 -1.7 1.7 0 0 Z " fill="#36A861" transform="translate(137,72)"/>
<path d="M0 0 C1.67542976 0.28604898 3.34385343 0.61781233 5 1 C5 1.66 5 2.32 5 3 C2.69 4.32 0.38 5.64 -2 7 C-1.125 1.125 -1.125 1.125 0 0 Z " fill="#CEF3D4" transform="translate(131,171)"/>
<path d="M0 0 C0.33 0.66 0.66 1.32 1 2 C-5.02818509 6.28670939 -9.71304215 6.474377 -17 6 C-17 5.67 -17 5.34 -17 5 C-16.31292969 4.96261719 -15.62585938 4.92523438 -14.91796875 4.88671875 C-14.01691406 4.82097656 -13.11585938 4.75523437 -12.1875 4.6875 C-10.84751953 4.60048828 -10.84751953 4.60048828 -9.48046875 4.51171875 C-6.64804879 3.92739274 -5.8616678 3.12762035 -4 1 C-1.8125 0.3125 -1.8125 0.3125 0 0 Z " fill="#D57B6A" transform="translate(231,168)"/>
<path d="M0 0 C0.33 1.32 0.66 2.64 1 4 C-2.96 4.66 -6.92 5.32 -11 6 C-8.2574043 3.2574043 -7.25588615 2.49792802 -3.8125 1.3125 C-3.09707031 1.06113281 -2.38164063 0.80976563 -1.64453125 0.55078125 C-1.10183594 0.36902344 -0.55914062 0.18726563 0 0 Z " fill="#518B5B" transform="translate(127,155)"/>
<path d="M0 0 C1 3 1 3 0.0625 5.1875 C-0.4634375 6.0846875 -0.4634375 6.0846875 -1 7 C-2.9375 6.1875 -2.9375 6.1875 -5 5 C-5.33 4.01 -5.66 3.02 -6 2 C-4.02 1.34 -2.04 0.68 0 0 Z " fill="#16AF5D" transform="translate(230,120)"/>
<path d="M0 0 C0.33 0 0.66 0 1 0 C1.06058594 0.63808594 1.12117187 1.27617188 1.18359375 1.93359375 C1.26738281 2.75988281 1.35117188 3.58617187 1.4375 4.4375 C1.55931641 5.67306641 1.55931641 5.67306641 1.68359375 6.93359375 C1.78930815 8.98662025 1.78930815 8.98662025 3 10 C3.04080783 11.99958364 3.04254356 14.00045254 3 16 C2.67 15.34 2.34 14.68 2 14 C1.34 14 0.68 14 0 14 C-1.39151652 9.20699867 -0.68662689 4.84864218 0 0 Z " fill="#B06341" transform="translate(154,52)"/>
<path d="M0 0 C1.98 1.65 3.96 3.3 6 5 C5.67 5.66 5.34 6.32 5 7 C-1.75 5.125 -1.75 5.125 -4 4 C-2.68 2.68 -1.36 1.36 0 0 Z " fill="#B95E48" transform="translate(227,130)"/>
<path d="M0 0 C0.99 0.33 1.98 0.66 3 1 C-0.3 3.64 -3.6 6.28 -7 9 C-7.66 8.67 -8.32 8.34 -9 8 C-7.6875 6 -7.6875 6 -6 4 C-5.01 4 -4.02 4 -3 4 C-3 3.34 -3 2.68 -3 2 C-2.01 1.34 -1.02 0.68 0 0 Z " fill="#669A5D" transform="translate(226,129)"/>
<path d="M0 0 C2.31 0 4.62 0 7 0 C6.67 1.65 6.34 3.3 6 5 C4.68 5.33 3.36 5.66 2 6 C2.66 4.35 3.32 2.7 4 1 C3.01 1 2.02 1 1 1 C0.67 1.99 0.34 2.98 0 4 C0 2.68 0 1.36 0 0 Z " fill="#47A660" transform="translate(174,62)"/>
<path d="M0 0 C2.475 0.99 2.475 0.99 5 2 C4.67 2.99 4.34 3.98 4 5 C2.35 5 0.7 5 -1 5 C-0.67 3.35 -0.34 1.7 0 0 Z " fill="#19B05D" transform="translate(121,172)"/>
<path d="M0 0 C-0.50603992 2.16874252 -0.99983813 3.99967627 -2 6 C-2.66 6 -3.32 6 -4 6 C-4 5.34 -4 4.68 -4 4 C-5.32 4.33 -6.64 4.66 -8 5 C-3.16129032 0 -3.16129032 0 0 0 Z " fill="#AF4632" transform="translate(224,135)"/>
<path d="M0 0 C1.65 0 3.3 0 5 0 C5 0.99 5 1.98 5 3 C1.7 3.33 -1.6 3.66 -5 4 C-3.68 3.67 -2.36 3.34 -1 3 C-0.67 2.01 -0.34 1.02 0 0 Z " fill="#40A369" transform="translate(107,192)"/>
<path d="M0 0 C0.99 0 1.98 0 3 0 C2.42415568 2.38564077 1.77772405 4.66682784 1 7 C0.01 7 -0.98 7 -2 7 C-2 5.68 -2 4.36 -2 3 C-1.34 3 -0.68 3 0 3 C0 2.01 0 1.02 0 0 Z " fill="#12B05F" transform="translate(203,63)"/>
<path d="M0 0 C2 1.4375 2 1.4375 4 4 C4.35442445 7.02824418 4.23347235 9.96485939 4 13 C3.67 13 3.34 13 3 13 C2.49242138 11.58603098 1.99425075 10.16868271 1.5 8.75 C1.08234375 7.56664063 1.08234375 7.56664063 0.65625 6.359375 C0 4 0 4 0 0 Z " fill="#0DAF5F" transform="translate(240,83)"/>
<path d="M0 0 C1.65 0 3.3 0 5 0 C5 0.66 5 1.32 5 2 C4.01 2 3.02 2 2 2 C2 2.99 2 3.98 2 5 C0.68 5 -0.64 5 -2 5 C-1.34 3.35 -0.68 1.7 0 0 Z " fill="#35AA5F" transform="translate(188,73)"/>
<path d="M0 0 C0.99 0 1.98 0 3 0 C2.67 0.99 2.34 1.98 2 3 C1.34 3 0.68 3 0 3 C-0.33 4.32 -0.66 5.64 -1 7 C-1.66 7 -2.32 7 -3 7 C-3 5.68 -3 4.36 -3 3 C-2.34 3 -1.68 3 -1 3 C-0.67 2.01 -0.34 1.02 0 0 Z " fill="#16AF61" transform="translate(185,73)"/>
<path d="M0 0 C0.33 0.66 0.66 1.32 1 2 C0.67 2.99 0.34 3.98 0 5 C0.99 5.33 1.98 5.66 3 6 C0.69 6.33 -1.62 6.66 -4 7 C-4.33 6.34 -4.66 5.68 -5 5 C-4.01 5 -3.02 5 -2 5 C-1.34 3.35 -0.68 1.7 0 0 Z " fill="#162A16" transform="translate(101,333)"/>
<path d="M0 0 C0.99 0 1.98 0 3 0 C3 1.32 3 2.64 3 4 C1.02 4.99 1.02 4.99 -1 6 C-1 5.34 -1 4.68 -1 4 C-1.66 3.67 -2.32 3.34 -3 3 C-2.34 3 -1.68 3 -1 3 C-0.67 2.01 -0.34 1.02 0 0 Z " fill="#36AB61" transform="translate(131,112)"/>
<path d="M0 0 C2.64 0.66 5.28 1.32 8 2 C8 2.99 8 3.98 8 5 C4.5625 4.1875 4.5625 4.1875 1 3 C0.67 2.01 0.34 1.02 0 0 Z " fill="#11B061" transform="translate(162,76)"/>
<path d="M0 0 C1.25541557 3.76624671 0.37061958 5.37188934 -1 9 C-1.99 8.67 -2.98 8.34 -4 8 C-2.25 2.25 -2.25 2.25 0 0 Z " fill="#EB4744" transform="translate(171,39)"/>
<path d="M0 0 C1.98 0 3.96 0 6 0 C6 1.32 6 2.64 6 4 C4.68 4 3.36 4 2 4 C2 3.34 2 2.68 2 2 C1.34 2 0.68 2 0 2 C0 1.34 0 0.68 0 0 Z " fill="#ED4544" transform="translate(158,38)"/>
<path d="M0 0 C1.32 0.66 2.64 1.32 4 2 C4 2.66 4 3.32 4 4 C2.68 4 1.36 4 0 4 C0 4.66 0 5.32 0 6 C-0.66 6 -1.32 6 -2 6 C-2 5.01 -2 4.02 -2 3 C-1.34 3 -0.68 3 0 3 C0 2.01 0 1.02 0 0 Z " fill="#39A565" transform="translate(226,72)"/>
<path d="M0 0 C1.32 0.33 2.64 0.66 4 1 C2 3 2 3 -0.1640625 3.1953125 C-1.38222656 3.16050781 -1.38222656 3.16050781 -2.625 3.125 C-3.44226563 3.10695313 -4.25953125 3.08890625 -5.1015625 3.0703125 C-5.72804687 3.04710938 -6.35453125 3.02390625 -7 3 C-7.33 2.34 -7.66 1.68 -8 1 C-5.36 1.33 -2.72 1.66 0 2 C0 1.34 0 0.68 0 0 Z " fill="#C06246" transform="translate(167,69)"/>
<path d="M0 0 C1.9375 0.625 1.9375 0.625 4 2 C4.75 5.125 4.75 5.125 5 8 C4.01 7.34 3.02 6.68 2 6 C2 5.01 2 4.02 2 3 C1.34 3 0.68 3 0 3 C0 2.01 0 1.02 0 0 Z " fill="#12B060" transform="translate(175,67)"/>
<path d="M0 0 C2.31 0 4.62 0 7 0 C7 1.32 7 2.64 7 4 C4.61435923 3.42415568 2.33317216 2.77772405 0 2 C0 1.34 0 0.68 0 0 Z " fill="#5C995A" transform="translate(135,130)"/>
<path d="M0 0 C-1.125 1.5 -1.125 1.5 -3 3 C-6.1875 3.1875 -6.1875 3.1875 -9 3 C-5.92807025 0.26939578 -4.09590633 -0.34132553 0 0 Z " fill="#4C9E6A" transform="translate(132,77)"/>
<path d="M0 0 C1.32 0 2.64 0 4 0 C3.67 1.65 3.34 3.3 3 5 C2.01 4.67 1.02 4.34 0 4 C0 2.68 0 1.36 0 0 Z " fill="#13B060" transform="translate(150,75)"/>
<path d="" fill="#000000" transform="translate(0,0)"/>
<path d="" fill="#000000" transform="translate(0,0)"/>
<path d="" fill="#000000" transform="translate(0,0)"/>
<path d="" fill="#000000" transform="translate(0,0)"/>
<path d="" fill="#000000" transform="translate(0,0)"/>
<path d="" fill="#000000" transform="translate(0,0)"/>
<path d="" fill="#000000" transform="translate(0,0)"/>
<path d="" fill="#000000" transform="translate(0,0)"/>
<path d="" fill="#000000" transform="translate(0,0)"/>
<path d="" fill="#000000" transform="translate(0,0)"/>
<path d="" fill="#000000" transform="translate(0,0)"/>
<path d="" fill="#000000" transform="translate(0,0)"/>
<path d="" fill="#000000" transform="translate(0,0)"/>
<path d="" fill="#000000" transform="translate(0,0)"/>
<path d="" fill="#000000" transform="translate(0,0)"/>
<path d="" fill="#000000" transform="translate(0,0)"/>
<path d="" fill="#000000" transform="translate(0,0)"/>
<path d="" fill="#000000" transform="translate(0,0)"/>
<path d="" fill="#000000" transform="translate(0,0)"/>
<path d="" fill="#000000" transform="translate(0,0)"/>
<path d="" fill="#000000" transform="translate(0,0)"/>
<path d="" fill="#000000" transform="translate(0,0)"/>
<path d="" fill="#000000" transform="translate(0,0)"/>
<path d="" fill="#000000" transform="translate(0,0)"/>
<path d="" fill="#000000" transform="translate(0,0)"/>
<path d="" fill="#000000" transform="translate(0,0)"/>
<path d="" fill="#000000" transform="translate(0,0)"/>
<path d="" fill="#000000" transform="translate(0,0)"/>
<path d="" fill="#000000" transform="translate(0,0)"/>
<path d="" fill="#000000" transform="translate(0,0)"/>
<path d="" fill="#000000" transform="translate(0,0)"/>
<path d="" fill="#000000" transform="translate(0,0)"/>
<path d="" fill="#000000" transform="translate(0,0)"/>
<path d="" fill="#000000" transform="translate(0,0)"/>
<path d="" fill="#000000" transform="translate(0,0)"/>
<path d="" fill="#000000" transform="translate(0,0)"/>
<path d="" fill="#000000" transform="translate(0,0)"/>
<path d="" fill="#000000" transform="translate(0,0)"/>
<path d="" fill="#000000" transform="translate(0,0)"/>
<path d="" fill="#000000" transform="translate(0,0)"/>
<path d="" fill="#000000" transform="translate(0,0)"/>
<path d="" fill="#000000" transform="translate(0,0)"/>
<path d="" fill="#000000" transform="translate(0,0)"/>
<path d="" fill="#000000" transform="translate(0,0)"/>
<path d="" fill="#000000" transform="translate(0,0)"/>
<path d="" fill="#000000" transform="translate(0,0)"/>
<path d="" fill="#000000" transform="translate(0,0)"/>
</svg>
