<?xml version="1.0" encoding="UTF-8"?>
<svg version="1.1" xmlns="http://www.w3.org/2000/svg" width="1401" height="1601">
<path d="M0 0 C198 0 396 0 600 0 C600 33 600 66 600 100 C666 100 732 100 800 100 C800 166 800 232 800 300 C833 300 866 300 900 300 C900 366 900 432 900 500 C933 500 966 500 1000 500 C1000 698 1000 896 1000 1100 C967 1100 934 1100 900 1100 C900 1166 900 1232 900 1300 C867 1300 834 1300 800 1300 C800 1366 800 1432 800 1500 C734 1500 668 1500 600 1500 C600 1533 600 1566 600 1600 C402 1600 204 1600 0 1600 C0 1567 0 1534 0 1500 C-66 1500 -132 1500 -200 1500 C-200 1467 -200 1434 -200 1400 C-233 1400 -266 1400 -300 1400 C-300 1334 -300 1268 -300 1200 C-333 1200 -366 1200 -400 1200 C-400 936 -400 672 -400 400 C-367 400 -334 400 -300 400 C-300 334 -300 268 -300 200 C-267 200 -234 200 -200 200 C-200 167 -200 134 -200 100 C-134 100 -68 100 0 100 C0 67 0 34 0 0 Z " fill="#FBD705" transform="translate(401,1)"/>
<path d="M0 0 C198 0 396 0 600 0 C600 33 600 66 600 100 C666 100 732 100 800 100 C800 166 800 232 800 300 C833 300 866 300 900 300 C900 366 900 432 900 500 C933 500 966 500 1000 500 C1000 698 1000 896 1000 1100 C967 1100 934 1100 900 1100 C900 1166 900 1232 900 1300 C867 1300 834 1300 800 1300 C800 1366 800 1432 800 1500 C734 1500 668 1500 600 1500 C600 1533 600 1566 600 1600 C402 1600 204 1600 0 1600 C0 1567 0 1534 0 1500 C-66 1500 -132 1500 -200 1500 C-200 1467 -200 1434 -200 1400 C-233 1400 -266 1400 -300 1400 C-300 1334 -300 1268 -300 1200 C-333 1200 -366 1200 -400 1200 C-400 936 -400 672 -400 400 C-367 400 -334 400 -300 400 C-300 334 -300 268 -300 200 C-267 200 -234 200 -200 200 C-200 167 -200 134 -200 100 C-134 100 -68 100 0 100 C0 67 0 34 0 0 Z M100 100 C100 133 100 166 100 200 C34 200 -32 200 -100 200 C-100 233 -100 266 -100 300 C-133 300 -166 300 -200 300 C-200 366 -200 432 -200 500 C-233 500 -266 500 -300 500 C-300 698 -300 896 -300 1100 C-267 1100 -234 1100 -200 1100 C-200 1166 -200 1232 -200 1300 C-167 1300 -134 1300 -100 1300 C-100 1333 -100 1366 -100 1400 C-34 1400 32 1400 100 1400 C100 1433 100 1466 100 1500 C199 1500 298 1500 400 1500 C400 1467 400 1434 400 1400 C466 1400 532 1400 600 1400 C600 1367 600 1334 600 1300 C633 1300 666 1300 700 1300 C700 1234 700 1168 700 1100 C733 1100 766 1100 800 1100 C800 902 800 704 800 500 C767 500 734 500 700 500 C700 434 700 368 700 300 C667 300 634 300 600 300 C600 267 600 234 600 200 C534 200 468 200 400 200 C400 167 400 134 400 100 C301 100 202 100 100 100 Z " fill="#2A2A2A" transform="translate(401,1)"/>
<path d="M0 0 C33 0 66 0 100 0 C100 330 100 660 100 1000 C-32 1000 -164 1000 -300 1000 C-300 967 -300 934 -300 900 C-267 900 -234 900 -200 900 C-200 636 -200 372 -200 100 C-134 100 -68 100 0 100 C0 67 0 34 0 0 Z " fill="#FBD705" transform="translate(801,301)"/>
<path d="M0 0 C33 0 66 0 100 0 C100 330 100 660 100 1000 C-32 1000 -164 1000 -300 1000 C-300 967 -300 934 -300 900 C-201 900 -102 900 0 900 C0 603 0 306 0 0 Z " fill="#2A2A2A" transform="translate(801,301)"/>
<path d="M0 0 C99 0 198 0 300 0 C300 33 300 66 300 100 C234 100 168 100 100 100 C100 364 100 628 100 900 C67 900 34 900 0 900 C0 603 0 306 0 0 Z " fill="#FBFBFB" transform="translate(501,301)"/>
<path d="M0 0 C33 0 66 0 100 0 C100 198 100 396 100 600 C67 600 34 600 0 600 C0 402 0 204 0 0 Z " fill="#FBFBFB" transform="translate(101,501)"/>
<path d="M0 0 C99 0 198 0 300 0 C300 33 300 66 300 100 C201 100 102 100 0 100 C0 67 0 34 0 0 Z " fill="#FBFBFB" transform="translate(501,101)"/>
<path d="M0 0 C33 0 66 0 100 0 C100 66 100 132 100 200 C67 200 34 200 0 200 C0 134 0 68 0 0 Z " fill="#FBFBFB" transform="translate(201,1101)"/>
<path d="M0 0 C33 0 66 0 100 0 C100 66 100 132 100 200 C67 200 34 200 0 200 C0 134 0 68 0 0 Z " fill="#FBFBFB" transform="translate(201,301)"/>
<path d="M0 0 C66 0 132 0 200 0 C200 33 200 66 200 100 C134 100 68 100 0 100 C0 67 0 34 0 0 Z " fill="#FBFBFB" transform="translate(301,201)"/>
<path d="M0 0 C33 0 66 0 100 0 C100 33 100 66 100 100 C67 100 34 100 0 100 C0 67 0 34 0 0 Z " fill="#FBFBFB" transform="translate(301,1301)"/>
</svg>
