<?xml version="1.0" encoding="UTF-8"?>
<svg version="1.1" xmlns="http://www.w3.org/2000/svg" width="354" height="352">
<path d="M0 0 C1.06468002 -0.00953201 2.12936005 -0.01906403 3.2263031 -0.02888489 C4.37115677 -0.02797348 5.51601044 -0.02706207 6.69555664 -0.02612305 C7.87662491 -0.03040817 9.05769318 -0.0346933 10.27455139 -0.03910828 C12.77189493 -0.04485043 15.26925519 -0.04535269 17.76660156 -0.04101562 C21.58761121 -0.03785676 25.40784591 -0.06131369 29.22875977 -0.08666992 C31.65519108 -0.08894301 34.08162448 -0.08964637 36.50805664 -0.08862305 C37.65088608 -0.09783279 38.79371552 -0.10704254 39.97117615 -0.11653137 C41.03900833 -0.11030258 42.10684052 -0.10407379 43.20703125 -0.09765625 C44.61123573 -0.09860039 44.61123573 -0.09860039 46.04380798 -0.0995636 C49.49122171 0.39201351 52.19062698 1.79707229 54.66821289 4.2746582 C54.8093645 6.94524671 54.71068396 9.59898058 54.66821289 12.2746582 C55.59053711 12.42161133 55.59053711 12.42161133 56.53149414 12.5715332 C57.74385742 12.79583008 57.74385742 12.79583008 58.98071289 13.0246582 C59.7812207 13.16387695 60.58172852 13.3030957 61.40649414 13.4465332 C64.33466432 14.51867842 65.07574231 15.60931808 66.66821289 18.2746582 C67.2952613 22.58481089 67.13166696 26.92381187 67.10571289 31.2746582 C67.12569336 32.46317383 67.14567383 33.65168945 67.16625977 34.8762207 C67.16529297 36.58938477 67.16529297 36.58938477 67.16430664 38.3371582 C67.16615967 39.38000977 67.1680127 40.42286133 67.16992188 41.49731445 C66.66821289 44.2746582 66.66821289 44.2746582 64.66870117 45.96899414 C61.35046047 49.79343461 62.12531593 54.21342054 62.16430664 59.1027832 C62.15488541 60.16575623 62.14546417 61.22872925 62.13575745 62.32391357 C62.10706876 65.72435709 62.10402969 69.12410338 62.10571289 72.5246582 C62.10209879 75.91082951 62.09246663 79.29649053 62.06495667 82.68255615 C62.04824846 84.78832612 62.04522902 86.89426332 62.05796814 89.00006104 C62.014391 95.1250872 61.32047402 99.72061324 58.66821289 105.2746582 C54.93844735 108.71252905 52.09410577 109.72065911 47.00073242 109.63500977 C46.27225098 109.59859375 45.54376953 109.56217773 44.79321289 109.5246582 C42.44196289 109.4421582 40.09071289 109.3596582 37.66821289 109.2746582 C37.66821289 118.5146582 37.66821289 127.7546582 37.66821289 137.2746582 C44.68338615 137.19581827 44.68338615 137.19581827 51.69824219 137.09448242 C52.57907471 137.0894873 53.45990723 137.08449219 54.36743164 137.0793457 C55.26292725 137.06887207 56.15842285 137.05839844 57.08105469 137.04760742 C61.08257301 137.39878342 63.823489 138.42993431 66.66821289 141.2746582 C66.94856013 145.95085009 66.75344623 150.58682431 66.66821289 155.2746582 C71.28821289 155.6046582 75.90821289 155.9346582 80.66821289 156.2746582 C81.32821289 154.6246582 81.98821289 152.9746582 82.66821289 151.2746582 C87.53934611 148.72311223 91.47237574 149.08217099 96.66821289 150.2746582 C99.42316504 152.77231414 99.66892778 154.28138653 100.06665039 158.0246582 C100.07457949 159.44132422 100.066308 160.85815826 100.04321289 162.2746582 C100.06061523 163.34200195 100.06061523 163.34200195 100.07836914 164.4309082 C100.06176059 167.39830323 99.79250019 169.94392761 98.74633789 172.7277832 C95.23596641 175.34076648 91.3032314 174.9566463 87.04321289 175.0246582 C86.17825195 175.05430664 85.31329102 175.08395508 84.42211914 175.11450195 C78.83759996 175.29032639 73.25500528 175.29732268 67.66821289 175.2746582 C67.66821289 178.9046582 67.66821289 182.5346582 67.66821289 186.2746582 C69.31821289 186.6046582 70.96821289 186.9346582 72.66821289 187.2746582 C75.4697697 189.73681937 75.67383107 191.31928128 76.14477539 195.05981445 C76.20817765 196.48504444 76.25726939 197.91097153 76.29321289 199.3371582 C76.44051498 204.88429108 76.44051498 204.88429108 77.66821289 210.2746582 C78.32821289 209.9446582 78.98821289 209.6146582 79.66821289 209.2746582 C83.28677092 208.98127254 86.91414508 208.99674271 90.54321289 208.9621582 C91.5499707 208.9331543 92.55672852 208.90415039 93.59399414 208.87426758 C95.04999023 208.86169922 95.04999023 208.86169922 96.53540039 208.84887695 C97.42340332 208.83429443 98.31140625 208.81971191 99.22631836 208.8046875 C102.58541469 209.45118424 103.68623325 210.50207891 105.66821289 213.2746582 C106.24584961 216.47924805 106.24584961 216.47924805 106.34790039 220.2355957 C106.36917999 220.90378326 106.39045959 221.57197083 106.41238403 222.26040649 C106.45316775 223.67051956 106.48453748 225.08093248 106.50708008 226.49145508 C106.54299433 228.63660361 106.61095359 230.77891842 106.68383789 232.9230957 C106.99788535 244.99747296 106.99788535 244.99747296 104.66821289 250.2746582 C101.08690589 252.6621962 99.5150953 252.52991475 95.26014709 252.54208374 C94.60703771 252.54661485 93.95392832 252.55114597 93.28102773 252.55581439 C91.08848471 252.5684936 88.89618896 252.5668358 86.70361328 252.56518555 C85.13332295 252.57116857 83.56303557 252.57797359 81.99275208 252.58554077 C77.72418656 252.60322996 73.45570118 252.60789734 69.18710256 252.60917234 C65.62584503 252.61106995 62.06460624 252.61842579 58.50335592 252.62551653 C50.10297635 252.64180879 41.70263965 252.64668468 33.30224609 252.64526367 C24.63107087 252.64406165 15.96014432 252.66517363 7.28903204 252.696751 C-0.15138102 252.72288296 -7.5917127 252.73363228 -15.03217131 252.73235285 C-19.47794141 252.73184236 -23.92349054 252.73757373 -28.36921501 252.75870895 C-32.54961783 252.77803993 -36.72958769 252.77825139 -40.91000557 252.76367569 C-42.44510147 252.76158014 -43.98022412 252.76633276 -45.51527405 252.77839661 C-47.60960763 252.79379109 -49.70243742 252.78458205 -51.79673767 252.76913452 C-53.55520476 252.77076882 -53.55520476 252.77076882 -55.34919643 252.77243614 C-58.98073156 252.16635295 -60.16111438 251.20600169 -62.33178711 248.2746582 C-62.74189699 245.50430496 -62.91694559 243.13741763 -62.89819336 240.3684082 C-62.90439194 239.60669312 -62.91059052 238.84497803 -62.91697693 238.06018066 C-62.92406634 236.45313798 -62.92091629 234.84602171 -62.90820312 233.23901367 C-62.89432897 230.78207191 -62.92842173 228.32893498 -62.96655273 225.87231445 C-62.96750393 224.30851144 -62.96564509 222.74470367 -62.96069336 221.1809082 C-62.97395157 220.44851929 -62.98720978 219.71613037 -63.00086975 218.96154785 C-62.93350438 215.26616875 -62.61106432 213.58419783 -60.10351562 210.80493164 C-57.17281415 209.18688911 -55.66101567 208.80105332 -52.35522461 208.8840332 C-51.43741211 208.89692383 -50.51959961 208.90981445 -49.57397461 208.9230957 C-48.1547168 208.97336914 -48.1547168 208.97336914 -46.70678711 209.0246582 C-45.75288086 209.04270508 -44.79897461 209.06075195 -43.81616211 209.0793457 C-42.0508216 209.11415523 -40.28561006 209.15719373 -38.52075195 209.21118164 C-36.79169443 209.26132161 -35.06157147 209.2746582 -33.33178711 209.2746582 C-33.31051758 207.41260742 -33.31051758 207.41260742 -33.28881836 205.51293945 C-33.24190511 203.87097577 -33.19365779 202.22904983 -33.14428711 200.5871582 C-33.13848633 199.77053711 -33.13268555 198.95391602 -33.12670898 198.11254883 C-32.96664024 193.71955106 -32.72251195 191.78421506 -29.96850586 188.19262695 C-27.33178711 186.2746582 -27.33178711 186.2746582 -24.33178711 186.2746582 C-24.33178711 182.6446582 -24.33178711 179.0146582 -24.33178711 175.2746582 C-25.12351318 175.30084229 -25.91523926 175.32702637 -26.73095703 175.35400391 C-30.32686428 175.45809943 -33.92245442 175.52302721 -37.51928711 175.5871582 C-39.38810547 175.65 -39.38810547 175.65 -41.29467773 175.71411133 C-50.40348005 175.83621324 -50.40348005 175.83621324 -54.66381836 173.2590332 C-56.76040528 169.50776294 -57.00061136 166.39823218 -56.83178711 162.2121582 C-56.83436523 161.50510742 -56.83694336 160.79805664 -56.83959961 160.06958008 C-56.78057454 156.92649527 -56.51518679 154.61178998 -55.00366211 151.83325195 C-52.31623116 149.32791328 -49.93011568 149.39460249 -46.33178711 149.2746582 C-40.03658853 150.44833929 -40.03658853 150.44833929 -37.51928711 153.3996582 C-33.9620471 156.44872107 -29.82748303 155.58352281 -25.33178711 155.2746582 C-25.2222168 154.29883789 -25.11264648 153.32301758 -24.99975586 152.31762695 C-24.84120117 151.04532227 -24.68264648 149.77301758 -24.51928711 148.4621582 C-24.3684668 147.19758789 -24.21764648 145.93301758 -24.06225586 144.63012695 C-23.33178711 141.2746582 -23.33178711 141.2746582 -22.07006836 139.38793945 C-18.51202441 137.1091922 -14.36807217 137.15173621 -10.24975586 137.17700195 C-9.40952881 137.17949951 -8.56930176 137.18199707 -7.70361328 137.18457031 C-6.12737183 137.19822632 -6.12737183 137.19822632 -4.51928711 137.2121582 C0.52352539 137.2430957 0.52352539 137.2430957 5.66821289 137.2746582 C5.66821289 128.0346582 5.66821289 118.7946582 5.66821289 109.2746582 C1.00096921 109.43170251 1.00096921 109.43170251 -3.66430664 109.63500977 C-8.72875428 109.7201727 -11.50585794 108.52158919 -15.33178711 105.2746582 C-17.32147047 102.12759685 -17.62399688 99.54507791 -17.74584961 95.85668945 C-17.78419922 94.77863037 -17.82254883 93.70057129 -17.86206055 92.58984375 C-17.89332031 91.43395752 -17.92458008 90.27807129 -17.95678711 89.0871582 C-17.99835938 87.89711182 -18.03993164 86.70706543 -18.08276367 85.48095703 C-18.27507411 79.36055623 -18.34558456 73.26411654 -18.21459961 67.1418457 C-18.19445801 66.0180249 -18.17431641 64.8942041 -18.15356445 63.73632812 C-18.10668384 61.59783858 -18.03766253 59.45968821 -17.94360352 57.32275391 C-17.75651862 51.04219032 -17.75651862 51.04219032 -20.79663086 45.77075195 C-21.63323242 44.94704102 -22.46983398 44.12333008 -23.33178711 43.2746582 C-25.41707869 35.25430598 -25.55482438 25.00994765 -22.33178711 17.2746582 C-19.91650933 13.87537837 -18.73176144 13.35465307 -14.58178711 12.5246582 C-13.50928711 12.4421582 -12.43678711 12.3596582 -11.33178711 12.2746582 C-11.55866211 11.5527832 -11.78553711 10.8309082 -12.01928711 10.0871582 C-12.42484642 6.43712441 -11.56952803 5.12970697 -9.33178711 2.2746582 C-6.18083301 0.27904764 -3.69381414 0.01819535 0 0 Z " fill="#2CAB64" transform="translate(154.331787109375,73.725341796875)"/>
<path d="M0 0 C0.22786458 1.98567708 0.45572917 3.97135417 0.68359375 5.95703125 C0.97170735 8.19396393 0.97170735 8.19396393 2 11 C30.38 11 58.76 11 88 11 C88.66 7.37 89.32 3.74 90 0 C95.44479005 0.48398134 95.44479005 0.48398134 97.66015625 2.54296875 C99.5225553 5.95827196 99.52918491 9.26069425 99.625 13.0625 C99.77230209 18.60963287 99.77230209 18.60963287 101 24 C101.99 23.505 101.99 23.505 103 23 C106.61855803 22.70661434 110.24593219 22.72208451 113.875 22.6875 C115.38513672 22.64399414 115.38513672 22.64399414 116.92578125 22.59960938 C117.89644531 22.59123047 118.86710938 22.58285156 119.8671875 22.57421875 C121.19919189 22.55234497 121.19919189 22.55234497 122.55810547 22.5300293 C125.9172018 23.17652604 127.01802036 24.22742071 129 27 C129.57763672 30.20458984 129.57763672 30.20458984 129.6796875 33.9609375 C129.7009671 34.62912506 129.7222467 35.29731262 129.74417114 35.98574829 C129.78495486 37.39586135 129.81632459 38.80627428 129.83886719 40.21679688 C129.87478144 42.36194541 129.9427407 44.50426021 130.015625 46.6484375 C130.32967246 58.72281475 130.32967246 58.72281475 128 64 C124.418693 66.387538 122.84688241 66.25525654 118.5919342 66.26742554 C117.93882482 66.27195665 117.28571543 66.27648776 116.61281484 66.28115618 C114.42027182 66.2938354 112.22797607 66.29217759 110.03540039 66.29052734 C108.46511006 66.29651036 106.89482268 66.30331538 105.32453918 66.31088257 C101.05597366 66.32857176 96.78748829 66.33323914 92.51888967 66.33451414 C88.95763214 66.33641175 85.39639335 66.34376759 81.83514303 66.35085833 C73.43476346 66.36715058 65.03442676 66.37202648 56.6340332 66.37060547 C47.96285798 66.36940344 39.29193143 66.39051543 30.62081915 66.4220928 C23.18040609 66.44822476 15.74007441 66.45897408 8.2996158 66.45769465 C3.8538457 66.45718415 -0.59170343 66.46291552 -5.0374279 66.48405075 C-9.21783072 66.50338173 -13.39780058 66.50359319 -17.57821846 66.48901749 C-19.11331437 66.48692194 -20.64843701 66.49167456 -22.18348694 66.5037384 C-24.27782052 66.51913289 -26.37065032 66.50992384 -28.46495056 66.49447632 C-30.22341765 66.49611062 -30.22341765 66.49611062 -32.01740932 66.49777794 C-35.64894445 65.89169475 -36.82932727 64.93134348 -39 62 C-39.41010988 59.22964676 -39.58515848 56.86275943 -39.56640625 54.09375 C-39.57260483 53.33203491 -39.57880341 52.57031982 -39.58518982 51.78552246 C-39.59227923 50.17847977 -39.58912918 48.57136351 -39.57641602 46.96435547 C-39.56254186 44.50741371 -39.59663462 42.05427678 -39.63476562 39.59765625 C-39.63571682 38.03385324 -39.63385798 36.47004546 -39.62890625 34.90625 C-39.64216446 34.17386108 -39.65542267 33.44147217 -39.66908264 32.68688965 C-39.60171727 28.99151055 -39.27927721 27.30953963 -36.77172852 24.53027344 C-33.84102704 22.91223091 -32.32922856 22.52639511 -29.0234375 22.609375 C-28.105625 22.62226563 -27.1878125 22.63515625 -26.2421875 22.6484375 C-25.29601562 22.68195313 -24.34984375 22.71546875 -23.375 22.75 C-21.94414063 22.77707031 -21.94414063 22.77707031 -20.484375 22.8046875 C-18.71903449 22.83949703 -16.95382295 22.88253552 -15.18896484 22.93652344 C-13.45990732 22.98666341 -11.72978436 23 -10 23 C-9.97873047 21.13794922 -9.97873047 21.13794922 -9.95703125 19.23828125 C-9.910118 17.59631757 -9.86187068 15.95439163 -9.8125 14.3125 C-9.80669922 13.49587891 -9.80089844 12.67925781 -9.79492188 11.83789062 C-9.63642975 7.48816228 -9.37516516 5.50255571 -6.69921875 1.91796875 C-4 0 -4 0 0 0 Z " fill="#1A3919" transform="translate(131,260)"/>
<path d="M0 0 C1.06468002 -0.00953201 2.12936005 -0.01906403 3.2263031 -0.02888489 C4.37115677 -0.02797348 5.51601044 -0.02706207 6.69555664 -0.02612305 C7.87662491 -0.03040817 9.05769318 -0.0346933 10.27455139 -0.03910828 C12.77189493 -0.04485043 15.26925519 -0.04535269 17.76660156 -0.04101562 C21.58761121 -0.03785676 25.40784591 -0.06131369 29.22875977 -0.08666992 C31.65519108 -0.08894301 34.08162448 -0.08964637 36.50805664 -0.08862305 C37.65088608 -0.09783279 38.79371552 -0.10704254 39.97117615 -0.11653137 C41.03900833 -0.11030258 42.10684052 -0.10407379 43.20703125 -0.09765625 C44.61123573 -0.09860039 44.61123573 -0.09860039 46.04380798 -0.0995636 C49.49122171 0.39201351 52.19062698 1.79707229 54.66821289 4.2746582 C54.8093645 6.94524671 54.71068396 9.59898058 54.66821289 12.2746582 C55.59053711 12.42161133 55.59053711 12.42161133 56.53149414 12.5715332 C57.74385742 12.79583008 57.74385742 12.79583008 58.98071289 13.0246582 C59.7812207 13.16387695 60.58172852 13.3030957 61.40649414 13.4465332 C64.33247349 14.51787625 65.07318714 15.61431797 66.66821289 18.2746582 C67.32083243 22.5417276 67.17763736 26.83796462 67.16821289 31.1496582 C67.19657227 32.32141602 67.22493164 33.49317383 67.25415039 34.70043945 C67.25801758 36.40393555 67.25801758 36.40393555 67.26196289 38.1418457 C67.26905273 39.17422363 67.27614258 40.20660156 67.28344727 41.27026367 C66.48189664 45.18450257 64.73632985 47.78508843 61.66821289 50.2746582 C58.77096842 50.85651084 56.71969542 51.0450524 53.83618164 50.95922852 C53.06319733 50.95998886 52.29021301 50.96074921 51.49380493 50.96153259 C48.94654249 50.95567337 46.40240063 50.90569032 43.85571289 50.8527832 C42.08123513 50.83437016 40.30673766 50.81777491 38.53222656 50.80291748 C34.81623627 50.76483474 31.10140329 50.70494065 27.38598633 50.62963867 C22.62778906 50.53492237 17.87093823 50.49404952 13.11192322 50.46947098 C9.44834311 50.44466626 5.78559431 50.39148168 2.12246704 50.3297348 C0.36832453 50.30353868 -1.38597166 50.28609787 -3.14028931 50.27762604 C-5.59495924 50.26147014 -8.04593835 50.20716085 -10.49975586 50.14282227 C-11.22198334 50.14561691 -11.94421082 50.14841156 -12.68832397 50.15129089 C-15.48320797 50.04605131 -17.6941086 49.79721741 -19.89761353 47.99150848 C-25.65392222 41.38445941 -24.77177917 32.57809812 -24.33178711 24.2746582 C-23.81871756 20.6377095 -22.79701183 17.92941891 -20.64428711 14.8996582 C-17.60473195 12.76375458 -14.99003476 12.55606187 -11.33178711 12.2746582 C-11.55866211 11.5527832 -11.78553711 10.8309082 -12.01928711 10.0871582 C-12.42484642 6.43712441 -11.56952803 5.12970697 -9.33178711 2.2746582 C-6.18083301 0.27904764 -3.69381414 0.01819535 0 0 Z " fill="#25AE5F" transform="translate(154.331787109375,73.725341796875)"/>
<path d="M0 0 C10.15266151 -0.02312392 20.3053168 -0.04091534 30.45799923 -0.05181217 C35.17179733 -0.05704089 39.88557747 -0.06413834 44.59936523 -0.07543945 C49.14455404 -0.08626873 53.68972552 -0.09227692 58.23492622 -0.09487724 C59.97294958 -0.09673142 61.71097194 -0.10035189 63.44898796 -0.10573006 C65.87478595 -0.11294103 68.30051146 -0.11399092 70.72631836 -0.11352539 C71.45208069 -0.11712067 72.17784302 -0.12071594 72.92559814 -0.12442017 C77.88594784 -0.11405216 77.88594784 -0.11405216 79 1 C79.10855845 2.43056783 79.14901847 3.86639565 79.16113281 5.30102539 C79.17074036 6.21610367 79.1803479 7.13118195 79.19024658 8.07398987 C79.19449646 9.07179977 79.19874634 10.06960968 79.203125 11.09765625 C79.20882507 12.12048203 79.21452515 13.1433078 79.22039795 14.1971283 C79.2298686 16.3702592 79.23639008 18.5434046 79.24023438 20.71655273 C79.24988818 24.02418657 79.28087069 27.33118544 79.3125 30.63867188 C79.31903503 32.74999631 79.32428353 34.8613252 79.328125 36.97265625 C79.3404718 37.95629654 79.3528186 38.93993683 79.36553955 39.9533844 C79.3443375 46.57408094 78.93739649 53.06260351 74 58 C72 59 72 59 69 59 C69 53.06 69 47.12 69 41 C49.2 41 29.4 41 9 41 C9 46.94 9 52.88 9 59 C3 57 3 57 1.15698242 54.72412109 C-0.10057392 51.76319819 -0.42411614 49.62112655 -0.51171875 46.4140625 C-0.5473291 45.32859131 -0.58293945 44.24312012 -0.61962891 43.12475586 C-0.64202637 41.96983643 -0.66442383 40.81491699 -0.6875 39.625 C-0.72020996 38.43720947 -0.75291992 37.24941895 -0.78662109 36.02563477 C-0.98847761 27.99783301 -1.09217892 19.96772303 -1.125 11.9375 C-1.12975342 10.96312988 -1.13450684 9.98875977 -1.1394043 8.98486328 C-1.137229 8.09138184 -1.13505371 7.19790039 -1.1328125 6.27734375 C-1.13168457 5.49609131 -1.13055664 4.71483887 -1.12939453 3.90991211 C-1 2 -1 2 0 0 Z " fill="#E6C299" transform="translate(137,123)"/>
<path d="M0 0 C1.13824219 -0.01417969 2.27648437 -0.02835938 3.44921875 -0.04296875 C6.3125 0.1875 6.3125 0.1875 8.3125 2.1875 C7.6525 2.1875 6.9925 2.1875 6.3125 2.1875 C6.3125 20.6675 6.3125 39.1475 6.3125 58.1875 C5.6525 58.1875 4.9925 58.1875 4.3125 58.1875 C4.3125 58.8475 4.3125 59.5075 4.3125 60.1875 C1.6725 60.1875 -0.9675 60.1875 -3.6875 60.1875 C-4.0175 59.1975 -4.3475 58.2075 -4.6875 57.1875 C-6.3375 57.1875 -7.9875 57.1875 -9.6875 57.1875 C-10.0175 56.1975 -10.3475 55.2075 -10.6875 54.1875 C-11.3475 54.1875 -12.0075 54.1875 -12.6875 54.1875 C-13.19819267 52.6493423 -13.69552747 51.10674711 -14.1875 49.5625 C-14.4659375 48.70398438 -14.744375 47.84546875 -15.03125 46.9609375 C-15.74420841 43.94783946 -15.73227409 41.27318108 -15.6875 38.1875 C-16.47922607 38.21368408 -17.27095215 38.23986816 -18.08666992 38.2668457 C-21.68257717 38.37094122 -25.27816731 38.435869 -28.875 38.5 C-30.12087891 38.54189453 -31.36675781 38.58378906 -32.65039062 38.62695312 C-41.75919294 38.74905503 -41.75919294 38.74905503 -46.01953125 36.171875 C-48.11611817 32.42060473 -48.35632425 29.31107398 -48.1875 25.125 C-48.19136719 24.06442383 -48.19136719 24.06442383 -48.1953125 22.98242188 C-48.13628743 19.83933707 -47.87089968 17.52463177 -46.359375 14.74609375 C-43.67194405 12.24075508 -41.28582857 12.30744429 -37.6875 12.1875 C-31.39230142 13.36118109 -31.39230142 13.36118109 -28.875 16.3125 C-25.31775999 19.36156287 -21.18319592 18.49636461 -16.6875 18.1875 C-16.52314453 16.72376953 -16.52314453 16.72376953 -16.35546875 15.23046875 C-16.19691406 13.95816406 -16.03835937 12.68585938 -15.875 11.375 C-15.72417969 10.11042969 -15.57335937 8.84585938 -15.41796875 7.54296875 C-14.6875 4.1875 -14.6875 4.1875 -13.42578125 2.30078125 C-9.38485374 -0.2872285 -4.65637988 0.02654721 0 0 Z " fill="#25AE60" transform="translate(145.6875,210.8125)"/>
<path d="M0 0 C0.87344055 -0.00525696 1.7468811 -0.01051392 2.64678955 -0.01593018 C5.538145 -0.02914965 8.42895131 -0.02038521 11.3203125 -0.01025391 C13.32666123 -0.01227408 15.33300925 -0.01518505 17.33935547 -0.01895142 C21.54596949 -0.02337741 25.75239253 -0.01693481 29.95898438 -0.00292969 C35.35638633 0.01416229 40.75334079 0.00432259 46.15072632 -0.01364708 C50.29422388 -0.02447745 54.43761499 -0.021042 58.58111572 -0.0132637 C60.5714727 -0.01125963 62.56183929 -0.01372821 64.55218506 -0.02070236 C67.33192618 -0.02830452 70.1109383 -0.01673004 72.890625 0 C74.12972626 -0.00910904 74.12972626 -0.00910904 75.39385986 -0.0184021 C81.01989121 0.0444636 81.01989121 0.0444636 83.15304565 1.76795006 C84.91348692 3.97517682 84.8785605 5.46537083 84.8828125 8.26318359 C84.90214844 9.10623047 84.92148438 9.94927734 84.94140625 10.81787109 C84.25109732 14.39443232 83.08825318 15.87165298 80.4453125 18.38818359 C77.43420501 18.88662465 74.98698145 19.06316449 71.9765625 19.01928711 C71.12408936 19.02644241 70.27161621 19.03359772 69.39331055 19.04096985 C66.57676527 19.05787216 63.76180827 19.03844584 60.9453125 19.01708984 C58.98762887 19.0179184 57.0299453 19.02037729 55.07226562 19.0243988 C50.96983901 19.02725785 46.86795803 19.01254509 42.765625 18.98510742 C37.50607864 18.95102455 32.2475081 18.95704188 26.98791504 18.97577 C22.94555524 18.9863367 18.90342265 18.97740514 14.86108398 18.96238518 C12.92180048 18.95720049 10.98249328 18.95768864 9.04321289 18.96393013 C6.33297678 18.96937835 3.62413926 18.94902041 0.9140625 18.92163086 C0.11186279 18.92815674 -0.69033691 18.93468262 -1.5168457 18.94140625 C-5.08686988 18.88003249 -7.15260058 18.68836616 -10.05297852 16.52305603 C-11.96810965 13.80045084 -12.05965399 12.13154182 -11.9921875 8.82568359 C-11.99089844 7.87564453 -11.98960938 6.92560547 -11.98828125 5.94677734 C-10.86747559 -0.66698577 -5.60720967 -0.04122044 0 0 Z " fill="#AED6AE" transform="translate(139.5546875,307.61181640625)"/>
<path d="M0 0 C34.98 0 69.96 0 106 0 C106.495 11.88 106.495 11.88 107 24 C107.99 26.97 107.99 26.97 109 30 C105.04 30 101.08 30 97 30 C97.99 28.35 98.98 26.7 100 25 C100.43134141 22.40659407 100.43134141 22.40659407 100.3125 19.8125 C100.30863281 18.95269531 100.30476563 18.09289062 100.30078125 17.20703125 C100.19884937 14.79541861 100.19884937 14.79541861 98 13 C95.14899816 12.80128947 92.39511575 12.72731977 89.54296875 12.74121094 C88.66806793 12.7377063 87.79316711 12.73420166 86.89175415 12.73059082 C83.99025617 12.72176463 81.08900061 12.72762578 78.1875 12.734375 C76.177327 12.7330286 74.16715431 12.73108829 72.15698242 12.72857666 C67.94023545 12.72562419 63.72357309 12.72992698 59.50683594 12.73925781 C54.09257777 12.7506524 48.67851786 12.74409358 43.26426697 12.73211288 C39.11224871 12.7248976 34.96027771 12.72718069 30.80825806 12.73236847 C28.81149268 12.73370588 26.81472307 12.73205406 24.81796265 12.72740936 C22.0308693 12.72234957 19.24410034 12.73004662 16.45703125 12.74121094 C15.62579742 12.73716248 14.7945636 12.73311401 13.93814087 12.72894287 C9.49816447 12.57791215 9.49816447 12.57791215 6 15 C5.64195789 17.52982597 5.64195789 17.52982597 5.6875 20.375 C5.67074219 21.33148438 5.65398437 22.28796875 5.63671875 23.2734375 C5.83499317 26.45927926 5.83499317 26.45927926 9 30 C5.04 30 1.08 30 -3 30 C-2 26 -2 26 -1 24 C-0.67 16.08 -0.34 8.16 0 0 Z " fill="#2C552C" transform="translate(123,296)"/>
<path d="M0 0 C0.99773437 -0.02449219 1.99546875 -0.04898437 3.0234375 -0.07421875 C4.46589844 -0.08001953 4.46589844 -0.08001953 5.9375 -0.0859375 C6.81277344 -0.09415527 7.68804687 -0.10237305 8.58984375 -0.11083984 C11.91778854 0.56000802 13.02812611 1.62609066 15 4.375 C15.57763672 7.57958984 15.57763672 7.57958984 15.6796875 11.3359375 C15.7009671 12.00412506 15.7222467 12.67231262 15.74417114 13.36074829 C15.78495486 14.77086135 15.81632459 16.18127428 15.83886719 17.59179688 C15.87478144 19.73694541 15.9427407 21.87926021 16.015625 24.0234375 C16.32967246 36.09781475 16.32967246 36.09781475 14 41.375 C9.31548542 44.49800972 4.44543903 43.70348357 -1.0625 43.6875 C-2.7340918 43.71166992 -2.7340918 43.71166992 -4.43945312 43.73632812 C-5.50228516 43.73697266 -6.56511719 43.73761719 -7.66015625 43.73828125 C-8.63605713 43.74126221 -9.61195801 43.74424316 -10.61743164 43.74731445 C-11.4036792 43.62445068 -12.18992676 43.50158691 -13 43.375 C-15.58995441 39.49006838 -15.25225542 36.26932764 -15.1953125 31.76953125 C-15.19106766 30.51072395 -15.19106766 30.51072395 -15.18673706 29.22648621 C-15.17554385 26.54667897 -15.15044101 23.86720619 -15.125 21.1875 C-15.11496908 19.37044754 -15.10584343 17.55338983 -15.09765625 15.73632812 C-15.07560734 11.28242325 -15.04108351 6.82876833 -15 2.375 C-10.17965991 -0.42801099 -5.44089835 0.00702958 0 0 Z " fill="#111111" transform="translate(245,282.625)"/>
<path d="M0 0 C0.9178125 0.01289063 1.835625 0.02578125 2.78125 0.0390625 C3.72742188 0.07257813 4.67359375 0.10609375 5.6484375 0.140625 C7.07929687 0.16769531 7.07929687 0.16769531 8.5390625 0.1953125 C10.30440301 0.23012203 12.06961455 0.27316052 13.83447266 0.32714844 C15.56353018 0.37728841 17.29365314 0.390625 19.0234375 0.390625 C19.3534375 0.390625 19.6834375 0.390625 20.0234375 0.390625 C20.0729045 5.87156866 20.1091889 11.35238213 20.13330078 16.83349609 C20.14335343 18.69777694 20.15699755 20.56204203 20.17431641 22.42626953 C20.19859703 25.10713591 20.20992797 27.78779366 20.21875 30.46875 C20.22907257 31.30118225 20.23939514 32.1336145 20.25003052 32.99127197 C20.25141359 40.13731736 20.25141359 40.13731736 18.0234375 43.390625 C14.10702039 43.50681264 10.19104649 43.57787154 6.2734375 43.640625 C4.60667969 43.69089844 4.60667969 43.69089844 2.90625 43.7421875 C1.30136719 43.76152344 1.30136719 43.76152344 -0.3359375 43.78125 C-1.32045898 43.80219727 -2.30498047 43.82314453 -3.31933594 43.84472656 C-5.9765625 43.390625 -5.9765625 43.390625 -8.29370117 41.86035156 C-10.59789133 38.47877785 -10.56976093 35.44058666 -10.54296875 31.484375 C-10.54916733 30.72265991 -10.55536591 29.96094482 -10.56175232 29.17614746 C-10.56884173 27.56910477 -10.56569168 25.96198851 -10.55297852 24.35498047 C-10.53910436 21.89803871 -10.57319712 19.44490178 -10.61132812 16.98828125 C-10.61227932 15.42447824 -10.61042048 13.86067046 -10.60546875 12.296875 C-10.61872696 11.56448608 -10.63198517 10.83209717 -10.64564514 10.07751465 C-10.57827977 6.38213555 -10.25583971 4.70016463 -7.74829102 1.92089844 C-4.81758954 0.30285591 -3.30579106 -0.08297989 0 0 Z " fill="#111111" transform="translate(101.9765625,282.609375)"/>
<path d="M0 0 C19.8 0 39.6 0 60 0 C60.495 9.405 60.495 9.405 61 19 C45.65122967 19.15662011 30.33587057 18.563114 15 18 C14.67 18.99 14.34 19.98 14 21 C14 20.34 14 19.68 14 19 C9.05 19 4.1 19 -1 19 C-0.67 12.73 -0.34 6.46 0 0 Z " fill="#301E10" transform="translate(146,164)"/>
<path d="M0 0 C4.25414623 -0.02465622 8.50825498 -0.04283899 12.76245117 -0.05493164 C14.21070073 -0.05997101 15.65894517 -0.06680253 17.10717773 -0.07543945 C19.18474588 -0.08752247 21.26224697 -0.09323211 23.33984375 -0.09765625 C24.59144287 -0.10289307 25.84304199 -0.10812988 27.13256836 -0.11352539 C30 0 30 0 31 1 C31.10016264 3.0748785 31.13081249 5.153175 31.1328125 7.23046875 C31.13474609 9.14762695 31.13474609 9.14762695 31.13671875 11.10351562 C31.13462402 11.77423096 31.1325293 12.44494629 31.13037109 13.13598633 C31.12506755 15.16169897 31.13029186 17.18718534 31.13671875 19.21289062 C31.13542969 20.49744141 31.13414062 21.78199219 31.1328125 23.10546875 C31.13168457 24.28262451 31.13055664 25.45978027 31.12939453 26.67260742 C31 30 31 30 30 36 C20.1 36 10.2 36 0 36 C-0.63008667 30.32921993 -1.11925197 25.74279539 -0.87890625 20.21484375 C-0.83056641 19.02568359 -0.78222656 17.83652344 -0.73242188 16.61132812 C-0.67634766 15.39896484 -0.62027344 14.18660156 -0.5625 12.9375 C-0.51029297 11.69033203 -0.45808594 10.44316406 -0.40429688 9.15820312 C-0.27562425 6.10515269 -0.14070861 3.0525154 0 0 Z " fill="#E2C199" transform="translate(161,182)"/>
<path d="M0 0 C0.804375 0.845625 1.60875 1.69125 2.4375 2.5625 C5.50383151 5.47925436 6.23699438 5.28799192 10.3125 5.1875 C11.26640625 5.14238281 12.2203125 5.09726563 13.203125 5.05078125 C17.15896751 4.97895729 20.24722262 5.77181831 24 7 C26.68459392 9.68459392 26.32966548 11.19740198 26.375 14.9375 C26.40335938 15.99839844 26.43171875 17.05929688 26.4609375 18.15234375 C26 21 26 21 24.3515625 22.81640625 C17.8003608 26.11377189 9.59041343 25.29151772 2.4375 25.375 C1.21869141 25.41238281 -0.00011719 25.44976562 -1.25585938 25.48828125 C-10.05766931 25.57518886 -10.05766931 25.57518886 -14.30859375 22.98046875 C-16.43568799 19.23226342 -16.66920146 16.13292718 -16.5 11.9375 C-16.50386719 10.87692383 -16.50386719 10.87692383 -16.5078125 9.79492188 C-16.44866115 6.64511272 -16.18894822 4.34219402 -14.65625 1.56640625 C-10.63992529 -2.23205179 -4.98554404 -1.22012504 0 0 Z " fill="#E7C49B" transform="translate(114,224)"/>
<path d="M0 0 C2.75495215 2.49765594 3.00071488 4.00672833 3.3984375 7.75 C3.4063666 9.16666602 3.39809511 10.58350005 3.375 12 C3.38660156 12.7115625 3.39820313 13.423125 3.41015625 14.15625 C3.39352868 17.12704208 3.12552853 19.66877345 2.0703125 22.453125 C-1.40826618 25.05221397 -5.27213917 24.68342254 -9.5 24.75 C-10.40186035 24.77747314 -11.3037207 24.80494629 -12.23291016 24.83325195 C-14.82188775 24.90665681 -17.41041416 24.95433847 -20 25 C-21.17304688 25.03996094 -22.34609375 25.07992187 -23.5546875 25.12109375 C-28.43300944 25.23595729 -32.47809331 25.08703386 -37 23 C-39.68459392 20.31540608 -39.32966548 18.80259802 -39.375 15.0625 C-39.40335938 14.00160156 -39.43171875 12.94070312 -39.4609375 11.84765625 C-39 9 -39 9 -37.5859375 7.1328125 C-33.53882209 5.35990696 -29.61155096 5.68687187 -25.25 5.8125 C-24.36183594 5.82603516 -23.47367188 5.83957031 -22.55859375 5.85351562 C-20.37177422 5.88878691 -18.18620034 5.93807248 -16 6 C-15.72414062 5.20335937 -15.44828125 4.40671875 -15.1640625 3.5859375 C-14 1 -14 1 -11.375 -0.375 C-7.06189259 -1.17372359 -4.2930313 -0.98528587 0 0 Z " fill="#E6C39B" transform="translate(251,224)"/>
<path d="M0 0 C0 7.59 0 15.18 0 23 C2.97 22.67 5.94 22.34 9 22 C11.01177459 21.91907665 13.02541757 21.87228976 15.03881836 21.87060547 C16.13282455 21.86745331 17.22683075 21.86430115 18.35398865 21.86105347 C20.07948692 21.86408981 20.07948692 21.86408981 21.83984375 21.8671875 C23.04314835 21.86623077 24.24645294 21.86527405 25.48622131 21.86428833 C28.01335706 21.86361109 30.5404946 21.86543342 33.06762695 21.86962891 C36.94942064 21.87501654 40.83110035 21.86965167 44.71289062 21.86328125 C47.17187526 21.86394147 49.63085982 21.86522146 52.08984375 21.8671875 C53.25434555 21.86516327 54.41884735 21.86313904 55.61863708 21.86105347 C56.69057816 21.86420563 57.76251923 21.86735779 58.86694336 21.87060547 C59.81242538 21.87140106 60.75790741 21.87219666 61.73204041 21.87301636 C64 22 64 22 66 23 C66 23.66 66 24.32 66 25 C44.88 25 23.76 25 2 25 C2 25.66 2 26.32 2 27 C3.17057953 26.99333817 3.17057953 26.99333817 4.36480713 26.98654175 C11.72162594 26.94645647 19.07839174 26.91601127 26.43529129 26.89637566 C30.21748771 26.88594142 33.99959383 26.87178884 37.78173828 26.84912109 C41.43217608 26.82737979 45.08252705 26.81542866 48.7330246 26.81024551 C50.12527584 26.80655206 51.51752238 26.79933966 52.90973663 26.78853989 C54.86067567 26.77400874 56.81170218 26.77318294 58.76269531 26.77294922 C60.42815399 26.76628738 60.42815399 26.76628738 62.1272583 26.75949097 C64.95713987 26.9964117 66.60165414 27.53163704 69 29 C68.835 28.13375 68.67 27.2675 68.5 26.375 C67.72184489 21.27492932 68.07214793 16.15025877 68.2578125 11.01171875 C68.17273438 10.01785156 68.08765625 9.02398437 68 8 C67.01 7.34 66.02 6.68 65 6 C67.97 5.505 67.97 5.505 71 5 C72.16903873 8.50711619 72.16839619 11.36782386 72.1875 15.0625 C72.20167969 16.31160156 72.21585937 17.56070313 72.23046875 18.84765625 C72 22 72 22 70 24 C70.495 24.5775 70.99 25.155 71.5 25.75 C73 28 73 28 73 32 C63.04692589 32.11589171 53.0940125 32.20471419 43.14040089 32.25906086 C38.51840685 32.28514583 33.89687469 32.3205234 29.27514648 32.37719727 C24.81418512 32.43155689 20.35366777 32.46142882 15.89240074 32.47438622 C14.19110817 32.48361907 12.48983969 32.50164913 10.78873634 32.52865028 C8.40395385 32.56499504 6.02100158 32.56994337 3.63598633 32.56762695 C2.5829406 32.59459152 2.5829406 32.59459152 1.50862122 32.62210083 C-2.30953833 32.58202002 -3.87128126 32.10535236 -6.8639679 29.65592957 C-10.24248083 25.45510676 -12 22.44384806 -12 17 C-9.6875 14.6875 -9.6875 14.6875 -7 13 C-6.01 13.33 -5.02 13.66 -4 14 C-5.75 18.875 -5.75 18.875 -8 20 C-8.33 20.99 -8.66 21.98 -9 23 C-7.68 23 -6.36 23 -5 23 C-5 24.32 -5 25.64 -5 27 C-4.01 26.67 -3.02 26.34 -2 26 C-2 19.07 -2 12.14 -2 5 C-3.32 4.67 -4.64 4.34 -6 4 C-6.33 4.99 -6.66 5.98 -7 7 C-7.66 6.67 -8.32 6.34 -9 6 C-8.875 4.125 -8.875 4.125 -8 2 C-5.25822503 0.83328724 -2.99432393 0 0 0 Z " fill="#1CAF5F" transform="translate(142,89)"/>
<path d="M0 0 C0 2.31 0 4.62 0 7 C1.98 7 3.96 7 6 7 C6.33 14.92 6.66 22.84 7 31 C3.7 31 0.4 31 -3 31 C-3 33.97 -3 36.94 -3 40 C-0.03 40 2.94 40 6 40 C6 44.95 6 49.9 6 55 C1.05 55 -3.9 55 -9 55 C-9 37.51 -9 20.02 -9 2 C-3 0 -3 0 0 0 Z " fill="#1F749A" transform="translate(161,211)"/>
<path d="M0 0 C2.64 0.33 5.28 0.66 8 1 C8 18.82 8 36.64 8 55 C3.05 55 -1.9 55 -7 55 C-7 51.04 -7 47.08 -7 43 C-4.03 42.34 -1.06 41.68 2 41 C2 37.7 2 34.4 2 31 C-1.3 31 -4.6 31 -8 31 C-7.67 23.08 -7.34 15.16 -7 7 C-5.02 7 -3.04 7 -1 7 C-1.020625 6.030625 -1.04125 5.06125 -1.0625 4.0625 C-1 1 -1 1 0 0 Z " fill="#25719D" transform="translate(192,211)"/>
<path d="M0 0 C4.95 0 9.9 0 15 0 C15 7.26 15 14.52 15 22 C14.34 22 13.68 22 13 22 C13.33 22.66 13.66 23.32 14 24 C14.07065617 26.04055005 14.08421976 28.08334257 14.0625 30.125 C14.05347656 31.22070312 14.04445312 32.31640625 14.03515625 33.4453125 C14.02355469 34.28835937 14.01195312 35.13140625 14 36 C13.67 34.68 13.34 33.36 13 32 C12.34 32 11.68 32 11 32 C11.20625 32.61875 11.4125 33.2375 11.625 33.875 C11.74875 34.57625 11.8725 35.2775 12 36 C11.34 36.66 10.68 37.32 10 38 C9.59952556 40.32275177 9.2602896 42.65739357 9 45 C7.02 45.66 5.04 46.32 3 47 C3 47.66 3 48.32 3 49 C1.35 48.67 -0.3 48.34 -2 48 C-1.67 47.34 -1.34 46.68 -1 46 C-0.88213309 44.51987176 -0.82307062 43.03483534 -0.79467773 41.55029297 C-0.77473251 40.62948944 -0.75478729 39.70868591 -0.73423767 38.75997925 C-0.70916893 37.26617233 -0.70916893 37.26617233 -0.68359375 35.7421875 C-0.66281265 34.72399933 -0.64203156 33.70581116 -0.62062073 32.6567688 C-0.55510534 29.39624945 -0.49623098 26.13564794 -0.4375 22.875 C-0.39431668 20.66796017 -0.35070245 18.46092872 -0.30664062 16.25390625 C-0.1994219 10.83602225 -0.09816004 5.41805539 0 0 Z " fill="#24AE61" transform="translate(169,220)"/>
<path d="M0 0 C5.94 0 11.88 0 18 0 C18 7.59 18 15.18 18 23 C17.67 23 17.34 23 17 23 C17 16.07 17 9.14 17 2 C12.05 2 7.1 2 2 2 C2 3.38300293 2 4.76600586 2 6.19091797 C2 20.79394531 2 35.39697266 2 50 C3.485 50.495 3.485 50.495 5 51 C5 50.34 5 49.68 5 49 C6.65 48.34 8.3 47.68 10 47 C10.33 44.03 10.66 41.06 11 38 C11.99 38 12.98 38 14 38 C13.67 36.68 13.34 35.36 13 34 C13.66 34 14.32 34 15 34 C15 30.7 15 27.4 15 24 C18.96 24 22.92 24 27 24 C27 26.97 27 29.94 27 33 C22.545 33.495 22.545 33.495 18 34 C17.67 38.95 17.34 43.9 17 49 C21.95 49 26.9 49 32 49 C32.66 50.32 33.32 51.64 34 53 C17.17 53 0.34 53 -17 53 C-17 52.34 -17 51.68 -17 51 C-16.34 51 -15.68 51 -15 51 C-15 50.01 -15 49.02 -15 48 C-10.05 48 -5.1 48 0 48 C0 43.05 0 38.1 0 33 C-2.97 33 -5.94 33 -9 33 C-9 30.03 -9 27.06 -9 24 C-6.03 23.67 -3.06 23.34 0 23 C0 15.41 0 7.82 0 0 Z " fill="#2BAC65" transform="translate(167,218)"/>
<path d="M0 0 C0.66 0 1.32 0 2 0 C2.04898438 1.19238281 2.09796875 2.38476562 2.1484375 3.61328125 C2.22347604 5.17971068 2.2990234 6.74611579 2.375 8.3125 C2.4059375 9.09818359 2.436875 9.88386719 2.46875 10.69335938 C2.50742188 11.45068359 2.54609375 12.20800781 2.5859375 12.98828125 C2.6173584 13.68477783 2.6487793 14.38127441 2.68115234 15.09887695 C2.92118253 17.32532739 2.92118253 17.32532739 5 20 C4.67 20.99 4.34 21.98 4 23 C4.66 23 5.32 23 6 23 C6 25.64 6 28.28 6 31 C6.99 31 7.98 31 9 31 C8.67 28.69 8.34 26.38 8 24 C10.31 24 12.62 24 15 24 C15 25.65 15 27.3 15 29 C15.99 29 16.98 29 18 29 C17.96699341 31.27145346 17.89759995 33.54240126 17.8125 35.8125 C17.77769531 37.07707031 17.74289063 38.34164062 17.70703125 39.64453125 C17 43 17 43 14.7109375 44.9296875 C10.77715704 46.4827939 8.21251436 46.34528806 4 46 C3.34 45.34 2.68 44.68 2 44 C0.35 43.67 -1.3 43.34 -3 43 C-3 36.4 -3 29.8 -3 23 C-1.68 23 -0.36 23 1 23 C0.835 21.80375 0.67 20.6075 0.5 19.375 C-0.23219971 12.92958003 -0.08292095 6.47704735 0 0 Z " fill="#25AC5F" transform="translate(204,225)"/>
<path d="M0 0 C0.99773437 -0.02449219 1.99546875 -0.04898437 3.0234375 -0.07421875 C10.2175734 -0.10314959 10.2175734 -0.10314959 13.671875 2.0078125 C15.38932865 5.06892107 15.40176964 7.13429821 15.25 10.625 C15.21390625 11.70265625 15.1778125 12.7803125 15.140625 13.890625 C15.07101562 15.12039063 15.07101562 15.12039063 15 16.375 C14.34 16.375 13.68 16.375 13 16.375 C12.67 17.035 12.34 17.695 12 18.375 C12 15.405 12 12.435 12 9.375 C4.08 9.705 -3.84 10.035 -12 10.375 C-12.33 14.005 -12.66 17.635 -13 21.375 C-13.66 21.705 -14.32 22.035 -15 22.375 C-15 15.775 -15 9.175 -15 2.375 C-9.82334064 -0.21332968 -5.69664333 0.00736 0 0 Z " fill="#0F100F" transform="translate(245,282.625)"/>
<path d="M0 0 C2.89659753 0.32184417 5.31897331 0.61408488 7.875 2.0625 C9.73193849 5.26056073 9.17925295 8.35518997 9 12 C9.92232422 12.14695312 9.92232422 12.14695312 10.86328125 12.296875 C12.07564453 12.52117187 12.07564453 12.52117187 13.3125 12.75 C14.11300781 12.88921875 14.91351563 13.0284375 15.73828125 13.171875 C18.6642606 14.24321804 19.40497425 15.33965977 21 18 C21.65261954 22.26706939 21.50942447 26.56330641 21.5 30.875 C21.52835937 32.04675781 21.55671875 33.21851563 21.5859375 34.42578125 C21.58980469 36.12927734 21.58980469 36.12927734 21.59375 37.8671875 C21.60083984 38.89956543 21.60792969 39.93194336 21.61523438 40.99560547 C20.81368375 44.90984437 19.06811695 47.51043023 16 50 C13.10275553 50.58185264 11.05148253 50.7703942 8.16796875 50.68457031 C7.39498444 50.68533066 6.62200012 50.686091 5.82559204 50.68687439 C3.2783296 50.68101516 0.73418774 50.63103212 -1.8125 50.578125 C-3.58697776 50.55971196 -5.36147523 50.54311671 -7.13598633 50.52825928 C-10.85197662 50.49017653 -14.5668096 50.43028245 -18.28222656 50.35498047 C-23.04042383 50.26026416 -27.79727467 50.21939132 -32.55628967 50.19481277 C-36.21986978 50.17000806 -39.88261858 50.11682348 -43.54574585 50.0550766 C-45.29988836 50.02888047 -47.05418455 50.01143967 -48.8085022 50.00296783 C-51.26317213 49.98681194 -53.71415124 49.93250264 -56.16796875 49.86816406 C-56.89019623 49.87095871 -57.61242371 49.87375336 -58.35653687 49.87663269 C-61.16167848 49.77100686 -63.36944954 49.51448166 -65.58340454 47.70806122 C-67.77736909 45.20385845 -68.94968663 43.46288301 -69.3125 40.125 C-69.209375 39.42375 -69.10625 38.7225 -69 38 C-66.01058532 39.49470734 -65.46221468 42.07557063 -64 45 C-61.0381081 46.48094595 -58.01721931 46.17328073 -54.76806641 46.19287109 C-53.65072868 46.20513733 -53.65072868 46.20513733 -52.51081848 46.21765137 C-50.0410747 46.24250322 -47.57138833 46.25901945 -45.1015625 46.2734375 C-43.83754168 46.28142302 -43.83754168 46.28142302 -42.54798508 46.28956985 C-38.08896545 46.31629867 -33.62997381 46.33567567 -29.17089844 46.35009766 C-24.56145829 46.36675841 -19.95273135 46.41154822 -15.34356117 46.4624691 C-11.80224773 46.4960931 -8.26110473 46.50766961 -4.71964645 46.51332474 C-3.02033401 46.52004913 -1.32103324 46.53530206 0.37812424 46.55921555 C2.75577043 46.59077248 5.13147746 46.59091937 7.50927734 46.58349609 C8.21176102 46.59990143 8.91424469 46.61630676 9.63801575 46.63320923 C13.34635667 46.58578748 14.74304365 46.25013896 17.44255066 43.62225342 C19.1951715 40.67139276 19.44672109 39.19784896 19.27734375 35.8046875 C19.23287109 34.84175781 19.18839844 33.87882812 19.14257812 32.88671875 C19.07490234 31.89285156 19.00722656 30.89898437 18.9375 29.875 C18.89689453 28.87339844 18.85628906 27.87179688 18.81445312 26.83984375 C18.62515978 20.66946184 18.62515978 20.66946184 15 16 C15 15.34 15 14.68 15 14 C14.05125 14.020625 13.1025 14.04125 12.125 14.0625 C9 14 9 14 7 13 C6.796875 11.0390625 6.796875 11.0390625 6.75 8.625 C6.62181674 6.1945811 6.62181674 6.1945811 6 4 C3.09748698 1.83752779 3.09748698 1.83752779 0 1 C0 0.67 0 0.34 0 0 Z " fill="#64A66B" transform="translate(200,74)"/>
<path d="M0 0 C7.92 0 15.84 0 24 0 C24 3.96 24 7.92 24 12 C16.08 12 8.16 12 0 12 C0 8.04 0 4.08 0 0 Z " fill="#303130" transform="translate(232,293)"/>
<path d="M0 0 C1.32 0 2.64 0 4 0 C4 17.82 4 35.64 4 54 C-0.95 54 -5.9 54 -11 54 C-11 50.04 -11 46.08 -11 42 C-8.03 41.34 -5.06 40.68 -2 40 C-2 39.34 -2 38.68 -2 38 C-0.68 38 0.64 38 2 38 C2.04950115 33.23113513 2.08576738 28.46242041 2.10986328 23.69335938 C2.11991023 22.07158808 2.13355015 20.44983484 2.15087891 18.828125 C2.17518493 16.49474626 2.18649613 14.1616074 2.1953125 11.828125 C2.20563507 11.10506165 2.21595764 10.38199829 2.22659302 9.63702393 C2.22741782 5.92201961 2.06235471 3.15418955 0 0 Z " fill="#1D749B" transform="translate(196,212)"/>
<path d="M0 0 C7.59 0 15.18 0 23 0 C23 3.63 23 7.26 23 11 C15.41 11 7.82 11 0 11 C0 7.37 0 3.74 0 0 Z " fill="#323332" transform="translate(96,293)"/>
<path d="M0 0 C5.94 0 11.88 0 18 0 C18 7.59 18 15.18 18 23 C17.67 23 17.34 23 17 23 C17 16.07 17 9.14 17 2 C12.05 2 7.1 2 2 2 C2.01740234 5.23876953 2.01740234 5.23876953 2.03515625 8.54296875 C2.04299987 10.68123224 2.04904628 12.819494 2.05493164 14.95776367 C2.05989824 16.42098736 2.06667378 17.88420625 2.07543945 19.34741211 C2.12950977 28.618882 1.88831598 37.75931051 1 47 C0.67 47 0.34 47 0 47 C0 42.38 0 37.76 0 33 C-2.97 33 -5.94 33 -9 33 C-9 30.03 -9 27.06 -9 24 C-6.03 23.67 -3.06 23.34 0 23 C0 15.41 0 7.82 0 0 Z " fill="#42A574" transform="translate(167,218)"/>
<path d="M0 0 C1.2065625 0.0309375 1.2065625 0.0309375 2.4375 0.0625 C2.7675 2.3725 3.0975 4.6825 3.4375 7.0625 C1.4575 7.3925 -0.5225 7.7225 -2.5625 8.0625 C-0.0875 8.5575 -0.0875 8.5575 2.4375 9.0625 C2.1075 10.0525 1.7775 11.0425 1.4375 12.0625 C1.3568378 13.54373547 1.32988807 15.02832204 1.33984375 16.51171875 C1.34467773 17.78305664 1.34467773 17.78305664 1.34960938 19.08007812 C1.35798828 19.96115234 1.36636719 20.84222656 1.375 21.75 C1.37951172 22.64267578 1.38402344 23.53535156 1.38867188 24.45507812 C1.40045017 26.65761987 1.41689836 28.86002599 1.4375 31.0625 C0.4475 31.3925 -0.5425 31.7225 -1.5625 32.0625 C-1.5625 25.4625 -1.5625 18.8625 -1.5625 12.0625 C-2.8825 12.3925 -4.2025 12.7225 -5.5625 13.0625 C-5.5625 11.7425 -5.5625 10.4225 -5.5625 9.0625 C-6.8825 9.0625 -8.2025 9.0625 -9.5625 9.0625 C-9.5625 8.4025 -9.5625 7.7425 -9.5625 7.0625 C-10.8825 7.0625 -12.2025 7.0625 -13.5625 7.0625 C-12.9025 10.0325 -12.2425 13.0025 -11.5625 16.0625 C-13.2125 16.0625 -14.8625 16.0625 -16.5625 16.0625 C-16.8925 13.7525 -17.2225 11.4425 -17.5625 9.0625 C-16.9025 9.0625 -16.2425 9.0625 -15.5625 9.0625 C-15.19125 7.639375 -15.19125 7.639375 -14.8125 6.1875 C-13.5625 3.0625 -13.5625 3.0625 -11.6875 1.6875 C-9.5625 1.0625 -9.5625 1.0625 -5.5625 1.0625 C-5.5625 2.3825 -5.5625 3.7025 -5.5625 5.0625 C-4.2425 5.0625 -2.9225 5.0625 -1.5625 5.0625 C-2.2225 3.7425 -2.8825 2.4225 -3.5625 1.0625 C-2.5625 0.0625 -2.5625 0.0625 0 0 Z " fill="#17B05F" transform="translate(147.5625,212.9375)"/>
<path d="M0 0 C-0.78375 0.309375 -1.5675 0.61875 -2.375 0.9375 C-5.15712803 2.66879902 -5.15712803 2.66879902 -5.42578125 5.02734375 C-5.51214844 5.80207031 -5.59851563 6.57679687 -5.6875 7.375 C-6.06640625 9.76953125 -6.06640625 9.76953125 -7 12 C-10.11465187 14.26189242 -13.39761041 15.67735142 -17 17 C-16.67 17.99 -16.34 18.98 -16 20 C-15.67 19.34 -15.34 18.68 -15 18 C-13.68 18.33 -12.36 18.66 -11 19 C-10.67 25.93 -10.34 32.86 -10 40 C-11.98 40.495 -11.98 40.495 -14 41 C-14 39.68 -14 38.36 -14 37 C-15.32 37 -16.64 37 -18 37 C-17.6875 34.625 -17.6875 34.625 -17 32 C-16.01 31.34 -15.02 30.68 -14 30 C-15.05270463 28.84188612 -15.05270463 28.84188612 -17 28 C-17.66 28.99 -18.32 29.98 -19 31 C-19.66 31 -20.32 31 -21 31 C-21.22317248 24.63958443 -21.14972822 19.02554342 -17.3125 13.625 C-14.27294485 11.48909638 -11.65824765 11.28140367 -8 11 C-8.226875 10.278125 -8.45375 9.55625 -8.6875 8.8125 C-9.09305931 5.16246621 -8.23774092 3.85504876 -6 1 C-2.57142857 -1.28571429 -2.57142857 -1.28571429 0 0 Z " fill="#2AAD60" transform="translate(151,75)"/>
<path d="M0 0 C3.00617269 3.00617269 2.59585316 5.82381598 3 10 C3.66 10 4.32 10 5 10 C5.66 10.66 6.32 11.32 7 12 C9.57061311 12.64767793 9.57061311 12.64767793 12 13 C12 13.99 12 14.98 12 16 C12.9204158 15.98747192 13.8408316 15.97494385 14.78913879 15.96203613 C23.45601285 15.84410447 32.12288951 15.72636699 40.78976917 15.60884857 C45.24567115 15.54842196 49.70157208 15.48791982 54.1574707 15.42724609 C58.456278 15.36871417 62.75508793 15.31037928 67.05389977 15.25218201 C68.69537133 15.22992495 70.33684193 15.20759646 71.97831154 15.18519592 C74.27435688 15.15387474 76.5704055 15.12280575 78.86645508 15.09179688 C80.8283654 15.06514954 80.8283654 15.06514954 82.82991028 15.03796387 C84.88649831 15.0133349 86.9432645 15 89 15 C86.50326484 17.49673516 84.99991007 17.25095319 81.59176636 17.29327393 C80.46183762 17.29191437 80.46183762 17.29191437 79.30908203 17.29052734 C78.11859253 17.30060318 78.11859253 17.30060318 76.90405273 17.31088257 C74.27190952 17.32993053 71.64002041 17.33379027 69.0078125 17.3359375 C67.18179213 17.34236112 65.35577281 17.34908914 63.52975464 17.35610962 C59.69803481 17.36809968 55.86640524 17.37178871 52.03466797 17.37060547 C47.12264619 17.37040227 42.21120296 17.39769704 37.29931831 17.43214989 C33.52637063 17.45437995 29.75356297 17.4584442 25.98055649 17.45738602 C24.16963585 17.45974814 22.3587117 17.46860594 20.54785538 17.48405075 C18.01472669 17.50363085 15.48285565 17.49790459 12.94970703 17.48583984 C12.20046967 17.49707886 11.4512323 17.50831787 10.67929077 17.51989746 C7.24106897 17.47825083 5.33484466 17.24897341 2.54122925 15.17178345 C0.42526797 12.19013118 0.39493815 9.87345381 0.25 6.25 C0.19328125 5.07953125 0.1365625 3.9090625 0.078125 2.703125 C0.05234375 1.81109375 0.0265625 0.9190625 0 0 Z " fill="#329553" transform="translate(130,255)"/>
<path d="M0 0 C0.33 0.66 0.66 1.32 1 2 C3.01669827 3.13350534 3.01669827 3.13350534 5 4 C5 6.64 5 9.28 5 12 C4.01 12.33 3.02 12.66 2 13 C2 12.34 2 11.68 2 11 C0.88625 11.020625 -0.2275 11.04125 -1.375 11.0625 C-5 11 -5 11 -7 10 C-7.99 10.33 -8.98 10.66 -10 11 C-10.33 8.36 -10.66 5.72 -11 3 C-8.08291076 1.01637931 -6.87619096 1.0123809 -3.25 1.375 C-2.1775 1.58125 -1.105 1.7875 0 2 C0 1.34 0 0.68 0 0 Z " fill="#25AE5F" transform="translate(213,211)"/>
<path d="M0 0 C1.13824219 -0.01417969 2.27648437 -0.02835938 3.44921875 -0.04296875 C6.3125 0.1875 6.3125 0.1875 8.3125 2.1875 C7.6525 2.1875 6.9925 2.1875 6.3125 2.1875 C6.3125 19.6775 6.3125 37.1675 6.3125 55.1875 C5.9825 55.1875 5.6525 55.1875 5.3125 55.1875 C4.8175 28.9525 4.8175 28.9525 4.3125 2.1875 C2.6625 2.5175 1.0125 2.8475 -0.6875 3.1875 C-0.3575 4.5075 -0.0275 5.8275 0.3125 7.1875 C-1.0075 7.1875 -2.3275 7.1875 -3.6875 7.1875 C-3.6875 5.8675 -3.6875 4.5475 -3.6875 3.1875 C-9.42898211 4.66259313 -9.42898211 4.66259313 -13.1875 8.875 C-13.3525 9.638125 -13.5175 10.40125 -13.6875 11.1875 C-14.3475 11.1875 -15.0075 11.1875 -15.6875 11.1875 C-15.0831044 4.78090659 -15.0831044 4.78090659 -13.4375 2.3125 C-9.45187004 -0.24969069 -4.59564004 0.02620091 0 0 Z " fill="#37A46D" transform="translate(145.6875,210.8125)"/>
<path d="M0 0 C3 4 3 4 3 6 C35.34 6 67.68 6 101 6 C101 6.33 101 6.66 101 7 C68 7 35 7 1 7 C1 14.92 1 22.84 1 31 C0.67 31 0.34 31 0 31 C0 20.77 0 10.54 0 0 Z " fill="#1F421E" transform="translate(122,289)"/>
<path d="M0 0 C0.9075 0.00257813 1.815 0.00515625 2.75 0.0078125 C4.11125 0.00394531 4.11125 0.00394531 5.5 0 C7.75 0.1328125 7.75 0.1328125 8.75 1.1328125 C8.91796875 3.12890625 8.91796875 3.12890625 8.9375 5.5703125 C8.95167969 6.37339844 8.96585938 7.17648438 8.98046875 8.00390625 C8.75 10.1328125 8.75 10.1328125 6.75 12.1328125 C4.875 12.3984375 4.875 12.3984375 2.75 12.3828125 C2.04875 12.38796875 1.3475 12.393125 0.625 12.3984375 C-1.25 12.1328125 -1.25 12.1328125 -3.25 10.1328125 C-3.48046875 8.00390625 -3.48046875 8.00390625 -3.4375 5.5703125 C-3.43105469 4.76464844 -3.42460937 3.95898438 -3.41796875 3.12890625 C-3.17738872 0.26992033 -2.87242287 0.16955274 0 0 Z " fill="#230F04" transform="translate(188.25,134.8671875)"/>
<path d="M0 0 C0.9075 0.00257813 1.815 0.00515625 2.75 0.0078125 C4.11125 0.00394531 4.11125 0.00394531 5.5 0 C7.75 0.1328125 7.75 0.1328125 8.75 1.1328125 C8.91796875 3.12890625 8.91796875 3.12890625 8.9375 5.5703125 C8.95167969 6.37339844 8.96585938 7.17648438 8.98046875 8.00390625 C8.75 10.1328125 8.75 10.1328125 6.75 12.1328125 C4.875 12.3984375 4.875 12.3984375 2.75 12.3828125 C2.04875 12.38796875 1.3475 12.393125 0.625 12.3984375 C-1.25 12.1328125 -1.25 12.1328125 -3.25 10.1328125 C-3.48046875 8.00390625 -3.48046875 8.00390625 -3.4375 5.5703125 C-3.43105469 4.76464844 -3.42460937 3.95898438 -3.41796875 3.12890625 C-3.17738872 0.26992033 -2.87242287 0.16955274 0 0 Z " fill="#271307" transform="translate(158.25,134.8671875)"/>
<path d="M0 0 C1.32 0 2.64 0 4 0 C4 0.66 4 1.32 4 2 C5.32 2 6.64 2 8 2 C7.91944192 6.1258197 7.80657315 10.25012631 7.6875 14.375 C7.65366211 16.1384375 7.65366211 16.1384375 7.61914062 17.9375 C7.58369141 19.05898437 7.54824219 20.18046875 7.51171875 21.3359375 C7.48553467 22.37282715 7.45935059 23.4097168 7.43237305 24.47802734 C7.21834839 25.72640381 7.21834839 25.72640381 7 27 C3.5647952 29.29013653 2.014669 29.17842973 -2 29 C-2.495 31.475 -2.495 31.475 -3 34 C-4.125 30.25 -4.125 30.25 -3 28 C-0.67793475 27.29508733 1.65593068 26.62787571 4 26 C5.81119819 24.18880181 5.21518878 21.50218608 5.25 19.0625 C5.27578125 17.98097656 5.3015625 16.89945313 5.328125 15.78515625 C5.21984375 14.86605469 5.1115625 13.94695312 5 13 C1.81237635 10.87491756 -0.26512223 10.4979837 -4 10 C-4 7.69 -4 5.38 -4 3 C-3.67 3 -3.34 3 -3 3 C-3 4.98 -3 6.96 -3 9 C-1.35 9 0.3 9 2 9 C1.34 6.03 0.68 3.06 0 0 Z " fill="#39AA62" transform="translate(134,220)"/>
<path d="M0 0 C0.33 0 0.66 0 1 0 C2.22222222 7.33333333 2.22222222 7.33333333 1.1875 10.4375 C0 12 0 12 -2 13 C-4.65824287 13.11914058 -7.29110211 13.17834286 -9.95043945 13.19287109 C-10.77175354 13.20104858 -11.59306763 13.20922607 -12.43927002 13.21765137 C-15.16393297 13.24251384 -17.88854381 13.25902326 -20.61328125 13.2734375 C-21.54297415 13.27876118 -22.47266705 13.28408485 -23.43053246 13.28956985 C-28.35105948 13.31630476 -33.2715611 13.33567883 -38.19213867 13.35009766 C-43.27675535 13.36674922 -48.36072433 13.41153016 -53.44509602 13.4624691 C-57.35274508 13.49611018 -61.26023979 13.50767161 -65.16802025 13.51332474 C-67.04233947 13.52004559 -68.91664824 13.53528928 -70.7908268 13.55921555 C-73.41488189 13.59080427 -76.03718197 13.59091377 -78.66137695 13.58349609 C-79.82191841 13.6081041 -79.82191841 13.6081041 -81.00590515 13.63320923 C-85.14442157 13.58534099 -86.80113588 13.16695969 -90.02116394 10.46353149 C-90.67417984 9.6505661 -91.32719574 8.83760071 -92 8 C-91.01 8 -90.02 8 -89 8 C-88.67 8.99 -88.34 9.98 -88 11 C-59.62 11 -31.24 11 -2 11 C-1.34 7.37 -0.68 3.74 0 0 Z " fill="#054014" transform="translate(221,260)"/>
<path d="M0 0 C2.98941468 1.49470734 3.53778532 4.07557063 5 7 C7.93076346 8.46538173 10.89701357 8.17866576 14.11181641 8.20532227 C14.84362625 8.21522186 15.5754361 8.22512146 16.329422 8.23532104 C18.75343568 8.26696199 21.17746898 8.29170366 23.6015625 8.31640625 C25.28022782 8.33697354 26.95888793 8.35796995 28.63754272 8.37937927 C33.05981231 8.43462318 37.48212881 8.48402221 41.90447998 8.53222656 C46.41552922 8.58242467 50.92651018 8.63811955 55.4375 8.69335938 C64.29160836 8.8009693 73.14577596 8.90240797 82 9 C82 9.33 82 9.66 82 10 C71.89926937 10.11581961 61.79869654 10.20467755 51.69743729 10.25906086 C47.00703742 10.28516155 42.31709163 10.32056787 37.62695312 10.37719727 C33.1011585 10.43150075 28.57580076 10.46141698 24.04970551 10.47438622 C22.32246776 10.48362915 20.59525409 10.50167872 18.86820221 10.52865028 C16.44969409 10.56492026 14.03299387 10.56994648 11.61425781 10.56762695 C10.89928131 10.58560333 10.18430481 10.60357971 9.44766235 10.62210083 C5.72017551 10.58338806 4.27197487 10.26085709 1.53973389 7.64030457 C-0.13309217 4.77177624 -0.37241481 3.25862956 0 0 Z " fill="#45A85E" transform="translate(131,112)"/>
<path d="M0 0 C2.97 0 5.94 0 9 0 C9 2.97 9 5.94 9 9 C6.03 9 3.06 9 0 9 C0 6.03 0 3.06 0 0 Z " fill="#DFD05E" transform="translate(185,242)"/>
<path d="M0 0 C2.97 0 5.94 0 9 0 C9 2.97 9 5.94 9 9 C6.03 9 3.06 9 0 9 C0 6.03 0 3.06 0 0 Z " fill="#E0D05D" transform="translate(158,242)"/>
<path d="M0 0 C0.33 0 0.66 0 1 0 C1.04898438 0.62648437 1.09796875 1.25296875 1.1484375 1.8984375 C1.22320312 2.71570313 1.29796875 3.53296875 1.375 4.375 C1.44460937 5.18710938 1.51421875 5.99921875 1.5859375 6.8359375 C1.82892588 9.20334191 1.82892588 9.20334191 4 11 C5.98356483 11.71408334 7.98315437 12.38617742 10 13 C10 14.65 10 16.3 10 18 C9.01 18 8.02 18 7 18 C7.33 16.35 7.66 14.7 8 13 C5.69 13 3.38 13 1 13 C1.33 15.31 1.66 17.62 2 20 C1.01 20 0.02 20 -1 20 C-1 17.36 -1 14.72 -1 12 C-1.66 12 -2.32 12 -3 12 C-3 9.36 -3 6.72 -3 4 C-2.01 5.485 -2.01 5.485 -1 7 C-0.67 4.69 -0.34 2.38 0 0 Z " fill="#30AC62" transform="translate(211,236)"/>
<path d="M0 0 C4.75 0.75 4.75 0.75 7 3 C7.1953125 6.2578125 7.1953125 6.2578125 7.125 10.125 C7.10695312 11.40632812 7.08890625 12.68765625 7.0703125 14.0078125 C7.04710937 14.99523437 7.02390625 15.98265625 7 17 C7.66 17.33 8.32 17.66 9 18 C6.69 18 4.38 18 2 18 C2.99 17.67 3.98 17.34 5 17 C4.67 16.34 4.34 15.68 4 15 C3.34 15 2.68 15 2 15 C2.165 14.505 2.33 14.01 2.5 13.5 C3.2279344 9.86032798 3.23639596 6.72323645 3 3 C1.66641006 0.990755 1.66641006 0.990755 0 0 Z " fill="#38A962" transform="translate(214,212)"/>
<path d="M0 0 C3.00617269 3.00617269 2.59585316 5.82381598 3 10 C3.66 10 4.32 10 5 10 C5.66 10.66 6.32 11.32 7 12 C9.57061311 12.64767793 9.57061311 12.64767793 12 13 C12 13.99 12 14.98 12 16 C10.54257537 16.08096803 9.08387193 16.13917774 7.625 16.1875 C6.81289062 16.22230469 6.00078125 16.25710938 5.1640625 16.29296875 C4.44992188 16.19628906 3.73578125 16.09960938 3 16 C0.65229357 12.47844036 0.62330386 10.49228157 0.375 6.3125 C0.30023438 5.13300781 0.22546875 3.95351563 0.1484375 2.73828125 C0.09945312 1.83464844 0.05046875 0.93101562 0 0 Z " fill="#369F5F" transform="translate(130,255)"/>
<path d="M0 0 C3.14771935 -0.21461723 5.34086939 -0.34497663 8.171875 1.13671875 C10 3 10 3 10.53125 5.8125 C10.5209375 6.864375 10.510625 7.91625 10.5 9 C10.5103125 10.051875 10.520625 11.10375 10.53125 12.1875 C10 15 10 15 8.171875 16.83203125 C5.47738401 18.28104709 3.02232393 18.6565541 0 19 C0 18.34 0 17.68 0 17 C1.65 17 3.3 17 5 17 C4.67 15.02 4.34 13.04 4 11 C4.66 10.67 5.32 10.34 6 10 C6 11.32 6 12.64 6 14 C6.99 14 7.98 14 9 14 C9 11.36 9 8.72 9 6 C8.34 6 7.68 6 7 6 C7 5.01 7 4.02 7 3 C4.69 2.34 2.38 1.68 0 1 C0 0.67 0 0.34 0 0 Z " fill="#CFC997" transform="translate(130,230)"/>
<path d="M0 0 C1.32 0 2.64 0 4 0 C4 13.2 4 26.4 4 40 C3.67 40 3.34 40 3 40 C1.86452675 30.75400352 1.94451758 21.57978158 2.125 12.27929688 C2.13660156 11.26931641 2.14820313 10.25933594 2.16015625 9.21875 C2.17699463 8.31060547 2.19383301 7.40246094 2.21118164 6.46679688 C1.98710218 3.84934154 1.32732492 2.24417747 0 0 Z " fill="#1A7E8B" transform="translate(196,212)"/>
<path d="M0 0 C1.23556641 0.01740234 1.23556641 0.01740234 2.49609375 0.03515625 C3.32238281 0.04417969 4.14867187 0.05320313 5 0.0625 C5.63808594 0.07410156 6.27617187 0.08570313 6.93359375 0.09765625 C4.17136097 2.85988903 1.72652758 2.67621916 -2.06640625 3.09765625 C-2.06640625 7.05765625 -2.06640625 11.01765625 -2.06640625 15.09765625 C2.88359375 15.09765625 7.83359375 15.09765625 12.93359375 15.09765625 C12.93359375 15.42765625 12.93359375 15.75765625 12.93359375 16.09765625 C7.65359375 16.09765625 2.37359375 16.09765625 -3.06640625 16.09765625 C-3.08703125 13.64328125 -3.10765625 11.18890625 -3.12890625 8.66015625 C-3.13801025 7.88615479 -3.14711426 7.11215332 -3.15649414 6.31469727 C-3.16365538 4.57543908 -3.11665327 2.83620321 -3.06640625 1.09765625 C-2.06640625 0.09765625 -2.06640625 0.09765625 0 0 Z " fill="#32A57B" transform="translate(187.06640625,250.90234375)"/>
<path d="M0 0 C0.99 0 1.98 0 3 0 C2.34 5.61 1.68 11.22 1 17 C5.62 17 10.24 17 15 17 C14.67 17.99 14.34 18.98 14 20 C14 19.34 14 18.68 14 18 C9.05 18 4.1 18 -1 18 C-0.505 9.09 -0.505 9.09 0 0 Z " fill="#4B3522" transform="translate(146,165)"/>
<path d="M0 0 C-0.78375 0.309375 -1.5675 0.61875 -2.375 0.9375 C-5.16530841 2.66625441 -5.16530841 2.66625441 -5.390625 5.02734375 C-5.46796875 5.80207031 -5.5453125 6.57679687 -5.625 7.375 C-6 9.76953125 -6 9.76953125 -7 12 C-10.45588896 14.29163369 -14.07699841 15.69451954 -18 17 C-18 16.01 -18 15.02 -18 14 C-14.55549263 11.70366176 -12.06187717 11.45983515 -8 11 C-8.226875 10.278125 -8.45375 9.55625 -8.6875 8.8125 C-9.09305931 5.16246621 -8.23774092 3.85504876 -6 1 C-2.57142857 -1.28571429 -2.57142857 -1.28571429 0 0 Z " fill="#4AA36C" transform="translate(151,75)"/>
<path d="M0 0 C0.33 0 0.66 0 1 0 C1 2.97 1 5.94 1 9 C3.97 9 6.94 9 10 9 C9.67 9.99 9.34 10.98 9 12 C5 12 1 12 -3 12 C-3 10.68 -3 9.36 -3 8 C-2.01 8 -1.02 8 0 8 C0 5.36 0 2.72 0 0 Z " fill="#396E89" transform="translate(157,242)"/>
<path d="M0 0 C0.33 0 0.66 0 1 0 C1.11611395 4.24977046 1.18722349 8.49913337 1.25 12.75 C1.30027344 14.55984375 1.30027344 14.55984375 1.3515625 16.40625 C1.36445313 17.56640625 1.37734375 18.7265625 1.390625 19.921875 C1.41157227 20.99018555 1.43251953 22.05849609 1.45410156 23.15917969 C0.89116966 26.68083322 -0.19090682 27.8701707 -3 30 C-5.25 29.75 -5.25 29.75 -7 29 C-6.195625 28.38125 -5.39125 27.7625 -4.5625 27.125 C-1.96125481 25.25835959 -1.96125481 25.25835959 -1 23 C-0.84733388 21.26131256 -0.75067404 19.51752499 -0.68359375 17.7734375 C-0.64169922 16.7421875 -0.59980469 15.7109375 -0.55664062 14.6484375 C-0.51732422 13.56820312 -0.47800781 12.48796875 -0.4375 11.375 C-0.37272461 9.74304688 -0.37272461 9.74304688 -0.30664062 8.078125 C-0.2003547 5.3855483 -0.09831943 2.69287747 0 0 Z " fill="#53A06D" transform="translate(220,92)"/>
<path d="M0 0 C3 4 3 4 3 7 C2.34 7 1.68 7 1 7 C1 14.92 1 22.84 1 31 C0.67 31 0.34 31 0 31 C0 20.77 0 10.54 0 0 Z " fill="#243924" transform="translate(122,289)"/>
<path d="M0 0 C0.86625 0.37125 0.86625 0.37125 1.75 0.75 C0 5.625 0 5.625 -2.25 6.75 C-3.38350534 8.76669827 -3.38350534 8.76669827 -4.25 10.75 C-6.25 7.75 -6.25 7.75 -6.25 3.75 C-3.14750693 -0.34972299 -3.14750693 -0.34972299 0 0 Z " fill="#1EAF62" transform="translate(136.25,102.25)"/>
<path d="M0 0 C1.65 0 3.3 0 5 0 C5 2.64 5 5.28 5 8 C4.01 8.33 3.02 8.66 2 9 C0.14223235 5.86501708 -0.20140476 3.62528568 0 0 Z " fill="#17B05F" transform="translate(213,215)"/>
<path d="M0 0 C0.33 0 0.66 0 1 0 C1.36134972 5.78159553 0.45790037 9.72006588 -2 15 C-2.99 15.33 -3.98 15.66 -5 16 C-4.67 13.36 -4.34 10.72 -4 8 C-3.01 8.33 -2.02 8.66 -1 9 C-1.020625 7.700625 -1.04125 6.40125 -1.0625 5.0625 C-1.08399454 3.70834367 -1.07148199 2.35243917 -1 1 C-0.67 0.67 -0.34 0.34 0 0 Z " fill="#DCBEA4" transform="translate(215,164)"/>
<path d="M0 0 C1.79296875 1.26953125 1.79296875 1.26953125 2.4375 3.58203125 C2.49292969 4.46890625 2.54835937 5.35578125 2.60546875 6.26953125 C2.67378906 7.15640625 2.74210938 8.04328125 2.8125 8.95703125 C2.79296875 11.26953125 2.79296875 11.26953125 1.79296875 13.26953125 C0.80296875 12.93953125 -0.18703125 12.60953125 -1.20703125 12.26953125 C-0.87703125 11.93953125 -0.54703125 11.60953125 -0.20703125 11.26953125 C-0.13523161 9.75025087 -0.12311118 8.22785643 -0.14453125 6.70703125 C-0.16515625 5.24265625 -0.18578125 3.77828125 -0.20703125 2.26953125 C-4.16703125 1.93953125 -8.12703125 1.60953125 -12.20703125 1.26953125 C-12.20703125 0.60953125 -12.20703125 -0.05046875 -12.20703125 -0.73046875 C-8.47374824 -2.59711025 -3.84101746 -1.27127481 0 0 Z " fill="#D4B697" transform="translate(166.20703125,133.73046875)"/>
<path d="M0 0 C0.33 0 0.66 0 1 0 C1.04898438 0.62648437 1.09796875 1.25296875 1.1484375 1.8984375 C1.22320312 2.71570313 1.29796875 3.53296875 1.375 4.375 C1.44460937 5.18710938 1.51421875 5.99921875 1.5859375 6.8359375 C1.82892588 9.20334191 1.82892588 9.20334191 4 11 C5.98356483 11.71408334 7.98315437 12.38617742 10 13 C10 14.65 10 16.3 10 18 C9.01 18 8.02 18 7 18 C7.33 16.35 7.66 14.7 8 13 C6.865625 12.855625 5.73125 12.71125 4.5625 12.5625 C1 12 1 12 0 11 C-0.07226502 9.14712498 -0.0838122 7.29166122 -0.0625 5.4375 C-0.05347656 4.42558594 -0.04445312 3.41367188 -0.03515625 2.37109375 C-0.02355469 1.58863281 -0.01195312 0.80617187 0 0 Z " fill="#52AA67" transform="translate(211,236)"/>
<path d="M0 0 C-0.66 1.32 -1.32 2.64 -2 4 C-2.66 4 -3.32 4 -4 4 C-4.12375 5.299375 -4.2475 6.59875 -4.375 7.9375 C-4.5859375 10.15234375 -4.5859375 10.15234375 -5 12 C-5.99 12.495 -5.99 12.495 -7 13 C-7.61240935 5.7735697 -7.61240935 5.7735697 -4.625 2 C-2 0 -2 0 0 0 Z " fill="#1F3220" transform="translate(129,260)"/>
<path d="M0 0 C2.31 0 4.62 0 7 0 C6.67 1.65 6.34 3.3 6 5 C4.02 5 2.04 5 0 5 C0 3.35 0 1.7 0 0 Z " fill="#1BAF60" transform="translate(212,249)"/>
<path d="M0 0 C0.33 0 0.66 0 1 0 C1.08086147 1.79093191 1.13912702 3.58289628 1.1875 5.375 C1.22230469 6.37273437 1.25710937 7.37046875 1.29296875 8.3984375 C1.19628906 9.25695312 1.09960938 10.11546875 1 11 C-2.4352048 13.29013653 -3.985331 13.17842973 -8 13 C-8.33 14.65 -8.66 16.3 -9 18 C-10.125 14.25 -10.125 14.25 -9 12 C-6.67793475 11.29508733 -4.34406932 10.62787571 -2 10 C-0.41727399 8.41727399 -0.65264253 6.61965997 -0.4375 4.4375 C-0.35371094 3.61121094 -0.26992187 2.78492188 -0.18359375 1.93359375 C-0.12300781 1.29550781 -0.06242188 0.65742188 0 0 Z " fill="#5CA66B" transform="translate(140,236)"/>
<path d="M0 0 C4.75 0.75 4.75 0.75 7 3 C7.1953125 6.2578125 7.1953125 6.2578125 7.125 10.125 C7.10695312 11.40632812 7.08890625 12.68765625 7.0703125 14.0078125 C7.04710937 14.99523437 7.02390625 15.98265625 7 17 C7.66 17.33 8.32 17.66 9 18 C8.01 18 7.02 18 6 18 C6 13.38 6 8.76 6 4 C4.68 3.34 3.36 2.68 2 2 C1.34 1.34 0.68 0.68 0 0 Z " fill="#569B6E" transform="translate(214,212)"/>
<path d="M0 0 C0.99 0 1.98 0 3 0 C3 2.64 3 5.28 3 8 C2.01 8 1.02 8 0 8 C-1.125 2.25 -1.125 2.25 0 0 Z " fill="#296FA8" transform="translate(154,242)"/>
<path d="M0 0 C0.33 0 0.66 0 1 0 C1 5.61 1 11.22 1 17 C1.66 17 2.32 17 3 17 C3 17.99 3 18.98 3 20 C2.34 20 1.68 20 1 20 C0.67 20.66 0.34 21.32 0 22 C0 14.74 0 7.48 0 0 Z " fill="#16739E" transform="translate(153,222)"/>
<path d="M0 0 C0.66 0 1.32 0 2 0 C2 0.66 2 1.32 2 2 C2.66 2 3.32 2 4 2 C4.33 1.34 4.66 0.68 5 0 C5.33 2.31 5.66 4.62 6 7 C4.35 7 2.7 7 1 7 C0.67 4.69 0.34 2.38 0 0 Z " fill="#21AC5F" transform="translate(130,222)"/>
<path d="M0 0 C1.98 0 3.96 0 6 0 C6 1.98 6 3.96 6 6 C4.35 6 2.7 6 1 6 C0.67 4.02 0.34 2.04 0 0 Z " fill="#36739C" transform="translate(185,218)"/>
<path d="M0 0 C0.33 0 0.66 0 1 0 C1 4.62 1 9.24 1 14 C1.66 14.33 2.32 14.66 3 15 C3 15.99 3 16.98 3 18 C2.01 18 1.02 18 0 18 C0 12.06 0 6.12 0 0 Z " fill="#DBBE9F" transform="translate(206,164)"/>
<path d="M0 0 C1.98 0 3.96 0 6 0 C5.34 1.98 4.68 3.96 4 6 C3.01 6 2.02 6 1 6 C0.67 4.02 0.34 2.04 0 0 Z " fill="#37739E" transform="translate(161,218)"/>
<path d="M0 0 C1.2065625 0.0309375 1.2065625 0.0309375 2.4375 0.0625 C2.4375 1.7125 2.4375 3.3625 2.4375 5.0625 C1.1175 5.0625 -0.2025 5.0625 -1.5625 5.0625 C-2.2225 3.7425 -2.8825 2.4225 -3.5625 1.0625 C-2.5625 0.0625 -2.5625 0.0625 0 0 Z " fill="#24AE5B" transform="translate(147.5625,212.9375)"/>
<path d="M0 0 C0.66 0 1.32 0 2 0 C1.690625 0.845625 1.38125 1.69125 1.0625 2.5625 C-0.01538821 6.0497854 -0.56581304 9.38177535 -1 13 C-1.66 13 -2.32 13 -3 13 C-2.88490339 11.58249437 -2.75746342 10.16598831 -2.625 8.75 C-2.55539063 7.96109375 -2.48578125 7.1721875 -2.4140625 6.359375 C-1.98492887 3.914123 -1.21399362 2.15163097 0 0 Z " fill="#E6C7A7" transform="translate(139,139)"/>
<path d="M0 0 C1.98 0.495 1.98 0.495 4 1 C3.67 2.65 3.34 4.3 3 6 C1.68 5.67 0.36 5.34 -1 5 C-0.67 3.35 -0.34 1.7 0 0 Z " fill="#1CAF5F" transform="translate(202,263)"/>
<path d="M0 0 C0.33 0 0.66 0 1 0 C1 2.31 1 4.62 1 7 C-1.9375 6.1875 -1.9375 6.1875 -5 5 C-5.33 4.01 -5.66 3.02 -6 2 C-3.525 2.495 -3.525 2.495 -1 3 C-0.67 2.01 -0.34 1.02 0 0 Z " fill="#DBC4A9" transform="translate(145,175)"/>
<path d="M0 0 C0.66 0.33 1.32 0.66 2 1 C2 1.99 2 2.98 2 4 C2.66 4 3.32 4 4 4 C4 4.66 4 5.32 4 6 C2.02 6 0.04 6 -2 6 C-1.49396008 3.83125748 -1.00016187 2.00032373 0 0 Z " fill="#314931" transform="translate(122,320)"/>
<path d="M0 0 C2.35953094 2.35953094 2.49141413 3.77895617 3 7 C1.35 6.67 -0.3 6.34 -2 6 C-2 4.35 -2 2.7 -2 1 C-1.34 0.67 -0.68 0.34 0 0 Z " fill="#14AF63" transform="translate(176,251)"/>
<path d="M0 0 C0.99 0 1.98 0 3 0 C3 3.3 3 6.6 3 10 C2.34 10 1.68 10 1 10 C0.67 6.7 0.34 3.4 0 0 Z " fill="#54A64D" transform="translate(182,242)"/>
<path d="M0 0 C0.99 0 1.98 0 3 0 C3 1.65 3 3.3 3 5 C5.31 5 7.62 5 10 5 C10 5.33 10 5.66 10 6 C3.9453125 6.1953125 3.9453125 6.1953125 2 6 C1.34 5.34 0.68 4.68 0 4 C0 2.68 0 1.36 0 0 Z " fill="#3F2818" transform="translate(185,141)"/>
<path d="M0 0 C2.70608417 1.35304209 2.96183047 2.80966544 4.125 5.5625 C4.47820312 6.38878906 4.83140625 7.21507813 5.1953125 8.06640625 C5.46085938 8.70449219 5.72640625 9.34257813 6 10 C2.83884224 8.63016497 2.0072908 8.0109362 0 5 C-0.125 2.3125 -0.125 2.3125 0 0 Z " fill="#52A16C" transform="translate(131,112)"/>
<path d="M0 0 C0.99 0.33 1.98 0.66 3 1 C2.67 3.31 2.34 5.62 2 8 C1.34 8 0.68 8 0 8 C0 5.36 0 2.72 0 0 Z " fill="#256FAA" transform="translate(162,256)"/>
<path d="M0 0 C1.65 0 3.3 0 5 0 C5.33 1.65 5.66 3.3 6 5 C4.68 4.67 3.36 4.34 2 4 C2 3.34 2 2.68 2 2 C1.34 2 0.68 2 0 2 C0 1.34 0 0.68 0 0 Z " fill="#11B060" transform="translate(208,88)"/>
<path d="M0 0 C0.680625 0.845625 1.36125 1.69125 2.0625 2.5625 C1.0725 3.0575 1.0725 3.0575 0.0625 3.5625 C-0.288125 3.088125 -0.63875 2.61375 -1 2.125 C-3.77913543 -0.11623825 -6.4519717 -0.10867658 -9.9375 -0.4375 C-9.9375 -0.7675 -9.9375 -1.0975 -9.9375 -1.4375 C-3.66057692 -3.0375 -3.66057692 -3.0375 0 0 Z " fill="#14AD5E" transform="translate(201.9375,76.4375)"/>
<path d="M0 0 C0.33 0.99 0.66 1.98 1 3 C0.67 3.33 0.34 3.66 0 4 C-0.07226502 5.85287502 -0.0838122 7.70833878 -0.0625 9.5625 C-0.05347656 10.57441406 -0.04445312 11.58632812 -0.03515625 12.62890625 C-0.02355469 13.41136719 -0.01195312 14.19382813 0 15 C-0.66 14.67 -1.32 14.34 -2 14 C-2.05389087 12.04196493 -2.09274217 10.08351091 -2.125 8.125 C-2.14820313 7.03445312 -2.17140625 5.94390625 -2.1953125 4.8203125 C-2 2 -2 2 0 0 Z " fill="#C2CC99" transform="translate(214,231)"/>
<path d="M0 0 C0 2.31 0 4.62 0 7 C-0.66 7 -1.32 7 -2 7 C-2 5.35 -2 3.7 -2 2 C-3.65 2 -5.3 2 -7 2 C-4.35261084 0.5393715 -3.10551666 0 0 0 Z " fill="#49738E" transform="translate(161,211)"/>
<path d="M0 0 C0.99 0 1.98 0 3 0 C3 0.99 3 1.98 3 3 C-1.29 3 -5.58 3 -10 3 C-10 2.67 -10 2.34 -10 2 C-9.04287109 1.90912109 -9.04287109 1.90912109 -8.06640625 1.81640625 C-6.82697266 1.69072266 -6.82697266 1.69072266 -5.5625 1.5625 C-4.73878906 1.48128906 -3.91507813 1.40007812 -3.06640625 1.31640625 C-1.01337975 1.21069185 -1.01337975 1.21069185 0 0 Z " fill="#E2C3A4" transform="translate(202,161)"/>
<path d="M0 0 C0.66 0 1.32 0 2 0 C3.09658936 3.28976808 2.79953138 4.71303767 2 8 C1.34 8 0.68 8 0 8 C-1.125 2.25 -1.125 2.25 0 0 Z " fill="#19AF5F" transform="translate(208,263)"/>
<path d="M0 0 C2.97 0 5.94 0 9 0 C6.23776722 2.76223278 3.79293383 2.57856291 0 3 C0 2.01 0 1.02 0 0 Z " fill="#436E7A" transform="translate(185,251)"/>
<path d="M0 0 C0.99 0.33 1.98 0.66 3 1 C3 2.98 3 4.96 3 7 C2.34 7 1.68 7 1 7 C0.67 4.69 0.34 2.38 0 0 Z " fill="#05B25D" transform="translate(215,216)"/>
<path d="M0 0 C0 2.64 0 5.28 0 8 C-1.5 6.75 -1.5 6.75 -3 5 C-3 3.68 -3 2.36 -3 1 C-1 0 -1 0 0 0 Z " fill="#1EBD4A" transform="translate(133,105)"/>
<path d="M0 0 C2.31 0.33 4.62 0.66 7 1 C7 1.99 7 2.98 7 4 C5.68 4 4.36 4 3 4 C3 3.34 3 2.68 3 2 C2.01 2 1.02 2 0 2 C0 1.34 0 0.68 0 0 Z " fill="#0EB061" transform="translate(133,250)"/>
<path d="" fill="#000000" transform="translate(0,0)"/>
<path d="" fill="#000000" transform="translate(0,0)"/>
<path d="" fill="#000000" transform="translate(0,0)"/>
<path d="" fill="#000000" transform="translate(0,0)"/>
<path d="" fill="#000000" transform="translate(0,0)"/>
<path d="" fill="#000000" transform="translate(0,0)"/>
<path d="" fill="#000000" transform="translate(0,0)"/>
<path d="" fill="#000000" transform="translate(0,0)"/>
<path d="" fill="#000000" transform="translate(0,0)"/>
<path d="" fill="#000000" transform="translate(0,0)"/>
<path d="" fill="#000000" transform="translate(0,0)"/>
<path d="" fill="#000000" transform="translate(0,0)"/>
<path d="" fill="#000000" transform="translate(0,0)"/>
<path d="" fill="#000000" transform="translate(0,0)"/>
<path d="" fill="#000000" transform="translate(0,0)"/>
<path d="" fill="#000000" transform="translate(0,0)"/>
<path d="" fill="#000000" transform="translate(0,0)"/>
<path d="" fill="#000000" transform="translate(0,0)"/>
<path d="" fill="#000000" transform="translate(0,0)"/>
<path d="" fill="#000000" transform="translate(0,0)"/>
<path d="" fill="#000000" transform="translate(0,0)"/>
<path d="" fill="#000000" transform="translate(0,0)"/>
<path d="" fill="#000000" transform="translate(0,0)"/>
<path d="" fill="#000000" transform="translate(0,0)"/>
<path d="" fill="#000000" transform="translate(0,0)"/>
<path d="" fill="#000000" transform="translate(0,0)"/>
<path d="" fill="#000000" transform="translate(0,0)"/>
<path d="" fill="#000000" transform="translate(0,0)"/>
<path d="" fill="#000000" transform="translate(0,0)"/>
<path d="" fill="#000000" transform="translate(0,0)"/>
<path d="" fill="#000000" transform="translate(0,0)"/>
<path d="" fill="#000000" transform="translate(0,0)"/>
<path d="" fill="#000000" transform="translate(0,0)"/>
<path d="" fill="#000000" transform="translate(0,0)"/>
<path d="" fill="#000000" transform="translate(0,0)"/>
<path d="" fill="#000000" transform="translate(0,0)"/>
<path d="" fill="#000000" transform="translate(0,0)"/>
<path d="" fill="#000000" transform="translate(0,0)"/>
<path d="" fill="#000000" transform="translate(0,0)"/>
<path d="" fill="#000000" transform="translate(0,0)"/>
<path d="" fill="#000000" transform="translate(0,0)"/>
<path d="" fill="#000000" transform="translate(0,0)"/>
<path d="" fill="#000000" transform="translate(0,0)"/>
<path d="" fill="#000000" transform="translate(0,0)"/>
<path d="" fill="#000000" transform="translate(0,0)"/>
<path d="" fill="#000000" transform="translate(0,0)"/>
<path d="" fill="#000000" transform="translate(0,0)"/>
<path d="" fill="#000000" transform="translate(0,0)"/>
<path d="" fill="#000000" transform="translate(0,0)"/>
<path d="" fill="#000000" transform="translate(0,0)"/>
<path d="" fill="#000000" transform="translate(0,0)"/>
<path d="" fill="#000000" transform="translate(0,0)"/>
<path d="" fill="#000000" transform="translate(0,0)"/>
<path d="" fill="#000000" transform="translate(0,0)"/>
<path d="" fill="#000000" transform="translate(0,0)"/>
<path d="" fill="#000000" transform="translate(0,0)"/>
<path d="" fill="#000000" transform="translate(0,0)"/>
<path d="" fill="#000000" transform="translate(0,0)"/>
<path d="" fill="#000000" transform="translate(0,0)"/>
<path d="" fill="#000000" transform="translate(0,0)"/>
<path d="" fill="#000000" transform="translate(0,0)"/>
<path d="" fill="#000000" transform="translate(0,0)"/>
<path d="" fill="#000000" transform="translate(0,0)"/>
<path d="" fill="#000000" transform="translate(0,0)"/>
<path d="" fill="#000000" transform="translate(0,0)"/>
</svg>
