<?xml version="1.0" encoding="UTF-8"?>
<svg version="1.1" xmlns="http://www.w3.org/2000/svg" width="368" height="368">
<path d="M0 0 C0.72929718 -0.00335861 1.45859436 -0.00671722 2.20999146 -0.01017761 C4.60632051 -0.0196291 7.00257927 -0.02162775 9.39892578 -0.02270508 C11.07512439 -0.02592153 12.75132272 -0.02928589 14.42752075 -0.03279114 C17.93606212 -0.03876778 21.4445789 -0.04063253 24.953125 -0.04003906 C29.43399929 -0.03993749 33.91471496 -0.05359147 38.39555168 -0.07081127 C41.85638138 -0.08196583 45.31717313 -0.08395721 48.77801895 -0.08342934 C50.42931795 -0.08460417 52.0806181 -0.08899789 53.73189926 -0.0967617 C56.04793966 -0.10663235 58.36364086 -0.10365604 60.6796875 -0.09765625 C61.99395721 -0.09908127 63.30822693 -0.10050629 64.662323 -0.10197449 C74.98815974 0.56863168 74.98815974 0.56863168 78.40673828 4.20776367 C79.40697308 6.9731187 79.62181115 8.87746414 79.78173828 11.77026367 C79.89611023 14.09492405 79.89611023 14.09492405 80.46923828 16.14526367 C83.28606318 18.05369314 83.28606318 18.05369314 86.46923828 19.14526367 C90.44688403 23.53439002 90.59695441 27.4159605 90.60205078 33.18432617 C90.60300751 33.86578705 90.60396423 34.54724792 90.60494995 35.24935913 C90.60562943 36.68666679 90.60379132 38.12397756 90.59960938 39.5612793 C90.59424128 41.76903096 90.59957058 43.9765807 90.60595703 46.18432617 C90.60529653 47.58015996 90.60401596 48.97599361 90.60205078 50.37182617 C90.60092285 51.64622559 90.59979492 52.920625 90.59863281 54.23364258 C90.46923828 57.14526367 90.46923828 57.14526367 89.46923828 58.14526367 C86.4659281 58.28719705 83.47706694 58.18762746 80.46923828 58.14526367 C80.13923828 62.10526367 79.80923828 66.06526367 79.46923828 70.14526367 C81.44923828 70.14526367 83.42923828 70.14526367 85.46923828 70.14526367 C88.38966178 72.2403501 89.19301381 72.91652485 90.46923828 76.14526367 C91.28551815 83.16835084 91.98243848 90.25894361 87.46923828 96.14526367 C84.24132273 98.29720737 83.18523019 98.3461281 79.46923828 98.14526367 C79.4744751 98.94746338 79.47971191 99.74966309 79.48510742 100.57617188 C79.50586725 104.2033612 79.5188953 107.83053804 79.53173828 111.45776367 C79.54011719 112.72040039 79.54849609 113.98303711 79.55712891 115.28393555 C79.56035156 116.49243164 79.56357422 117.70092773 79.56689453 118.94604492 C79.57213135 120.06148682 79.57736816 121.17692871 79.58276367 122.32617188 C79.46923828 125.14526367 79.46923828 125.14526367 78.46923828 128.14526367 C79.67580078 129.07338867 79.67580078 129.07338867 80.90673828 130.02026367 C83.46923828 132.14526367 83.46923828 132.14526367 84.46923828 134.14526367 C84.70096655 136.69141376 84.88818357 139.21922592 85.03173828 141.77026367 C85.07492188 142.47666992 85.11810547 143.18307617 85.16259766 143.91088867 C85.26868579 145.65544904 85.36946717 147.40033064 85.46923828 149.14526367 C86.38737305 149.16508301 87.30550781 149.18490234 88.25146484 149.20532227 C91.66595653 149.28353322 95.08001531 149.37022951 98.49414062 149.46264648 C99.97029364 149.50087033 101.44653771 149.5357347 102.92285156 149.56713867 C105.04801922 149.61293353 107.1725637 149.67090204 109.29736328 149.73120117 C110.57514648 149.76262207 111.85292969 149.79404297 113.16943359 149.82641602 C116.21688201 150.12087944 117.95458435 150.46317427 120.46923828 152.14526367 C123.19327685 156.22270115 122.88286012 160.41815695 122.46923828 165.14526367 C121.37973916 169.08422203 120.94217834 169.8299703 117.46923828 172.14526367 C115.00538926 172.38491414 112.64383252 172.51768368 110.17626953 172.55932617 C109.11722664 172.5883754 109.11722664 172.5883754 108.03678894 172.61801147 C105.78522767 172.67771592 103.533615 172.72415507 101.28173828 172.77026367 C99.75372139 172.80845196 98.22572583 172.84750419 96.69775391 172.88745117 C92.95502736 172.98503448 89.21252365 173.06467169 85.46923828 173.14526367 C85.46923828 179.74526367 85.46923828 186.34526367 85.46923828 193.14526367 C87.77923828 193.47526367 90.08923828 193.80526367 92.46923828 194.14526367 C95.78530929 197.83776504 95.87820063 201.36649387 95.98095703 206.19604492 C95.99890823 206.85485153 96.01685944 207.51365814 96.03535461 208.19242859 C96.08920484 210.28080998 96.12326937 212.36896627 96.15673828 214.45776367 C96.18993398 215.88032087 96.22442572 217.30284846 96.26025391 218.7253418 C96.34491429 222.19843282 96.41184598 225.6716028 96.46923828 229.14526367 C97.27748047 229.18264648 98.08572266 229.2200293 98.91845703 229.25854492 C100.52140625 229.3571582 100.52140625 229.3571582 102.15673828 229.45776367 C103.74035156 229.54477539 103.74035156 229.54477539 105.35595703 229.63354492 C109.4909034 230.31319106 112.17516605 231.94362517 115.21923828 234.77026367 C116.55084173 237.30031022 116.77399083 238.97391491 117.04736328 241.79370117 C117.12889648 242.60758301 117.21042969 243.42146484 117.29443359 244.26000977 C117.35211914 244.88214355 117.40980469 245.50427734 117.46923828 246.14526367 C118.56594849 246.121698 118.56594849 246.121698 119.68481445 246.09765625 C123.00870988 246.03516016 126.33248149 245.99622615 129.65673828 245.95776367 C130.80722656 245.93262695 131.95771484 245.90749023 133.14306641 245.8815918 C134.81079102 245.86708984 134.81079102 245.86708984 136.51220703 245.85229492 C137.53338623 245.83658447 138.55456543 245.82087402 139.60668945 245.8046875 C142.98220215 246.20629434 144.78262744 247.0800062 147.46923828 249.14526367 C150.29406742 252.76144943 149.75736452 257.21928365 149.73486328 261.60229492 C149.73677673 262.42348312 149.73869019 263.24467133 149.74066162 264.09074402 C149.74202082 265.82644965 149.7383429 267.56216554 149.72998047 269.29785156 C149.71931818 271.93798031 149.72986332 274.57742224 149.74267578 277.2175293 C149.74135334 278.90828599 149.73878919 280.59904227 149.73486328 282.28979492 C149.73891174 283.07232132 149.74296021 283.85484772 149.74713135 284.66108704 C149.70680948 289.44106467 149.39828121 293.69466626 147.46923828 298.14526367 C142.46522629 301.47191129 138.14276741 301.57217903 132.3533783 301.5262146 C131.44523095 301.53089457 130.53708361 301.53557454 129.60141665 301.54039633 C126.56363692 301.55234584 123.52630834 301.54288919 120.48852539 301.53344727 C118.30858599 301.53751295 116.12864865 301.54285481 113.94871521 301.54937744 C108.03151675 301.56305633 102.11447518 301.55775016 96.19727397 301.54824018 C90.00696434 301.54064758 83.81666819 301.547688 77.62635803 301.55239868 C67.23175646 301.55785697 56.83721882 301.55066221 46.44262695 301.53637695 C34.42060165 301.52004604 22.39875423 301.5253419 10.37672991 301.54185617 C0.05813157 301.55546377 -10.2604208 301.55739437 -20.57902521 301.54954016 C-26.7433783 301.54486022 -32.90765963 301.54424775 -39.07200813 301.55414963 C-44.8660326 301.56280655 -50.65986 301.55682054 -56.45386314 301.53946686 C-58.5819529 301.53549541 -60.71005919 301.53664727 -62.8381424 301.54325485 C-65.73961502 301.55143416 -68.64045333 301.54119233 -71.54188538 301.5262146 C-72.38701897 301.53290676 -73.23215257 301.53959893 -74.10289627 301.54649389 C-78.73887537 301.49997024 -81.75300446 301.13212916 -85.53076172 298.14526367 C-87.38249682 295.39398776 -87.78666013 293.19534121 -87.82128906 289.91503906 C-87.84042862 288.67839256 -87.84042862 288.67839256 -87.85995483 287.41676331 C-87.86218048 286.53439499 -87.86440613 285.65202667 -87.86669922 284.74291992 C-87.87335602 283.82820419 -87.88001282 282.91348846 -87.88687134 281.97105408 C-87.89698526 280.03866585 -87.90168875 278.10624279 -87.90136719 276.17382812 C-87.90574113 273.22166307 -87.94207563 270.27099252 -87.97998047 267.3190918 C-87.98584878 265.43953961 -87.98981808 263.55998033 -87.99169922 261.68041992 C-88.00607025 260.80007584 -88.02044128 259.91973175 -88.0352478 259.01271057 C-88.00469862 254.90399537 -87.863755 252.69385045 -85.68945312 249.11181641 C-82.21047458 245.94249134 -79.28852032 246.02466591 -74.76904297 246.04760742 C-73.65078125 246.05083008 -72.53251953 246.05405273 -71.38037109 246.05737305 C-70.213125 246.06575195 -69.04587891 246.07413086 -67.84326172 246.08276367 C-66.66441406 246.08727539 -65.48556641 246.09178711 -64.27099609 246.09643555 C-61.35753383 246.10823094 -58.44417309 246.12469097 -55.53076172 246.14526367 C-55.46381104 245.11574585 -55.46381104 245.11574585 -55.39550781 244.06542969 C-55.32412598 243.16493896 -55.25274414 242.26444824 -55.17919922 241.33666992 C-55.11394043 240.44407471 -55.04868164 239.55147949 -54.98144531 238.63183594 C-54.30937175 234.92378111 -52.49415787 233.33253226 -49.53076172 231.14526367 C-46.24556697 230.05019875 -43.79412757 230.04565759 -40.34326172 230.08276367 C-39.25658203 230.09178711 -38.16990234 230.10081055 -37.05029297 230.11010742 C-35.803125 230.12750977 -35.803125 230.12750977 -34.53076172 230.14526367 C-34.53599854 229.49565674 -34.54123535 228.8460498 -34.54663086 228.17675781 C-34.56762674 225.18710324 -34.58049302 222.19746426 -34.59326172 219.20776367 C-34.60164063 218.18618164 -34.61001953 217.16459961 -34.61865234 216.11206055 C-34.6710954 199.69738451 -34.6710954 199.69738451 -31.28076172 195.08276367 C-28.53076172 193.14526367 -28.53076172 193.14526367 -23.53076172 193.14526367 C-23.53076172 186.21526367 -23.53076172 179.28526367 -23.53076172 172.14526367 C-25.62677734 172.26385742 -27.72279297 172.38245117 -29.88232422 172.50463867 C-31.92753652 172.60562817 -33.97296353 172.69927636 -36.01855469 172.79223633 C-37.43300727 172.86042218 -38.84711792 172.93615809 -40.26074219 173.01977539 C-42.30082316 173.13910359 -44.34061951 173.23062497 -46.38232422 173.31713867 C-47.60773926 173.37998047 -48.8331543 173.44282227 -50.09570312 173.50756836 C-54.243847 173.07005269 -56.31529204 171.74428994 -59.53076172 169.14526367 C-60.86354404 166.47969904 -60.81035262 164.3087937 -60.90576172 161.33276367 C-60.97923828 159.7762207 -60.97923828 159.7762207 -61.05419922 158.18823242 C-60.33789203 154.0240287 -58.80834445 152.75849731 -55.53076172 150.14526367 C-52.02563477 149.57763672 -52.02563477 149.57763672 -48.04248047 149.65698242 C-46.98768242 149.66759453 -46.98768242 149.66759453 -45.91157532 149.67842102 C-43.67935945 149.70627155 -41.44971095 149.76898047 -39.21826172 149.83276367 C-37.69941791 149.85785916 -36.18053452 149.88067016 -34.66162109 149.90112305 C-30.95050924 149.9560636 -27.24088631 150.04226628 -23.53076172 150.14526367 C-23.58296875 148.73374023 -23.58296875 148.73374023 -23.63623047 147.29370117 C-23.66330078 146.0484668 -23.69037109 144.80323242 -23.71826172 143.52026367 C-23.77046875 141.67561523 -23.77046875 141.67561523 -23.82373047 139.79370117 C-23.50661709 135.84458259 -22.62334979 133.48535617 -20.53076172 130.14526367 C-18.34326172 129.27026367 -18.34326172 129.27026367 -16.53076172 129.14526367 C-16.85689453 128.32799805 -17.18302734 127.51073242 -17.51904297 126.66870117 C-18.6998726 122.55631382 -18.7900158 119.01508425 -18.71826172 114.77026367 C-18.71729492 113.69518555 -18.71729492 113.69518555 -18.71630859 112.59838867 C-18.67659386 107.70906421 -18.21372658 102.98611864 -17.53076172 98.14526367 C-18.60326172 98.08338867 -19.67576172 98.02151367 -20.78076172 97.95776367 C-24.53076172 97.14526367 -24.53076172 97.14526367 -26.72998047 95.12573242 C-29.11744823 91.17424022 -29.15975798 88.17483271 -29.09326172 83.64526367 C-29.1290332 82.52571289 -29.1290332 82.52571289 -29.16552734 81.38354492 C-29.1543555 77.17548295 -28.87310936 75.57773262 -26.17138672 72.16479492 C-23.48047505 70.10680478 -21.86909035 69.43140613 -18.53076172 69.14526367 C-18.54236328 68.5187793 -18.55396484 67.89229492 -18.56591797 67.24682617 C-18.57494141 66.42956055 -18.58396484 65.61229492 -18.59326172 64.77026367 C-18.60486328 63.9581543 -18.61646484 63.14604492 -18.62841797 62.30932617 C-18.53076172 60.14526367 -18.53076172 60.14526367 -17.53076172 58.14526367 C-21.16076172 58.14526367 -24.79076172 58.14526367 -28.53076172 58.14526367 C-29.93550629 52.52628538 -29.60345685 47.12196571 -29.45361328 41.35571289 C-29.42179907 39.96919767 -29.40058127 38.58239748 -29.39013672 37.19555664 C-29.29122835 24.19219696 -29.29122835 24.19219696 -26.15185547 20.25463867 C-23.47433711 18.0998549 -21.93562113 17.33982707 -18.53076172 17.14526367 C-18.59263672 15.94901367 -18.65451172 14.75276367 -18.71826172 13.52026367 C-18.72558212 9.39155885 -17.72683414 6.69276527 -15.53076172 3.14526367 C-11.5418834 -0.84361465 -5.34278055 0.01551454 0 0 Z " fill="#2FA57C" transform="translate(153.53076171875,36.854736328125)"/>
<path d="M0 0 C0.42317708 2.01822917 0.84635417 4.03645833 1.26953125 6.0546875 C1.92308838 8.37046549 1.92308838 8.37046549 5 10 C6.91509427 10.29621073 6.91509427 10.29621073 9.02307129 10.24723816 C10.24701347 10.25352989 10.24701347 10.25352989 11.49568176 10.25994873 C12.38720444 10.25432922 13.27872711 10.24870972 14.19726562 10.24291992 C15.13898117 10.24481827 16.08069672 10.24671661 17.0509491 10.24867249 C20.16946693 10.25238265 23.2877528 10.24167238 26.40625 10.23046875 C28.56953911 10.22927695 30.73282874 10.22882379 32.89611816 10.2290802 C37.43224319 10.2275149 41.96828935 10.21922177 46.50439453 10.20581055 C52.32540258 10.1888207 58.14632389 10.1849962 63.96735382 10.18575573 C68.4350874 10.18548408 72.90280193 10.1800037 77.37052917 10.17275429 C79.51718502 10.16956713 81.66384302 10.1676001 83.8105011 10.16686058 C86.80794975 10.16469753 89.80530559 10.15595395 92.80273438 10.14526367 C93.69425705 10.14571686 94.58577972 10.14617004 95.50431824 10.14663696 C96.72826042 10.14023949 96.72826042 10.14023949 97.97692871 10.13371277 C98.68557823 10.13203692 99.39422775 10.13036108 100.1243515 10.12863445 C102.22854849 10.06302674 102.22854849 10.06302674 105 9 C105.80563638 6.89415562 105.80563638 6.89415562 106.1875 4.4375 C106.34605469 3.61121094 106.50460938 2.78492188 106.66796875 1.93359375 C106.77753906 1.29550781 106.88710937 0.65742188 107 0 C110.30507324 -0.2253459 112.39213514 -0.34500438 115.3125 1.3125 C118.60351646 4.60351646 118.18605378 8.44210644 118.31640625 12.85546875 C118.33718735 13.51710526 118.35796844 14.17874176 118.37937927 14.86042786 C118.44464727 16.96934852 118.50365344 19.07839135 118.5625 21.1875 C118.60570689 22.61915315 118.64932188 24.05079404 118.69335938 25.48242188 C118.80030506 28.98815154 118.90163641 32.49401786 119 36 C119.80824219 36.03738281 120.61648437 36.07476562 121.44921875 36.11328125 C123.05216797 36.21189453 123.05216797 36.21189453 124.6875 36.3125 C126.27111328 36.39951172 126.27111328 36.39951172 127.88671875 36.48828125 C132.02166511 37.16792739 134.70592777 38.7983615 137.75 41.625 C139.08160344 44.15504655 139.30475254 45.82865124 139.578125 48.6484375 C139.6596582 49.46231934 139.74119141 50.27620117 139.82519531 51.11474609 C139.91172363 52.04794678 139.91172363 52.04794678 140 53 C140.73114014 52.98428955 141.46228027 52.9685791 142.21557617 52.95239258 C145.5394716 52.88989649 148.8632432 52.85096248 152.1875 52.8125 C153.91323242 52.77479492 153.91323242 52.77479492 155.67382812 52.73632812 C157.34155273 52.72182617 157.34155273 52.72182617 159.04296875 52.70703125 C160.06414795 52.6913208 161.08532715 52.67561035 162.13745117 52.65942383 C165.51296387 53.06103067 167.31338916 53.93474253 170 56 C172.82482914 59.61618576 172.28812624 64.07401998 172.265625 68.45703125 C172.26753845 69.27821945 172.2694519 70.09940765 172.27142334 70.94548035 C172.27278254 72.68118598 172.26910461 74.41690187 172.26074219 76.15258789 C172.2500799 78.79271663 172.26062503 81.43215857 172.2734375 84.07226562 C172.27211505 85.76302232 172.2695509 87.45377859 172.265625 89.14453125 C172.26967346 89.92705765 172.27372192 90.70958405 172.27789307 91.51582336 C172.23757119 96.295801 171.92904292 100.54940258 170 105 C164.99598801 108.32664761 160.67352913 108.42691536 154.88414001 108.38095093 C153.97599267 108.3856309 153.06784533 108.39031087 152.13217837 108.39513266 C149.09439864 108.40708217 146.05707006 108.39762551 143.01928711 108.38818359 C140.83934771 108.39224928 138.65941036 108.39759114 136.47947693 108.40411377 C130.56227847 108.41779266 124.6452369 108.41248648 118.72803569 108.40297651 C112.53772606 108.39538391 106.34742991 108.40242433 100.15711975 108.40713501 C89.76251818 108.4125933 79.36798054 108.40539854 68.97338867 108.39111328 C56.95136337 108.37478237 44.92951595 108.38007823 32.90749162 108.3965925 C22.58889329 108.4102001 12.27034092 108.41213069 1.95173651 108.40427649 C-4.21261658 108.39959655 -10.37689791 108.39898408 -16.54124641 108.40888596 C-22.33527088 108.41754288 -28.12909828 108.41155687 -33.92310143 108.39420319 C-36.05119118 108.39023174 -38.17929748 108.3913836 -40.30738068 108.39799118 C-43.2088533 108.40617049 -46.10969161 108.39592866 -49.01112366 108.38095093 C-49.85625725 108.38764309 -50.70139085 108.39433526 -51.57213455 108.40123022 C-56.20811365 108.35470657 -59.22224274 107.98686548 -63 105 C-64.8517351 102.24872409 -65.25589841 100.05007753 -65.29052734 96.76977539 C-65.3096669 95.53312889 -65.3096669 95.53312889 -65.32919312 94.27149963 C-65.33141876 93.38913132 -65.33364441 92.506763 -65.3359375 91.59765625 C-65.3459227 90.22558266 -65.3459227 90.22558266 -65.35610962 88.82579041 C-65.36622355 86.89340218 -65.37092703 84.96097912 -65.37060547 83.02856445 C-65.37497941 80.07639939 -65.41131391 77.12572885 -65.44921875 74.17382812 C-65.45508706 72.29427594 -65.45905636 70.41471666 -65.4609375 68.53515625 C-65.47530853 67.65481216 -65.48967957 66.77446808 -65.50448608 65.8674469 C-65.4739369 61.75873169 -65.33299328 59.54858678 -63.15869141 55.96655273 C-59.67971286 52.79722767 -56.7577586 52.87940224 -52.23828125 52.90234375 C-51.12001953 52.90556641 -50.00175781 52.90878906 -48.84960938 52.91210938 C-47.68236328 52.92048828 -46.51511719 52.92886719 -45.3125 52.9375 C-44.13365234 52.94201172 -42.95480469 52.94652344 -41.74023438 52.95117188 C-38.82677211 52.96296727 -35.91341137 52.9794273 -33 53 C-32.95536621 52.31365479 -32.91073242 51.62730957 -32.86474609 50.92016602 C-32.75767334 49.56942993 -32.75767334 49.56942993 -32.6484375 48.19140625 C-32.58317871 47.29881104 -32.51791992 46.40621582 -32.45068359 45.48657227 C-31.77861003 41.77851744 -29.96339615 40.18726859 -27 38 C-23.71480525 36.90493508 -21.26336585 36.90039392 -17.8125 36.9375 C-16.18248047 36.95103516 -16.18248047 36.95103516 -14.51953125 36.96484375 C-13.68808594 36.97644531 -12.85664062 36.98804688 -12 37 C-12.00523682 36.35039307 -12.01047363 35.70078613 -12.01586914 35.03149414 C-12.03686503 32.04183957 -12.0497313 29.05220059 -12.0625 26.0625 C-12.07087891 25.04091797 -12.07925781 24.01933594 -12.08789062 22.96679688 C-12.14019263 6.59626968 -12.14019263 6.59626968 -8.8125 1.9375 C-5.55300187 -0.30793205 -3.87547487 -0.45063661 0 0 Z " fill="#0E160E" transform="translate(131,230)"/>
<path d="M0 0 C0.72929718 -0.00335861 1.45859436 -0.00671722 2.20999146 -0.01017761 C4.60632051 -0.0196291 7.00257927 -0.02162775 9.39892578 -0.02270508 C11.07512439 -0.02592153 12.75132272 -0.02928589 14.42752075 -0.03279114 C17.93606212 -0.03876778 21.4445789 -0.04063253 24.953125 -0.04003906 C29.43399929 -0.03993749 33.91471496 -0.05359147 38.39555168 -0.07081127 C41.85638138 -0.08196583 45.31717313 -0.08395721 48.77801895 -0.08342934 C50.42931795 -0.08460417 52.0806181 -0.08899789 53.73189926 -0.0967617 C56.04793966 -0.10663235 58.36364086 -0.10365604 60.6796875 -0.09765625 C61.99395721 -0.09908127 63.30822693 -0.10050629 64.662323 -0.10197449 C74.98815974 0.56863168 74.98815974 0.56863168 78.40673828 4.20776367 C79.40697308 6.9731187 79.62181115 8.87746414 79.78173828 11.77026367 C79.89611023 14.09492405 79.89611023 14.09492405 80.46923828 16.14526367 C83.28606318 18.05369314 83.28606318 18.05369314 86.46923828 19.14526367 C90.44688403 23.53439002 90.59695441 27.4159605 90.60205078 33.18432617 C90.60300751 33.86578705 90.60396423 34.54724792 90.60494995 35.24935913 C90.60562943 36.68666679 90.60379132 38.12397756 90.59960938 39.5612793 C90.59424128 41.76903096 90.59957058 43.9765807 90.60595703 46.18432617 C90.60529653 47.58015996 90.60401596 48.97599361 90.60205078 50.37182617 C90.60092285 51.64622559 90.59979492 52.920625 90.59863281 54.23364258 C90.46923828 57.14526367 90.46923828 57.14526367 89.46923828 58.14526367 C87.93837989 58.24108189 86.40310072 58.26714476 84.86924744 58.26551819 C83.37788017 58.26758018 83.37788017 58.26758018 81.85638428 58.26968384 C80.75659241 58.26608856 79.65680054 58.26249329 78.52368164 58.25878906 C77.37261429 58.25893509 76.22154694 58.25908112 75.03559875 58.25923157 C71.21007437 58.25853185 67.38459797 58.2507367 63.55908203 58.24291992 C60.91492235 58.24105595 58.27076232 58.23963195 55.62660217 58.2386322 C49.36508411 58.23551917 43.10358342 58.22730615 36.84207302 58.21728271 C29.71522291 58.20612072 22.58837198 58.20061091 15.46151531 58.19558728 C0.79741398 58.18512351 -13.86667362 58.16752461 -28.53076172 58.14526367 C-30.04565669 52.60513252 -29.60189158 47.06173154 -29.45361328 41.35571289 C-29.42179907 39.96919767 -29.40058127 38.58239748 -29.39013672 37.19555664 C-29.29122835 24.19219696 -29.29122835 24.19219696 -26.15185547 20.25463867 C-23.47433711 18.0998549 -21.93562113 17.33982707 -18.53076172 17.14526367 C-18.59263672 15.94901367 -18.65451172 14.75276367 -18.71826172 13.52026367 C-18.72558212 9.39155885 -17.72683414 6.69276527 -15.53076172 3.14526367 C-11.5418834 -0.84361465 -5.34278055 0.01551454 0 0 Z " fill="#239854" transform="translate(153.53076171875,36.854736328125)"/>
<path d="M0 0 C52.8 0 105.6 0 160 0 C160.33 10.23 160.66 20.46 161 31 C162.98 33.97 162.98 33.97 165 37 C161.40191053 38.1209478 158.04742004 38.12312494 154.29290771 38.12025452 C153.28322729 38.12153615 153.28322729 38.12153615 152.25314927 38.12284368 C149.9991427 38.12448993 147.74521065 38.11899111 145.49121094 38.11352539 C143.87487795 38.11324331 142.25854483 38.11340166 140.64221191 38.1139679 C136.25414776 38.11425505 131.8661109 38.10837152 127.47805309 38.10139394 C122.89229152 38.0951468 118.30652933 38.09455552 113.72076416 38.09336853 C105.03689615 38.09025924 96.35304072 38.08205124 87.66917825 38.07201904 C77.78293915 38.06084545 67.89669945 38.05534431 58.01045561 38.05032361 C37.67363005 38.03986831 17.33681582 38.02227662 -3 38 C-3 35 -3 35 -1 32 C-0.67 21.44 -0.34 10.88 0 0 Z " fill="#173316" transform="translate(104,300)"/>
<path d="M0 0 C32.01 0 64.02 0 97 0 C97 4.29 97 8.58 97 13 C98.98 13 100.96 13 103 13 C105.9204235 15.09508643 106.72377553 15.77126118 108 19 C108.81627987 26.02308717 109.5132002 33.11367993 105 39 C101.77208445 41.1519437 100.71599191 41.20086443 97 41 C97.00523682 41.79696289 97.01047363 42.59392578 97.01586914 43.41503906 C97.036659 47.02668469 97.04966661 50.63831771 97.0625 54.25 C97.07087891 55.50425781 97.07925781 56.75851563 97.08789062 58.05078125 C97.09111328 59.25605469 97.09433594 60.46132812 97.09765625 61.703125 C97.10289307 62.81333008 97.10812988 63.92353516 97.11352539 65.06738281 C97.01658493 67.57157379 96.73230276 69.6181156 96 72 C95.01 72 94.02 72 93 72 C93 72.66 93 73.32 93 74 C92.34 74 91.68 74 91 74 C90.97421875 72.74703125 90.9484375 71.4940625 90.921875 70.203125 C90.86558831 68.55204877 90.8082411 66.90100845 90.75 65.25 C90.73582031 64.425 90.72164063 63.6 90.70703125 62.75 C90.67480469 61.95078125 90.64257812 61.1515625 90.609375 60.328125 C90.5779541 59.22839355 90.5779541 59.22839355 90.54589844 58.10644531 C89.75271191 55.04579534 88.48519852 53.94499978 86 52 C83.39663628 51.6100457 81.21680495 51.4619452 78.61694336 51.49829102 C77.87990677 51.49288803 77.14287018 51.48748505 76.38349915 51.48191833 C73.95186985 51.46942996 71.52142423 51.48591998 69.08984375 51.50390625 C67.39880817 51.50375128 65.70777222 51.50226263 64.01673889 51.49949646 C60.47511061 51.49811248 56.93388731 51.51067132 53.39233398 51.53344727 C48.85023336 51.56185385 44.30880453 51.5590888 39.76665401 51.54635715 C36.27594756 51.53940672 32.78539674 51.54718156 29.29471016 51.55961418 C27.61975259 51.56413336 25.94477835 51.56446141 24.26981926 51.56054878 C21.93075089 51.55764217 19.59261297 51.57411516 17.25366211 51.59594727 C16.56007599 51.59144562 15.86648987 51.58694397 15.15188599 51.58230591 C12.28078749 51.62689093 10.43003621 51.6874129 8.06892395 53.40367126 C6.70518656 55.44027376 6.64016733 56.68460279 6.671875 59.125 C6.67703125 59.91390625 6.6821875 60.7028125 6.6875 61.515625 C6.708125 62.33546875 6.72875 63.1553125 6.75 64 C6.75515625 64.81984375 6.7603125 65.6396875 6.765625 66.484375 C6.81118673 69.96984735 6.88783782 72.66351346 8 76 C1.35880795 72.79390728 1.35880795 72.79390728 -0.17578125 69.3984375 C-1.1520642 65.37300542 -1.25715897 61.74587811 -1.1875 57.625 C-1.18685547 56.90828125 -1.18621094 56.1915625 -1.18554688 55.453125 C-1.14583215 50.56380054 -0.68296487 45.84085497 0 41 C-1.0725 40.938125 -2.145 40.87625 -3.25 40.8125 C-7 40 -7 40 -9.19921875 37.98046875 C-11.58668651 34.02897655 -11.62899626 31.02956904 -11.5625 26.5 C-11.58634766 25.75363281 -11.61019531 25.00726563 -11.63476562 24.23828125 C-11.62359378 20.03021928 -11.34234764 18.43246895 -8.640625 15.01953125 C-5.94971333 12.96154111 -4.33832863 12.28614245 -1 12 C-1.01160156 11.38511719 -1.02320313 10.77023438 -1.03515625 10.13671875 C-1.04417969 9.32847656 -1.05320313 8.52023438 -1.0625 7.6875 C-1.07410156 6.88699219 -1.08570313 6.08648437 -1.09765625 5.26171875 C-1 3 -1 3 0 0 Z " fill="#E6C299" transform="translate(136,94)"/>
<path d="M0 0 C0.42317708 2.01822917 0.84635417 4.03645833 1.26953125 6.0546875 C1.92308838 8.37046549 1.92308838 8.37046549 5 10 C6.91509427 10.29621073 6.91509427 10.29621073 9.02307129 10.24723816 C10.24701347 10.25352989 10.24701347 10.25352989 11.49568176 10.25994873 C12.38720444 10.25432922 13.27872711 10.24870972 14.19726562 10.24291992 C15.13898117 10.24481827 16.08069672 10.24671661 17.0509491 10.24867249 C20.16946693 10.25238265 23.2877528 10.24167238 26.40625 10.23046875 C28.56953911 10.22927695 30.73282874 10.22882379 32.89611816 10.2290802 C37.43224319 10.2275149 41.96828935 10.21922177 46.50439453 10.20581055 C52.32540258 10.1888207 58.14632389 10.1849962 63.96735382 10.18575573 C68.4350874 10.18548408 72.90280193 10.1800037 77.37052917 10.17275429 C79.51718502 10.16956713 81.66384302 10.1676001 83.8105011 10.16686058 C86.80794975 10.16469753 89.80530559 10.15595395 92.80273438 10.14526367 C93.69425705 10.14571686 94.58577972 10.14617004 95.50431824 10.14663696 C96.72826042 10.14023949 96.72826042 10.14023949 97.97692871 10.13371277 C98.68557823 10.13203692 99.39422775 10.13036108 100.1243515 10.12863445 C102.22854849 10.06302674 102.22854849 10.06302674 105 9 C105.80563638 6.89415562 105.80563638 6.89415562 106.1875 4.4375 C106.34605469 3.61121094 106.50460938 2.78492188 106.66796875 1.93359375 C106.77753906 1.29550781 106.88710937 0.65742188 107 0 C110.30507324 -0.2253459 112.39213514 -0.34500438 115.3125 1.3125 C119.43243988 5.43243988 118.1666757 11.82164332 118.18554688 17.24804688 C118.18546631 17.97757568 118.18538574 18.70710449 118.18530273 19.45874023 C118.18747501 21.66214731 118.20560036 23.86504179 118.22460938 26.06835938 C118.28328686 39.96939184 118.28328686 39.96939184 116 46 C112.7588413 48.16077247 111.85450892 48.25548425 108.11048889 48.28088379 C106.59842613 48.29801422 106.59842613 48.29801422 105.05581665 48.31549072 C103.95079803 48.31772644 102.84577942 48.31996216 101.70727539 48.32226562 C99.96061333 48.33716034 99.96061333 48.33716034 98.17866516 48.35235596 C94.31830503 48.3816189 90.45810916 48.39520489 86.59765625 48.40625 C84.59725767 48.4148445 82.5968591 48.42344001 80.59646124 48.432199 C75.02355775 48.45581747 69.45069413 48.47089486 63.87774569 48.4777894 C56.66965174 48.48675605 49.46231536 48.52187899 42.25445181 48.57979059 C36.68238458 48.62300618 31.11053066 48.64319683 25.53829759 48.64587164 C22.21010505 48.64796872 18.8827882 48.66268463 15.55473518 48.69551086 C11.84327407 48.7295113 8.13367151 48.72590355 4.42211914 48.71289062 C3.31912476 48.73132019 2.21613037 48.74974976 1.07971191 48.76873779 C-1.74263461 48.73763941 -4.2565227 48.66240302 -7 48 C-11.54301191 43.0862843 -12.124535 38.25568901 -12.1328125 31.796875 C-12.13410156 30.81589844 -12.13539062 29.83492188 -12.13671875 28.82421875 C-12.13091797 27.30248047 -12.13091797 27.30248047 -12.125 25.75 C-12.12886719 24.75097656 -12.13273437 23.75195312 -12.13671875 22.72265625 C-12.11559349 6.56183088 -12.11559349 6.56183088 -8.8125 1.9375 C-5.55300187 -0.30793205 -3.87547487 -0.45063661 0 0 Z " fill="#1A3919" transform="translate(131,230)"/>
<path d="M0 0 C5.94 0 11.88 0 18 0 C19 1 19 1 19.12025452 3.09437561 C19.11803391 4.01592941 19.11581329 4.93748322 19.11352539 5.88696289 C19.11344986 6.92796646 19.11337433 7.96897003 19.11329651 9.04151917 C19.10813522 10.1737944 19.10297394 11.30606964 19.09765625 12.47265625 C19.0962413 13.62543564 19.09482635 14.77821503 19.09336853 15.96592712 C19.08775005 19.66481064 19.07519442 23.36363464 19.0625 27.0625 C19.05748738 29.56315017 19.05292406 32.06380129 19.04882812 34.56445312 C19.03777462 40.70965588 19.02101852 46.85482369 19 53 C21.475 52.505 21.475 52.505 24 52 C24 34.84 24 17.68 24 0 C30.27 0 36.54 0 43 0 C43 17.49 43 34.98 43 53 C51.58 53 60.16 53 69 53 C69.495 60.92 69.495 60.92 70 69 C37.99 69 5.98 69 -27 69 C-27 63.72 -27 58.44 -27 53 C-18.42 52.67 -9.84 52.34 -1 52 C-0.67 34.84 -0.34 17.68 0 0 Z " fill="#2477A3" transform="translate(163,172)"/>
<path d="M0 0 C2.33044338 -0.37752342 2.33044338 -0.37752342 5.30747986 -0.38095093 C6.43339035 -0.3894104 7.55930084 -0.39786987 8.71932983 -0.40658569 C9.96042511 -0.400513 11.20152039 -0.39444031 12.48022461 -0.38818359 C13.78267624 -0.39344055 15.08512787 -0.39869751 16.42704773 -0.40411377 C20.00561369 -0.41782066 23.58392093 -0.41247465 27.16249156 -0.40297651 C30.90338398 -0.39539567 34.64425383 -0.40242127 38.38514709 -0.40713501 C44.66915881 -0.41259786 50.95306486 -0.40538785 57.23706055 -0.39111328 C64.50573322 -0.37479277 71.77415339 -0.38006866 79.04281992 -0.3965925 C85.27812169 -0.41020083 91.51334737 -0.41213003 97.74865919 -0.40427649 C101.4750438 -0.39959543 105.20130968 -0.39898675 108.92768669 -0.40888596 C113.08207048 -0.41915052 117.23601823 -0.40492891 121.39038086 -0.38818359 C122.6294519 -0.39425629 123.86852295 -0.40032898 125.1451416 -0.40658569 C126.27387192 -0.39812622 127.40260223 -0.38966675 128.5655365 -0.38095093 C129.54833556 -0.37981985 130.53113462 -0.37868877 131.54371548 -0.37752342 C134 0 134 0 135.81475163 1.30920982 C137.76765558 4.09508229 137.43149468 7.16394712 137.375 10.4375 C137.38273438 11.75621094 137.39046875 13.07492187 137.3984375 14.43359375 C136.97714555 18.20456976 136.624863 19.37560052 134 22 C131.58053684 22.50336456 131.58053684 22.50336456 128.65492249 22.50793457 C127.5459108 22.51921387 126.43689911 22.53049316 125.29428101 22.54211426 C124.07705353 22.53401733 122.85982605 22.52592041 121.60571289 22.51757812 C119.68348656 22.52809204 119.68348656 22.52809204 117.72242737 22.53881836 C114.20576617 22.55707181 110.68957377 22.5499758 107.17290425 22.53730202 C103.49387288 22.52718245 99.81488193 22.53656498 96.135849 22.54284668 C89.9561339 22.55012709 83.77660992 22.54052619 77.59692383 22.52148438 C70.4525806 22.49972431 63.30869413 22.5067588 56.16436201 22.52879 C50.03176593 22.54694444 43.89930733 22.54950188 37.76669306 22.53903532 C34.10341465 22.53279931 30.44035087 22.53196727 26.77708626 22.54518127 C22.69234318 22.55888584 18.60838665 22.53988955 14.52368164 22.51757812 C12.70087677 22.52972351 12.70087677 22.52972351 10.84124756 22.54211426 C9.17350029 22.52519531 9.17350029 22.52519531 7.47206116 22.50793457 C6.50623139 22.50642647 5.54040163 22.50491837 4.5453043 22.50336456 C1.23154991 21.84802974 0.03950524 20.64931136 -2 18 C-2.4609375 14.43359375 -2.4609375 14.43359375 -2.375 10.4375 C-2.37371094 9.76525391 -2.37242188 9.09300781 -2.37109375 8.40039062 C-2.30575637 4.74512716 -2.07431147 3.1114672 0 0 Z " fill="#90C792" transform="translate(117,316)"/>
<path d="M0 0 C6.48979592 0.48979592 6.48979592 0.48979592 8.875 2.875 C10.59114644 6.11660994 11.1274161 8.69724693 11.1328125 12.30859375 C11.13410156 13.13810547 11.13539063 13.96761719 11.13671875 14.82226562 C11.13285156 15.68529297 11.12898438 16.54832031 11.125 17.4375 C11.12886719 18.29666016 11.13273437 19.15582031 11.13671875 20.04101562 C11.13542969 20.87181641 11.13414062 21.70261719 11.1328125 22.55859375 C11.13168457 23.31454834 11.13055664 24.07050293 11.12939453 24.84936523 C11 27 11 27 10 31 C-28.61 31 -67.22 31 -107 31 C-106 7 -106 7 -105 4 C-102.07920195 1.92469613 -100.62453269 1 -97 1 C-96.71125 1.804375 -96.4225 2.60875 -96.125 3.4375 C-95.26737432 6.1326468 -95.26737432 6.1326468 -93 7 C-93 7.66 -93 8.32 -93 9 C-63.63 9 -34.26 9 -4 9 C-2.50596946 6.01193893 -1.20689255 3.10343799 0 0 Z " fill="#23AE60" transform="translate(233,55)"/>
<path d="M0 0 C0.73382401 -0.00861557 1.46764801 -0.01723114 2.22370911 -0.02610779 C4.64567497 -0.0487814 7.06648496 -0.04202665 9.48852539 -0.03295898 C11.17477258 -0.0381943 12.86101683 -0.04447044 14.54725647 -0.05174255 C18.08047266 -0.06214952 21.61328619 -0.05758174 25.14648438 -0.04296875 C29.67071539 -0.02578723 34.19367567 -0.04926575 38.71776485 -0.08445835 C42.20000092 -0.10643784 45.68193323 -0.10498952 49.164217 -0.09669304 C50.83195959 -0.09587367 52.49972452 -0.10273431 54.16740227 -0.11746407 C56.50171438 -0.13491987 58.83374761 -0.12036234 61.16796875 -0.09765625 C62.1975621 -0.11519455 62.1975621 -0.11519455 63.24795532 -0.13308716 C67.00271385 -0.05891464 68.58908295 0.48661149 71.57691956 2.83460999 C74.28195048 6.35839216 74.35683666 9.26614893 74.21118164 13.53344727 C74.22213867 14.23211914 74.2330957 14.93079102 74.24438477 15.65063477 C74.19665619 19.02345419 73.7799065 21.30775811 72.07946777 24.23228455 C68.891438 27.25031035 66.36498564 27.23435688 62.18969727 27.16455078 C61.07192146 27.17528374 61.07192146 27.17528374 59.93156433 27.18623352 C57.47206021 27.20312157 55.01437875 27.18371958 52.55493164 27.16235352 C50.84387054 27.16318222 49.13280951 27.16564164 47.42175293 27.16966248 C43.83715834 27.17252053 40.25318857 27.15781918 36.66870117 27.13037109 C32.07498568 27.0962878 27.48238744 27.10230616 22.88861847 27.12103367 C19.35580135 27.1316047 15.82324401 27.12266501 12.29045105 27.10764885 C10.59678417 27.1024673 8.90309017 27.10294853 7.20942688 27.1091938 C4.84158038 27.11464747 2.47533054 27.09426869 0.10766602 27.06689453 C-0.59167557 27.07342041 -1.29101715 27.07994629 -2.0115509 27.08666992 C-5.39196917 27.02025012 -7.0891186 26.73874535 -9.78515625 24.62779236 C-11.52931427 22.29542283 -11.86423916 21.22101332 -11.88256836 18.34594727 C-11.89030273 17.17418945 -11.89030273 17.17418945 -11.89819336 15.97875977 C-11.88272461 15.17180664 -11.86725586 14.36485352 -11.85131836 13.53344727 C-11.86678711 12.72649414 -11.88225586 11.91954102 -11.89819336 11.08813477 C-11.89303711 10.30696289 -11.88788086 9.52579102 -11.88256836 8.72094727 C-11.87805664 8.01325195 -11.87354492 7.30555664 -11.86889648 6.57641602 C-10.31524905 0.44390575 -5.4990452 -0.05212823 0 0 Z " fill="#1A0A01" transform="translate(153.351318359375,144.466552734375)"/>
<path d="M0 0 C2.5 0.1875 2.5 0.1875 5 1 C7.53561496 4.80342244 7.40395973 7.96259103 7.4375 12.375 C7.47037109 13.13039062 7.50324219 13.88578125 7.53710938 14.6640625 C7.57827871 18.94567292 7.50934008 20.44275959 4.5078125 23.7265625 C3.68023437 24.47679687 2.85265625 25.22703125 2 26 C1.25799875 28.47472253 1.25799875 28.47472253 1.4375 31 C1.43621094 31.825 1.43492187 32.65 1.43359375 33.5 C1.80740503 36.16067288 1.80740503 36.16067288 4.00390625 38.0546875 C7.1892356 42.75476251 6.57868208 47.58446997 6.5 53.125 C6.51546875 54.22199219 6.5309375 55.31898438 6.546875 56.44921875 C6.54171875 57.49980469 6.5365625 58.55039063 6.53125 59.6328125 C6.52673828 60.59074707 6.52222656 61.54868164 6.51757812 62.53564453 C6 65 6 65 2 68 C1.67 64.37 1.34 60.74 1 57 C-7.25 56.67 -15.5 56.34 -24 56 C-24 39.5 -24 23 -24 6 C-15.585 5.505 -15.585 5.505 -7 5 C-2.28295823 2.44464865 -2.28295823 2.44464865 0 0 Z " fill="#25AE60" transform="translate(231,167)"/>
<path d="M0 0 C0.99 0.33 1.98 0.66 3 1 C4.03125 1 5.0625 1 6.125 1 C7.07375 1 8.0225 1 9 1 C9.33 1.33 9.66 1.66 10 2 C12.67060873 2.21083753 15.3252135 2.37591197 18 2.5 C25.86486486 2.86486486 25.86486486 2.86486486 27 4 C27.09319449 5.5348297 27.117458 7.07392082 27.11352539 8.61157227 C27.11344986 9.59251358 27.11337433 10.5734549 27.11329651 11.5841217 C27.10813522 12.6507756 27.10297394 13.7174295 27.09765625 14.81640625 C27.0962413 15.9025975 27.09482635 16.98878876 27.09336853 18.1078949 C27.08775048 21.59279075 27.07519492 25.07762342 27.0625 28.5625 C27.05748733 30.91861887 27.05292402 33.27473874 27.04882812 35.63085938 C27.03777518 41.42059743 27.02049846 47.21028799 27 53 C20.07 53 13.14 53 6 53 C6 48.05 6 43.1 6 38 C6.66 38 7.32 38 8 38 C7.67 35.36 7.34 32.72 7 30 C6.34 30.99 5.68 31.98 5 33 C4 32 4 32 3.9375 28.4375 C3.958125 27.303125 3.97875 26.16875 4 25 C4.66 25 5.32 25 6 25 C5.67 21.7 5.34 18.4 5 15 C4.34 15.66 3.68 16.32 3 17 C0.4375 17.1875 0.4375 17.1875 -2 17 C-3 16 -3 16 -3.0625 12.4375 C-3.041875 11.303125 -3.02125 10.16875 -3 9 C-2.01 8.67 -1.02 8.34 0 8 C0 9.65 0 11.3 0 13 C0.66 13 1.32 13 2 13 C2 10.36 2 7.72 2 5 C1.01 4.67 0.02 4.34 -1 4 C-0.67 2.68 -0.34 1.36 0 0 Z " fill="#23AE60" transform="translate(134,170)"/>
<path d="M0 0 C15.36801449 -0.02332953 30.73602816 -0.04097944 46.10405636 -0.05181217 C53.23921741 -0.05697501 60.37436748 -0.06401748 67.50952148 -0.07543945 C74.38889737 -0.08644675 81.26826181 -0.09227617 88.14764595 -0.09487724 C90.77881615 -0.09673206 93.40998569 -0.10035373 96.04115105 -0.10573006 C99.7122625 -0.11293635 103.38332603 -0.11399112 107.05444336 -0.11352539 C108.70413116 -0.1189183 108.70413116 -0.1189183 110.387146 -0.12442017 C111.87851326 -0.12235817 111.87851326 -0.12235817 113.40000916 -0.12025452 C114.26925994 -0.12117631 115.13851072 -0.1220981 116.03410244 -0.12304783 C118 0 118 0 119 1 C119.125 4.5 119.125 4.5 119 8 C118 9 118 9 116.03410244 9.12304783 C115.16485166 9.12212604 114.29560087 9.12120424 113.40000916 9.12025452 C111.90864189 9.12231651 111.90864189 9.12231651 110.387146 9.12442017 C109.28735413 9.12082489 108.18756226 9.11722961 107.05444336 9.11352539 C105.90337601 9.11367142 104.75230865 9.11381744 103.56636047 9.1139679 C99.74083609 9.11326818 95.91535969 9.10547302 92.08984375 9.09765625 C89.44568407 9.09579228 86.80152404 9.09436828 84.15736389 9.09336853 C77.89584583 9.09025549 71.63434514 9.08204248 65.37283474 9.07201904 C58.24598463 9.06085705 51.1191337 9.05534724 43.99227703 9.05032361 C29.3281757 9.03985984 14.66408809 9.02226093 0 9 C-1.10844919 5.67465243 -0.84454356 3.37817425 0 0 Z " fill="#1C7B3E" transform="translate(125,86)"/>
<path d="M0 0 C2.22020383 0.14819262 4.43837195 0.24752804 6.66162109 0.33764648 C18.61045895 0.91190386 18.61045895 0.91190386 22.09521484 3.21069336 C24.81925341 7.28813084 24.50883668 11.48358664 24.09521484 16.21069336 C23.00571572 20.14965172 22.5681549 20.89539999 19.09521484 23.21069336 C16.55934637 23.45062991 14.12305454 23.58322555 11.58349609 23.62475586 C10.85527145 23.64412201 10.12704681 23.66348816 9.37675476 23.68344116 C7.0538601 23.74315712 4.73091566 23.78958953 2.40771484 23.83569336 C0.83152152 23.87388057 -0.7446511 23.91293274 -2.32080078 23.95288086 C-6.1819605 24.04885184 -10.04321792 24.13291185 -13.90478516 24.21069336 C-13.90478516 23.55069336 -13.90478516 22.89069336 -13.90478516 22.21069336 C-14.52353516 21.94256836 -15.14228516 21.67444336 -15.77978516 21.39819336 C-17.90478516 20.21069336 -17.90478516 20.21069336 -19.90478516 17.21069336 C-20.31103516 14.97631836 -20.31103516 14.97631836 -20.40478516 12.46069336 C-20.45634766 11.64084961 -20.50791016 10.82100586 -20.56103516 9.97631836 C-19.73006688 6.47438061 -18.67583167 4.25034074 -16.23193359 1.59301758 C-11.41000766 -1.27120238 -5.42043248 -0.36188402 0 0 Z " fill="#E6C39B" transform="translate(251.90478515625,185.789306640625)"/>
<path d="M0 0 C1.07030457 -0.00717545 1.07030457 -0.00717545 2.16223145 -0.01449585 C3.66498022 -0.0178856 5.16780366 -0.00874758 6.67041016 0.01220703 C8.96294475 0.03899467 11.25058534 0.01243719 13.54296875 -0.01953125 C15.00782324 -0.01622698 16.4726747 -0.00982036 17.9375 0 C18.95801453 -0.01518173 18.95801453 -0.01518173 19.99914551 -0.03067017 C23.80827822 0.06252746 25.39410685 0.60397719 28.39794922 3.02197266 C30.85436597 6.15606155 31.14402819 7.72225251 31.09375 11.6640625 C31.10664063 12.6746875 31.11953125 13.6853125 31.1328125 14.7265625 C30.22986802 18.72076398 28.61988977 20.08918573 25.46875 22.6640625 C22.15063477 23.38696289 22.15063477 23.38696289 18.41015625 23.51171875 C17.74338364 23.53632675 17.07661102 23.56093475 16.38963318 23.58628845 C14.98559429 23.63204365 13.58111901 23.66581422 12.17651367 23.68823242 C10.03901615 23.72642374 7.90727901 23.81254847 5.77148438 23.90429688 C4.40111995 23.94298431 3.0306734 23.97888388 1.66015625 24.01171875 C0.42467041 24.04273682 -0.81081543 24.07375488 -2.08374023 24.10571289 C-6.19601563 23.57890132 -8.32712267 22.24311108 -11.53125 19.6640625 C-12.86403232 16.99849787 -12.8108409 14.82759252 -12.90625 11.8515625 C-12.95523438 10.81386719 -13.00421875 9.77617187 -13.0546875 8.70703125 C-11.81801308 1.51770758 -6.54619313 -0.09738475 0 0 Z " fill="#E7C299" transform="translate(105.53125,186.3359375)"/>
<path d="M0 0 C4.95 0 9.9 0 15 0 C15.02464113 7.24487049 15.0428318 14.48971682 15.05493164 21.73461914 C15.05997356 24.20142033 15.06680691 26.66821852 15.07543945 29.13500977 C15.08751125 32.67204529 15.09322956 36.20904145 15.09765625 39.74609375 C15.10281754 40.85649521 15.10797882 41.96689667 15.11329651 43.11094666 C15.11337204 44.13192947 15.11344757 45.15291229 15.11352539 46.20483398 C15.115746 47.10862289 15.11796661 48.0124118 15.12025452 48.94358826 C15 51 15 51 14 52 C9.38 52 4.76 52 0 52 C0 34.84 0 17.68 0 0 Z " fill="#2980B9" transform="translate(189,173)"/>
<path d="M0 0 C4.95 0 9.9 0 15 0 C15 17.16 15 34.32 15 52 C10.38 52 5.76 52 1 52 C0 51 0 51 -0.12025452 48.94358826 C-0.11803391 48.03979935 -0.11581329 47.13601044 -0.11352539 46.20483398 C-0.11344986 45.18385117 -0.11337433 44.16286835 -0.11329651 43.11094666 C-0.10813522 42.0005452 -0.10297394 40.89014374 -0.09765625 39.74609375 C-0.0962413 38.61551041 -0.09482635 37.48492706 -0.09336853 36.32008362 C-0.08775019 32.69252935 -0.07519458 29.06503576 -0.0625 25.4375 C-0.05748736 22.98502693 -0.05292405 20.5325529 -0.04882812 18.08007812 C-0.0377748 12.05336187 -0.02049788 6.02669124 0 0 Z " fill="#2880B9" transform="translate(165,173)"/>
<path d="M0 0 C3.4375 0.4375 3.4375 0.4375 6.375 2.5 C10.09589236 7.60855189 9.22002925 15.4967988 8.4375 21.4375 C6.76176229 24.97895731 5.73271992 26.24068672 2.4375 28.4375 C-0.33984375 28.5546875 -0.33984375 28.5546875 -3.5 28.3125 C-4.54027344 28.24804688 -5.58054688 28.18359375 -6.65234375 28.1171875 C-10.2986492 27.26556717 -11.4951336 26.57520503 -13.5625 23.4375 C-14.13602169 20.42226354 -14.12117688 17.49847745 -14.0625 14.4375 C-14.07796875 13.63054687 -14.0934375 12.82359375 -14.109375 11.9921875 C-14.08393146 8.13749122 -14.04179014 6.08731653 -11.70703125 2.921875 C-8.04604215 0.38785704 -4.31929796 0.5304401 0 0 Z " fill="#D4A476" transform="translate(235.5625,106.5625)"/>
<path d="M0 0 C1.53333984 0.13728516 1.53333984 0.13728516 3.09765625 0.27734375 C6.45952937 1.20682999 7.78084014 2.35795889 9.9375 5.0625 C11.03861689 8.36585066 11.13976528 10.96082137 11.1875 14.4375 C11.21328125 15.55898437 11.2390625 16.68046875 11.265625 17.8359375 C10.90050095 21.42632398 10.16718904 23.24498385 7.9375 26.0625 C2.65685092 27.998738 -1.53952512 28.65566583 -7.0625 27.0625 C-10.06404436 24.25565041 -11.30708843 22.06050242 -11.62890625 18.03125 C-11.64867775 16.54179732 -11.64686546 15.05192341 -11.625 13.5625 C-11.64884766 12.81613281 -11.67269531 12.06976563 -11.69726562 11.30078125 C-11.68642704 7.21824919 -11.34108537 5.45362982 -8.90625 2.03515625 C-5.51750473 -0.31555303 -4.05090418 -0.45579074 0 0 Z " fill="#D2A476" transform="translate(136.0625,106.9375)"/>
<path d="M0 0 C0.33 0 0.66 0 1 0 C1.33 4.29 1.66 8.58 2 13 C3.65 13.33 5.3 13.66 7 14 C7.33 13.01 7.66 12.02 8 11 C8.66 11.33 9.32 11.66 10 12 C10 15.3 10 18.6 10 22 C9.34 22 8.68 22 8 22 C8.33 24.31 8.66 26.62 9 29 C9.99 28.01 10.98 27.02 12 26 C12 28.97 12 31.94 12 35 C11.34 35 10.68 35 10 35 C10 39.95 10 44.9 10 50 C16.93 50 23.86 50 31 50 C30.67 33.5 30.34 17 30 0 C30.99 0 31.98 0 33 0 C33.02526739 7.24486551 33.0428318 14.48971974 33.05493164 21.73461914 C33.05997356 24.20142033 33.06680691 26.66821852 33.07543945 29.13500977 C33.08751125 32.67204529 33.09322956 36.20904145 33.09765625 39.74609375 C33.10281754 40.85649521 33.10797882 41.96689667 33.11329651 43.11094666 C33.11337204 44.13192947 33.11344757 45.15291229 33.11352539 46.20483398 C33.115746 47.10862289 33.11796661 48.0124118 33.12025452 48.94358826 C33 51 33 51 32 52 C30.07332493 52.08748207 28.14348139 52.10697334 26.21484375 52.09765625 C24.46010742 52.09282227 24.46010742 52.09282227 22.66992188 52.08789062 C21.43822266 52.07951172 20.20652344 52.07113281 18.9375 52.0625 C17.08415039 52.05573242 17.08415039 52.05573242 15.19335938 52.04882812 C12.12888587 52.03699618 9.06443707 52.01906008 6 52 C6 56.95 6 61.9 6 67 C2 65 2 65 0.7578125 61.5625 C-0.30512561 56.3949855 -0.21919436 51.25314724 -0.125 46 C-0.11597656 45.03449219 -0.10695312 44.06898438 -0.09765625 43.07421875 C-0.07430635 40.71587901 -0.04156047 38.35807714 0 36 C1.485 35.505 1.485 35.505 3 35 C6.19050021 30.34853 5.77024172 24.37673592 5 19 C4.175 18.21625 3.35 17.4325 2.5 16.625 C-0.79082943 13.1696291 -0.33592131 11.37644697 -0.3125 6.6875 C-0.23227853 4.45734323 -0.13563775 2.22747326 0 0 Z " fill="#27AE60" transform="translate(130,173)"/>
<path d="M0 0 C10.56 0 21.12 0 32 0 C32 5.28 32 10.56 32 16 C21.44 16 10.88 16 0 16 C0 10.72 0 5.44 0 0 Z " fill="#292929" transform="translate(267,297)"/>
<path d="M0 0 C10.56 0 21.12 0 32 0 C32 5.28 32 10.56 32 16 C21.44 16 10.88 16 0 16 C0 10.72 0 5.44 0 0 Z " fill="#292929" transform="translate(69,297)"/>
<path d="M0 0 C9.57 0 19.14 0 29 0 C28.67 0.66 28.34 1.32 28 2 C19.42 2 10.84 2 2 2 C2.33 3.65 2.66 5.3 3 7 C2.01 10.465 2.01 10.465 1 14 C32.02 14 63.04 14 95 14 C95 10.04 95 6.08 95 2 C87.08 2 79.16 2 71 2 C70.505 1.01 70.505 1.01 70 0 C78.58 0 87.16 0 96 0 C96.495 7.92 96.495 7.92 97 16 C64.99 16 32.98 16 0 16 C0 10.72 0 5.44 0 0 Z " fill="#2B728D" transform="translate(136,225)"/>
<path d="M0 0 C1.98 0 3.96 0 6 0 C6.33 17.49 6.66 34.98 7 53 C5.02 53 3.04 53 1 53 C0.67 35.51 0.34 18.02 0 0 Z " fill="#2DA972" transform="translate(181,172)"/>
<path d="M0 0 C0.99 0.495 0.99 0.495 2 1 C2.36836955 5.29764472 1.39180503 7.46012855 -1 11 C-1.33 11.66 -1.66 12.32 -2 13 C-50.51 13.495 -50.51 13.495 -100 14 C-100 13.34 -100 12.68 -100 12 C-100.99 12 -101.98 12 -103 12 C-102.67 11.34 -102.34 10.68 -102 10 C-100.79143845 10.00222061 -99.58287689 10.00444122 -98.33769226 10.00672913 C-86.96304759 10.02697724 -75.58840656 10.04198022 -64.21374798 10.05181217 C-58.36555418 10.05703674 -52.5173749 10.0641267 -46.66918945 10.07543945 C-41.02822031 10.08628341 -35.38726515 10.09228006 -29.74628639 10.09487724 C-27.59125358 10.09672876 -25.43622156 10.10034416 -23.28119469 10.10573006 C-20.26907048 10.11296046 -17.2570045 10.11399009 -14.24487305 10.11352539 C-13.34863724 10.11712067 -12.45240143 10.12071594 -11.52900696 10.12442017 C-10.70871002 10.1230455 -9.88841309 10.12167084 -9.04325867 10.12025452 C-8.33071269 10.12117631 -7.61816671 10.1220981 -6.88402843 10.12304783 C-4.77259991 10.06515982 -4.77259991 10.06515982 -2 9 C-1.19436362 6.89415562 -1.19436362 6.89415562 -0.8125 4.4375 C-0.65394531 3.61121094 -0.49539062 2.78492188 -0.33203125 1.93359375 C-0.22246094 1.29550781 -0.11289063 0.65742188 0 0 Z " fill="#093A2B" transform="translate(238,230)"/>
<path d="M0 0 C2.375 0.875 2.375 0.875 4.375 2.875 C8.03150673 4.2183152 11.86736081 4.04809393 15.71386719 4.08032227 C16.81202003 4.09517166 16.81202003 4.09517166 17.93235779 4.11032104 C20.34549761 4.1418382 22.75865709 4.16665464 25.171875 4.19140625 C26.84768172 4.21198423 28.52348334 4.23298093 30.19927979 4.25437927 C34.60508087 4.30951274 39.01092812 4.35896042 43.41680908 4.40722656 C47.91463315 4.45750536 52.41239037 4.51315811 56.91015625 4.56835938 C65.73171369 4.6758342 74.55332924 4.7773028 83.375 4.875 C83.375 5.205 83.375 5.535 83.375 5.875 C76.14091861 6.00741416 68.90680509 6.13791143 61.67264843 6.26615143 C58.31128922 6.32579448 54.94994838 6.38621462 51.58862305 6.44775391 C25.88303826 6.91765641 25.88303826 6.91765641 14.05078125 6.96875 C13.26897995 6.9752356 12.48717865 6.98172119 11.6816864 6.98840332 C9.91238774 6.98993577 8.14314795 6.93881936 6.375 6.875 C6.045 6.545 5.715 6.215 5.375 5.875 C3.04205225 5.83258277 0.70797433 5.83407063 -1.625 5.875 C-2.285 5.875 -2.945 5.875 -3.625 5.875 C-3.625 6.535 -3.625 7.195 -3.625 7.875 C-2.965 8.205 -2.305 8.535 -1.625 8.875 C-1.625 11.515 -1.625 14.155 -1.625 16.875 C-2.285 16.875 -2.945 16.875 -3.625 16.875 C-3.625 15.225 -3.625 13.575 -3.625 11.875 C-4.615 12.205 -5.605 12.535 -6.625 12.875 C-7.24332061 4.83683206 -7.24332061 4.83683206 -4.9375 1.25 C-2.625 -0.125 -2.625 -0.125 0 0 Z " fill="#427350" transform="translate(137.625,166.125)"/>
<path d="M0 0 C0.66 0 1.32 0 2 0 C2.33 2.64 2.66 5.28 3 8 C3.78414276 7.83766876 4.56828552 7.67533752 5.37619019 7.50808716 C9.93669644 6.86866766 14.38199895 6.8605513 18.98095703 6.87060547 C19.97027222 6.86885315 20.9595874 6.86710083 21.97888184 6.86529541 C25.2385434 6.86090553 28.49815042 6.86380437 31.7578125 6.8671875 C34.02651988 6.86651375 36.29522719 6.86554312 38.56393433 6.86428833 C43.31330046 6.86281533 48.06264777 6.86495357 52.81201172 6.86962891 C58.90299029 6.87533245 64.99392485 6.8720407 71.08490181 6.86605644 C75.76712374 6.86244567 80.44933522 6.86359169 85.13155746 6.86618423 C87.37786743 6.86685173 89.62417835 6.86603125 91.87048721 6.86370468 C95.00629449 6.86116902 98.1420301 6.86503145 101.27783203 6.87060547 C102.20779999 6.86858124 103.13776794 6.86655701 104.09591675 6.86447144 C105.37852386 6.86870117 105.37852386 6.86870117 106.68704224 6.87301636 C107.79809672 6.8735819 107.79809672 6.8735819 108.93159676 6.87415886 C111.06349944 7.00386329 112.94942736 7.41690442 115 8 C115 7.34 115 6.68 115 6 C113.35 5.67 111.7 5.34 110 5 C110 4.67 110 4.34 110 4 C112.31 4.33 114.62 4.66 117 5 C117 3.35 117 1.7 117 0 C117.99 0.495 117.99 0.495 119 1 C119.04241723 3.33294775 119.04092937 5.66702567 119 8 C118 9 118 9 116.03410244 9.12304783 C115.16485166 9.12212604 114.29560087 9.12120424 113.40000916 9.12025452 C111.90864189 9.12231651 111.90864189 9.12231651 110.387146 9.12442017 C109.28735413 9.12082489 108.18756226 9.11722961 107.05444336 9.11352539 C105.90337601 9.11367142 104.75230865 9.11381744 103.56636047 9.1139679 C99.74083609 9.11326818 95.91535969 9.10547302 92.08984375 9.09765625 C89.44568407 9.09579228 86.80152404 9.09436828 84.15736389 9.09336853 C77.89584583 9.09025549 71.63434514 9.08204248 65.37283474 9.07201904 C58.24598463 9.06085705 51.1191337 9.05534724 43.99227703 9.05032361 C29.3281757 9.03985984 14.66408809 9.02226093 0 9 C-0.97591583 5.61682513 -0.85856655 3.4342662 0 0 Z " fill="#3D7338" transform="translate(125,86)"/>
<path d="M0 0 C1.98 0 3.96 0 6 0 C6 0.66 6 1.32 6 2 C6.99 2.33 7.98 2.66 9 3 C8.67 3.66 8.34 4.32 8 5 C7.90535589 6.3398391 7.86927851 7.68416768 7.8671875 9.02734375 C7.86589844 9.81947266 7.86460937 10.61160156 7.86328125 11.42773438 C7.86714844 12.25595703 7.87101563 13.08417969 7.875 13.9375 C7.87113281 14.76185547 7.86726562 15.58621094 7.86328125 16.43554688 C7.86457031 17.22896484 7.86585938 18.02238281 7.8671875 18.83984375 C7.86831543 19.56550537 7.86944336 20.29116699 7.87060547 21.03881836 C7.93110986 23.21513864 7.93110986 23.21513864 9 26 C2.36033408 22.79464404 2.36033408 22.79464404 0.8203125 19.3984375 C-0.15205206 15.37007003 -0.22186619 11.74553885 -0.125 7.625 C-0.11597656 6.88894531 -0.10695312 6.15289062 -0.09765625 5.39453125 C-0.07430144 3.5962112 -0.03843836 1.79806089 0 0 Z " fill="#DAC29B" transform="translate(135,144)"/>
<path d="M0 0 C0.99 0 1.98 0 3 0 C3.02526739 7.24486551 3.0428318 14.48971974 3.05493164 21.73461914 C3.05997356 24.20142033 3.06680691 26.66821852 3.07543945 29.13500977 C3.08751125 32.67204529 3.09322956 36.20904145 3.09765625 39.74609375 C3.10281754 40.85649521 3.10797882 41.96689667 3.11329651 43.11094666 C3.11340981 44.64242088 3.11340981 44.64242088 3.11352539 46.20483398 C3.115746 47.10862289 3.11796661 48.0124118 3.12025452 48.94358826 C3 51 3 51 2 52 C0.07332493 52.08748207 -1.85651861 52.10697334 -3.78515625 52.09765625 C-5.53989258 52.09282227 -5.53989258 52.09282227 -7.33007812 52.08789062 C-9.17762695 52.07532227 -9.17762695 52.07532227 -11.0625 52.0625 C-12.91584961 52.05573242 -12.91584961 52.05573242 -14.80664062 52.04882812 C-17.87114117 52.03699608 -20.93554721 52.02051173 -24 52 C-24 51.34 -24 50.68 -24 50 C-15.75 50 -7.5 50 1 50 C0.67 33.5 0.34 17 0 0 Z " fill="#30A67E" transform="translate(160,173)"/>
<path d="M0 0 C0.33 0 0.66 0 1 0 C0.67 2.97 0.34 5.94 0 9 C-32.67 9 -65.34 9 -99 9 C-99 8.67 -99 8.34 -99 8 C-97.91893982 7.99191315 -96.83787964 7.98382629 -95.72406006 7.97549438 C-85.5416286 7.89804722 -75.35933099 7.81031148 -65.17707443 7.71247292 C-59.94213263 7.66250326 -54.70721107 7.61617319 -49.47216797 7.578125 C-44.42112199 7.54128078 -39.37024511 7.49492302 -34.31934357 7.44193649 C-32.39124769 7.42338798 -30.46311556 7.40828171 -28.53496552 7.39665604 C-25.83661032 7.3798015 -23.13864282 7.35076828 -20.44042969 7.31884766 C-19.64129654 7.31668747 -18.84216339 7.31452728 -18.01881409 7.31230164 C-14.13466691 7.25350999 -11.34665938 6.99824227 -8 5 C-5.67504723 4.61250787 -3.34148732 4.27017161 -1 4 C-0.67 2.68 -0.34 1.36 0 0 Z " fill="#2EAB62" transform="translate(243,77)"/>
<path d="M0 0 C4.46564301 -0.12397147 8.93036439 -0.21450992 13.3972168 -0.2746582 C14.91529801 -0.29974109 16.43325918 -0.3338166 17.95092773 -0.37719727 C20.13815965 -0.43813293 22.32379039 -0.46626895 24.51171875 -0.48828125 C25.82615967 -0.51446533 27.14060059 -0.54064941 28.49487305 -0.56762695 C32.87512546 0.14171949 34.3100937 1.54231986 37 5 C37.59375 8.04296875 37.59375 8.04296875 37.5 11.1875 C37.4896875 12.23292969 37.479375 13.27835938 37.46875 14.35546875 C37.23671875 15.66451172 37.23671875 15.66451172 37 17 C36.01 17.66 35.02 18.32 34 19 C34 17.68 34 16.36 34 15 C34.66 15 35.32 15 36 15 C35.505 12.03 35.505 12.03 35 9 C34.01 11.31 33.02 13.62 32 16 C31.67 16 31.34 16 31 16 C30.81606878 10.57402889 30.90291413 8.24271468 33 3 C22.11 2.67 11.22 2.34 0 2 C0 1.34 0 0.68 0 0 Z " fill="#D7C3A1" transform="translate(99,187)"/>
<path d="M0 0 C1.32 0 2.64 0 4 0 C4 0.66 4 1.32 4 2 C2.35 2.33 0.7 2.66 -1 3 C-1.13277344 3.91523437 -1.26554688 4.83046875 -1.40234375 5.7734375 C-1.57894531 6.96195313 -1.75554687 8.15046875 -1.9375 9.375 C-2.11152344 10.55835938 -2.28554687 11.74171875 -2.46484375 12.9609375 C-3 16 -3 16 -4 18 C-6.93704456 20.0095568 -8.39222485 21 -12 21 C-12.33 29.58 -12.66 38.16 -13 47 C-13.99 47.495 -13.99 47.495 -15 48 C-15.1457733 43.95871548 -15.23423181 39.91811094 -15.3125 35.875 C-15.35439453 34.73289063 -15.39628906 33.59078125 -15.43945312 32.4140625 C-15.57761695 22.90839155 -15.57761695 22.90839155 -12.65625 19.25 C-9.95112831 16.95860281 -8.50203873 16.2001165 -5 16 C-5.061875 14.80375 -5.12375 13.6075 -5.1875 12.375 C-5.1948204 8.24629518 -4.19607242 5.5475016 -2 2 C-1.34 1.34 -0.68 0.68 0 0 Z " fill="#45A067" transform="translate(140,38)"/>
<path d="M0 0 C3.65111665 6.54158399 3.29887594 12.63879629 3 20 C2.01 20.33 1.02 20.66 0 21 C-1.20882096 23.00016466 -1.20882096 23.00016466 -2 25 C-2.66 25 -3.32 25 -4 25 C-4.1875 22.125 -4.1875 22.125 -4 19 C-3.01 18.34 -2.02 17.68 -1 17 C0.00168531 15.05167065 0.00168531 15.05167065 0.6875 12.875 C0.93886719 12.15054688 1.19023437 11.42609375 1.44921875 10.6796875 C1.63097656 10.12539062 1.81273437 9.57109375 2 9 C1.34 9 0.68 9 0 9 C0 8.34 0 7.68 0 7 C-0.99 7.495 -0.99 7.495 -2 8 C-2 9.32 -2 10.64 -2 12 C-3.32 12 -4.64 12 -6 12 C-5.814375 11.2575 -5.62875 10.515 -5.4375 9.75 C-4.81104559 7.08065626 -4.81104559 7.08065626 -5.625 4.875 C-5.74875 4.25625 -5.8725 3.6375 -6 3 C-4.04862098 0.26806937 -3.44686768 0 0 0 Z " fill="#1AAE5F" transform="translate(234,167)"/>
<path d="M0 0 C2.22049511 0.14064275 4.43811614 0.2270834 6.66162109 0.3046875 C18.43785749 0.84080973 18.43785749 0.84080973 22.09521484 4.265625 C21.10521484 4.925625 20.11521484 5.585625 19.09521484 6.265625 C18.60021484 5.275625 18.60021484 5.275625 18.09521484 4.265625 C7.64937155 2.55425036 -3.35028735 3.15792604 -13.90478516 3.265625 C-15.07635822 6.70158297 -16.17790035 10.11138793 -17.02978516 13.640625 C-17.31853516 14.836875 -17.60728516 16.033125 -17.90478516 17.265625 C-17.24478516 17.265625 -16.58478516 17.265625 -15.90478516 17.265625 C-16.23478516 18.585625 -16.56478516 19.905625 -16.90478516 21.265625 C-19.45439001 18.30808337 -20.37491631 16.36340627 -20.46728516 12.453125 C-20.53109375 11.23689453 -20.53109375 11.23689453 -20.59619141 9.99609375 C-17.81480479 -0.98802627 -9.6646095 -0.61839759 0 0 Z " fill="#D3BF9A" transform="translate(251.90478515625,185.734375)"/>
<path d="M0 0 C9.57 0 19.14 0 29 0 C28.67 0.66 28.34 1.32 28 2 C19.42 2 10.84 2 2 2 C2.33 3.65 2.66 5.3 3 7 C2.57930124 9.77080906 1.77912742 12.29596953 1 15 C0.67 15 0.34 15 0 15 C0 10.05 0 5.1 0 0 Z " fill="#17788B" transform="translate(136,225)"/>
<path d="M0 0 C0.33 0 0.66 0 1 0 C1.02578125 0.91523438 1.0515625 1.83046875 1.078125 2.7734375 C1.13484375 3.96195313 1.1915625 5.15046875 1.25 6.375 C1.29640625 7.55835938 1.3428125 8.74171875 1.390625 9.9609375 C1.59171875 10.96382812 1.7928125 11.96671875 2 13 C3.92744462 14.27645694 3.92744462 14.27645694 6 15 C7.19960669 18.59882006 7.16886729 21.58137982 7.1875 25.375 C7.20167969 26.68210938 7.21585938 27.98921875 7.23046875 29.3359375 C6.96685009 33.52702739 5.8441851 36.3116298 4 40 C3.67 39.67 3.34 39.34 3 39 C2.34 41.31 1.68 43.62 1 46 C0.67 46 0.34 46 0 46 C0 42.7 0 39.4 0 36 C1.485 35.505 1.485 35.505 3 35 C6.19050021 30.34853 5.77024172 24.37673592 5 19 C4.175 18.21625 3.35 17.4325 2.5 16.625 C-0.79082943 13.1696291 -0.33592131 11.37644697 -0.3125 6.6875 C-0.23227853 4.45734323 -0.13563775 2.22747326 0 0 Z " fill="#5BA96A" transform="translate(130,173)"/>
<path d="M0 0 C2.39763185 2.39763185 2.34280586 3.33273498 2.625 6.625 C2.69976562 7.44226562 2.77453125 8.25953125 2.8515625 9.1015625 C2.92503906 10.04128906 2.92503906 10.04128906 3 11 C5.475 11.99 5.475 11.99 8 13 C7.34 13.66 6.68 14.32 6 15 C5.360625 14.835 4.72125 14.67 4.0625 14.5 C3.381875 14.335 2.70125 14.17 2 14 C1.01 14.66 0.02 15.32 -1 16 C-1.99 16 -2.98 16 -4 16 C-4.185625 15.071875 -4.185625 15.071875 -4.375 14.125 C-4.87197356 11.80879168 -4.87197356 11.80879168 -7 10 C-6.625 7.875 -6.625 7.875 -6 6 C-4.02 6.66 -2.04 7.32 0 8 C0 5.36 0 2.72 0 0 Z " fill="#269854" transform="translate(231,42)"/>
<path d="M0 0 C0.33 0 0.66 0 1 0 C1 2.64 1 5.28 1 8 C2.65 7.67 4.3 7.34 6 7 C6 11.62 6 16.24 6 21 C2 19 2 19 0.75 15.5625 C-0.3315373 10.41096708 -0.17327821 5.23685256 0 0 Z " fill="#3BA46C" transform="translate(130,219)"/>
<path d="M0 0 C3.33240807 2.49764979 3.96125703 3.73093673 4.56640625 7.93359375 C4.58624552 9.43476531 4.58429287 10.93635553 4.5625 12.4375 C4.58634766 13.18837891 4.61019531 13.93925781 4.63476562 14.71289062 C4.62353368 18.96979657 4.48624507 20.47127487 1.49609375 23.72265625 C0.67238281 24.47417969 -0.15132812 25.22570312 -1 26 C-2.10174982 30.63894662 -1.54748681 34.85940249 0.5 39.125 C0.995 39.74375 1.49 40.3625 2 41 C-1.875 40.125 -1.875 40.125 -3 39 C-3.15289263 36.75365446 -3.22197467 34.50136826 -3.25 32.25 C-3.27578125 31.01765625 -3.3015625 29.7853125 -3.328125 28.515625 C-2.98043313 24.790355 -2.35641983 22.8849626 0 20 C0.99 20 1.98 20 3 20 C2.44589633 9.82839073 2.44589633 9.82839073 0 0 Z " fill="#50A567" transform="translate(234,167)"/>
<path d="M0 0 C3.875 1.75 3.875 1.75 5 4 C5.14745376 5.99629703 5.22113182 7.99847281 5.25 10 C5.27578125 11.0725 5.3015625 12.145 5.328125 13.25 C5.21984375 14.1575 5.1115625 15.065 5 16 C4.01 16.66 3.02 17.32 2 18 C2 16.68 2 15.36 2 14 C2.66 14 3.32 14 4 14 C3.67 12.02 3.34 10.04 3 8 C2.01 10.31 1.02 12.62 0 15 C-0.33 15 -0.66 15 -1 15 C-1.07688588 10.4637333 -1.04349036 6.43483405 0 2 C0 1.34 0 0.68 0 0 Z " fill="#D4C897" transform="translate(131,188)"/>
<path d="M0 0 C-0.61875 0.04125 -1.2375 0.0825 -1.875 0.125 C-4.27732839 0.82688645 -4.27732839 0.82688645 -5.125 3.5625 C-5.558125 5.2640625 -5.558125 5.2640625 -6 7 C-6.185625 7.71800781 -6.37125 8.43601563 -6.5625 9.17578125 C-7.05800829 11.11308103 -7.53079761 13.05616152 -8 15 C-7.34 15 -6.68 15 -6 15 C-6.33 16.32 -6.66 17.64 -7 19 C-10.34478214 15.14816312 -10.57217842 12.38939474 -10.41796875 7.41796875 C-10 5 -10 5 -7.8125 1.875 C-4.81690334 -0.12206444 -3.51088794 -0.50155542 0 0 Z " fill="#D7CC9C" transform="translate(242,188)"/>
<path d="M0 0 C1.98 0 3.96 0 6 0 C6 0.66 6 1.32 6 2 C6.99 2.33 7.98 2.66 9 3 C8.67 3.66 8.34 4.32 8 5 C7.7677354 7.71262116 7.58063765 10.40773126 7.4375 13.125 C7.39431641 13.87910156 7.35113281 14.63320312 7.30664062 15.41015625 C7.2005168 17.27321888 7.09974999 19.13658524 7 21 C6.67 21 6.34 21 6 21 C5.67 16.71 5.34 12.42 5 8 C4.34 8 3.68 8 3 8 C2.87625 6.865625 2.7525 5.73125 2.625 4.5625 C2.41875 3.386875 2.2125 2.21125 2 1 C1.34 0.67 0.68 0.34 0 0 Z " fill="#D0AC87" transform="translate(135,144)"/>
<path d="M0 0 C1.671549 0.30791692 3.33805547 0.64386903 5 1 C5.99 1 6.98 1 8 1 C7.67 3.97 7.34 6.94 7 10 C5.68 10 4.36 10 3 10 C2.566875 8.6078125 2.566875 8.6078125 2.125 7.1875 C1.1125 3.90208333 1.1125 3.90208333 -1 1 C-0.67 0.67 -0.34 0.34 0 0 Z " fill="#109A51" transform="translate(224,40)"/>
<path d="M0 0 C0.33 0 0.66 0 1 0 C1.25832274 3.47763025 1.47620671 6.95672098 1.6875 10.4375 C1.76033203 11.41138672 1.83316406 12.38527344 1.90820312 13.38867188 C2.27915231 19.91301341 1.57184461 24.97832651 -1 31 C-1.99 30.67 -2.98 30.34 -4 30 C-3.42655063 27.13275314 -3.1385485 26.1385485 -1 24 C-0.62864085 21.47962036 -0.62864085 21.47962036 -0.5859375 18.5546875 C-0.54726562 17.47832031 -0.50859375 16.40195313 -0.46875 15.29296875 C-0.4378125 14.16503906 -0.406875 13.03710938 -0.375 11.875 C-0.33632812 10.73933594 -0.29765625 9.60367188 -0.2578125 8.43359375 C-0.16332399 5.62256044 -0.07776459 2.81153767 0 0 Z " fill="#46975E" transform="translate(237,208)"/>
<path d="M0 0 C0.33 0.66 0.66 1.32 1 2 C1.66 2 2.32 2 3 2 C3 1.34 3 0.68 3 0 C4.65 0 6.3 0 8 0 C1.25549063 5.58830777 -2.62478908 7.45491967 -11.3125 7.1875 C-12.14845703 7.17396484 -12.98441406 7.16042969 -13.84570312 7.14648438 C-15.89741498 7.11131217 -17.94879275 7.05751048 -20 7 C-20 6.67 -20 6.34 -20 6 C-18.46279297 5.97873047 -18.46279297 5.97873047 -16.89453125 5.95703125 C-15.53381029 5.91010984 -14.17313459 5.86186256 -12.8125 5.8125 C-12.13896484 5.80669922 -11.46542969 5.80089844 -10.77148438 5.79492188 C-6.74287144 5.61805594 -5.11941921 5.10193561 -2.01171875 2.44921875 C-1.34785156 1.64097656 -0.68398437 0.83273438 0 0 Z " fill="#62A76E" transform="translate(226,166)"/>
<path d="M0 0 C2 3.75 2 3.75 2 6 C2.66 6.33 3.32 6.66 4 7 C4 9.64 4 12.28 4 15 C3.34 15 2.68 15 2 15 C2 13.35 2 11.7 2 10 C1.01 10.33 0.02 10.66 -1 11 C-1.0270043 9.54176788 -1.04639787 8.08339325 -1.0625 6.625 C-1.07410156 5.81289062 -1.08570313 5.00078125 -1.09765625 4.1640625 C-1 2 -1 2 0 0 Z " fill="#37A962" transform="translate(132,168)"/>
<path d="M0 0 C0 0.66 0 1.32 0 2 C-1.65 2.33 -3.3 2.66 -5 3 C-5.66 7.29 -6.32 11.58 -7 16 C-9.27611671 12.58582494 -9.16587238 10.97973917 -8.54296875 7.0078125 C-7.15840893 1.88792941 -5.21769644 0 0 0 Z " fill="#428F5C" transform="translate(144,38)"/>
<path d="M0 0 C0.66 0.33 1.32 0.66 2 1 C2.04241723 3.33294775 2.04092937 5.66702567 2 8 C1 9 1 9 -0.84765625 9.09765625 C-2.8984375 9.06510417 -4.94921875 9.03255208 -7 9 C-7 8.67 -7 8.34 -7 8 C-5.35 8 -3.7 8 -2 8 C-2 7.34 -2 6.68 -2 6 C-3.65 5.67 -5.3 5.34 -7 5 C-7 4.67 -7 4.34 -7 4 C-4.69 4.33 -2.38 4.66 0 5 C0 3.35 0 1.7 0 0 Z " fill="#2A7040" transform="translate(242,86)"/>
<path d="M0 0 C0.33 0 0.66 0 1 0 C1.08117951 2.41734542 1.14056926 4.83194949 1.1875 7.25 C1.22520508 8.27287109 1.22520508 8.27287109 1.26367188 9.31640625 C1.31021876 12.51262602 1.18591611 14.66692213 -0.38671875 17.484375 C-2 19 -2 19 -4 19 C-4.33 17.35 -4.66 15.7 -5 14 C-3.35 13.34 -1.7 12.68 0 12 C0 8.04 0 4.08 0 0 Z " fill="#7DAA7C" transform="translate(253,319)"/>
<path d="M0 0 C2.39763185 2.39763185 2.34280586 3.33273498 2.625 6.625 C2.69976562 7.44226562 2.77453125 8.25953125 2.8515625 9.1015625 C2.90054688 9.72804688 2.94953125 10.35453125 3 11 C5.475 11.99 5.475 11.99 8 13 C7.34 13.66 6.68 14.32 6 15 C3.69 14.01 1.38 13.02 -1 12 C-0.67 8.04 -0.34 4.08 0 0 Z " fill="#439160" transform="translate(231,42)"/>
<path d="M0 0 C3.3 0.33 6.6 0.66 10 1 C9.34 1.66 8.68 2.32 8 3 C8.33 3.66 8.66 4.32 9 5 C5.7 5 2.4 5 -1 5 C-0.67 3.35 -0.34 1.7 0 0 Z " fill="#30AA64" transform="translate(127,81)"/>
<path d="M0 0 C0 2.62113708 -0.31292445 4.50935112 -1 7 C-1.33 6.67 -1.66 6.34 -2 6 C-2.99 9.465 -2.99 9.465 -4 13 C-4.33 13 -4.66 13 -5 13 C-5.28526928 9.62114388 -5.46087248 6.36708009 -5 3 C-2.5 0.875 -2.5 0.875 0 0 Z " fill="#49B065" transform="translate(135,206)"/>
<path d="M0 0 C0.66 0 1.32 0 2 0 C2.96070434 2.88211302 3.10581883 4.69850044 3.0625 7.6875 C3.05347656 8.49574219 3.04445312 9.30398437 3.03515625 10.13671875 C3.02355469 10.75160156 3.01195312 11.36648437 3 12 C1.68 10.68 0.36 9.36 -1 8 C-0.67 7.01 -0.34 6.02 0 5 C0.03874921 3.33378384 0.0450286 1.66605828 0 0 Z " fill="#2DA75D" transform="translate(132,228)"/>
<path d="M0 0 C-0.3125 1.875 -0.3125 1.875 -1 4 C-4.22791555 6.1519437 -5.28400809 6.20086443 -9 6 C-6.46234231 2.19351346 -4.70860871 0 0 0 Z " fill="#CEA683" transform="translate(242,129)"/>
<path d="M0 0 C0.99 0 1.98 0 3 0 C2.67 0.86625 2.34 1.7325 2 2.625 C0.61083051 7.31344704 0.56129024 11.32419329 2 16 C1.34 16 0.68 16 0 16 C-1.36538938 13.26922124 -1.13231826 11.04439633 -1.125 8 C-1.12757812 6.9275 -1.13015625 5.855 -1.1328125 4.75 C-1 2 -1 2 0 0 Z " fill="#DEC6AB" transform="translate(94,190)"/>
<path d="M0 0 C0.33 0 0.66 0 1 0 C0.67 2.97 0.34 5.94 0 9 C-3.3 9 -6.6 9 -10 9 C-7.4345406 6.4345406 -5.52313332 6.45953913 -2 6 C-1.34 4.02 -0.68 2.04 0 0 Z " fill="#3FA368" transform="translate(243,77)"/>
<path d="M0 0 C0.66386719 0.15339844 1.32773438 0.30679688 2.01171875 0.46484375 C5.60155922 1.10773021 9.17795419 1.35033991 12.8125 1.5625 C13.85180664 1.62727539 13.85180664 1.62727539 14.91210938 1.69335938 C16.60788686 1.79861453 18.30392052 1.89972863 20 2 C20 2.33 20 2.66 20 3 C13.73 3 7.46 3 1 3 C0.67 2.01 0.34 1.02 0 0 Z " fill="#56A16C" transform="translate(143,170)"/>
<path d="M0 0 C0.66 0 1.32 0 2 0 C2.33 2.64 2.66 5.28 3 8 C3.99 8.33 4.98 8.66 6 9 C4.02 9 2.04 9 0 9 C-1.10844919 5.67465243 -0.84454356 3.37817425 0 0 Z " fill="#356D46" transform="translate(125,86)"/>
<path d="M0 0 C0.66 0 1.32 0 2 0 C2 3.63 2 7.26 2 11 C1.01 11 0.02 11 -1 11 C-0.67 7.37 -0.34 3.74 0 0 Z " fill="#DCC2A5" transform="translate(231,96)"/>
<path d="M0 0 C0.66 0.33 1.32 0.66 2 1 C2.4140625 3.06640625 2.4140625 3.06640625 2.625 5.5625 C2.69976562 6.38878906 2.77453125 7.21507812 2.8515625 8.06640625 C2.92503906 9.02353516 2.92503906 9.02353516 3 10 C1.68 10 0.36 10 -1 10 C-0.67 6.7 -0.34 3.4 0 0 Z " fill="#119A51" transform="translate(139,44)"/>
<path d="M0 0 C3.875 1.75 3.875 1.75 5 4 C5.99 4.33 6.98 4.66 8 5 C8 5.99 8 6.98 8 8 C6.68 7.67 5.36 7.34 4 7 C4 6.34 4 5.68 4 5 C2.68 4.34 1.36 3.68 0 3 C0 2.01 0 1.02 0 0 Z " fill="#0D9D52" transform="translate(136,57)"/>
<path d="M0 0 C0.66 0.33 1.32 0.66 2 1 C2 3.31 2 5.62 2 8 C1.01 8 0.02 8 -1 8 C-1.04241723 5.66705225 -1.04092937 3.33297433 -1 1 C-0.67 0.67 -0.34 0.34 0 0 Z " fill="#15B060" transform="translate(224,194)"/>
<path d="M0 0 C2.31 0.33 4.62 0.66 7 1 C7.33 1.99 7.66 2.98 8 4 C5.69 4.33 3.38 4.66 1 5 C0.67 3.35 0.34 1.7 0 0 Z " fill="#1DA646" transform="translate(214,37)"/>
<path d="M0 0 C0.33 0 0.66 0 1 0 C1.04898438 0.63808594 1.09796875 1.27617187 1.1484375 1.93359375 C1.22320312 2.75988281 1.29796875 3.58617187 1.375 4.4375 C1.44460937 5.26121094 1.51421875 6.08492187 1.5859375 6.93359375 C1.72257813 7.61550781 1.85921875 8.29742187 2 9 C2.66 9.33 3.32 9.66 4 10 C3.67 11.32 3.34 12.64 3 14 C0.19954377 10.85408067 -0.35261589 8.932936 -0.1875 4.75 C-0.16042969 3.85796875 -0.13335937 2.9659375 -0.10546875 2.046875 C-0.07066406 1.37140625 -0.03585938 0.6959375 0 0 Z " fill="#B4C48F" transform="translate(232,193)"/>
<path d="M0 0 C0 1.65 0 3.3 0 5 C-1.65 4.67 -3.3 4.34 -5 4 C-5.33 3.01 -5.66 2.02 -6 1 C-3.92446352 0.4465236 -2.15634036 0 0 0 Z " fill="#0E7B39" transform="translate(242,86)"/>
<path d="M0 0 C0.33 0 0.66 0 1 0 C0.67 2.31 0.34 4.62 0 7 C-0.99 6.67 -1.98 6.34 -3 6 C-2.42655063 3.13275314 -2.1385485 2.1385485 0 0 Z " fill="#3EA464" transform="translate(236,232)"/>
<path d="M0 0 C0.66 0 1.32 0 2 0 C2 1.98 2 3.96 2 6 C0.35 6.33 -1.3 6.66 -3 7 C-3 6.34 -3 5.68 -3 5 C-2.34 5 -1.68 5 -1 5 C-0.67 3.35 -0.34 1.7 0 0 Z " fill="#0A3F16" transform="translate(129,230)"/>
<path d="M0 0 C0.99 0.33 1.98 0.66 3 1 C3 2.32 3 3.64 3 5 C1.68 5 0.36 5 -1 5 C-0.67 3.35 -0.34 1.7 0 0 Z " fill="#18AF65" transform="translate(229,174)"/>
<path d="M0 0 C2.3431213 0.25561323 4.67843403 0.59270772 7 1 C7.33 1.66 7.66 2.32 8 3 C2.25 3.125 2.25 3.125 0 2 C0 1.34 0 0.68 0 0 Z " fill="#121403" transform="translate(144,168)"/>
<path d="M0 0 C0.66 0.33 1.32 0.66 2 1 C2.25 3.3125 2.25 3.3125 2 6 C0 7.8125 0 7.8125 -2 9 C-1.34 6.03 -0.68 3.06 0 0 Z " fill="#074013" transform="translate(238,230)"/>
<path d="M0 0 C0.66 0 1.32 0 2 0 C2 1.65 2 3.3 2 5 C1.34 5 0.68 5 0 5 C-0.33 5.99 -0.66 6.98 -1 8 C-1.04241723 5.66705225 -1.04092937 3.33297433 -1 1 C-0.67 0.67 -0.34 0.34 0 0 Z " fill="#2AAE5E" transform="translate(132,178)"/>
<path d="M0 0 C0.66 0.66 1.32 1.32 2 2 C1.96712417 4.72869407 1.43602229 7.2966618 1 10 C-1 7 -1 7 -2 4 C-1.0625 1.8125 -1.0625 1.8125 0 0 Z " fill="#259B4F" transform="translate(230,40)"/>
<path d="" fill="#000000" transform="translate(0,0)"/>
<path d="" fill="#000000" transform="translate(0,0)"/>
<path d="" fill="#000000" transform="translate(0,0)"/>
<path d="" fill="#000000" transform="translate(0,0)"/>
<path d="" fill="#000000" transform="translate(0,0)"/>
<path d="" fill="#000000" transform="translate(0,0)"/>
<path d="" fill="#000000" transform="translate(0,0)"/>
<path d="" fill="#000000" transform="translate(0,0)"/>
<path d="" fill="#000000" transform="translate(0,0)"/>
<path d="" fill="#000000" transform="translate(0,0)"/>
<path d="" fill="#000000" transform="translate(0,0)"/>
<path d="" fill="#000000" transform="translate(0,0)"/>
<path d="" fill="#000000" transform="translate(0,0)"/>
<path d="" fill="#000000" transform="translate(0,0)"/>
<path d="" fill="#000000" transform="translate(0,0)"/>
<path d="" fill="#000000" transform="translate(0,0)"/>
<path d="" fill="#000000" transform="translate(0,0)"/>
<path d="" fill="#000000" transform="translate(0,0)"/>
<path d="" fill="#000000" transform="translate(0,0)"/>
<path d="" fill="#000000" transform="translate(0,0)"/>
<path d="" fill="#000000" transform="translate(0,0)"/>
<path d="" fill="#000000" transform="translate(0,0)"/>
<path d="" fill="#000000" transform="translate(0,0)"/>
<path d="" fill="#000000" transform="translate(0,0)"/>
<path d="" fill="#000000" transform="translate(0,0)"/>
<path d="" fill="#000000" transform="translate(0,0)"/>
<path d="" fill="#000000" transform="translate(0,0)"/>
<path d="" fill="#000000" transform="translate(0,0)"/>
<path d="" fill="#000000" transform="translate(0,0)"/>
<path d="" fill="#000000" transform="translate(0,0)"/>
<path d="" fill="#000000" transform="translate(0,0)"/>
<path d="" fill="#000000" transform="translate(0,0)"/>
<path d="" fill="#000000" transform="translate(0,0)"/>
<path d="" fill="#000000" transform="translate(0,0)"/>
<path d="" fill="#000000" transform="translate(0,0)"/>
<path d="" fill="#000000" transform="translate(0,0)"/>
<path d="" fill="#000000" transform="translate(0,0)"/>
<path d="" fill="#000000" transform="translate(0,0)"/>
<path d="" fill="#000000" transform="translate(0,0)"/>
<path d="" fill="#000000" transform="translate(0,0)"/>
<path d="" fill="#000000" transform="translate(0,0)"/>
<path d="" fill="#000000" transform="translate(0,0)"/>
<path d="" fill="#000000" transform="translate(0,0)"/>
<path d="" fill="#000000" transform="translate(0,0)"/>
<path d="" fill="#000000" transform="translate(0,0)"/>
<path d="" fill="#000000" transform="translate(0,0)"/>
<path d="" fill="#000000" transform="translate(0,0)"/>
<path d="" fill="#000000" transform="translate(0,0)"/>
<path d="" fill="#000000" transform="translate(0,0)"/>
<path d="" fill="#000000" transform="translate(0,0)"/>
<path d="" fill="#000000" transform="translate(0,0)"/>
<path d="" fill="#000000" transform="translate(0,0)"/>
<path d="" fill="#000000" transform="translate(0,0)"/>
<path d="" fill="#000000" transform="translate(0,0)"/>
</svg>
