<?xml version="1.0" encoding="UTF-8"?>
<svg version="1.1" xmlns="http://www.w3.org/2000/svg" width="372" height="362">
<path d="M0 0 C3.63330781 0.01071772 7.26612128 0.00005997 10.89941406 -0.01269531 C32.10795924 -0.02669057 50.89751351 0.52494056 67.64160156 15.26074219 C78.42548543 26.31296531 84.44534889 39.75678114 84.64160156 55.26074219 C83.72654428 70.00333173 78.67201846 80.77435417 69.64160156 92.26074219 C68.63872568 93.59191376 67.63763775 94.92444518 66.64160156 96.26074219 C67.21265625 96.24914062 67.78371094 96.23753906 68.37207031 96.22558594 C71.13037241 96.19488941 73.88340952 96.21863239 76.64160156 96.26074219 C77.75792969 96.27621094 78.87425781 96.29167969 80.02441406 96.30761719 C84.92010477 96.50835166 88.61731307 96.70028245 92.95410156 99.07324219 C95.51735052 103.91493466 95.84906627 108.91948656 94.64160156 114.26074219 C92.93457031 117.08496094 92.93457031 117.08496094 89.64160156 119.26074219 C85.20683977 120.01279627 80.8196815 120.05150189 76.32910156 120.07324219 C75.11158203 120.09837891 73.8940625 120.12351562 72.63964844 120.14941406 C69.6399747 120.20823119 66.64175859 120.24455258 63.64160156 120.26074219 C63.66480469 121.87916016 63.66480469 121.87916016 63.68847656 123.53027344 C63.63808601 127.54052186 63.05598562 130.51262443 61.64160156 134.26074219 C60.58972656 135.28167969 60.58972656 135.28167969 59.51660156 136.32324219 C57.29646125 138.18575831 57.29646125 138.18575831 57.52441406 141.38183594 C57.56308594 142.331875 57.60175781 143.28191406 57.64160156 144.26074219 C58.43856445 144.27532471 59.23552734 144.28990723 60.05664062 144.30493164 C63.6687828 144.37941694 67.2800013 144.47607731 70.89160156 144.57324219 C72.77298828 144.60708008 72.77298828 144.60708008 74.69238281 144.64160156 C75.89765625 144.67705078 77.10292969 144.7125 78.34472656 144.74902344 C79.45493164 144.77520752 80.56513672 144.8013916 81.70898438 144.82836914 C84.942515 145.30510763 86.33812141 145.97579501 88.64160156 148.26074219 C89.85628844 151.90480281 90.56294433 155.50661418 89.64160156 159.26074219 C87.99118078 161.9518989 87.35870519 162.84887413 84.64160156 164.26074219 C80.03937985 165.02752456 75.48708032 165.05040761 70.82910156 165.07324219 C66.47722656 165.13511719 62.12535156 165.19699219 57.64160156 165.26074219 C57.97160156 183.08074219 58.30160156 200.90074219 58.64160156 219.26074219 C62.93160156 219.59074219 67.22160156 219.92074219 71.64160156 220.26074219 C77.60585759 223.8392958 77.60585759 223.8392958 78.64160156 227.26074219 C78.78119013 229.88500724 78.83091525 232.39366966 78.76660156 235.01074219 C78.75757813 235.708125 78.74855469 236.40550781 78.73925781 237.12402344 C78.71580044 238.83641176 78.67993261 240.54862223 78.64160156 242.26074219 C79.30160156 242.26074219 79.96160156 242.26074219 80.64160156 242.26074219 C80.90972656 241.64199219 81.17785156 241.02324219 81.45410156 240.38574219 C82.64160156 238.26074219 82.64160156 238.26074219 85.64160156 236.26074219 C89.93913571 235.79203486 94.25877551 235.8903952 98.57910156 235.88574219 C99.77212891 235.86125 100.96515625 235.83675781 102.19433594 235.81152344 C103.91426758 235.80572266 103.91426758 235.80572266 105.66894531 235.79980469 C106.71816162 235.79158691 107.76737793 235.78336914 108.84838867 235.77490234 C112.32350725 236.37935003 113.45946743 237.5528648 115.64160156 240.26074219 C117.20466984 243.38687874 116.82556635 246.72234841 116.84472656 250.15527344 C116.85042664 250.93964279 116.85612671 251.72401215 116.86199951 252.53215027 C116.87145296 254.1940272 116.87798486 255.85592291 116.88183594 257.51782227 C116.89152385 260.05290757 116.92253561 262.58717598 116.95410156 265.12207031 C116.96063353 266.73729988 116.96588324 268.35253524 116.96972656 269.96777344 C116.98207336 270.72314896 116.99442017 271.47852448 117.00714111 272.25679016 C116.98821422 276.75919923 116.59759029 279.78564317 113.64160156 283.26074219 C109.26404673 285.60965705 104.95476598 285.54437876 100.10829163 285.5214386 C99.2507069 285.52526415 98.39312218 285.52908969 97.50955003 285.53303117 C94.63691951 285.54334712 91.76448939 285.53937168 88.8918457 285.53540039 C86.83190221 285.53974762 84.77196034 285.54493081 82.71202087 285.55088806 C77.11703301 285.56428768 71.52211265 285.56485568 65.92711186 285.56232476 C61.2574892 285.56125576 56.58788024 285.56613658 51.91826051 285.57093018 C40.90293476 285.58202858 29.8876431 285.58246082 18.87231445 285.57641602 C7.50528819 285.57037418 -3.86161436 285.58269185 -15.22861952 285.60398608 C-24.9858539 285.62159316 -34.74304887 285.62760487 -44.50029856 285.62434834 C-50.32880012 285.62253401 -56.15721342 285.62518674 -61.98570061 285.63906288 C-67.46617116 285.65162211 -72.9464486 285.6497151 -78.42691612 285.63665199 C-80.43848485 285.63428256 -82.45006709 285.63703399 -84.46162033 285.64527512 C-87.20734019 285.6557131 -89.95240855 285.64766559 -92.69810486 285.63496399 C-93.49431635 285.64233827 -94.29052785 285.64971256 -95.11086696 285.65731031 C-99.91962032 285.61050369 -103.16645278 284.8664707 -107.35839844 282.26074219 C-110.19530201 278.75982795 -109.69958633 274.26288877 -109.72949219 269.95214844 C-109.73852066 269.14841293 -109.74754913 268.34467743 -109.7568512 267.5165863 C-109.77133382 265.81960769 -109.7802355 264.12257349 -109.78393555 262.42553711 C-109.79584374 259.83514152 -109.84505373 257.24712051 -109.89550781 254.65722656 C-109.90497151 253.00554544 -109.9122068 251.35384974 -109.91699219 249.70214844 C-109.93652451 248.93117325 -109.95605682 248.16019806 -109.97618103 247.36585999 C-109.94358225 243.463918 -109.50539006 241.46395849 -107.19848633 238.2746582 C-103.93456985 235.96020389 -102.32041505 235.61834697 -98.35839844 235.59667969 C-97.22402344 235.59023438 -96.08964844 235.58378906 -94.92089844 235.57714844 C-93.74527344 235.59648437 -92.56964844 235.61582031 -91.35839844 235.63574219 C-90.18277344 235.61640625 -89.00714844 235.59707031 -87.79589844 235.57714844 C-78.22589035 235.63152348 -78.22589035 235.63152348 -75.06542969 238.62402344 C-73.20187932 241.50250512 -72.87865269 242.90252197 -73.35839844 246.26074219 C-72.69839844 246.26074219 -72.03839844 246.26074219 -71.35839844 246.26074219 C-71.39320312 244.9471875 -71.42800781 243.63363281 -71.46386719 242.28027344 C-71.49201309 240.54460918 -71.51931239 238.80893104 -71.54589844 237.07324219 C-71.57103516 236.20892578 -71.59617188 235.34460938 -71.62207031 234.45410156 C-71.67820715 229.57019674 -71.62410301 226.18111015 -68.35839844 222.26074219 C-65.35839844 220.26074219 -65.35839844 220.26074219 -50.35839844 220.26074219 C-50.35839844 202.11074219 -50.35839844 183.96074219 -50.35839844 165.26074219 C-59.26839844 164.93074219 -68.17839844 164.60074219 -77.35839844 164.26074219 C-82.35839844 159.26074219 -82.35839844 159.26074219 -82.95214844 157.19824219 C-82.73910759 152.79539802 -82.18347652 149.84641822 -79.35839844 146.26074219 C-76.67627033 144.91967814 -74.47441812 145.046238 -71.47558594 144.94433594 C-69.72568359 144.88149414 -69.72568359 144.88149414 -67.94042969 144.81738281 C-66.71710938 144.77806641 -65.49378906 144.73875 -64.23339844 144.69824219 C-63.00234375 144.65505859 -61.77128906 144.611875 -60.50292969 144.56738281 C-57.45486991 144.46105515 -54.40672654 144.35902438 -51.35839844 144.26074219 C-50.93914099 139.18112994 -50.93914099 139.18112994 -53.29589844 134.94824219 C-56.27619871 131.06482062 -56.39920877 127.07636087 -56.35839844 122.26074219 C-55.86339844 120.77574219 -55.86339844 120.77574219 -55.35839844 119.26074219 C-56.15012451 119.28692627 -56.94185059 119.31311035 -57.75756836 119.34008789 C-61.35347561 119.44418341 -64.94906575 119.50911119 -68.54589844 119.57324219 C-69.79177734 119.61513672 -71.03765625 119.65703125 -72.32128906 119.70019531 C-81.47253273 119.82286614 -81.47253273 119.82286614 -85.68261719 117.15136719 C-87.66164537 113.7376589 -88.02898461 111.63232916 -87.98339844 107.69824219 C-87.99628906 106.58320313 -88.00917969 105.46816406 -88.02246094 104.31933594 C-87.35839844 101.26074219 -87.35839844 101.26074219 -85.54980469 98.90917969 C-80.71240963 96.41054968 -76.04373166 96.54424475 -70.67089844 96.44824219 C-69.61322266 96.41021484 -68.55554688 96.3721875 -67.46582031 96.33300781 C-59.68142812 96.09922734 -59.68142812 96.09922734 -57.35839844 97.26074219 C-57.35839844 96.60074219 -57.35839844 95.94074219 -57.35839844 95.26074219 C-57.9371875 95.02226562 -58.51597656 94.78378906 -59.11230469 94.53808594 C-67.90849114 89.53573294 -72.57015962 78.16819259 -75.36230469 68.94433594 C-79.14444051 53.76491189 -76.90917039 38.94129269 -68.88574219 25.47949219 C-60.63533433 13.49424496 -49.03454107 4.90585473 -34.73852539 1.66723633 C-23.21312422 -0.22894726 -11.6499101 -0.04089896 0 0 Z " fill="#E64C3D" transform="translate(178.3583984375,50.7392578125)"/>
<path d="M0 0 C0.66 0 1.32 0 2 0 C2.51176285 0.64932495 3.0235257 1.2986499 3.55079651 1.96765137 C7.22329023 5.01508602 10.55046801 4.56046393 15.18725586 4.51757812 C16.11615128 4.5245874 17.04504669 4.53159668 18.00209045 4.53881836 C21.07331216 4.55642629 24.14361263 4.54476452 27.21484375 4.53125 C29.34949419 4.53394433 31.48414344 4.53782626 33.61878967 4.54284668 C38.09355346 4.54874572 42.56799793 4.54016634 47.04272461 4.52148438 C52.77742693 4.49870866 58.5113799 4.51180697 64.24605465 4.53577423 C68.65472553 4.55023286 73.06321897 4.54562562 77.47189522 4.53526306 C79.58619844 4.53259525 81.70051778 4.53586742 83.81480217 4.54518127 C86.77141816 4.55534613 89.72682371 4.53984553 92.68334961 4.51757812 C93.55675995 4.52567505 94.43017029 4.53377197 95.33004761 4.54211426 C96.13889908 4.53083496 96.94775055 4.51955566 97.78111267 4.50793457 C98.47924544 4.50642647 99.17737822 4.50491837 99.89666653 4.50336456 C102.75641231 3.97679126 102.75641231 3.97679126 107 0 C107.33 8.25 107.66 16.5 108 25 C111.48307292 25.16276042 114.96614583 25.32552083 118.44921875 25.48828125 C122.79261438 26.11422715 125.59790109 27.1697152 128.3046875 30.703125 C129.31493548 34.04034866 129.20974656 37.30146687 129.125 40.75 C129.11597656 41.44738281 129.10695313 42.14476562 129.09765625 42.86328125 C129.07419888 44.57566958 129.03833104 46.28788004 129 48 C129.66 48 130.32 48 131 48 C131.268125 47.38125 131.53625 46.7625 131.8125 46.125 C133 44 133 44 136 42 C140.29753414 41.53129267 144.61717395 41.62965302 148.9375 41.625 C150.13052734 41.60050781 151.32355469 41.57601562 152.55273438 41.55078125 C154.27266602 41.54498047 154.27266602 41.54498047 156.02734375 41.5390625 C157.07656006 41.53084473 158.12577637 41.52262695 159.20678711 41.51416016 C162.68190569 42.11860784 163.81786587 43.29212261 166 46 C167.56306827 49.12613655 167.18396478 52.46160623 167.203125 55.89453125 C167.20882507 56.6789006 167.21452515 57.46326996 167.22039795 58.27140808 C167.2298514 59.93328501 167.2363833 61.59518072 167.24023438 63.25708008 C167.24992229 65.79216538 167.28093404 68.32643379 167.3125 70.86132812 C167.31903197 72.47655769 167.32428168 74.09179305 167.328125 75.70703125 C167.3404718 76.46240677 167.3528186 77.21778229 167.36553955 77.99604797 C167.34661266 82.49845704 166.95598873 85.52490099 164 89 C159.62244517 91.34891486 155.31316442 91.28363658 150.46669006 91.26069641 C149.18031298 91.26643473 149.18031298 91.26643473 147.86794847 91.27228898 C144.99531795 91.28260493 142.12288783 91.27862949 139.25024414 91.2746582 C137.19030065 91.27900544 135.13035878 91.28418862 133.07041931 91.29014587 C127.47543144 91.30354549 121.88051109 91.30411349 116.2855103 91.30158257 C111.61588764 91.30051357 106.94627868 91.30539439 102.27665895 91.310188 C91.26133319 91.32128639 80.24604154 91.32171863 69.23071289 91.31567383 C57.86368663 91.309632 46.49678408 91.32194966 35.12977892 91.3432439 C25.37254454 91.36085098 15.61534957 91.36686269 5.85809988 91.36360615 C0.02959832 91.36179182 -5.79881498 91.36444456 -11.62730217 91.37832069 C-17.10777272 91.39087992 -22.58805016 91.38897291 -28.06851768 91.37590981 C-30.08008641 91.37354037 -32.09166865 91.3762918 -34.10322189 91.38453293 C-36.84894175 91.39497091 -39.59401011 91.3869234 -42.33970642 91.3742218 C-43.13591792 91.38159609 -43.93212941 91.38897037 -44.75246853 91.39656812 C-49.56122189 91.3497615 -52.80805435 90.60572852 -57 88 C-59.83690358 84.49908576 -59.34118789 80.00214658 -59.37109375 75.69140625 C-59.38012222 74.88767075 -59.3891507 74.08393524 -59.39845276 73.25584412 C-59.41293538 71.5588655 -59.42183706 69.8618313 -59.42553711 68.16479492 C-59.4374453 65.57439934 -59.4866553 62.98637832 -59.53710938 60.39648438 C-59.54657308 58.74480325 -59.55380837 57.09310755 -59.55859375 55.44140625 C-59.57812607 54.67043106 -59.59765839 53.89945587 -59.61778259 53.1051178 C-59.58518381 49.20317581 -59.14699163 47.2032163 -56.84008789 44.01391602 C-53.57617141 41.6994617 -51.96201661 41.35760478 -48 41.3359375 C-46.865625 41.32949219 -45.73125 41.32304687 -44.5625 41.31640625 C-43.386875 41.33574219 -42.21125 41.35507812 -41 41.375 C-39.2365625 41.34599609 -39.2365625 41.34599609 -37.4375 41.31640625 C-27.86749191 41.3707813 -27.86749191 41.3707813 -24.70703125 44.36328125 C-22.84348089 47.24176293 -22.52025426 48.64177979 -23 52 C-22.34 52 -21.68 52 -21 52 C-21.03480469 50.68644531 -21.06960937 49.37289062 -21.10546875 48.01953125 C-21.13361466 46.28386699 -21.16091396 44.54818885 -21.1875 42.8125 C-21.21263672 41.94818359 -21.23777344 41.08386719 -21.26367188 40.19335938 C-21.31980871 35.30945456 -21.26570457 31.92036796 -18 28 C-14.31602884 25.54401923 -11.55276192 25.7728468 -7.3125 25.875 C-3.6928125 25.936875 -3.6928125 25.936875 0 26 C0 17.42 0 8.84 0 0 Z " fill="#1A1B4A" transform="translate(128,245)"/>
<path d="M0 0 C0.66 0 1.32 0 2 0 C2.51176285 0.64932495 3.0235257 1.2986499 3.55079651 1.96765137 C7.22329023 5.01508602 10.55046801 4.56046393 15.18725586 4.51757812 C16.11615128 4.5245874 17.04504669 4.53159668 18.00209045 4.53881836 C21.07331216 4.55642629 24.14361263 4.54476452 27.21484375 4.53125 C29.34949419 4.53394433 31.48414344 4.53782626 33.61878967 4.54284668 C38.09355346 4.54874572 42.56799793 4.54016634 47.04272461 4.52148438 C52.77742693 4.49870866 58.5113799 4.51180697 64.24605465 4.53577423 C68.65472553 4.55023286 73.06321897 4.54562562 77.47189522 4.53526306 C79.58619844 4.53259525 81.70051778 4.53586742 83.81480217 4.54518127 C86.77141816 4.55534613 89.72682371 4.53984553 92.68334961 4.51757812 C93.55675995 4.52567505 94.43017029 4.53377197 95.33004761 4.54211426 C96.13889908 4.53083496 96.94775055 4.51955566 97.78111267 4.50793457 C98.47924544 4.50642647 99.17737822 4.50491837 99.89666653 4.50336456 C102.75641231 3.97679126 102.75641231 3.97679126 107 0 C107.495 12.375 107.495 12.375 108 25 C111.48307292 25.16276042 114.96614583 25.32552083 118.44921875 25.48828125 C122.79261438 26.11422715 125.59790109 27.1697152 128.3046875 30.703125 C129.31493548 34.04034866 129.20974656 37.30146687 129.125 40.75 C129.11597656 41.44738281 129.10695313 42.14476562 129.09765625 42.86328125 C129.07419888 44.57566958 129.03833104 46.28788004 129 48 C129.66 48.33 130.32 48.66 131 49 C130.34 49 129.68 49 129 49 C129.33 49.99 129.66 50.98 130 52 C127.28865481 53.35567259 125.17753547 53.12282363 122.14083862 53.12025452 C120.26877243 53.12231651 120.26877243 53.12231651 118.35888672 53.12442017 C116.96826148 53.12088079 115.57763648 53.11724598 114.18701172 53.11352539 C112.7286072 53.11324344 111.27020253 53.1134014 109.8117981 53.1139679 C105.84508853 53.11425557 101.87840901 53.10836364 97.91170645 53.10139394 C93.7690302 53.09515546 89.62635331 53.09455621 85.4836731 53.09336853 C77.63555468 53.09025668 69.78745014 53.08204525 61.93933785 53.07201904 C53.00596879 53.06085338 44.07259907 53.05534631 35.13922477 53.05032361 C16.7594753 53.03986252 -1.62026124 53.02226589 -20 53 C-20.14567407 49.43793278 -20.23419196 45.87663449 -20.3125 42.3125 C-20.35439453 41.30509766 -20.39628906 40.29769531 -20.43945312 39.25976562 C-20.56283547 31.78279554 -20.56283547 31.78279554 -17.71606445 27.82348633 C-14.17874345 25.44863235 -11.28180618 25.43482026 -7.1875 25.6875 C-4.815625 25.790625 -2.44375 25.89375 0 26 C0 17.42 0 8.84 0 0 Z " fill="#191A4E" transform="translate(128,245)"/>
<path d="M0 0 C0.99 0 1.98 0 3 0 C3 0.66 3 1.32 3 2 C2.01 1.67 1.02 1.34 0 1 C0 0.67 0 0.34 0 0 Z M-77 1 C-51.59 1 -26.18 1 0 1 C0 6.28 0 11.56 0 17 C1.54375423 21.11295988 1.54375423 21.11295988 4.625 22.25 C5.40875 22.4975 6.1925 22.745 7 23 C6.34 23.33 5.68 23.66 5 24 C5 42.15 5 60.3 5 79 C4.67 79 4.34 79 4 79 C3.67 71.08 3.34 63.16 3 55 C1.68 55.99 0.36 56.98 -1 58 C-2.99145889 58.36914349 -2.99145889 58.36914349 -5.12554932 58.36076355 C-5.93880676 58.36488754 -6.75206421 58.36901154 -7.58996582 58.3732605 C-8.47325562 58.36247467 -9.35654541 58.35168884 -10.26660156 58.34057617 C-11.67199188 58.34123329 -11.67199188 58.34123329 -13.10577393 58.34190369 C-16.20093666 58.33981458 -19.29555695 58.31647749 -22.390625 58.29296875 C-24.53724878 58.28737324 -26.68387639 58.28310293 -28.83050537 58.28010559 C-34.47931503 58.26865335 -40.12789313 58.23918271 -45.77661133 58.20599365 C-51.54114652 58.17530106 -57.30571914 58.16160197 -63.0703125 58.14648438 C-74.38031004 58.11431354 -85.69013576 58.06311244 -97 58 C-97.49359304 56.73518187 -97.98231939 55.46846387 -98.4690094 54.20097351 C-98.74169427 53.49577922 -99.01437914 52.79058493 -99.29532719 52.06402111 C-100.96186858 47.18263993 -100.75725975 41.91930709 -100.9375 36.8125 C-101.00517578 35.65041016 -101.07285156 34.48832031 -101.14257812 33.29101562 C-101.18705078 32.17017578 -101.23152344 31.04933594 -101.27734375 29.89453125 C-101.32109131 28.88237549 -101.36483887 27.87021973 -101.40991211 26.82739258 C-100.88961323 23.23860087 -99.34395317 21.70091752 -97 19 C-96.20309162 15.81237891 -96.20309162 15.81237891 -96 13 C-95.34 13.33 -94.68 13.66 -94 14 C-93.67 13.34 -93.34 12.68 -93 12 C-92.34 12 -91.68 12 -91 12 C-91 13.32 -91 14.64 -91 16 C-91.66 16 -92.32 16 -93 16 C-93 17.98 -93 19.96 -93 22 C-92.54625 21.54625 -92.0925 21.0925 -91.625 20.625 C-90.41666667 19.41666667 -89.20833333 18.20833333 -88 17 C-88 17.66 -88 18.32 -88 19 C-87.01 19 -86.02 19 -85 19 C-85.33 18.34 -85.66 17.68 -86 17 C-86.49267057 12.64807662 -86.51752429 10.70017992 -83.875 7.125 C-80.6372104 4.73185117 -79.02248275 3.91790852 -75 4 C-69.49350649 7.01298701 -69.49350649 7.01298701 -68 10 C-67.60552452 14.18144011 -67.54964814 16.30946048 -69.875 19.875 C-72 22 -72 22 -74 23 C-72.68 23 -71.36 23 -70 23 C-68.36323743 21.0399719 -68.36323743 21.0399719 -67 19 C-66.34 19 -65.68 19 -65 19 C-65.22816406 17.94039062 -65.45632812 16.88078125 -65.69140625 15.7890625 C-65.98212482 14.40111577 -66.27247008 13.0130908 -66.5625 11.625 C-66.78969727 10.57699219 -66.78969727 10.57699219 -67.02148438 9.5078125 C-68.11328125 4.2265625 -68.11328125 4.2265625 -67 2 C-67.66 2 -68.32 2 -69 2 C-69 2.66 -69 3.32 -69 4 C-71.64 3.34 -74.28 2.68 -77 2 C-77 1.67 -77 1.34 -77 1 Z " fill="#2470A3" transform="translate(231,192)"/>
<path d="M0 0 C36.96 0 73.92 0 112 0 C112 4.95 112 9.9 112 15 C110.68 16.32 109.36 17.64 108 19 C107.66551741 22.167832 107.66551741 22.167832 108 25 C109.19544434 25.02187378 109.19544434 25.02187378 110.41503906 25.04418945 C114.02718124 25.11867475 117.63839974 25.21533512 121.25 25.3125 C122.50425781 25.33505859 123.75851563 25.35761719 125.05078125 25.38085938 C126.25605469 25.41630859 127.46132812 25.45175781 128.703125 25.48828125 C129.81333008 25.51446533 130.92353516 25.54064941 132.06738281 25.56762695 C135.30091344 26.04436544 136.69651985 26.71505282 139 29 C140.21468687 32.64406062 140.92134277 36.24587199 140 40 C138.3541601 42.72873219 137.75510863 43.60341681 135 45 C130.30279039 45.70311501 125.67702648 45.60537603 120.9375 45.5 C119.0184082 45.50386719 119.0184082 45.50386719 117.06054688 45.5078125 C106.41252232 45.39602222 106.41252232 45.39602222 103 42 C102.03227918 39.09683753 101.86572149 37.20765411 101.875 34.1875 C101.87242187 33.35605469 101.86984375 32.52460938 101.8671875 31.66796875 C102.0120628 28.75767959 102.52095896 25.87424625 103 23 C78.91 23.33 54.82 23.66 30 24 C31.32 24.66 32.64 25.32 34 26 C34 25.34 34 24.68 34 24 C34.66 24 35.32 24 36 24 C36.8599867 29.65134116 37.4618629 35.30948637 38 41 C37.34 41 36.68 41 36 41 C35.5359375 41.9590625 35.5359375 41.9590625 35.0625 42.9375 C34 45 34 45 33 46 C30.98035801 46.07244053 28.95832876 46.08377188 26.9375 46.0625 C25.28041016 46.04896484 25.28041016 46.04896484 23.58984375 46.03515625 C22.73519531 46.02355469 21.88054687 46.01195312 21 46 C20.67 45.34 20.34 44.68 20 44 C20.59167969 44.05800781 21.18335938 44.11601562 21.79296875 44.17578125 C26.15640332 44.42491699 28.34309764 44.44240363 32.0625 41.9375 C34.492403 38.25345351 34.70930433 36.33463758 34 32 C31.94502229 28.99657104 30.52366286 28.16712644 27.0625 27.0625 C23.40127319 26.98778109 21.8695326 27.78636056 19 30 C17.50501087 32.98997825 17.88422554 35.70042775 18 39 C18.33 39.99 18.66 40.98 19 42 C18.01 42.495 18.01 42.495 17 43 C17 42.34 17 41.68 17 41 C13.87501834 40.6626154 13.87501834 40.6626154 11.8125 43 C11.214375 43.66 10.61625 44.32 10 45 C8.66667905 42.3333581 9.32897967 40.83319697 10 38 C10.66 38 11.32 38 12 38 C12 36.68 12 35.36 12 34 C11.34 34 10.68 34 10 34 C9.67 34.99 9.34 35.98 9 37 C7.89845297 39.54203161 6.82651512 41.19059887 4.94091797 43.26220703 C2.63020648 46.52161818 2.56407126 47.9919436 2.7578125 51.9296875 C2.80679688 53.05503906 2.85578125 54.18039063 2.90625 55.33984375 C3.01453125 57.08974609 3.01453125 57.08974609 3.125 58.875 C3.17398438 60.03386719 3.22296875 61.19273437 3.2734375 62.38671875 C3.56650203 68.21470654 4.05491937 73.48625905 6 79 C4.68 78.34 3.36 77.68 2 77 C2 76.34 2 75.68 2 75 C1.34 75 0.68 75 0 75 C0 65.43 0 55.86 0 46 C-8.66026538 45.86922709 -8.66026538 45.86922709 -17.32104492 45.79223633 C-27.28471245 45.53375718 -27.28471245 45.53375718 -30.33203125 42.69921875 C-32.69126404 38.88135023 -32.82453878 36.34198614 -32 32 C-29.86111111 27.43055556 -29.86111111 27.43055556 -27 26 C-25.04225931 25.84621148 -23.07982648 25.75028537 -21.1171875 25.68359375 C-19.95058594 25.64169922 -18.78398438 25.59980469 -17.58203125 25.55664062 C-15.74705078 25.49766602 -15.74705078 25.49766602 -13.875 25.4375 C-12.64394531 25.39431641 -11.41289063 25.35113281 -10.14453125 25.30664062 C-7.09647147 25.20031296 -4.0483281 25.09828219 -1 25 C-0.70929338 19.96108525 -1.00731287 17.92838517 -4 14 C-4.29296875 10.765625 -4.29296875 10.765625 -4.1875 7.25 C-4.16042969 6.07953125 -4.13335937 4.9090625 -4.10546875 3.703125 C-4.07066406 2.81109375 -4.03585938 1.9190625 -4 1 C-3.01 1.33 -2.02 1.66 -1 2 C-0.67 1.34 -0.34 0.68 0 0 Z M-3 4 C-2 7 -2 7 -2 7 Z M103 22 C103.33 22.66 103.66 23.32 104 24 C104.66 24 105.32 24 106 24 C106 23.34 106 22.68 106 22 C105.01 22 104.02 22 103 22 Z " fill="#F4CBA7" transform="translate(128,170)"/>
<path d="M0 0 C1.62456552 -0.02487849 3.2498327 0.00597349 4.87402344 0.04882812 C5.20402344 0.37882813 5.53402344 0.70882812 5.87402344 1.04882812 C7.39581882 1.14679819 8.92215225 1.17514637 10.44709778 1.17581177 C11.43556198 1.17863159 12.42402618 1.18145142 13.44244385 1.18435669 C14.53595154 1.18233246 15.62945923 1.18030823 16.75610352 1.17822266 C17.9007457 1.17997498 19.04538788 1.18172729 20.22471619 1.18353271 C24.03101085 1.18795512 27.8372595 1.18501129 31.64355469 1.18164062 C34.27813221 1.18231369 36.91270968 1.18328374 39.54728699 1.18453979 C45.07978824 1.18636171 50.61227616 1.18395541 56.14477539 1.17919922 C62.54025876 1.17376461 68.93571021 1.17551333 75.33119279 1.18102562 C81.47945822 1.18611281 87.62770952 1.18557094 93.77597618 1.18264389 C96.39350069 1.18197569 99.01102601 1.18279932 101.62854958 1.18512344 C105.28697501 1.18765789 108.94533892 1.18379769 112.60375977 1.17822266 C113.69119476 1.18024689 114.77862976 1.18227112 115.89901733 1.18435669 C117.39440285 1.18012695 117.39440285 1.18012695 118.91999817 1.17581177 C119.78518476 1.17543474 120.65037134 1.17505772 121.5417757 1.17466927 C123.79048961 1.05333536 125.70982385 0.64286148 127.87402344 0.04882812 C131.20998795 -0.16005363 134.5343154 -0.0446837 137.87402344 0.04882812 C138.98519531 0.06558594 140.09636719 0.08234375 141.24121094 0.09960938 C146.14348409 0.29414402 149.84445016 0.48547671 154.18652344 2.86132812 C156.74977239 7.7030206 157.08148814 12.7075725 155.87402344 18.04882812 C154.16699219 20.87304688 154.16699219 20.87304688 150.87402344 23.04882812 C146.43926165 23.80088221 142.05210338 23.83958782 137.56152344 23.86132812 C136.34400391 23.88646484 135.12648437 23.91160156 133.87207031 23.9375 C130.87239657 23.99631713 127.87418046 24.03263851 124.87402344 24.04882812 C124.88949219 25.69044922 124.88949219 25.69044922 124.90527344 27.36523438 C124.87898455 30.464037 124.59952661 33.05612753 123.87402344 36.04882812 C123.54402344 36.04882812 123.21402344 36.04882812 122.87402344 36.04882812 C122.87402344 31.75882813 122.87402344 27.46882813 122.87402344 23.04882812 C108.45310615 23.10995483 94.0323711 23.18699986 79.61165142 23.28454304 C72.91599711 23.32932914 66.22041171 23.36893631 59.5246582 23.39526367 C53.06659672 23.4212144 46.60877284 23.46155831 40.15085793 23.51201439 C37.68325562 23.5287389 35.21561217 23.54021825 32.74796104 23.54644203 C29.29973635 23.55602236 25.85212726 23.58400925 22.40405273 23.61645508 C21.37690659 23.61501999 20.34976044 23.6135849 19.29148865 23.61210632 C18.35339355 23.62464447 17.41529846 23.63718262 16.44877625 23.65010071 C15.22509606 23.65701416 15.22509606 23.65701416 13.97669506 23.66406727 C11.40391669 24.13485139 10.50984287 25.06134143 8.87402344 27.04882812 C8.87402344 26.38882813 8.87402344 25.72882813 8.87402344 25.04882812 C8.21402344 24.71882813 7.55402344 24.38882813 6.87402344 24.04882812 C6.87402344 28.00882813 6.87402344 31.96882813 6.87402344 36.04882812 C4.88419115 32.06916356 4.65001628 31.3720768 5.24902344 27.29882812 C5.35988281 26.49960938 5.47074219 25.70039063 5.58496094 24.87695312 C5.68035156 24.27367187 5.77574219 23.67039063 5.87402344 23.04882812 C5.08229736 23.07501221 4.29057129 23.10119629 3.47485352 23.12817383 C-0.12105374 23.23226935 -3.71664387 23.29719713 -7.31347656 23.36132812 C-8.55935547 23.40322266 -9.80523437 23.44511719 -11.08886719 23.48828125 C-20.24011085 23.61095208 -20.24011085 23.61095208 -24.45019531 20.93945312 C-26.42922349 17.52574484 -26.79656274 15.4204151 -26.75097656 11.48632812 C-26.76386719 10.37128906 -26.77675781 9.25625 -26.79003906 8.10742188 C-26.12597656 5.04882812 -26.12597656 5.04882812 -24.17285156 2.69335938 C-20.0010258 0.44164316 -16.42694591 0.37844989 -11.75097656 0.29882812 C-10.92597656 0.26917969 -10.10097656 0.23953125 -9.25097656 0.20898438 C-6.16765503 0.10620699 -3.08407635 0.07083317 0 0 Z " fill="#C03D2F" transform="translate(117.1259765625,146.951171875)"/>
<path d="M0 0 C1.83498047 0.10054688 1.83498047 0.10054688 3.70703125 0.203125 C7.99315382 0.87658983 10.81489479 1.95821595 13.4921875 5.453125 C14.50243548 8.79034866 14.39724656 12.05146687 14.3125 15.5 C14.30347656 16.19738281 14.29445313 16.89476562 14.28515625 17.61328125 C14.26169888 19.32566958 14.22583104 21.03788004 14.1875 22.75 C14.8475 23.08 15.5075 23.41 16.1875 23.75 C15.5275 23.75 14.8675 23.75 14.1875 23.75 C14.5175 24.74 14.8475 25.73 15.1875 26.75 C12.47615481 28.10567259 10.36503547 27.87282363 7.32833862 27.87025452 C5.45627243 27.87231651 5.45627243 27.87231651 3.54638672 27.87442017 C2.15576148 27.87088079 0.76513648 27.86724598 -0.62548828 27.86352539 C-2.0838928 27.86324344 -3.54229747 27.8634014 -5.0007019 27.8639679 C-8.96741147 27.86425557 -12.93409099 27.85836364 -16.90079355 27.85139394 C-21.0434698 27.84515546 -25.18614669 27.84455621 -29.3288269 27.84336853 C-37.17694532 27.84025668 -45.02504986 27.83204525 -52.87316215 27.82201904 C-61.80653121 27.81085338 -70.73990093 27.80534631 -79.67327523 27.80032361 C-98.0530247 27.78986252 -116.43276124 27.77226589 -134.8125 27.75 C-134.95817407 24.18793278 -135.04669196 20.62663449 -135.125 17.0625 C-135.16689453 16.05509766 -135.20878906 15.04769531 -135.25195312 14.00976562 C-135.37533547 6.53279554 -135.37533547 6.53279554 -132.52856445 2.57348633 C-128.99736297 0.20274081 -126.09557263 0.18275146 -122 0.4375 C-121.30712891 0.46005859 -120.61425781 0.48261719 -119.90039062 0.50585938 C-118.20348427 0.56437339 -116.50770139 0.6540452 -114.8125 0.75 C-114.544375 1.843125 -114.27625 2.93625 -114 4.0625 C-112.71810152 8.07818138 -112.71810152 8.07818138 -109.8125 10.75 C-107.90805198 11.20031752 -107.90805198 11.20031752 -105.79615784 11.13768005 C-104.57438339 11.152537 -104.57438339 11.152537 -103.32792664 11.16769409 C-102.43797501 11.16319244 -101.54802338 11.1586908 -100.63110352 11.15405273 C-99.69099426 11.16091599 -98.75088501 11.16777924 -97.7822876 11.17485046 C-94.6685077 11.19318146 -91.55522863 11.1892719 -88.44140625 11.18359375 C-86.28051081 11.1881526 -84.11961683 11.19345728 -81.95872498 11.19947815 C-77.42676916 11.20842171 -72.89498944 11.20597202 -68.36303711 11.19604492 C-62.55088814 11.18455525 -56.7393467 11.20476075 -50.92727757 11.23396206 C-46.46376168 11.25229498 -42.00039214 11.25203736 -37.53684807 11.24632454 C-35.3937997 11.24617096 -33.25074163 11.25224536 -31.10772896 11.26461601 C-28.11252702 11.27946862 -25.11845715 11.26889074 -22.12329102 11.25170898 C-21.23536362 11.26137695 -20.34743622 11.27104492 -19.43260193 11.28100586 C-14.50959014 11.2291506 -14.50959014 11.2291506 -10.24620056 8.92176819 C-8.36810866 6.07683644 -8.50896439 4.08889174 -8.8125 0.75 C-5.83556012 -0.73846994 -3.2987539 -0.20725155 0 0 Z " fill="#0A092A" transform="translate(242.8125,270.25)"/>
<path d="M0 0 C1.41326065 -0.01268921 1.41326065 -0.01268921 2.85507202 -0.02563477 C4.40274765 -0.01652573 4.40274765 -0.01652573 5.98168945 -0.00723267 C7.61371811 -0.0151181 7.61371811 -0.0151181 9.27871704 -0.02316284 C12.88427987 -0.03639397 16.48940318 -0.02761345 20.0949707 -0.01748657 C22.59456467 -0.0195064 25.09415806 -0.02241708 27.59375 -0.02618408 C32.83606472 -0.03061166 38.07826458 -0.02444735 43.32055664 -0.01016235 C49.38218819 0.00616451 55.44351704 0.00087607 61.50514126 -0.01564157 C67.33521934 -0.03089266 73.16518231 -0.02928258 78.99526978 -0.02049637 C81.47685793 -0.01849109 83.95845378 -0.02096507 86.44003296 -0.02793503 C89.9046493 -0.0355298 93.36867942 -0.02397237 96.83325195 -0.00723267 C97.86503571 -0.01330536 98.89681946 -0.01937805 99.95986938 -0.02563477 C100.90204315 -0.01717529 101.84421692 -0.00871582 102.81494141 0 C104.04383842 0.00169662 104.04383842 0.00169662 105.29756165 0.00342751 C107.94045839 0.47631776 108.82452979 1.23912456 110.4074707 3.38095093 C110.8059082 6.56063843 110.8059082 6.56063843 110.7824707 10.25595093 C110.79407227 12.07739624 110.79407227 12.07739624 110.8059082 13.93563843 C110.35014289 17.87666791 110.11178796 19.46321422 107.4074707 22.38095093 C103.82018387 23.14711256 100.256485 23.01083489 96.60205078 22.94857788 C95.48970566 22.94930801 94.37736053 22.95003815 93.23130798 22.95079041 C89.54604726 22.94730048 85.86204251 22.90837023 82.17700195 22.86923218 C79.62538849 22.85990912 77.0737661 22.85279062 74.5221405 22.84779358 C68.48710691 22.83063837 62.45261439 22.79121277 56.41779774 22.74104613 C49.54730622 22.68517165 42.67679315 22.65767107 35.80613101 22.63256896 C21.67299361 22.58029672 7.54025691 22.49234279 -6.5925293 22.38095093 C-7.46646129 18.28362847 -7.78905639 14.45357415 -7.8425293 10.25595093 C-7.86831055 9.0364978 -7.8940918 7.81704468 -7.9206543 6.56063843 C-7.5925293 3.38095093 -7.5925293 3.38095093 -6.35905457 1.70602989 C-4.09499545 0.00774843 -2.81483594 0.00388616 0 0 Z " fill="#7070CB" transform="translate(130.592529296875,313.6190490722656)"/>
<path d="M0 0 C0.94691711 0.48748466 0.94691711 0.48748466 1.91296387 0.9848175 C6.12377682 2.36955789 9.98799251 2.27100875 14.39257812 2.24291992 C15.33137314 2.24481827 16.27016815 2.24671661 17.2374115 2.24867249 C20.33544308 2.25237204 23.43323931 2.24168712 26.53125 2.23046875 C28.68688937 2.22927631 30.84252926 2.22882392 32.99816895 2.2290802 C37.51394915 2.22751672 42.02964993 2.21923751 46.54541016 2.20581055 C52.33253365 2.18882101 58.11956988 2.18499633 63.90671539 2.18575573 C68.35736931 2.18548374 72.80800416 2.17999778 77.25865173 2.17275429 C79.39249019 2.16957321 81.52633081 2.16760152 83.66017151 2.16686058 C86.64262567 2.16469109 89.62498756 2.15593356 92.60742188 2.14526367 C93.48861191 2.14571686 94.36980194 2.14617004 95.2776947 2.14663696 C99.31613187 2.12552463 103.05983964 2.01115739 107 1 C107.33 2.98 107.66 4.96 108 7 C109.19544434 7.02187378 109.19544434 7.02187378 110.41503906 7.04418945 C114.02718124 7.11867475 117.63839974 7.21533512 121.25 7.3125 C122.50425781 7.33505859 123.75851563 7.35761719 125.05078125 7.38085938 C126.25605469 7.41630859 127.46132812 7.45175781 128.703125 7.48828125 C129.81333008 7.51446533 130.92353516 7.54064941 132.06738281 7.56762695 C135.30091344 8.04436544 136.69651985 8.71505282 139 11 C140.21468687 14.64406062 140.92134277 18.24587199 140 22 C138.3541601 24.72873219 137.75510863 25.60341681 135 27 C130.30279039 27.70311501 125.67702648 27.60537603 120.9375 27.5 C119.0184082 27.50386719 119.0184082 27.50386719 117.06054688 27.5078125 C106.41252232 27.39602222 106.41252232 27.39602222 103 24 C102.03227918 21.09683753 101.86572149 19.20765411 101.875 16.1875 C101.87242187 15.35605469 101.86984375 14.52460938 101.8671875 13.66796875 C102.0120628 10.75767959 102.52095896 7.87424625 103 5 C78.91 5.33 54.82 5.66 30 6 C31.32 6.66 32.64 7.32 34 8 C34 7.34 34 6.68 34 6 C34.66 6 35.32 6 36 6 C36.8599867 11.65134116 37.4618629 17.30948637 38 23 C37.34 23 36.68 23 36 23 C35.5359375 23.9590625 35.5359375 23.9590625 35.0625 24.9375 C34 27 34 27 33 28 C30.98035801 28.07244053 28.95832876 28.08377188 26.9375 28.0625 C25.28041016 28.04896484 25.28041016 28.04896484 23.58984375 28.03515625 C22.73519531 28.02355469 21.88054687 28.01195312 21 28 C20.505 27.01 20.505 27.01 20 26 C20.59167969 26.05800781 21.18335938 26.11601562 21.79296875 26.17578125 C26.15640332 26.42491699 28.34309764 26.44240363 32.0625 23.9375 C34.492403 20.25345351 34.70930433 18.33463758 34 14 C31.94502229 10.99657104 30.52366286 10.16712644 27.0625 9.0625 C23.40127319 8.98778109 21.8695326 9.78636056 19 12 C17.50501087 14.98997825 17.88422554 17.70042775 18 21 C18.495 22.485 18.495 22.485 19 24 C18.01 24.495 18.01 24.495 17 25 C17 24.34 17 23.68 17 23 C13.87501834 22.6626154 13.87501834 22.6626154 11.8125 25 C11.214375 25.66 10.61625 26.32 10 27 C8.66667905 24.3333581 9.32897967 22.83319697 10 20 C10.66 20 11.32 20 12 20 C12 18.68 12 17.36 12 16 C11.34 16 10.68 16 10 16 C9.505 17.485 9.505 17.485 9 19 C7.89845297 21.54203161 6.82651512 23.19059887 4.94091797 25.26220703 C2.63020648 28.52161818 2.56407126 29.9919436 2.7578125 33.9296875 C2.80679688 35.05503906 2.85578125 36.18039063 2.90625 37.33984375 C3.01453125 39.08974609 3.01453125 39.08974609 3.125 40.875 C3.17398438 42.03386719 3.22296875 43.19273437 3.2734375 44.38671875 C3.56650203 50.21470654 4.05491937 55.48625905 6 61 C4.68 60.34 3.36 59.68 2 59 C2 58.34 2 57.68 2 57 C1.34 57 0.68 57 0 57 C0 47.43 0 37.86 0 28 C-8.66026538 27.86922709 -8.66026538 27.86922709 -17.32104492 27.79223633 C-27.28471245 27.53375718 -27.28471245 27.53375718 -30.33203125 24.69921875 C-32.69126404 20.88135023 -32.82453878 18.34198614 -32 14 C-29.86111111 9.43055556 -29.86111111 9.43055556 -27 8 C-25.04225931 7.84621148 -23.07982648 7.75028537 -21.1171875 7.68359375 C-19.95058594 7.64169922 -18.78398438 7.59980469 -17.58203125 7.55664062 C-15.74705078 7.49766602 -15.74705078 7.49766602 -13.875 7.4375 C-12.64394531 7.39431641 -11.41289063 7.35113281 -10.14453125 7.30664062 C-7.09647147 7.20031296 -4.0483281 7.09828219 -1 7 C-0.67 4.69 -0.34 2.38 0 0 Z M103 4 C103.33 4.66 103.66 5.32 104 6 C104.66 6 105.32 6 106 6 C106 5.34 106 4.68 106 4 C105.01 4 104.02 4 103 4 Z " fill="#346F9B" transform="translate(128,188)"/>
<path d="M0 0 C1.13888672 0.00257813 2.27777344 0.00515625 3.45117188 0.0078125 C4.63130859 0.03617187 5.81144531 0.06453125 7.02734375 0.09375 C8.21134766 0.09117187 9.39535156 0.08859375 10.61523438 0.0859375 C20.56181484 0.19864663 20.56181484 0.19864663 23.96484375 3.59375 C25.52760968 10.45669031 25.1509948 17.67623528 25.15014648 24.68505859 C25.15234644 26.72123727 25.17059596 28.7568845 25.18945312 30.79296875 C25.19138672 32.09105469 25.19332031 33.38914062 25.1953125 34.7265625 C25.19942139 35.90105957 25.20353027 37.07555664 25.20776367 38.28564453 C24.95446554 41.73508144 24.32974513 44.41948609 22.96484375 47.59375 C18.02329241 50.27299737 12.45633396 49.9264393 6.96484375 49.90625 C6.08828125 49.92236328 5.21171875 49.93847656 4.30859375 49.95507812 C-0.85052173 49.958963 -4.65384209 49.6264409 -9.03515625 46.59375 C-11.68700084 42.87511079 -11.37580813 38.67315829 -11.40625 34.28515625 C-11.41527847 33.48142075 -11.42430695 32.67768524 -11.43360901 31.84959412 C-11.44809163 30.1526155 -11.45699331 28.4555813 -11.46069336 26.75854492 C-11.47260155 24.16814934 -11.52181155 21.58012832 -11.57226562 18.99023438 C-11.58172933 17.33855325 -11.58896462 15.68685755 -11.59375 14.03515625 C-11.61328232 13.26418106 -11.63281464 12.49320587 -11.65293884 11.6988678 C-11.62034386 7.79738119 -11.18018785 5.79475612 -8.87744141 2.60327148 C-5.58852107 0.27797486 -3.98779349 -0.02724791 0 0 Z " fill="#151515" transform="translate(80.03515625,286.40625)"/>
<path d="M0 0 C1.19753906 -0.02900391 2.39507812 -0.05800781 3.62890625 -0.08789062 C4.78003906 -0.09626953 5.93117188 -0.10464844 7.1171875 -0.11328125 C8.17276855 -0.12786377 9.22834961 -0.14244629 10.31591797 -0.1574707 C13.8112559 0.42731337 14.93629575 1.59008133 17.125 4.3125 C18.68806827 7.43863655 18.30896478 10.77410623 18.328125 14.20703125 C18.33382507 14.9914006 18.33952515 15.77576996 18.34539795 16.58390808 C18.3548514 18.24578501 18.3613833 19.90768072 18.36523438 21.56958008 C18.37492229 24.10466538 18.40593404 26.63893379 18.4375 29.17382812 C18.44403197 30.78905769 18.44928168 32.40429305 18.453125 34.01953125 C18.4654718 34.77490677 18.4778186 35.53028229 18.49053955 36.30854797 C18.47153887 40.82850914 17.92474962 43.72186786 15.125 47.3125 C10.60949432 50.15179524 5.28290489 49.60735135 0.125 49.5625 C-1.20917969 49.57410156 -1.20917969 49.57410156 -2.5703125 49.5859375 C-7.10107409 49.57241284 -10.76763356 49.46886738 -14.875 47.3125 C-14.875 46.6525 -14.875 45.9925 -14.875 45.3125 C-15.535 45.3125 -16.195 45.3125 -16.875 45.3125 C-19.13554331 40.79141339 -18.10235562 34.58764809 -18.11523438 29.55688477 C-18.12486038 27.28298234 -18.155842 25.01001523 -18.1875 22.73632812 C-18.24328697 15.12130127 -18.11257114 8.36128959 -14.875 1.3125 C-10.53769988 -0.85615006 -4.76404235 0.03821424 0 0 Z " fill="#151515" transform="translate(276.875,286.6875)"/>
<path d="M0 0 C0.84390793 -0.00860046 1.68781586 -0.01720093 2.55729675 -0.02606201 C3.48510452 -0.03032196 4.41291229 -0.03458191 5.36883545 -0.03897095 C6.34460037 -0.04714844 7.3203653 -0.05532593 8.32569885 -0.06375122 C11.56500632 -0.08862755 14.80426989 -0.1051273 18.04364014 -0.11953735 C19.14860588 -0.12486103 20.25357162 -0.13018471 21.39202118 -0.13566971 C27.24089363 -0.16241145 33.08974465 -0.1817828 38.93865967 -0.19619751 C44.98270926 -0.21284471 51.02621352 -0.25762072 57.07005692 -0.30856895 C61.71462639 -0.3422125 66.359066 -0.35377185 71.00374603 -0.35942459 C73.23169877 -0.36614539 75.45964272 -0.3813888 77.68747711 -0.4053154 C80.80697648 -0.4369057 83.92499961 -0.43701246 87.0446167 -0.42959595 C88.42418297 -0.45420395 88.42418297 -0.45420395 89.83161926 -0.47930908 C94.06273852 -0.43815261 97.08200436 -0.22765856 100.52307129 2.37786865 C102.96551514 5.15390015 102.96551514 5.15390015 103.96551514 10.15390015 C65.68551514 10.15390015 27.40551514 10.15390015 -12.03448486 10.15390015 C-10.93708915 4.66692158 -10.39173794 4.12958517 -6.03448486 1.15390015 C-3.76890728 0.02111135 -2.51571601 0.01906808 0 0 Z " fill="#F5CAA5" transform="translate(136.03448486328125,137.84609985351563)"/>
<path d="M0 0 C5.36665485 3.1170984 9.82458957 7.07142495 11.828125 13.08203125 C12.61065255 19.58598977 11.65471465 24.7107632 7.828125 30.08203125 C4.40253056 33.68650791 1.17731174 35.87524858 -3.87890625 36.3203125 C-10.16851741 36.47063025 -14.33746714 36.56270195 -19.171875 32.08203125 C-24.58951945 26.41274758 -25.65824493 21.88513478 -25.57421875 14.1640625 C-24.93087394 9.23591631 -22.83981466 6.33547027 -19.171875 3.08203125 C-13.46489099 -1.12941188 -6.71469094 -2.83804383 0 0 Z " fill="#FDFBF9" transform="translate(194.171875,52.91796875)"/>
<path d="M0 0 C3.88446678 2.58964452 6.69907021 5.64814041 8.8125 9.875 C9.67145445 15.78951492 8.89283922 20.2432911 5.4296875 25.14453125 C1.68113693 29.15566145 -2.4460712 30.66482756 -7.8125 31.3125 C-13.09735436 30.62742629 -16.528234 28.87399694 -20 24.875 C-23.50934494 20.06218408 -23.90167005 15.66771265 -23.1875 9.875 C-18.39157513 0.46077711 -10.07296885 -3.55516548 0 0 Z " fill="#FDF9F7" transform="translate(141.1875,64.125)"/>
<path d="M0 0 C1.13888672 0.04125 2.27777344 0.0825 3.45117188 0.125 C4.63130859 0.18429688 5.81144531 0.24359375 7.02734375 0.3046875 C8.21134766 0.34078125 9.39535156 0.376875 10.61523438 0.4140625 C20.53594412 0.8412432 20.53594412 0.8412432 23.96484375 4.1796875 C25.17953062 7.82374812 25.88618652 11.42555949 24.96484375 15.1796875 C23.31900385 17.90841969 22.71995238 18.78310431 19.96484375 20.1796875 C15.26763414 20.88280251 10.64187023 20.78506353 5.90234375 20.6796875 C3.98325195 20.68355469 3.98325195 20.68355469 2.02539062 20.6875 C-8.62263393 20.57570972 -8.62263393 20.57570972 -12.03515625 17.1796875 C-13.41718211 13.03360992 -13.63593118 9.14585999 -12.34765625 4.9296875 C-9.07987213 0.57264201 -5.20513038 -0.19318676 0 0 Z " fill="#F0C9A6" transform="translate(243.03515625,194.8203125)"/>
<path d="M0 0 C1.23685547 -0.02900391 2.47371094 -0.05800781 3.74804688 -0.08789062 C4.94107422 -0.09626953 6.13410156 -0.10464844 7.36328125 -0.11328125 C9.0016394 -0.13515503 9.0016394 -0.13515503 10.6730957 -0.1574707 C14.38119592 0.42065296 16.01904986 1.72881982 18.6875 4.3125 C20.28001643 7.49753287 20.07879761 10.8457405 19.6875 14.3125 C17.94496655 17.54863354 17.21564056 18.13645315 13.6875 19.3125 C9.23419445 19.62600128 4.77551429 19.63646761 0.3125 19.6875 C-0.91984375 19.72488281 -2.1521875 19.76226562 -3.421875 19.80078125 C-13.55299592 19.89967506 -13.55299592 19.89967506 -16.6328125 17.0390625 C-18.99542201 13.20394287 -19.14018827 10.6710712 -18.3125 6.3125 C-14.52654932 -1.77566735 -7.98816347 0.06185981 0 0 Z " fill="#EFC9A7" transform="translate(114.3125,195.6875)"/>
<path d="M0 0 C3.42428625 1.69539026 6.06651945 3.82300278 8.4375 6.8125 C9.62373341 11.42562991 9.68305024 15.41819945 7.8125 19.75 C5.31136766 22.85485394 2.57326648 25.21336676 -1 27 C-6.70914192 27.54895595 -9.56776886 26.62637093 -14 23 C-17.26913382 19.95632368 -17.78526523 16.55647865 -18.125 12.24609375 C-17.91982083 8.55928051 -16.43604944 6.68590067 -14 4 C-9.67919729 0.26839766 -5.6524614 -1.2742543 0 0 Z " fill="#FDF8F6" transform="translate(237,68)"/>
<path d="M0 0 C9.57 0 19.14 0 29 0 C29 5.28 29 10.56 29 16 C19.43 16 9.86 16 0 16 C0 10.72 0 5.44 0 0 Z " fill="#292929" transform="translate(262,298)"/>
<path d="M0 0 C9.57 0 19.14 0 29 0 C29 5.28 29 10.56 29 16 C19.43 16 9.86 16 0 16 C0 10.72 0 5.44 0 0 Z " fill="#292929" transform="translate(73,298)"/>
<path d="M0 0 C4.6984272 3.57489026 8.56406128 7.53762643 12.1875 12.1875 C10.93208443 14.69833114 9.68686512 15.05875446 7.1875 16.1875 C7.1875 13.8775 7.1875 11.5675 7.1875 9.1875 C5.8675 9.1875 4.5475 9.1875 3.1875 9.1875 C3.92419922 10.22970703 3.92419922 10.22970703 4.67578125 11.29296875 C6.43578459 14.66289763 6.49926581 16.73060384 6.375 20.5 C6.33439453 22.10294922 6.33439453 22.10294922 6.29296875 23.73828125 C6.25816406 24.54652344 6.22335938 25.35476562 6.1875 26.1875 C5.5275 26.1875 4.8675 26.1875 4.1875 26.1875 C4.21070313 25.43984375 4.23390625 24.6921875 4.2578125 23.921875 C4.27585938 22.93703125 4.29390625 21.9521875 4.3125 20.9375 C4.33570313 19.96296875 4.35890625 18.9884375 4.3828125 17.984375 C4.18199499 15.10866831 3.74351281 13.58460081 2.1875 11.1875 C-1.74052086 7.82062498 -4.77724792 6.5191973 -9.85546875 6.80078125 C-14.19349543 7.6579961 -16.90113333 10.15853764 -19.75 13.375 C-21.30594419 17.4936758 -20.94744576 20.96979616 -19.8125 25.1875 C-17.63564328 28.64044515 -15.17669282 30.90465488 -11.8125 33.1875 C-18.22748559 33.55061239 -18.22748559 33.55061239 -20.625 32.0625 C-24.8790479 25.34558226 -24.45440037 17.71287669 -22.8125 10.1875 C-21.53495446 8.1514118 -20.20550182 6.14640881 -18.8125 4.1875 C-18.565 3.1665625 -18.565 3.1665625 -18.3125 2.125 C-17.56651593 -0.76568827 -15.73236743 -2.58297653 -13.8125 -4.8125 C-22.25996536 -8.5366514 -31.7321843 -7.97057126 -40.8125 -7.8125 C-39.3584375 -7.008125 -39.3584375 -7.008125 -37.875 -6.1875 C-34.8125 -3.8125 -34.8125 -3.8125 -33.9375 -1.25 C-33.76239331 3.56543396 -33.73534689 8.3697171 -33.8125 13.1875 C-34.1425 13.1875 -34.4725 13.1875 -34.8125 13.1875 C-34.88726562 12.40246094 -34.96203125 11.61742188 -35.0390625 10.80859375 C-35.92952354 3.69363541 -37.08854776 -1.2172144 -42.8125 -5.8125 C-45.99560846 -7.74163345 -45.99560846 -7.74163345 -48.8125 -8.8125 C-48.8125 -9.1425 -48.8125 -9.4725 -48.8125 -9.8125 C-32.06163471 -13.59886196 -13.97165064 -9.68878771 0 0 Z " fill="#CE4C41" transform="translate(240.8125,61.8125)"/>
<path d="M0 0 C23.53874478 -0.34672455 23.53874478 -0.34672455 29.3125 2.8125 C31.87574896 7.65419247 32.2074647 12.65874437 31 18 C29.32421875 20.82421875 29.32421875 20.82421875 26 23 C21.39906404 23.75536615 16.84267379 23.79082563 12.1875 23.8125 C10.28967773 23.85020508 10.28967773 23.85020508 8.35351562 23.88867188 C5.23536457 23.94750491 2.11861633 23.98381506 -1 24 C-1 23.34 -1 22.68 -1 22 C-38.29 22 -75.58 22 -114 22 C-113.67 21.34 -113.34 20.68 -113 20 C-112.29578226 20.00184359 -111.59156452 20.00368717 -110.86600685 20.00558662 C-93.74930742 20.0497104 -76.63262238 20.0828296 -59.51587868 20.10362434 C-51.23842962 20.11394721 -42.96101848 20.12802676 -34.68359375 20.15087891 C-27.47095953 20.17078195 -20.25835276 20.18370908 -13.04569185 20.18817699 C-9.22486053 20.19078962 -5.40410775 20.19695125 -1.58330154 20.21146011 C2.01009063 20.22499536 5.60337163 20.22923092 9.19678688 20.22621536 C11.15019266 20.22703132 13.10358623 20.23781413 15.05696106 20.24884033 C16.21244949 20.246091 17.36793793 20.24334167 18.55844116 20.24050903 C20.07110345 20.24327441 20.07110345 20.24327441 21.61432457 20.24609566 C24.18626976 20.23427517 24.18626976 20.23427517 26 18 C26.99 18 27.98 18 29 18 C29 13.71 29 9.42 29 5 C27.02 4.505 27.02 4.505 25 4 C24.67 3.67 24.34 3.34 24 3 C22.22130274 2.84235595 20.43681524 2.74899323 18.65234375 2.68359375 C17.57275391 2.64169922 16.49316406 2.59980469 15.38085938 2.55664062 C13.67639648 2.49766602 13.67639648 2.49766602 11.9375 2.4375 C10.79732422 2.39431641 9.65714844 2.35113281 8.48242188 2.30664062 C5.65507805 2.20017161 2.82764262 2.09815793 0 2 C0 1.34 0 0.68 0 0 Z " fill="#B83E2F" transform="translate(242,147)"/>
<path d="M0 0 C2.4375 0.375 2.4375 0.375 5 1 C5.33 1.66 5.66 2.32 6 3 C6.33 2.67 6.66 2.34 7 2 C9.53049402 1.92686433 12.03304837 1.90752473 14.5625 1.9375 C15.27341797 1.94201172 15.98433594 1.94652344 16.71679688 1.95117188 C18.47790013 1.96299136 20.23896036 1.98092737 22 2 C21.01 2.495 21.01 2.495 20 3 C20 3.99 20 4.98 20 6 C19.01 6.33 18.02 6.66 17 7 C16.34 11.29 15.68 15.58 15 20 C14.34 20 13.68 20 13 20 C11.62689293 21.29233607 10.28965176 22.62437146 9 24 C7.66667905 21.3333581 8.32897967 19.83319697 9 17 C9.66 17 10.32 17 11 17 C11 15.68 11 14.36 11 13 C10.34 13 9.68 13 9 13 C8.67 13.99 8.34 14.98 8 16 C6.89845297 18.54203161 5.82651512 20.19059887 3.94091797 22.26220703 C1.63020648 25.52161818 1.56407126 26.9919436 1.7578125 30.9296875 C1.80679688 32.05503906 1.85578125 33.18039063 1.90625 34.33984375 C1.9784375 35.50644531 2.050625 36.67304688 2.125 37.875 C2.17398438 39.03386719 2.22296875 40.19273437 2.2734375 41.38671875 C2.56650203 47.21470654 3.05491937 52.48625905 5 58 C3.68 57.34 2.36 56.68 1 56 C1 55.34 1 54.68 1 54 C0.34 54 -0.32 54 -1 54 C-1 44.43 -1 34.86 -1 25 C-1.66 24.67 -2.32 24.34 -3 24 C-2.21625 23.731875 -1.4325 23.46375 -0.625 23.1875 C2.28114923 22.15185568 2.28114923 22.15185568 4 19 C4.65758058 12.42419422 3.41087092 9.54266524 0 4 C0 2.68 0 1.36 0 0 Z " fill="#296FA0" transform="translate(129,191)"/>
<path d="M0 0 C1.32 0 2.64 0 4 0 C2.6236267 3.94560346 0.80978922 6.81848256 -1.8125 10.0625 C-2.81216797 11.31740234 -2.81216797 11.31740234 -3.83203125 12.59765625 C-9.37881096 18.74408782 -9.37881096 18.74408782 -13.33218956 19.3681469 C-16.35079818 19.5149837 -19.34578756 19.52870587 -22.36791992 19.50170898 C-24.09057823 19.50981346 -24.09057823 19.50981346 -25.84803772 19.51808167 C-29.64244381 19.53058523 -33.43609377 19.51406906 -37.23046875 19.49609375 C-39.86412089 19.49624867 -42.49777326 19.49773642 -45.13142395 19.50050354 C-50.6484969 19.50320296 -56.16535194 19.4897495 -61.68237305 19.46655273 C-68.0644448 19.4399049 -74.44615318 19.43820929 -80.82826155 19.4499411 C-86.96804839 19.46070922 -93.10768245 19.45444131 -99.24746132 19.44038582 C-101.86105274 19.43585791 -104.47465487 19.43554613 -107.0882473 19.43945122 C-110.73247905 19.44234797 -114.37610793 19.42593093 -118.02026367 19.40405273 C-119.10860504 19.40855438 -120.19694641 19.41305603 -121.31826782 19.41769409 C-122.30666153 19.40778946 -123.29505524 19.39788483 -124.31340027 19.38768005 C-125.60615262 19.38403521 -125.60615262 19.38403521 -126.92502117 19.38031673 C-127.60976418 19.25481221 -128.2945072 19.12930769 -129 19 C-129.66 18.01 -130.32 17.02 -131 16 C-130.01 16 -129.02 16 -128 16 C-128 16.66 -128 17.32 -128 18 C-89.72 18 -51.44 18 -12 18 C-14.81504365 12.3699127 -16.30962108 10.04288579 -22 8 C-24.9411417 7.47465546 -27.79837044 7.43506967 -30.78100586 7.45410156 C-31.63058868 7.44376389 -32.48017151 7.43342621 -33.35549927 7.42277527 C-36.14214346 7.39345874 -38.9280578 7.39185047 -41.71484375 7.390625 C-43.65541459 7.37563581 -45.59597271 7.35890711 -47.53651428 7.34051514 C-52.6278646 7.29691242 -57.71904283 7.27685818 -62.81054688 7.26177979 C-68.01247299 7.24218321 -73.21421397 7.20021603 -78.41601562 7.16015625 C-88.61061988 7.08493078 -98.80518254 7.03459288 -109 7 C-109 6.67 -109 6.34 -109 6 C-97.53407668 5.90717982 -86.06824326 5.83617388 -74.60202026 5.79275131 C-69.27735083 5.77190702 -63.95293911 5.7436469 -58.62841797 5.69824219 C-53.48665851 5.65467206 -48.34514642 5.63083915 -43.20321655 5.62049103 C-41.24486398 5.61311971 -39.28652441 5.59872523 -37.32827759 5.57707977 C-34.5779328 5.54789732 -31.82860055 5.54405018 -29.078125 5.54589844 C-28.27467148 5.53151733 -27.47121796 5.51713623 -26.64341736 5.50231934 C-21.1291742 5.54222281 -16.50812847 6.67431467 -12 10 C-11 12.75 -11 12.75 -11 15 C-9.68 14.67 -8.36 14.34 -7 14 C-7 12.68 -7 11.36 -7 10 C-6.38125 9.731875 -5.7625 9.46375 -5.125 9.1875 C-2.7004767 8.04443152 -2.7004767 8.04443152 -1 5 C-0.61500109 3.34450469 -0.27206865 1.6777567 0 0 Z " fill="#D05946" transform="translate(252,130)"/>
<path d="M0 0 C2.375 1.0625 2.375 1.0625 4 3 C5.07163193 7.42941196 5.56608196 9.69801148 3.75 13.875 C1.23149634 16.93318302 -0.43023732 17.92614188 -4.375 18.4375 C-8 18 -8 18 -10.875 15.9375 C-13.4553274 12.37057683 -14.15459256 10.4058879 -14 6 C-10.3411575 -0.41373567 -7.0063266 -1.44958481 0 0 Z " fill="#BDD3E4" transform="translate(201,197)"/>
<path d="M0 0 C3.60549148 2.66492848 4.84539972 4.03804272 5.5625 8.5 C4.91877781 12.50538252 3.84054174 14.15945826 1 17 C-2.17878694 18.58939347 -4.4956772 18.41576711 -8 18 C-11.69374497 14.77779694 -12.77969084 13.25576218 -13.625 8.4375 C-12.84380508 4.14092793 -11.34762132 2.70997917 -8 0 C-4.99054157 -1.50472922 -3.20590237 -0.88005163 0 0 Z " fill="#BFD4E3" transform="translate(158,197)"/>
<path d="M0 0 C3 1.4375 3 1.4375 5 4 C5.71728811 7.15136417 5.68499916 9.84451205 5 13 C3.00301801 16.05787867 1.64591327 17.56861144 -1.9375 18.5078125 C-4.18257413 18.70340608 -5.83026372 18.61680003 -8 18 C-11.33657872 15.08049362 -12.81898463 13.29296691 -13.4375 8.875 C-13.01236223 6.08123751 -12.57899473 4.3269396 -11 2 C-7.2864857 -0.4756762 -4.30332662 -0.64466177 0 0 Z " fill="#91B7D2" transform="translate(179,218)"/>
<path d="M0 0 C0.66 1.32 1.32 2.64 2 4 C1.34 4 0.68 4 0 4 C0.66 4.33 1.32 4.66 2 5 C2 5.66 2 6.32 2 7 C-7.9 7 -17.8 7 -28 7 C-28 10.96 -28 14.92 -28 19 C-24.35367472 19.72926506 -21.41338483 20.1473236 -17.76953125 20.24609375 C-16.31836914 20.29540039 -16.31836914 20.29540039 -14.83789062 20.34570312 C-12.80936952 20.40725283 -10.78071348 20.46449633 -8.75195312 20.51757812 C-7.3065918 20.56881836 -7.3065918 20.56881836 -5.83203125 20.62109375 C-4.51295776 20.65867798 -4.51295776 20.65867798 -3.16723633 20.69702148 C-1 21 -1 21 1 23 C-3.39548491 23.14536813 -7.79035087 23.23409948 -12.1875 23.3125 C-13.43337891 23.35439453 -14.67925781 23.39628906 -15.96289062 23.43945312 C-25.11413429 23.56212395 -25.11413429 23.56212395 -29.32421875 20.890625 C-31.30324693 17.47691672 -31.67058618 15.37158697 -31.625 11.4375 C-31.63789062 10.32246094 -31.65078125 9.20742187 -31.6640625 8.05859375 C-31 5 -31 5 -29.046875 2.64453125 C-24.87504924 0.39281504 -21.30096935 0.32962177 -16.625 0.25 C-15.8 0.22035156 -14.975 0.19070312 -14.125 0.16015625 C-9.41640869 0.00320321 -4.71078946 -0.02539509 0 0 Z " fill="#B53C30" transform="translate(122,147)"/>
<path d="M0 0 C0.33 0 0.66 0 1 0 C1.33 4.95 1.66 9.9 2 15 C4.83004235 15.94334745 6.60281623 16.13480013 9.53678894 16.15821838 C10.46646988 16.1680072 11.39615082 16.17779602 12.35400391 16.18788147 C13.37179932 16.19363693 14.38959473 16.1993924 15.43823242 16.20532227 C17.04822868 16.22017166 17.04822868 16.22017166 18.69075012 16.23532104 C22.24563374 16.26695941 25.80053073 16.29170281 29.35546875 16.31640625 C31.81741182 16.33697375 34.27935134 16.35797017 36.74128723 16.37937927 C43.22676727 16.43462096 49.71227929 16.48402104 56.19781494 16.53222656 C62.81354627 16.58242625 69.42923105 16.63812031 76.04492188 16.69335938 C89.02990791 16.80096661 102.01493366 16.90259243 115 17 C115 17.66 115 18.32 115 19 C77.38 19 39.76 19 1 19 C0.12844004 14.64220019 -0.10366859 11.09253894 -0.0625 6.6875 C-0.05347656 5.43324219 -0.04445313 4.17898438 -0.03515625 2.88671875 C-0.01775391 1.45779297 -0.01775391 1.45779297 0 0 Z " fill="#606196" transform="translate(123,317)"/>
<path d="M0 0 C0.33 0 0.66 0 1 0 C1.11214844 1.03060547 1.11214844 1.03060547 1.2265625 2.08203125 C1.62976899 4.84518161 2.08178255 7.36012483 3 10 C5.93662672 12.22325679 5.93662672 12.22325679 9 13 C8.34 13.33 7.68 13.66 7 14 C7 32.15 7 50.3 7 69 C6.67 69 6.34 69 6 69 C5.67 61.08 5.34 53.16 5 45 C3.68 45.99 2.36 46.98 1 48 C-0.99145889 48.36914349 -0.99145889 48.36914349 -3.12554932 48.36076355 C-3.93880676 48.36488754 -4.75206421 48.36901154 -5.58996582 48.3732605 C-6.47325562 48.36247467 -7.35654541 48.35168884 -8.26660156 48.34057617 C-9.67199188 48.34123329 -9.67199188 48.34123329 -11.10577393 48.34190369 C-14.20093666 48.33981458 -17.29555695 48.31647749 -20.390625 48.29296875 C-22.53724878 48.28737324 -24.68387639 48.28310293 -26.83050537 48.28010559 C-32.47931503 48.26865335 -38.12789313 48.23918271 -43.77661133 48.20599365 C-49.54114652 48.17530106 -55.30571914 48.16160197 -61.0703125 48.14648438 C-72.38031004 48.11431354 -83.69013576 48.06311244 -95 48 C-95 47.67 -95 47.34 -95 47 C-93.30990311 46.99120064 -93.30990311 46.99120064 -91.58566284 46.98222351 C-80.96233526 46.9249869 -70.33921219 46.85222017 -59.71609306 46.76428509 C-54.25475416 46.71957586 -48.79348996 46.68032079 -43.33203125 46.65356445 C-38.06047443 46.62753723 -32.78920498 46.58713855 -27.51782608 46.53681374 C-25.50765688 46.52014117 -23.49743797 46.50862932 -21.48720932 46.50238609 C-18.66938979 46.49274939 -15.85230607 46.4646949 -13.03466797 46.43237305 C-11.79064964 46.43452568 -11.79064964 46.43452568 -10.52149963 46.4367218 C-5.63000441 46.35747715 -2.24075203 45.70252761 2 43 C4.70221766 38.77246176 4.26322437 33.97933041 4.1875 29.125 C4.18685547 28.34769531 4.18621094 27.57039063 4.18554688 26.76953125 C4.48703779 18.42093018 4.48703779 18.42093018 1.4375 11.125 C-0.87275248 7.70984415 -0.23105565 4.00496451 0 0 Z " fill="#345A83" transform="translate(229,202)"/>
<path d="M0 0 C0.57256153 0.16173675 1.14512306 0.32347349 1.73503494 0.49011135 C3.9819883 0.99594521 5.94059843 1.13779719 8.23944092 1.15821838 C9.07794083 1.1680072 9.91644073 1.17779602 10.78034973 1.18788147 C11.69169174 1.19363693 12.60303375 1.1993924 13.54199219 1.20532227 C14.50817978 1.21522186 15.47436737 1.22512146 16.46983337 1.23532104 C19.66215569 1.26689842 22.85449288 1.29167869 26.046875 1.31640625 C28.26076646 1.33697902 30.47465402 1.35797558 32.6885376 1.37937927 C38.51475872 1.43456656 44.3410151 1.48399063 50.16729736 1.53222656 C56.11286557 1.58246595 62.05838259 1.6381393 68.00390625 1.69335938 C79.66922711 1.80090008 91.33459241 1.90235418 103 2 C99.95939272 4.02707152 99.38548766 4.25034035 95.97692871 4.25396729 C95.16096725 4.25960693 94.3450058 4.26524658 93.50431824 4.27105713 C92.61279556 4.26700867 91.72127289 4.26296021 90.80273438 4.25878906 C89.86101883 4.2622937 88.91930328 4.26579834 87.9490509 4.26940918 C84.83054268 4.27822475 81.7122606 4.2723779 78.59375 4.265625 C76.43046017 4.2669717 74.26717063 4.26891227 72.10388184 4.27142334 C67.56776043 4.27437437 63.03171773 4.2700776 58.49560547 4.26074219 C52.67455531 4.24934771 46.85368957 4.25590729 41.03264618 4.26788712 C36.56490687 4.27510625 32.09721144 4.27281753 27.62947083 4.26763153 C25.4828133 4.26629519 23.33615181 4.26794222 21.1894989 4.27259064 C18.19198008 4.2776567 15.19476199 4.26994439 12.19726562 4.25878906 C11.30574295 4.26283752 10.41422028 4.26688599 9.49568176 4.27105713 C8.27173958 4.26259766 8.27173958 4.26259766 7.02307129 4.25396729 C6.31442177 4.25321323 5.60577225 4.25245918 4.8756485 4.25168228 C3 4 3 4 0 2 C0 1.34 0 0.68 0 0 Z " fill="#DCCDC1" transform="translate(130,187)"/>
<path d="M0 0 C0.94691711 0.48748466 0.94691711 0.48748466 1.91296387 0.9848175 C6.12377682 2.36955789 9.98799251 2.27100875 14.39257812 2.24291992 C15.33137314 2.24481827 16.27016815 2.24671661 17.2374115 2.24867249 C20.33544308 2.25237204 23.43323931 2.24168712 26.53125 2.23046875 C28.68688937 2.22927631 30.84252926 2.22882392 32.99816895 2.2290802 C37.51394915 2.22751672 42.02964993 2.21923751 46.54541016 2.20581055 C52.33253365 2.18882101 58.11956988 2.18499633 63.90671539 2.18575573 C68.35736931 2.18548374 72.80800416 2.17999778 77.25865173 2.17275429 C79.39249019 2.16957321 81.52633081 2.16760152 83.66017151 2.16686058 C86.64262567 2.16469109 89.62498756 2.15593356 92.60742188 2.14526367 C93.48861191 2.14571686 94.36980194 2.14617004 95.2776947 2.14663696 C99.31613187 2.12552463 103.05983964 2.01115739 107 1 C107.99 4.465 107.99 4.465 109 8 C108.21625 8.2475 107.4325 8.495 106.625 8.75 C103.54375423 9.88704012 103.54375423 9.88704012 102 14 C102.33 11.03 102.66 8.06 103 5 C103.99 5.33 104.98 5.66 106 6 C106 5.34 106 4.68 106 4 C104.13744316 4.02545395 104.13744316 4.02545395 102.23725891 4.05142212 C90.53959999 4.20994229 78.84184798 4.3576578 67.14391804 4.49477577 C61.12979522 4.5656185 55.11577007 4.640277 49.10180664 4.72363281 C43.29881722 4.80392443 37.49578514 4.87422295 31.6925869 4.93757248 C29.47776003 4.96351066 27.26297242 4.9930592 25.04824257 5.02626419 C21.94795947 5.07213149 18.84778554 5.10520007 15.74731445 5.13525391 C14.37166824 5.16006584 14.37166824 5.16006584 12.9682312 5.18537903 C8.51942599 5.2150879 5.04141905 5.11935191 1 3 C1.33 4.98 1.66 6.96 2 9 C1.01 8.67 0.02 8.34 -1 8 C-0.67 5.36 -0.34 2.72 0 0 Z " fill="#4F697D" transform="translate(128,188)"/>
<path d="M0 0 C3.96 0 7.92 0 12 0 C12.33 0.99 12.66 1.98 13 3 C13.99 3.33 14.98 3.66 16 4 C15.67 4.66 15.34 5.32 15 6 C13.9790625 5.2265625 13.9790625 5.2265625 12.9375 4.4375 C9.07364271 2.54667622 7.09918272 2.80751048 3 4 C0.34115399 5.99020117 0.34115399 5.99020117 -1 9 C-1 12.92016134 -0.55226285 15.17160572 1.625 18.4375 C4.93794541 20.61706935 7.11004934 20.48624383 11 20 C13.5 19.16666667 13.5 19.16666667 15 17 C15.79694033 13.69742524 16 10.39800831 16 7 C16.99 7.33 17.98 7.66 19 8 C19.125 15.75 19.125 15.75 18 18 C17.34 18 16.68 18 16 18 C15.67 18.99 15.34 19.98 15 21 C14.34 21 13.68 21 13 21 C13 21.66 13 22.32 13 23 C9.7 23 6.4 23 3 23 C3 22.34 3 21.68 3 21 C1.68 20.67 0.36 20.34 -1 20 C-1 19.01 -1 18.02 -1 17 C-1.99 16.67 -2.98 16.34 -4 16 C-4.4010138 9.45010793 -2.86887178 5.73774356 0 0 Z " fill="#36729C" transform="translate(189,194)"/>
<path d="M0 0 C0.33 0.66 0.66 1.32 1 2 C0.67 2.99 0.34 3.98 0 5 C36.3 5 72.6 5 110 5 C110.33 3.35 110.66 1.7 111 0 C112.5 1.3125 112.5 1.3125 114 3 C114 3.99 114 4.98 114 6 C75.72 6 37.44 6 -2 6 C-1 1 -1 1 0 0 Z " fill="#FEC3A2" transform="translate(126,142)"/>
<path d="M0 0 C-1.6232687 0.6708712 -3.24867578 1.33657029 -4.875 2 C-6.23238281 2.556875 -6.23238281 2.556875 -7.6171875 3.125 C-10 4 -10 4 -12 4 C-12 4.66 -12 5.32 -12 6 C-9.03 6.495 -9.03 6.495 -6 7 C-5.67 7.99 -5.34 8.98 -5 10 C-5.65226562 9.96519531 -6.30453125 9.93039063 -6.9765625 9.89453125 C-12.43502118 9.72546395 -16.35201023 9.79067373 -21 13 C-23.24850483 15.47661498 -23.24850483 15.47661498 -25 18 C-25.66 18.66 -26.32 19.32 -27 20 C-27 18.68 -27 17.36 -27 16 C-27.66 16 -28.32 16 -29 16 C-29.061875 16.78375 -29.12375 17.5675 -29.1875 18.375 C-29.5896875 19.674375 -29.5896875 19.674375 -30 21 C-32.5625 22.3125 -32.5625 22.3125 -35 23 C-29.55179357 10.99226146 -17.91604343 4.32154657 -6.19140625 -0.46875 C-3.73627545 -1.06393322 -2.36194289 -0.81780255 0 0 Z " fill="#CD5A53" transform="translate(145,54)"/>
<path d="M0 0 C0.66 0 1.32 0 2 0 C2.76802948 0.97311127 2.76802948 0.97311127 3.55157471 1.96588135 C7.21813206 5.01200766 10.5421482 4.57256386 15.17480469 4.54589844 C16.56556465 4.56140495 16.56556465 4.56140495 17.98442078 4.57722473 C21.04708165 4.60670733 24.10908322 4.60815307 27.171875 4.609375 C29.29609441 4.62435294 31.42030215 4.64107926 33.54449463 4.65948486 C39.13401823 4.70321381 44.72338472 4.72316985 50.31304932 4.73822021 C56.01738801 4.75777123 61.72155654 4.79974351 67.42578125 4.83984375 C78.61713509 4.91520601 89.80845095 4.96546113 101 5 C101 5.33 101 5.66 101 6 C88.66541834 6.15371192 76.33078394 6.30189364 63.99605083 6.4429636 C58.26889591 6.50863886 52.54177701 6.57623795 46.81469727 6.64819336 C41.29048478 6.71752982 35.76623486 6.78186547 30.24192238 6.84269524 C28.13152759 6.86681982 26.0211528 6.89276371 23.91080284 6.92053413 C20.9609935 6.95904409 18.01118007 6.99115627 15.0612793 7.02172852 C14.18374496 7.03467453 13.30621063 7.04762054 12.40208435 7.06095886 C9.00702373 7.09070426 6.2451032 7.08170107 3 6 C3 5.34 3 4.68 3 4 C2.34 4 1.68 4 1 4 C1 11.26 1 18.52 1 26 C0.67 26 0.34 26 0 26 C0 17.42 0 8.84 0 0 Z " fill="#1A2355" transform="translate(128,245)"/>
<path d="M0 0 C0.33 0 0.66 0 1 0 C1.390625 5.76171875 1.390625 5.76171875 1 8 C0.33693848 8.74886475 -0.32612305 9.49772949 -1.00927734 10.26928711 C-3.3842041 13.52702021 -3.43748415 14.96033017 -3.2421875 18.9296875 C-3.19320312 20.05503906 -3.14421875 21.18039063 -3.09375 22.33984375 C-3.0215625 23.50644531 -2.949375 24.67304688 -2.875 25.875 C-2.82601562 27.03386719 -2.77703125 28.19273437 -2.7265625 29.38671875 C-2.43349797 35.21470654 -1.94508063 40.48625905 0 46 C-1.32 45.34 -2.64 44.68 -4 44 C-4 43.34 -4 42.68 -4 42 C-4.66 42 -5.32 42 -6 42 C-6 32.43 -6 22.86 -6 13 C-6.66 12.67 -7.32 12.34 -8 12 C-7.21625 11.731875 -6.4325 11.46375 -5.625 11.1875 C-2.71885077 10.15185568 -2.71885077 10.15185568 -1 7 C-0.60612212 4.67612053 -0.26513915 2.34206251 0 0 Z " fill="#326C98" transform="translate(134,203)"/>
<path d="M0 0 C23.53874478 -0.34672455 23.53874478 -0.34672455 29.3125 2.8125 C31.87574896 7.65419247 32.2074647 12.65874437 31 18 C29.32421875 20.82421875 29.32421875 20.82421875 26 23 C21.39906404 23.75536615 16.84267379 23.79082563 12.1875 23.8125 C10.92228516 23.83763672 9.65707031 23.86277344 8.35351562 23.88867188 C5.23536457 23.94750491 2.11861633 23.98381506 -1 24 C-1 23.34 -1 22.68 -1 22 C7.25 22 15.5 22 24 22 C24.66 20.68 25.32 19.36 26 18 C26.99 18 27.98 18 29 18 C29 13.71 29 9.42 29 5 C27.68 4.67 26.36 4.34 25 4 C24.67 3.67 24.34 3.34 24 3 C22.22130274 2.84235595 20.43681524 2.74899323 18.65234375 2.68359375 C17.57275391 2.64169922 16.49316406 2.59980469 15.38085938 2.55664062 C13.67639648 2.49766602 13.67639648 2.49766602 11.9375 2.4375 C10.79732422 2.39431641 9.65714844 2.35113281 8.48242188 2.30664062 C5.65507805 2.20017161 2.82764262 2.09815793 0 2 C0 1.34 0 0.68 0 0 Z " fill="#8F443D" transform="translate(242,147)"/>
<path d="M0 0 C0.33 0 0.66 0 1 0 C1.33 7.59 1.66 15.18 2 23 C2.66 23 3.32 23 4 23 C4.25394531 23.80824219 4.50789063 24.61648437 4.76953125 25.44921875 C5.11371094 26.51785156 5.45789063 27.58648437 5.8125 28.6875 C6.14894531 29.74324219 6.48539062 30.79898438 6.83203125 31.88671875 C8.78788195 37.36815227 8.78788195 37.36815227 13 41 C13.33 41.99 13.66 42.98 14 44 C14.99 44.66 15.98 45.32 17 46 C17 46.99 17 47.98 17 49 C17.66 49 18.32 49 19 49 C19 49.66 19 50.32 19 51 C11.90229805 48.0755571 7.43988355 40.40260272 4.1875 33.75 C-0.52623695 22.38909501 -1.52457227 12.08636815 0 0 Z " fill="#A04C44" transform="translate(102,95)"/>
<path d="M0 0 C8.22039068 2.87713674 14.83744964 9.11659952 20 16 C18.74458443 18.51083114 17.49936512 18.87125446 15 20 C15 17.69 15 15.38 15 13 C13.68 13 12.36 13 11 13 C11.49113281 13.69480469 11.98226562 14.38960937 12.48828125 15.10546875 C14.24828459 18.47539763 14.31176581 20.54310384 14.1875 24.3125 C14.16042969 25.38113281 14.13335937 26.44976562 14.10546875 27.55078125 C14.07066406 28.35902344 14.03585938 29.16726562 14 30 C13.34 30 12.68 30 12 30 C12.02320313 29.25234375 12.04640625 28.5046875 12.0703125 27.734375 C12.08835938 26.74953125 12.10640625 25.7646875 12.125 24.75 C12.14820313 23.77546875 12.17140625 22.8009375 12.1953125 21.796875 C11.99429463 18.91829909 11.59161629 17.38215418 10 15 C9.01 14.34 8.02 13.68 7 13 C6.95834237 11.00043389 6.95834237 8.99956611 7 7 C5.15811388 4.94729537 5.15811388 4.94729537 3 4 C3 3.34 3 2.68 3 2 C2.01 2 1.02 2 0 2 C0 1.34 0 0.68 0 0 Z " fill="#CB534A" transform="translate(233,58)"/>
<path d="M0 0 C0.66 0.33 1.32 0.66 2 1 C1.67257813 1.53109375 1.34515625 2.0621875 1.0078125 2.609375 C-0.2642989 5.62694157 -0.1959363 7.98693023 -0.125 11.25 C-0.10695313 12.32765625 -0.08890625 13.4053125 -0.0703125 14.515625 C-0.04710938 15.33546875 -0.02390625 16.1553125 0 17 C3.44835674 17.76901338 6.70094206 18.15042254 10.23046875 18.24609375 C11.68163086 18.29540039 11.68163086 18.29540039 13.16210938 18.34570312 C15.19063048 18.40725283 17.21928652 18.46449633 19.24804688 18.51757812 C20.6934082 18.56881836 20.6934082 18.56881836 22.16796875 18.62109375 C23.48704224 18.65867798 23.48704224 18.65867798 24.83276367 18.69702148 C27 19 27 19 29 21 C24.60451509 21.14536813 20.20964913 21.23409948 15.8125 21.3125 C14.56662109 21.35439453 13.32074219 21.39628906 12.03710938 21.43945312 C2.88951758 21.562075 2.88951758 21.562075 -1.33203125 18.89453125 C-3.32101115 15.44292912 -3.60944937 13.34253984 -3.5 9.375 C-3.4896875 8.24835938 -3.479375 7.12171875 -3.46875 5.9609375 C-2.97198563 2.82304254 -2.49383861 1.87037895 0 0 Z " fill="#9B423A" transform="translate(94,149)"/>
<path d="M0 0 C2.875 2.125 2.875 2.125 5 5 C5.35201103 8.46144178 5.56935594 10.86128812 4 14 C3.01 14 2.02 14 1 14 C1 13.01 1 12.02 1 11 C1.99 11 2.98 11 4 11 C3.01 8.36 2.02 5.72 1 3 C-0.85625 2.9690625 -0.85625 2.9690625 -2.75 2.9375 C-3.79414063 2.92009766 -3.79414063 2.92009766 -4.859375 2.90234375 C-7.03292403 3.00150201 -8.91306537 3.40306149 -11 4 C-10.91291331 5.45945288 -10.80473093 6.91765868 -10.6875 8.375 C-10.62949219 9.18710938 -10.57148438 9.99921875 -10.51171875 10.8359375 C-10.17009472 13.37921338 -10.17009472 13.37921338 -7 15 C-4.67612053 15.39387788 -2.34206251 15.73486085 0 16 C-0.33 16.66 -0.66 17.32 -1 18 C-4.1875 18.375 -4.1875 18.375 -8 18 C-11.69374497 14.77779694 -12.77969084 13.25576218 -13.625 8.4375 C-12.84380508 4.14092793 -11.34762132 2.70997917 -8 0 C-4.99054157 -1.50472922 -3.20590237 -0.88005163 0 0 Z " fill="#ACD1ED" transform="translate(158,197)"/>
<path d="M0 0 C0.33 0 0.66 0 1 0 C1.04969106 4.16258147 1.08585642 8.32500261 1.10986328 12.48779297 C1.11987856 13.90188609 1.13349474 15.31595873 1.15087891 16.72998047 C1.17532559 18.77055946 1.18652784 20.81086303 1.1953125 22.8515625 C1.20578613 24.07697754 1.21625977 25.30239258 1.22705078 26.56494141 C0.99746626 30.03833297 0.2511457 32.76606976 -1 36 C-1.66 36 -2.32 36 -3 36 C-2.93941406 35.46117187 -2.87882812 34.92234375 -2.81640625 34.3671875 C-2.00824684 26.43479208 -1.68033876 18.49608199 -1.39282227 10.53076172 C-1.35600342 9.60279785 -1.31918457 8.67483398 -1.28125 7.71875 C-1.25095703 6.88279297 -1.22066406 6.04683594 -1.18945312 5.18554688 C-1 3 -1 3 0 0 Z " fill="#121223" transform="translate(104,298)"/>
<path d="M0 0 C1.2065625 0.0309375 1.2065625 0.0309375 2.4375 0.0625 C0.86957335 1.10778443 -0.6996352 2.15132621 -2.28125 3.17578125 C-3.16296875 3.76939453 -3.16296875 3.76939453 -4.0625 4.375 C-4.6503125 4.76300781 -5.238125 5.15101562 -5.84375 5.55078125 C-8.96859945 8.29922838 -10.43323299 10.89140245 -10.890625 15.03515625 C-10.86484375 16.05480469 -10.8390625 17.07445313 -10.8125 18.125 C-10.79703125 19.14722656 -10.7815625 20.16945313 -10.765625 21.22265625 C-10.59215562 23.64789159 -10.25284302 25.74094322 -9.5625 28.0625 C-10.2225 28.0625 -10.8825 28.0625 -11.5625 28.0625 C-14.55470229 23.06754876 -14.07017366 17.70577097 -13.5625 12.0625 C-12.80780933 9.44943809 -11.87279462 7.46470681 -10.5625 5.0625 C-9.9025 5.0625 -9.2425 5.0625 -8.5625 5.0625 C-8.5625 3.7425 -8.5625 2.4225 -8.5625 1.0625 C-7.3559375 1.0934375 -7.3559375 1.0934375 -6.125 1.125 C-3.0866539 1.050894 -3.0383461 0.074106 0 0 Z " fill="#D55F57" transform="translate(180.5625,51.9375)"/>
<path d="M0 0 C4.81377762 4.81377762 5.52725739 13.42665188 6.015625 19.97265625 C5.98595518 25.72118409 4.99787533 31.35087104 4 37 C3.67 37 3.34 37 3 37 C2.98018066 36.35562988 2.96036133 35.71125977 2.93994141 35.04736328 C2.84354411 32.07289417 2.73433899 29.09902043 2.625 26.125 C2.5940625 25.11179687 2.563125 24.09859375 2.53125 23.0546875 C2.30830656 17.25815818 1.73313615 11.80565941 0.41552734 6.15185547 C0 4 0 4 0 0 Z " fill="#B55047" transform="translate(257,83)"/>
<path d="M0 0 C0.97582031 0.10183594 1.95164063 0.20367187 2.95703125 0.30859375 C3.69308594 0.39238281 4.42914063 0.47617187 5.1875 0.5625 C5.1875 0.8925 5.1875 1.2225 5.1875 1.5625 C2.5475 1.8925 -0.0925 2.2225 -2.8125 2.5625 C-1.3584375 3.366875 -1.3584375 3.366875 0.125 4.1875 C3.1875 6.5625 3.1875 6.5625 4.0625 9.125 C4.23760669 13.94043396 4.26465311 18.7447171 4.1875 23.5625 C3.8575 23.5625 3.5275 23.5625 3.1875 23.5625 C3.11273438 22.77746094 3.03796875 21.99242188 2.9609375 21.18359375 C2.07047646 14.06863541 0.91145224 9.1577856 -4.8125 4.5625 C-7.99560846 2.63336655 -7.99560846 2.63336655 -10.8125 1.5625 C-10.8125 1.2325 -10.8125 0.9025 -10.8125 0.5625 C-7.01982808 -0.3735342 -3.87575435 -0.42026252 0 0 Z " fill="#CB6158" transform="translate(202.8125,51.4375)"/>
<path d="M0 0 C0.66 0.33 1.32 0.66 2 1 C1.50113281 1.85271484 1.50113281 1.85271484 0.9921875 2.72265625 C-0.66307444 6.52193858 0.01905504 10.0550487 1 14 C3.17685672 17.45294515 5.63580718 19.71715488 9 22 C2.58501441 22.36311239 2.58501441 22.36311239 0.1875 20.875 C-2.81083575 16.14078567 -3.49347205 11.52688692 -3 6 C-1.5 2.5625 -1.5 2.5625 0 0 Z " fill="#DB5651" transform="translate(220,73)"/>
<path d="M0 0 C1.98 0.99 1.98 0.99 4 2 C4 2.66 4 3.32 4 4 C8.24998566 4.02902996 12.49994581 4.04680887 16.75 4.0625 C18.55984375 4.07506836 18.55984375 4.07506836 20.40625 4.08789062 C21.56640625 4.09111328 22.7265625 4.09433594 23.921875 4.09765625 C24.99018555 4.10289307 26.05849609 4.10812988 27.15917969 4.11352539 C29.62389235 4.01503008 31.65245467 3.71565464 34 3 C34 2.34 34 1.68 34 1 C34.66 1 35.32 1 36 1 C34.25 4.875 34.25 4.875 32 6 C27.38018192 6.2722879 22.75192597 6.23165738 18.125 6.25 C16.18560547 6.2809375 16.18560547 6.2809375 14.20703125 6.3125 C12.96566406 6.31765625 11.72429687 6.3228125 10.4453125 6.328125 C8.73625732 6.34214355 8.73625732 6.34214355 6.99267578 6.35644531 C3.6984443 5.96408294 2.2840174 5.38386897 0 3 C0 2.01 0 1.02 0 0 Z " fill="#D4BAA7" transform="translate(231,209)"/>
<path d="M0 0 C1.72265625 1.546875 1.72265625 1.546875 3 3 C2.40832031 2.86980469 1.81664062 2.73960937 1.20703125 2.60546875 C-4.21619853 1.64368497 -4.21619853 1.64368497 -9.0625 4.0625 C-11.26291663 7.39861553 -11.4551589 9.08563342 -11 13 C-11.66 13 -12.32 13 -13 13 C-14.55779277 7.00848933 -14.55779277 7.00848933 -13.0234375 4.234375 C-8.68581301 -0.99106736 -6.54851602 -1.37863495 0 0 Z " fill="#A6CBE5" transform="translate(201,197)"/>
<path d="M0 0 C2.4375 1.125 2.4375 1.125 5 3 C5.8125 6.1875 5.8125 6.1875 6 9 C1.33333333 9 -3.33333333 9 -8 9 C-8 8.34 -8 7.68 -8 7 C-6.02 6.67 -4.04 6.34 -2 6 C-2 5.01 -2 4.02 -2 3 C-1.34 3 -0.68 3 0 3 C0 2.01 0 1.02 0 0 Z " fill="#DF5245" transform="translate(235,60)"/>
<path d="M0 0 C0.33 0 0.66 0 1 0 C1.48929664 7.21712538 1.48929664 7.21712538 -0.875 11 C-3 13 -3 13 -5 13 C-5 22.57 -5 32.14 -5 42 C-5.33 42 -5.66 42 -6 42 C-6 32.43 -6 22.86 -6 13 C-6.66 12.67 -7.32 12.34 -8 12 C-7.21625 11.731875 -6.4325 11.46375 -5.625 11.1875 C-2.71885077 10.15185568 -2.71885077 10.15185568 -1 7 C-0.60612212 4.67612053 -0.26513915 2.34206251 0 0 Z " fill="#426882" transform="translate(134,203)"/>
<path d="M0 0 C0.55429688 0.42152344 1.10859375 0.84304687 1.6796875 1.27734375 C2.40414062 1.82519531 3.12859375 2.37304688 3.875 2.9375 C4.59429687 3.48277344 5.31359375 4.02804688 6.0546875 4.58984375 C9.83547922 7.33053815 12.47421776 7.10477984 17.125 7.0625 C18.40632813 7.05347656 19.68765625 7.04445313 21.0078125 7.03515625 C22.48894531 7.01775391 22.48894531 7.01775391 24 7 C23.01 8.485 23.01 8.485 22 10 C19.13671875 10.3984375 19.13671875 10.3984375 15.6875 10.375 C14.55699219 10.38273437 13.42648438 10.39046875 12.26171875 10.3984375 C8.73648354 9.96780997 6.80084287 9.15449451 4 7 C4 6.34 4 5.68 4 5 C3.01 5 2.02 5 1 5 C0.67 3.35 0.34 1.7 0 0 Z " fill="#D9675C" transform="translate(171,81)"/>
<path d="M0 0 C1.35693133 2.71386265 0.60740474 4.03428585 0 7 C-0.14609545 9.49404567 -0.24675904 11.99093127 -0.31640625 14.48828125 C-0.33718735 15.19147995 -0.35796844 15.89467865 -0.37937927 16.6191864 C-0.44440115 18.85019817 -0.50353776 21.08132069 -0.5625 23.3125 C-0.60573036 24.83139134 -0.64934605 26.35027177 -0.69335938 27.86914062 C-0.80003334 31.5793112 -0.90143221 35.28960421 -1 39 C-1.33 39 -1.66 39 -2 39 C-2.02505615 38.13721436 -2.0501123 37.27442871 -2.07592773 36.38549805 C-2.17111385 33.18176231 -2.27034444 29.97818463 -2.37231445 26.7746582 C-2.41560218 25.38864017 -2.45728164 24.00257094 -2.49731445 22.61645508 C-2.55516584 20.62308202 -2.61929776 18.62989435 -2.68359375 16.63671875 C-2.72025146 15.43748779 -2.75690918 14.23825684 -2.79467773 13.00268555 C-2.87733025 9.95005651 -2.87733025 9.95005651 -4 7 C-3.34 7 -2.68 7 -2 7 C-2.33 6.01 -2.66 5.02 -3 4 C-2.34 4 -1.68 4 -1 4 C-0.67 2.68 -0.34 1.36 0 0 Z " fill="#262640" transform="translate(260,290)"/>
<path d="M0 0 C2.97 0 5.94 0 9 0 C8.01 0.495 8.01 0.495 7 1 C7 1.99 7 2.98 7 4 C6.01 4.33 5.02 4.66 4 5 C2.9590934 6.64142963 1.95495674 8.30712215 1 10 C0.67 10 0.34 10 0 10 C0 6.7 0 3.4 0 0 Z " fill="#1D71A3" transform="translate(142,193)"/>
<path d="M0 0 C0.99 0 1.98 0 3 0 C2.67 0.99 2.34 1.98 2 3 C-1.29734646 4.09911549 -3.72958745 4.1139456 -7.19921875 4.09765625 C-8.40771484 4.09443359 -9.61621094 4.09121094 -10.86132812 4.08789062 C-12.7552832 4.07532227 -12.7552832 4.07532227 -14.6875 4.0625 C-16.59885742 4.05573242 -16.59885742 4.05573242 -18.54882812 4.04882812 C-21.69926564 4.03702873 -24.84960949 4.02056597 -28 4 C-28 3.67 -28 3.34 -28 3 C-26.081875 2.90912109 -26.081875 2.90912109 -24.125 2.81640625 C-22.4166589 2.73192784 -20.70832599 2.64728359 -19 2.5625 C-18.16082031 2.52318359 -17.32164063 2.48386719 -16.45703125 2.44335938 C-7.64622287 2.64415405 -7.64622287 2.64415405 0 0 Z " fill="#DCC6B3" transform="translate(129,211)"/>
<path d="M0 0 C1.32 0 2.64 0 4 0 C2.60620001 4.01529945 0.72047459 6.9436182 -1.9375 10.25 C-2.62714844 11.12140625 -3.31679687 11.9928125 -4.02734375 12.890625 C-6 15 -6 15 -9 16 C-9 15.34 -9 14.68 -9 14 C-8.34 14 -7.68 14 -7 14 C-7 12.68 -7 11.36 -7 10 C-6.38125 9.731875 -5.7625 9.46375 -5.125 9.1875 C-2.7004767 8.04443152 -2.7004767 8.04443152 -1 5 C-0.61500109 3.34450469 -0.27206865 1.6777567 0 0 Z " fill="#BA544B" transform="translate(252,130)"/>
<path d="M0 0 C0.66 2.31 1.32 4.62 2 7 C1.21625 7.2475 0.4325 7.495 -0.375 7.75 C-3.45624577 8.88704012 -3.45624577 8.88704012 -5 13 C-4.67 10.03 -4.34 7.06 -4 4 C-3.01 4.33 -2.02 4.66 -1 5 C-1 4.34 -1 3.68 -1 3 C-2.65 3 -4.3 3 -6 3 C-4.60722783 0.21445565 -3.01148006 0 0 0 Z " fill="#486F8A" transform="translate(235,189)"/>
<path d="M0 0 C0.33 0 0.66 0 1 0 C1.14324713 4.34160722 1.28563878 8.6832414 1.42724609 13.02490234 C1.47551479 14.50114699 1.52401512 15.97738408 1.57275391 17.45361328 C1.64286574 19.57843095 1.71213796 21.70327461 1.78125 23.828125 C1.82314453 25.1059082 1.86503906 26.38369141 1.90820312 27.70019531 C1.9758731 30.13271486 2 32.56653938 2 35 C0 33 0 33 -0.22705078 29.74365234 C-0.22673382 28.35770705 -0.21541759 26.97173699 -0.1953125 25.5859375 C-0.1924826 24.85629791 -0.18965271 24.12665833 -0.18673706 23.37490845 C-0.17553002 21.04143972 -0.1504251 18.70835297 -0.125 16.375 C-0.11497085 14.79427637 -0.10584489 13.21354673 -0.09765625 11.6328125 C-0.07558905 7.75506086 -0.04105615 3.87759522 0 0 Z " fill="#13142A" transform="translate(259,297)"/>
<path d="M0 0 C0.33 0 0.66 0 1 0 C1.28373405 3.43559106 1.5211389 6.87285235 1.75 10.3125 C1.83121094 11.28896484 1.91242188 12.26542969 1.99609375 13.27148438 C2.08310547 14.67817383 2.08310547 14.67817383 2.171875 16.11328125 C2.2347168 16.97735596 2.29755859 17.84143066 2.36230469 18.73168945 C2 21 2 21 -2 24 C-2.33 20.7 -2.66 17.4 -3 14 C-2.67 14 -2.34 14 -2 14 C-2 15.65 -2 17.3 -2 19 C-1.34 19 -0.68 19 0 19 C0 12.73 0 6.46 0 0 Z " fill="#242238" transform="translate(107,278)"/>
<path d="M0 0 C0.99 0.33 1.98 0.66 3 1 C-0.37072513 4.08026903 -2.79129968 4.40545518 -7.296875 4.51171875 C-8.50214844 4.54716797 -9.70742188 4.58261719 -10.94921875 4.61914062 C-12.83060547 4.65297852 -12.83060547 4.65297852 -14.75 4.6875 C-16.01972656 4.72166016 -17.28945312 4.75582031 -18.59765625 4.79101562 C-21.73168274 4.87349001 -24.86542955 4.94264484 -28 5 C-28 4.34 -28 3.68 -28 3 C-27.25838623 2.98018066 -26.51677246 2.96036133 -25.75268555 2.93994141 C-22.39726166 2.84477072 -19.04246714 2.73505906 -15.6875 2.625 C-14.52025391 2.5940625 -13.35300781 2.563125 -12.15039062 2.53125 C-10.47299805 2.47324219 -10.47299805 2.47324219 -8.76171875 2.4140625 C-7.73006592 2.3826416 -6.69841309 2.3512207 -5.63549805 2.31884766 C-2.77156764 2.17325371 -2.77156764 2.17325371 0 0 Z " fill="#8B413A" transform="translate(269,166)"/>
<path d="M0 0 C0.97729763 3.58342465 1.36506893 7.09286165 1.71875 10.78125 C1.98973686 12.91903524 2.43355851 14.92304786 3 17 C0.61623897 15.2314031 -0.79559296 13.77903383 -1.55859375 10.87109375 C-2.1401255 6.51319531 -2.27649498 3.88239453 0 0 Z " fill="#FEE1D8" transform="translate(221,74)"/>
<path d="M0 0 C2.42242143 3.63363214 2.17302701 4.99843589 1.55859375 9.125 C1 11 1 11 -1.0625 13 C-2.0215625 13.495 -2.0215625 13.495 -3 14 C-3.33 13.01 -3.66 12.02 -4 11 C-3.34 11 -2.68 11 -2 11 C-2.33 10.01 -2.66 9.02 -3 8 C-2.01 7.67 -1.02 7.34 0 7 C-0.185625 6.030625 -0.37125 5.06125 -0.5625 4.0625 C-0.706875 3.051875 -0.85125 2.04125 -1 1 C-0.67 0.67 -0.34 0.34 0 0 Z " fill="#ABCEEB" transform="translate(204,200)"/>
<path d="M0 0 C-0.83144531 0.33773437 -1.66289062 0.67546875 -2.51953125 1.0234375 C-3.60621094 1.46945313 -4.69289062 1.91546875 -5.8125 2.375 C-6.89144531 2.81585938 -7.97039062 3.25671875 -9.08203125 3.7109375 C-12.10730112 4.9479119 -12.10730112 4.9479119 -15 7 C-17.1875 6.625 -17.1875 6.625 -19 6 C-17.06374902 5.01836578 -15.12595461 4.03977546 -13.1875 3.0625 C-12.10855469 2.51722656 -11.02960938 1.97195312 -9.91796875 1.41015625 C-6.06356352 -0.45254829 -4.08218491 -1.26688497 0 0 Z " fill="#A24E45" transform="translate(145,54)"/>
<path d="M0 0 C1 2 1 2 0.875 4 C0 6 0 6 -1.9375 7.25 C-6.30099708 8.31861153 -10.53067741 8.15620933 -15 8 C-15 7.67 -15 7.34 -15 7 C-14.12988281 6.87044922 -14.12988281 6.87044922 -13.2421875 6.73828125 C-7.41168056 5.6895597 -4.24345436 4.13464784 0 0 Z " fill="#D86156" transform="translate(244,88)"/>
<path d="M0 0 C0.99 0.33 1.98 0.66 3 1 C4.22517308 6.66642551 4.09228867 12.23708518 4 18 C3.67 18 3.34 18 3 18 C2.87882813 17.19175781 2.75765625 16.38351563 2.6328125 15.55078125 C2.46523437 14.48214844 2.29765625 13.41351563 2.125 12.3125 C1.96257812 11.25675781 1.80015625 10.20101562 1.6328125 9.11328125 C1.04106931 6.20205086 0.1968194 3.71044393 -1 1 C-0.67 0.67 -0.34 0.34 0 0 Z " fill="#D45849" transform="translate(203,57)"/>
<path d="M0 0 C2.67158839 2.67158839 2.9263784 4.24529849 3 8 C0.5625 10.875 0.5625 10.875 -2 13 C-2.99 12.34 -3.98 11.68 -5 11 C-4.0409375 10.2265625 -4.0409375 10.2265625 -3.0625 9.4375 C-0.44208319 6.34064377 -0.30610183 3.97932377 0 0 Z " fill="#3A78A5" transform="translate(184,224)"/>
<path d="M0 0 C0.99 0.66 1.98 1.32 3 2 C2.195625 2.45375 1.39125 2.9075 0.5625 3.375 C-2.08856572 4.74725665 -2.08856572 4.74725665 -3 7 C-3.13357453 10.67329964 -3.1671568 13.49852959 -2 17 C-2.66 17.33 -3.32 17.66 -4 18 C-5.22485812 15.55028376 -5.16722808 13.85765539 -5.1875 11.125 C-5.20167969 10.26132813 -5.21585938 9.39765625 -5.23046875 8.5078125 C-4.98859252 5.8758712 -4.32983541 4.26019456 -3 2 C-2.01 2 -1.02 2 0 2 C0 1.34 0 0.68 0 0 Z " fill="#41779F" transform="translate(149,195)"/>
<path d="M0 0 C0.66 0 1.32 0 2 0 C2 0.99 2 1.98 2 3 C0.68662604 4.0260734 -0.64664105 5.02727325 -2 6 C-2 6.66 -2 7.32 -2 8 C-3.98 8 -5.96 8 -8 8 C-8.33 7.34 -8.66 6.68 -9 6 C-8.071875 5.566875 -7.14375 5.13375 -6.1875 4.6875 C-3.48254066 3.2554627 -2.0458389 2.14813084 0 0 Z " fill="#DE5442" transform="translate(197,86)"/>
<path d="M0 0 C0 0.66 0 1.32 0 2 C-4.38461538 5 -4.38461538 5 -7 5 C-7 5.99 -7 6.98 -7 8 C-7.66 8 -8.32 8 -9 8 C-9 8.66 -9 9.32 -9 10 C-9.99 10.33 -10.98 10.66 -12 11 C-10.82612037 6.01101158 -7.81687611 4.01341878 -3.875 1.13671875 C-2 0 -2 0 0 0 Z " fill="#FEE5DA" transform="translate(182,53)"/>
<path d="M0 0 C2.475 0.495 2.475 0.495 5 1 C4.01 1.33 3.02 1.66 2 2 C2.495 2.37125 2.99 2.7425 3.5 3.125 C5.59755514 5.74694393 5.21743835 7.73842472 5 11 C1.87729874 8.48169253 1.05476902 7.2738451 0.25 3.25 C0.1675 2.1775 0.085 1.105 0 0 Z " fill="#407297" transform="translate(129,191)"/>
<path d="M0 0 C0.33 0 0.66 0 1 0 C1.08107583 1.93681161 1.13922475 3.8745934 1.1875 5.8125 C1.23970703 7.43091797 1.23970703 7.43091797 1.29296875 9.08203125 C1 12 1 12 -0.51171875 13.88671875 C-1.00285156 14.25410156 -1.49398437 14.62148437 -2 15 C-2.21755666 9.5610835 -2.10428384 5.12919186 0 0 Z " fill="#BF5549" transform="translate(105,85)"/>
<path d="M0 0 C0.33 0 0.66 0 1 0 C1 1.65 1 3.3 1 5 C1.99 5.33 2.98 5.66 4 6 C3.67 6.66 3.34 7.32 3 8 C3.66 8.33 4.32 8.66 5 9 C5 9.99 5 10.98 5 12 C1.125 10.25 1.125 10.25 0 8 C-0.13415472 5.3276379 -0.04318541 2.67749512 0 0 Z " fill="#C1A791" transform="translate(96,202)"/>
<path d="M0 0 C0 0.66 0 1.32 0 2 C-0.99 2.495 -0.99 2.495 -2 3 C-2 4.65 -2 6.3 -2 8 C-2.99 8 -3.98 8 -5 8 C-5.33 9.32 -5.66 10.64 -6 12 C-6.29554656 4.31578947 -6.29554656 4.31578947 -4 1 C-2 0 -2 0 0 0 Z " fill="#DBCABA" transform="translate(236,197)"/>
<path d="M0 0 C0.66 0 1.32 0 2 0 C3.31626692 3.61973402 4 6.09567131 4 10 C3.34 10 2.68 10 2 10 C0.39644899 6.49223216 -0.22036864 3.85645121 0 0 Z " fill="#C55049" transform="translate(104,118)"/>
<path d="M0 0 C0.94875 0.04125 1.8975 0.0825 2.875 0.125 C0.29715154 2.77252004 -2.04148098 5.06932065 -5.125 7.125 C-5.25 4.75 -5.25 4.75 -5.125 2.125 C-3.125 0.125 -3.125 0.125 0 0 Z " fill="#D2BAA4" transform="translate(102.125,196.875)"/>
<path d="M0 0 C0.66 0 1.32 0 2 0 C2.33 0.99 2.66 1.98 3 3 C3.99 3.66 4.98 4.32 6 5 C6 5.99 6 6.98 6 8 C6.66 8 7.32 8 8 8 C8 8.66 8 9.32 8 10 C4.6273066 8.60440273 2.91954898 7.1078412 1 4 C0.3125 1.75 0.3125 1.75 0 0 Z " fill="#BB534C" transform="translate(113,136)"/>
<path d="M0 0 C0.33 0 0.66 0 1 0 C1.13277344 0.83144531 1.26554687 1.66289063 1.40234375 2.51953125 C1.57894531 3.60621094 1.75554687 4.69289063 1.9375 5.8125 C2.19853516 7.43091797 2.19853516 7.43091797 2.46484375 9.08203125 C2.93871921 12.04933356 2.93871921 12.04933356 4 15 C2.68 14.67 1.36 14.34 0 14 C0 9.38 0 4.76 0 0 Z " fill="#DA5A55" transform="translate(117,74)"/>
<path d="M0 0 C3.37462715 0.54723683 5.08235 1.0549 8 3 C8.1875 5.625 8.1875 5.625 8 8 C5.33333333 5.33333333 2.66666667 2.66666667 0 0 Z " fill="#D85E56" transform="translate(141,64)"/>
<path d="M0 0 C3 2 3 2 4 5 C4.12781786 7.67394964 4.04391871 10.32095857 4 13 C3.67 13 3.34 13 3 13 C2.01 8.71 1.02 4.42 0 0 Z " fill="#9E8C79" transform="translate(264,197)"/>
<path d="M0 0 C0.99 0 1.98 0 3 0 C2.50168276 3.68754757 1.89932357 5.60490662 -1 8 C-1.125 2.25 -1.125 2.25 0 0 Z " fill="#1C72AA" transform="translate(136,193)"/>
<path d="M0 0 C1 2 1 2 0.375 4.5 C-1 7 -1 7 -3.625 8.3125 C-4.40875 8.539375 -5.1925 8.76625 -6 9 C-4.47291037 5.56404834 -2.40072955 2.88087546 0 0 Z " fill="#A65044" transform="translate(116,68)"/>
<path d="M0 0 C1.98 0.99 1.98 0.99 4 2 C4 2.66 4 3.32 4 4 C5.32 4.66 6.64 5.32 8 6 C2.25 5.25 2.25 5.25 0 3 C0 2.01 0 1.02 0 0 Z " fill="#D0C5B5" transform="translate(231,209)"/>
<path d="M0 0 C2.64 0.33 5.28 0.66 8 1 C8 1.66 8 2.32 8 3 C6.68 2.67 5.36 2.34 4 2 C3.67 2.66 3.34 3.32 3 4 C2.01 3.34 1.02 2.68 0 2 C0 1.34 0 0.68 0 0 Z " fill="#E0C4A2" transform="translate(126,185)"/>
<path d="M0 0 C0 1.65 0 3.3 0 5 C-1.65 5 -3.3 5 -5 5 C-4.625 3.0625 -4.625 3.0625 -4 1 C-2 0 -2 0 0 0 Z " fill="#CD4F49" transform="translate(113,76)"/>
<path d="M0 0 C2 2 2 2 2.125 5.125 C2.08375 6.07375 2.0425 7.0225 2 8 C1.34 7.67 0.68 7.34 0 7 C0 6.01 0 5.02 0 4 C-0.66 4 -1.32 4 -2 4 C-1.34 2.68 -0.68 1.36 0 0 Z " fill="#2F709D" transform="translate(226,195)"/>
<path d="M0 0 C0.99 0.33 1.98 0.66 3 1 C1.95125002 3.62187494 1.35068687 4.79371361 -1.125 6.25 C-1.74375 6.4975 -2.3625 6.745 -3 7 C-2.625 5.0625 -2.625 5.0625 -2 3 C-1.34 2.67 -0.68 2.34 0 2 C0 1.34 0 0.68 0 0 Z " fill="#C2AA8D" transform="translate(237,182)"/>
<path d="M0 0 C1.39195915 4.17587745 -0.17676781 6.13474776 -2 10 C-2.33 10 -2.66 10 -3 10 C-2.25 3.375 -2.25 3.375 0 0 Z " fill="#AF4F4A" transform="translate(259,120)"/>
<path d="M0 0 C2 0.6875 2 0.6875 4 2.6875 C1.36 2.6875 -1.28 2.6875 -4 2.6875 C-4 2.0275 -4 1.3675 -4 0.6875 C-2 -0.3125 -2 -0.3125 0 0 Z " fill="#86B6D7" transform="translate(175,233.3125)"/>
<path d="M0 0 C1.5 1.3125 1.5 1.3125 3 3 C3 3.99 3 4.98 3 6 C1.68 6 0.36 6 -1 6 C-0.67 4.02 -0.34 2.04 0 0 Z " fill="#FABA99" transform="translate(237,142)"/>
<path d="M0 0 C3.93673644 1.31224548 6.22719294 2.91910327 9 6 C7.02 5.34 5.04 4.68 3 4 C3 3.34 3 2.68 3 2 C2.01 2 1.02 2 0 2 C0 1.34 0 0.68 0 0 Z " fill="#A04E48" transform="translate(233,58)"/>
<path d="" fill="#000000" transform="translate(0,0)"/>
<path d="" fill="#000000" transform="translate(0,0)"/>
<path d="" fill="#000000" transform="translate(0,0)"/>
<path d="" fill="#000000" transform="translate(0,0)"/>
<path d="" fill="#000000" transform="translate(0,0)"/>
<path d="" fill="#000000" transform="translate(0,0)"/>
<path d="" fill="#000000" transform="translate(0,0)"/>
<path d="" fill="#000000" transform="translate(0,0)"/>
<path d="" fill="#000000" transform="translate(0,0)"/>
<path d="" fill="#000000" transform="translate(0,0)"/>
<path d="" fill="#000000" transform="translate(0,0)"/>
<path d="" fill="#000000" transform="translate(0,0)"/>
<path d="" fill="#000000" transform="translate(0,0)"/>
<path d="" fill="#000000" transform="translate(0,0)"/>
<path d="" fill="#000000" transform="translate(0,0)"/>
<path d="" fill="#000000" transform="translate(0,0)"/>
<path d="" fill="#000000" transform="translate(0,0)"/>
<path d="" fill="#000000" transform="translate(0,0)"/>
<path d="" fill="#000000" transform="translate(0,0)"/>
<path d="" fill="#000000" transform="translate(0,0)"/>
<path d="" fill="#000000" transform="translate(0,0)"/>
<path d="" fill="#000000" transform="translate(0,0)"/>
<path d="" fill="#000000" transform="translate(0,0)"/>
<path d="" fill="#000000" transform="translate(0,0)"/>
<path d="" fill="#000000" transform="translate(0,0)"/>
<path d="" fill="#000000" transform="translate(0,0)"/>
<path d="" fill="#000000" transform="translate(0,0)"/>
<path d="" fill="#000000" transform="translate(0,0)"/>
<path d="" fill="#000000" transform="translate(0,0)"/>
<path d="" fill="#000000" transform="translate(0,0)"/>
<path d="" fill="#000000" transform="translate(0,0)"/>
<path d="" fill="#000000" transform="translate(0,0)"/>
<path d="" fill="#000000" transform="translate(0,0)"/>
<path d="" fill="#000000" transform="translate(0,0)"/>
<path d="" fill="#000000" transform="translate(0,0)"/>
<path d="" fill="#000000" transform="translate(0,0)"/>
<path d="" fill="#000000" transform="translate(0,0)"/>
<path d="" fill="#000000" transform="translate(0,0)"/>
<path d="" fill="#000000" transform="translate(0,0)"/>
<path d="" fill="#000000" transform="translate(0,0)"/>
<path d="" fill="#000000" transform="translate(0,0)"/>
<path d="" fill="#000000" transform="translate(0,0)"/>
<path d="" fill="#000000" transform="translate(0,0)"/>
<path d="" fill="#000000" transform="translate(0,0)"/>
<path d="" fill="#000000" transform="translate(0,0)"/>
<path d="" fill="#000000" transform="translate(0,0)"/>
<path d="" fill="#000000" transform="translate(0,0)"/>
<path d="" fill="#000000" transform="translate(0,0)"/>
<path d="" fill="#000000" transform="translate(0,0)"/>
<path d="" fill="#000000" transform="translate(0,0)"/>
<path d="" fill="#000000" transform="translate(0,0)"/>
<path d="" fill="#000000" transform="translate(0,0)"/>
<path d="" fill="#000000" transform="translate(0,0)"/>
<path d="" fill="#000000" transform="translate(0,0)"/>
<path d="" fill="#000000" transform="translate(0,0)"/>
<path d="" fill="#000000" transform="translate(0,0)"/>
<path d="" fill="#000000" transform="translate(0,0)"/>
<path d="" fill="#000000" transform="translate(0,0)"/>
<path d="" fill="#000000" transform="translate(0,0)"/>
<path d="" fill="#000000" transform="translate(0,0)"/>
<path d="" fill="#000000" transform="translate(0,0)"/>
<path d="" fill="#000000" transform="translate(0,0)"/>
<path d="" fill="#000000" transform="translate(0,0)"/>
<path d="" fill="#000000" transform="translate(0,0)"/>
<path d="" fill="#000000" transform="translate(0,0)"/>
<path d="" fill="#000000" transform="translate(0,0)"/>
<path d="" fill="#000000" transform="translate(0,0)"/>
<path d="" fill="#000000" transform="translate(0,0)"/>
<path d="" fill="#000000" transform="translate(0,0)"/>
<path d="" fill="#000000" transform="translate(0,0)"/>
<path d="" fill="#000000" transform="translate(0,0)"/>
</svg>
