<?xml version="1.0" encoding="UTF-8"?>
<svg version="1.1" xmlns="http://www.w3.org/2000/svg" width="352" height="338">
<path d="M0 0 C1.11306519 -0.0038269 2.22613037 -0.00765381 3.3729248 -0.01159668 C5.72307237 -0.01431514 8.07325022 -0.0069587 10.42333984 0.00976562 C14.01859049 0.03117462 17.61184269 0.00996003 21.20703125 -0.015625 C23.49219191 -0.01298171 25.77735132 -0.00785672 28.0625 0 C29.13657104 -0.00809692 30.21064209 -0.01619385 31.31726074 -0.02453613 C38.75553125 0.06882629 38.75553125 0.06882629 42.7175293 2.43066406 C44.53125 4.53125 44.53125 4.53125 45.01953125 6.671875 C44.85677083 8.625 44.69401042 10.578125 44.53125 12.53125 C45.60375 12.61375 46.67625 12.69625 47.78125 12.78125 C51.83845568 13.59269114 53.02584594 14.35131408 55.53125 17.53125 C57.51467115 21.49809231 56.75998705 26.48218738 56.78125 30.84375 C56.801875 31.88982422 56.8225 32.93589844 56.84375 34.01367188 C56.85148437 35.53250977 56.85148437 35.53250977 56.859375 37.08203125 C56.8687207 38.00669189 56.87806641 38.93135254 56.88769531 39.8840332 C56.33281107 44.00499885 54.42807258 46.63442742 51.53125 49.53125 C51.22894016 51.50792326 51.22894016 51.50792326 51.27587891 53.79394531 C51.26891998 54.67536194 51.26196106 55.55677856 51.25479126 56.46490479 C51.25628677 57.89766754 51.25628677 57.89766754 51.2578125 59.359375 C51.23751614 61.37630756 51.21666522 63.3932346 51.1953125 65.41015625 C51.17274046 68.5942855 51.15625562 71.77819686 51.15039062 74.96240234 C51.14085132 78.03262919 51.10704616 81.10186972 51.0703125 84.171875 C51.07535797 85.11895325 51.08040344 86.06603149 51.08560181 87.04180908 C50.98251064 93.99079532 49.6159932 97.38718481 44.703125 102.39453125 C41.65106882 103.99192037 39.19996057 103.82131132 35.78125 103.71875 C33.71875 103.656875 31.65625 103.595 29.53125 103.53125 C30.02625 113.92625 30.02625 113.92625 30.53125 124.53125 C32.82642578 124.60472656 32.82642578 124.60472656 35.16796875 124.6796875 C37.18491344 124.7547366 39.20183965 124.83028351 41.21875 124.90625 C42.22615234 124.9371875 43.23355469 124.968125 44.27148438 125 C45.24794922 125.03867188 46.22441406 125.07734375 47.23046875 125.1171875 C48.57371216 125.16431885 48.57371216 125.16431885 49.9440918 125.21240234 C52.80709373 125.56524565 54.95851428 126.22831476 57.53125 127.53125 C60.8142598 132.4557647 59.64655805 137.70819327 59.53125 143.53125 C64.15125 143.53125 68.77125 143.53125 73.53125 143.53125 C73.86125 142.21125 74.19125 140.89125 74.53125 139.53125 C78.39317234 136.99686346 82.05342601 137.50703223 86.4453125 137.94921875 C88.93227638 138.64314687 89.91062775 139.55212646 91.53125 141.53125 C93.0247973 144.5183446 92.83756228 147.5685948 92.90625 150.84375 C92.95523438 152.15988281 93.00421875 153.47601563 93.0546875 154.83203125 C92.3971736 159.47878996 91.15574735 160.63816448 87.53125 163.53125 C84.39331055 164.09887695 84.39331055 164.09887695 80.91796875 164.01953125 C79.67080078 164.00341797 78.42363281 163.98730469 77.13867188 163.97070312 C75.84509766 163.92880859 74.55152344 163.88691406 73.21875 163.84375 C71.24938477 163.80991211 71.24938477 163.80991211 69.24023438 163.77539062 C66.0027487 163.71652725 62.76758 163.63433804 59.53125 163.53125 C59.53125 166.83125 59.53125 170.13125 59.53125 173.53125 C60.294375 173.799375 61.0575 174.0675 61.84375 174.34375 C64.44877101 175.4948058 65.77488005 176.33578756 67.53125 178.53125 C68.43363747 181.23841242 68.64976302 182.76901768 68.62890625 185.54296875 C68.62568359 186.30029297 68.62246094 187.05761719 68.61914062 187.83789062 C68.61076172 188.62357422 68.60238281 189.40925781 68.59375 190.21875 C68.58923828 191.01603516 68.58472656 191.81332031 68.58007812 192.63476562 C68.5683085 194.60029257 68.55037348 196.56578085 68.53125 198.53125 C69.09207275 198.37116455 69.65289551 198.2110791 70.23071289 198.04614258 C74.42432289 197.10755365 78.6875465 197.26252509 82.96875 197.21875 C83.91041016 197.18974609 84.85207031 197.16074219 85.82226562 197.13085938 C87.1922168 197.11829102 87.1922168 197.11829102 88.58984375 197.10546875 C89.83205688 197.08359497 89.83205688 197.08359497 91.09936523 197.0612793 C94.60031848 197.73785143 96.14145546 198.88746131 98.53125 201.53125 C99.02851958 204.37059195 99.21146315 206.60328553 99.16015625 209.4375 C99.16256821 210.19921509 99.16498016 210.96093018 99.16746521 211.74572754 C99.16648767 213.35283627 99.15311594 214.95997906 99.12817383 216.56689453 C99.09385648 219.02362708 99.10751695 221.47676255 99.12695312 223.93359375 C99.1200544 225.49741111 99.11038177 227.0612192 99.09765625 228.625 C99.10261612 229.35738892 99.10757599 230.08977783 99.11268616 230.84436035 C99.03860065 234.06068411 98.8457335 236.10621392 96.90830231 238.72472382 C93.77149577 241.10865249 91.88478794 241.03416797 87.96496582 241.03918457 C87.30691845 241.04542453 86.64887109 241.0516645 85.97088289 241.05809355 C83.76733276 241.07404018 81.56488632 241.06141409 79.36132812 241.04882812 C77.7810349 241.05424855 76.20074673 241.06137077 74.62046814 241.07006836 C70.32912511 241.08831427 66.03816644 241.08122908 61.74681664 241.06855202 C57.25767347 241.05843087 52.76856339 241.06781523 48.27941895 241.07409668 C40.74041836 241.08137567 33.20157446 241.0717788 25.66259766 241.05273438 C16.94423061 241.0309651 8.22623771 241.0380163 -0.49212027 241.06004 C-7.97503664 241.07818685 -15.45784032 241.08075584 -22.94077158 241.07028532 C-27.41109253 241.06404644 -31.88123757 241.06322555 -36.35154724 241.07643127 C-40.55416329 241.08797881 -44.75629655 241.07998446 -48.9588604 241.05685425 C-50.50200537 241.05156124 -52.0451909 241.05309109 -53.58831978 241.06190491 C-55.69358517 241.07282161 -57.79729954 241.0591469 -59.90246582 241.03918457 C-61.08085274 241.03767647 -62.25923965 241.03616837 -63.47333527 241.03461456 C-67.11096571 240.42332884 -68.29503155 239.46911086 -70.46875 236.53125 C-70.87885988 233.76089676 -71.05390848 231.39400943 -71.03515625 228.625 C-71.04135483 227.86328491 -71.04755341 227.10156982 -71.05393982 226.31677246 C-71.06102923 224.70972977 -71.05787918 223.10261351 -71.04516602 221.49560547 C-71.03129186 219.03866371 -71.06538462 216.58552678 -71.10351562 214.12890625 C-71.10446682 212.56510324 -71.10260798 211.00129546 -71.09765625 209.4375 C-71.11091446 208.70511108 -71.12417267 207.97272217 -71.13783264 207.21813965 C-71.07044758 203.5216803 -70.74930431 201.84162242 -68.23828125 199.0637207 C-65.32838323 197.45358055 -63.81167469 197.0476359 -60.52734375 197.10546875 C-59.15739258 197.11803711 -59.15739258 197.11803711 -57.75976562 197.13085938 C-56.81810547 197.15986328 -55.87644531 197.18886719 -54.90625 197.21875 C-53.96072266 197.22841797 -53.01519531 197.23808594 -52.04101562 197.24804688 C-48.01712715 197.31345284 -44.35639331 197.42153196 -40.46875 198.53125 C-40.52095703 196.77748047 -40.52095703 196.77748047 -40.57421875 194.98828125 C-40.60236716 193.44011859 -40.62966619 191.89194032 -40.65625 190.34375 C-40.68138672 189.57482422 -40.70652344 188.80589844 -40.73242188 188.01367188 C-40.79282911 183.32204301 -40.4750053 180.36531473 -37.46875 176.53125 C-34.0549569 173.53125 -34.0549569 173.53125 -31.46875 173.53125 C-31.46875 170.23125 -31.46875 166.93125 -31.46875 163.53125 C-32.29076904 163.55743408 -33.11278809 163.58361816 -33.9597168 163.6105957 C-37.69169938 163.7146644 -41.4233766 163.77961128 -45.15625 163.84375 C-47.09661133 163.9065918 -47.09661133 163.9065918 -49.07617188 163.97070312 C-50.94692383 163.99487305 -50.94692383 163.99487305 -52.85546875 164.01953125 C-54.00233154 164.04571533 -55.14919434 164.07189941 -56.33081055 164.09887695 C-60.4482899 163.35405944 -61.90637015 161.76857663 -64.46875 158.53125 C-65.02734375 155.15625 -65.02734375 155.15625 -64.90625 151.53125 C-64.88433594 150.335 -64.86242187 149.13875 -64.83984375 147.90625 C-64.41825052 144.07197049 -63.94882587 140.7266959 -60.84375 138.21875 C-56.54958295 136.97570164 -52.30583139 136.96599419 -48.03125 138.28125 C-46.46875 139.53125 -46.46875 139.53125 -45.46875 143.53125 C-41.17875 143.53125 -36.88875 143.53125 -32.46875 143.53125 C-32.365625 141.46875 -32.2625 139.40625 -32.15625 137.28125 C-31.77776442 129.71153846 -31.77776442 129.71153846 -28.46875 126.53125 C-23.88835307 124.54606668 -18.17212046 125.51481529 -13.29296875 125.59375 C-8.92144422 125.60214165 -8.92144422 125.60214165 -2.46875 124.53125 C-2.13875 117.60125 -1.80875 110.67125 -1.46875 103.53125 C-3.325 103.61375 -5.18125 103.69625 -7.09375 103.78125 C-12.41841409 103.77497831 -15.47301455 103.32207594 -19.46875 99.53125 C-23.29552009 94.8156003 -22.87752479 90.12796583 -22.83984375 84.33984375 C-22.85721877 82.32356595 -22.87480323 80.30728994 -22.89257812 78.29101562 C-22.90266937 75.12211896 -22.90624173 71.95333594 -22.90454102 68.78442383 C-22.90810493 65.71921954 -22.93541704 62.65489231 -22.96484375 59.58984375 C-22.95666122 58.6418541 -22.9484787 57.69386444 -22.94004822 56.71714783 C-22.89838439 51.48544411 -22.89838439 51.48544411 -25.43774414 47.09008789 C-26.10797607 46.57567139 -26.77820801 46.06125488 -27.46875 45.53125 C-29.04197611 40.81157168 -28.653227 36.03635529 -28.65625 31.09375 C-28.66849609 30.04380859 -28.68074219 28.99386719 -28.69335938 27.91210938 C-28.69529297 26.90083984 -28.69722656 25.88957031 -28.69921875 24.84765625 C-28.70332764 23.92412354 -28.70743652 23.00059082 -28.71166992 22.04907227 C-28.45329312 19.37104216 -27.90564106 17.79072938 -26.46875 15.53125 C-23.05505532 12.94791348 -20.7325599 12.16578058 -16.46875 12.53125 C-16.6234375 10.675 -16.6234375 10.675 -16.78125 8.78125 C-16.95703125 6.671875 -16.95703125 6.671875 -16.46875 4.53125 C-11.90009848 -0.75999749 -6.47109221 -0.04878257 0 0 Z " fill="#B73E34" transform="translate(159.46875,79.46875)"/>
<path d="M0 0 C0.78375 0.04125 1.5675 0.0825 2.375 0.125 C2.57416016 1.19041016 2.57416016 1.19041016 2.77734375 2.27734375 C2.95394531 3.19644531 3.13054687 4.11554688 3.3125 5.0625 C3.48652344 5.97902344 3.66054687 6.89554687 3.83984375 7.83984375 C4.15214988 10.07789844 4.15214988 10.07789844 5.375 11.125 C7.91474478 11.23600996 10.42755415 11.28238814 12.96826172 11.28613281 C13.76338165 11.29109772 14.55850159 11.29606262 15.37771606 11.30117798 C18.02004853 11.31583746 20.66232097 11.32260795 23.3046875 11.328125 C25.13453169 11.33387346 26.96437584 11.33963122 28.79421997 11.34539795 C32.63609092 11.3559188 36.47794088 11.36175432 40.31982422 11.36523438 C45.24867068 11.37072058 50.17724107 11.39474668 55.1060009 11.42320633 C58.88746965 11.44180795 62.66887159 11.44703699 66.45038223 11.44857025 C68.26770664 11.45160306 70.08502971 11.45965263 71.90230942 11.47275543 C74.44273766 11.48976408 76.98248753 11.48794856 79.52294922 11.48144531 C80.27735291 11.4906601 81.03175659 11.49987488 81.809021 11.5093689 C85.8256112 11.49211559 85.8256112 11.49211559 89.33377075 9.73040771 C90.61864695 7.74933566 90.87028575 6.28251387 91.0625 3.9375 C91.2171875 2.0503125 91.2171875 2.0503125 91.375 0.125 C93.625 -0.125 93.625 -0.125 96.375 0.125 C99.16535429 2.3727854 100.23410005 3.70230016 101.375 7.125 C101.45473476 8.46025717 101.48271338 9.79912083 101.47265625 11.13671875 C101.46943359 11.89404297 101.46621094 12.65136719 101.46289062 13.43164062 C101.45451172 14.21732422 101.44613281 15.00300781 101.4375 15.8125 C101.43298828 16.60978516 101.42847656 17.40707031 101.42382812 18.22851562 C101.4120585 20.19404257 101.39412348 22.15953085 101.375 24.125 C101.93582275 23.96491455 102.49664551 23.8048291 103.07446289 23.63989258 C107.26807289 22.70130365 111.5312965 22.85627509 115.8125 22.8125 C116.75416016 22.78349609 117.69582031 22.75449219 118.66601562 22.72460938 C119.57931641 22.71623047 120.49261719 22.70785156 121.43359375 22.69921875 C122.26173584 22.68463623 123.08987793 22.67005371 123.94311523 22.6550293 C127.44406848 23.33160143 128.98520546 24.48121131 131.375 27.125 C131.87226958 29.96434195 132.05521315 32.19703553 132.00390625 35.03125 C132.00631821 35.79296509 132.00873016 36.55468018 132.01121521 37.33947754 C132.01023767 38.94658627 131.99686594 40.55372906 131.97192383 42.16064453 C131.93760648 44.61737708 131.95126695 47.07051255 131.97070312 49.52734375 C131.9638044 51.09116111 131.95413177 52.6549692 131.94140625 54.21875 C131.94636612 54.95113892 131.95132599 55.68352783 131.95643616 56.43811035 C131.88235065 59.65443411 131.6894835 61.69996392 129.75205231 64.31847382 C126.61524577 66.70240249 124.72853794 66.62791797 120.80871582 66.63293457 C119.82164477 66.64229451 119.82164477 66.64229451 118.81463289 66.65184355 C116.61108276 66.66779018 114.40863632 66.65516409 112.20507812 66.64257812 C110.6247849 66.64799855 109.04449673 66.65512077 107.46421814 66.66381836 C103.17287511 66.68206427 98.88191644 66.67497908 94.59056664 66.66230202 C90.10142347 66.65218087 85.61231339 66.66156523 81.12316895 66.66784668 C73.58416836 66.67512567 66.04532446 66.6655288 58.50634766 66.64648438 C49.78798061 66.6247151 41.06998771 66.6317663 32.35162973 66.65379 C24.86871336 66.67193685 17.38590968 66.67450584 9.90297842 66.66403532 C5.43265747 66.65779644 0.96251243 66.65697555 -3.50779724 66.67018127 C-7.71041329 66.68172881 -11.91254655 66.67373446 -16.1151104 66.65060425 C-17.65825537 66.64531124 -19.2014409 66.64684109 -20.74456978 66.65565491 C-22.84983517 66.66657161 -24.95354954 66.6528969 -27.05871582 66.63293457 C-28.8262962 66.63067242 -28.8262962 66.63067242 -30.62958527 66.62836456 C-34.26721571 66.01707884 -35.45128155 65.06286086 -37.625 62.125 C-38.03510988 59.35464676 -38.21015848 56.98775943 -38.19140625 54.21875 C-38.19760483 53.45703491 -38.20380341 52.69531982 -38.21018982 51.91052246 C-38.21727923 50.30347977 -38.21412918 48.69636351 -38.20141602 47.08935547 C-38.18754186 44.63241371 -38.22163462 42.17927678 -38.25976562 39.72265625 C-38.26071682 38.15885324 -38.25885798 36.59504546 -38.25390625 35.03125 C-38.26716446 34.29886108 -38.28042267 33.56647217 -38.29408264 32.81188965 C-38.22669758 29.1154303 -37.90555431 27.43537242 -35.39453125 24.6574707 C-32.48463323 23.04733055 -30.96792469 22.6413859 -27.68359375 22.69921875 C-26.77029297 22.70759766 -25.85699219 22.71597656 -24.91601562 22.72460938 C-23.50352539 22.76811523 -23.50352539 22.76811523 -22.0625 22.8125 C-21.11697266 22.82216797 -20.17144531 22.83183594 -19.19726562 22.84179688 C-15.17337715 22.90720284 -11.51264331 23.01528196 -7.625 24.125 C-7.67720703 22.37123047 -7.67720703 22.37123047 -7.73046875 20.58203125 C-7.75861716 19.03386859 -7.78591619 17.48569032 -7.8125 15.9375 C-7.83763672 15.16857422 -7.86277344 14.39964844 -7.88867188 13.60742188 C-7.94917858 8.90806764 -7.61853408 5.97382953 -4.625 2.125 C-2.625 0.125 -2.625 0.125 0 0 Z " fill="#1B2B3A" transform="translate(126.625,253.875)"/>
<path d="M0 0 C1.11306519 -0.0038269 2.22613037 -0.00765381 3.3729248 -0.01159668 C5.72307237 -0.01431514 8.07325022 -0.0069587 10.42333984 0.00976562 C14.01859049 0.03117462 17.61184269 0.00996003 21.20703125 -0.015625 C23.49219191 -0.01298171 25.77735132 -0.00785672 28.0625 0 C29.13657104 -0.00809692 30.21064209 -0.01619385 31.31726074 -0.02453613 C38.75553125 0.06882629 38.75553125 0.06882629 42.7175293 2.43066406 C44.53125 4.53125 44.53125 4.53125 45.01953125 6.671875 C44.85677083 8.625 44.69401042 10.578125 44.53125 12.53125 C45.60375 12.61375 46.67625 12.69625 47.78125 12.78125 C51.83845568 13.59269114 53.02584594 14.35131408 55.53125 17.53125 C57.51467115 21.49809231 56.75998705 26.48218738 56.78125 30.84375 C56.801875 31.88982422 56.8225 32.93589844 56.84375 34.01367188 C56.85148437 35.53250977 56.85148437 35.53250977 56.859375 37.08203125 C56.8687207 38.00669189 56.87806641 38.93135254 56.88769531 39.8840332 C56.33281107 44.00499885 54.42807258 46.63442742 51.53125 49.53125 C51.20147394 51.54958943 51.20147394 51.54958943 51.21240234 53.88916016 C51.19253265 54.78994293 51.17266296 55.69072571 51.15219116 56.61880493 C51.14063995 57.59280243 51.12908875 58.56679993 51.1171875 59.5703125 C51.09782135 60.56630463 51.0784552 61.56229675 51.0585022 62.58847046 C50.99860035 65.7776425 50.95227862 68.96685043 50.90625 72.15625 C50.86807999 74.31512013 50.82902884 76.47397488 50.7890625 78.6328125 C50.6928903 83.93215534 50.60787411 89.23159043 50.53125 94.53125 C50.20125 94.53125 49.87125 94.53125 49.53125 94.53125 C49.53125 80.01125 49.53125 65.49125 49.53125 50.53125 C36.99567479 51.17197524 36.99567479 51.17197524 24.53125 52.53125 C24.53125 52.86125 24.53125 53.19125 24.53125 53.53125 C26.3875 53.716875 26.3875 53.716875 28.28125 53.90625 C31.4074697 54.28871305 33.82004237 54.83674523 36.53125 56.53125 C36.53125 55.87125 36.53125 55.21125 36.53125 54.53125 C37.52125 54.53125 38.51125 54.53125 39.53125 54.53125 C39.86125 53.54125 40.19125 52.55125 40.53125 51.53125 C43.17125 51.53125 45.81125 51.53125 48.53125 51.53125 C48.53125 63.41125 48.53125 75.29125 48.53125 87.53125 C47.54125 86.54125 46.55125 85.55125 45.53125 84.53125 C45.20125 86.51125 44.87125 88.49125 44.53125 90.53125 C24.40125 90.53125 4.27125 90.53125 -16.46875 90.53125 C-16.46875 84.59125 -16.46875 78.65125 -16.46875 72.53125 C-9.20875 72.20125 -1.94875 71.87125 5.53125 71.53125 C5.20125 70.54125 4.87125 69.55125 4.53125 68.53125 C5.52125 67.54125 6.51125 66.55125 7.53125 65.53125 C6.87125 63.55125 6.21125 61.57125 5.53125 59.53125 C5.345625 61.2328125 5.345625 61.2328125 5.15625 62.96875 C4.95 64.144375 4.74375 65.32 4.53125 66.53125 C1.54530576 68.02422212 -1.17728624 67.64880228 -4.46875 67.53125 C-5.12875 67.20125 -5.78875 66.87125 -6.46875 66.53125 C-6.52270478 64.90661158 -6.56152195 63.28146459 -6.59375 61.65625 C-6.61695313 60.75132812 -6.64015625 59.84640625 -6.6640625 58.9140625 C-6.46875 56.53125 -6.46875 56.53125 -4.46875 54.53125 C-2.3046875 54.1171875 -2.3046875 54.1171875 0.15625 53.90625 C0.97351563 53.83148438 1.79078125 53.75671875 2.6328125 53.6796875 C3.25929687 53.63070312 3.88578125 53.58171875 4.53125 53.53125 C2.94852399 51.94852399 1.15090997 52.18389253 -1.03125 51.96875 C-1.85753906 51.88496094 -2.68382812 51.80117187 -3.53515625 51.71484375 C-4.49228516 51.62396484 -4.49228516 51.62396484 -5.46875 51.53125 C-5.46875 51.20125 -5.46875 50.87125 -5.46875 50.53125 C2.12125 50.53125 9.71125 50.53125 17.53125 50.53125 C-1.77375 50.03625 -1.77375 50.03625 -21.46875 49.53125 C-21.46875 64.38125 -21.46875 79.23125 -21.46875 94.53125 C-21.79875 94.53125 -22.12875 94.53125 -22.46875 94.53125 C-22.47421844 93.69892853 -22.47421844 93.69892853 -22.47979736 92.84979248 C-22.5216084 87.07440306 -22.59094341 81.2998094 -22.67626953 75.52490234 C-22.70449499 73.36970987 -22.72570165 71.21441357 -22.73974609 69.05908203 C-22.76115347 65.9607217 -22.8077932 62.86361173 -22.859375 59.765625 C-22.86060364 58.80195007 -22.86183228 57.83827515 -22.86309814 56.84539795 C-22.87680922 51.54033598 -22.87680922 51.54033598 -25.44433594 47.07910156 C-26.11239258 46.56831055 -26.78044922 46.05751953 -27.46875 45.53125 C-29.04197611 40.81157168 -28.653227 36.03635529 -28.65625 31.09375 C-28.66849609 30.04380859 -28.68074219 28.99386719 -28.69335938 27.91210938 C-28.69529297 26.90083984 -28.69722656 25.88957031 -28.69921875 24.84765625 C-28.70332764 23.92412354 -28.70743652 23.00059082 -28.71166992 22.04907227 C-28.45329312 19.37104216 -27.90564106 17.79072938 -26.46875 15.53125 C-23.05505532 12.94791348 -20.7325599 12.16578058 -16.46875 12.53125 C-16.6234375 10.675 -16.6234375 10.675 -16.78125 8.78125 C-16.95703125 6.671875 -16.95703125 6.671875 -16.46875 4.53125 C-11.90009848 -0.75999749 -6.47109221 -0.04878257 0 0 Z " fill="#C0392C" transform="translate(159.46875,79.46875)"/>
<path d="M0 0 C13.2 0 26.4 0 40 0 C38 2 38 2 34.9609375 2.1953125 C33.77757812 2.17210937 32.59421875 2.14890625 31.375 2.125 C30.18648437 2.10695312 28.99796875 2.08890625 27.7734375 2.0703125 C26.85820312 2.04710937 25.94296875 2.02390625 25 2 C25.66 2.66 26.32 3.32 27 4 C25.07426764 5.92573236 21.64462302 5.4871853 19.03125 5.71875 C17.00819407 5.79065837 17.00819407 5.79065837 16 7 C15.76712992 8.68183948 15.58735834 10.3712416 15.4375 12.0625 C15.293125 13.691875 15.14875 15.32125 15 17 C18.63 17 22.26 17 26 17 C26.33 14.69 26.66 12.38 27 10 C27.66 10.33 28.32 10.66 29 11 C29.8125 13.875 29.8125 13.875 30 17 C28.5625 18.75 28.5625 18.75 27 20 C27 20.66 27 21.32 27 22 C29.97 21.67 32.94 21.34 36 21 C35.67 21.66 35.34 22.32 35 23 C25.1 23 15.2 23 5 23 C5 28.94 5 34.88 5 41 C25.13 41 45.26 41 66 41 C66 36.38 66 31.76 66 27 C66.33 27 66.66 27 67 27 C67.22786458 29.05078125 67.45572917 31.1015625 67.68359375 33.15234375 C67.81886614 35.01140229 67.81886614 35.01140229 69 36 C68.98839844 35.38898438 68.97679687 34.77796875 68.96484375 34.1484375 C68.85904236 23.41715363 69.46226413 12.71467331 70 2 C68.700625 2.12375 67.40125 2.2475 66.0625 2.375 C65.33160156 2.44460937 64.60070312 2.51421875 63.84765625 2.5859375 C63.23792969 2.72257813 62.62820312 2.85921875 62 3 C61.67 3.66 61.34 4.32 61 5 C60.01 5 59.02 5 58 5 C58 5.66 58 6.32 58 7 C53.71 6.34 49.42 5.68 45 5 C45 4.01 45 3.02 45 2 C50.88400655 1.14304033 56.55909292 0.87460766 62.5 0.9375 C63.73363281 0.94426758 63.73363281 0.94426758 64.9921875 0.95117188 C66.99482396 0.96281511 68.99742227 0.98074444 71 1 C71.10151557 7.45941732 71.17151376 13.91862852 71.21972656 20.37866211 C71.23982767 22.57568042 71.26711306 24.77264532 71.30175781 26.96948242 C71.35034093 30.12952866 71.37298405 33.28886687 71.390625 36.44921875 C71.41127014 37.42960617 71.43191528 38.40999359 71.45318604 39.42008972 C71.45460537 43.74481734 71.43981047 46.27347098 69.16308594 50.03442383 C63.36990315 55.29863541 58.59509753 54.15039797 51 54 C51.495 64.395 51.495 64.395 52 75 C62.89 75.495 62.89 75.495 74 76 C74 76.33 74 76.66 74 77 C69.38 77 64.76 77 60 77 C60 94.82 60 112.64 60 131 C54.72 131 49.44 131 44 131 C44 126.05 44 121.1 44 116 C46.97 116 49.94 116 53 116 C53 113.03 53 110.06 53 107 C50.03 107 47.06 107 44 107 C44 99.08 44 91.16 44 83 C38.06 83 32.12 83 26 83 C26 90.92 26 98.84 26 107 C23.36 107 20.72 107 18 107 C18 109.97 18 112.94 18 116 C20.64 116 23.28 116 26 116 C26 120.95 26 125.9 26 131 C21.38 131 16.76 131 12 131 C12 112.85 12 94.7 12 76 C15.465 75.505 15.465 75.505 19 75 C19.33 68.07 19.66 61.14 20 54 C17.215625 54.12375 17.215625 54.12375 14.375 54.25 C8.79715244 54.25657765 6.09172039 53.76868983 2 50 C-0.13363651 46.79954524 -0.24672228 46.01370564 -0.22705078 42.3449707 C-0.22689972 41.40422195 -0.22674866 40.46347321 -0.22659302 39.49421692 C-0.21627045 38.48163315 -0.20594788 37.46904938 -0.1953125 36.42578125 C-0.1924826 35.38681198 -0.18965271 34.34784271 -0.18673706 33.27738953 C-0.17553282 29.95564303 -0.15042764 26.63416515 -0.125 23.3125 C-0.11497052 21.06185285 -0.10584462 18.81120148 -0.09765625 16.56054688 C-0.0772934 11.04017758 -0.03814473 5.52038983 0 0 Z " fill="#E4C098" transform="translate(138,129)"/>
<path d="M0 0 C0.495 0.99 0.495 0.99 1 2 C-0.21816406 2.06058594 -1.43632812 2.12117187 -2.69140625 2.18359375 C-4.31511277 2.26806403 -5.93881022 2.35270872 -7.5625 2.4375 C-8.36236328 2.47681641 -9.16222656 2.51613281 -9.98632812 2.55664062 C-14.71371506 2.80748156 -19.32476901 3.25321814 -24 4 C-24 4.33 -24 4.66 -24 5 C-22.7625 5.12375 -21.525 5.2475 -20.25 5.375 C-17.1237803 5.75746305 -14.71120763 6.30549523 -12 8 C-12 7.34 -12 6.68 -12 6 C-11.01 6 -10.02 6 -9 6 C-8.67 5.01 -8.34 4.02 -8 3 C-5.36 3 -2.72 3 0 3 C0 14.88 0 26.76 0 39 C-0.99 38.01 -1.98 37.02 -3 36 C-3.33 37.98 -3.66 39.96 -4 42 C-24.13 42 -44.26 42 -65 42 C-65 36.06 -65 30.12 -65 24 C-57.74 23.67 -50.48 23.34 -43 23 C-43.33 22.01 -43.66 21.02 -44 20 C-43.01 19.01 -42.02 18.02 -41 17 C-41.66 15.02 -42.32 13.04 -43 11 C-43.12375 12.134375 -43.2475 13.26875 -43.375 14.4375 C-43.684375 16.2009375 -43.684375 16.2009375 -44 18 C-46.98594424 19.49297212 -49.70853624 19.11755228 -53 19 C-53.66 18.67 -54.32 18.34 -55 18 C-55.05395478 16.37536158 -55.09277195 14.75021459 -55.125 13.125 C-55.14820313 12.22007812 -55.17140625 11.31515625 -55.1953125 10.3828125 C-55 8 -55 8 -53 6 C-50.8359375 5.5859375 -50.8359375 5.5859375 -48.375 5.375 C-47.55773437 5.30023438 -46.74046875 5.22546875 -45.8984375 5.1484375 C-45.27195313 5.09945312 -44.64546875 5.05046875 -44 5 C-45.58272601 3.41727399 -47.38034003 3.65264253 -49.5625 3.4375 C-50.38878906 3.35371094 -51.21507812 3.26992187 -52.06640625 3.18359375 C-52.70449219 3.12300781 -53.34257812 3.06242188 -54 3 C-54 2.67 -54 2.34 -54 2 C-52.9627478 2.00785522 -52.9627478 2.00785522 -51.90454102 2.01586914 C-48.79053648 2.036575 -45.67654639 2.04963963 -42.5625 2.0625 C-41.47388672 2.07087891 -40.38527344 2.07925781 -39.26367188 2.08789062 C-37.71196289 2.09272461 -37.71196289 2.09272461 -36.12890625 2.09765625 C-35.17056885 2.10289307 -34.21223145 2.10812988 -33.22485352 2.11352539 C-31.02714661 2.2505313 -31.02714661 2.2505313 -30 1 C-27.78312006 0.84126045 -25.56144702 0.74866163 -23.33984375 0.68359375 C-22.67537735 0.66281265 -22.01091095 0.64203156 -21.3263092 0.62062073 C-19.19681457 0.55506342 -17.06719332 0.49621215 -14.9375 0.4375 C-13.49673153 0.39432061 -12.05597601 0.35070651 -10.61523438 0.30664062 C-7.0769596 0.19937607 -3.53854131 0.09812629 0 0 Z " fill="#E8C098" transform="translate(208,128)"/>
<path d="M0 0 C0.86368698 -0.00525696 1.72737396 -0.01051392 2.61723328 -0.01593018 C5.47612519 -0.02914898 8.33446166 -0.02038547 11.19335938 -0.01025391 C13.17728787 -0.0122741 15.16121565 -0.01518508 17.1451416 -0.01895142 C21.30467798 -0.02337732 25.46402121 -0.01693511 29.62353516 -0.00292969 C34.96040471 0.01416229 40.29682168 0.00432254 45.63367462 -0.01364708 C49.73084943 -0.0244777 53.82791659 -0.02104189 57.9250946 -0.0132637 C59.8931229 -0.0112597 61.8611609 -0.01372797 63.82917786 -0.02070236 C66.57778888 -0.02830494 69.32566275 -0.01672949 72.07421875 0 C73.2992939 -0.00910904 73.2992939 -0.00910904 74.54911804 -0.0184021 C80.03004821 0.04353056 80.03004821 0.04353056 82.5411377 1.75033569 C84.00319937 4.1546557 83.93461824 6.0970847 83.91210938 8.88818359 C83.92371094 10.32677734 83.92371094 10.32677734 83.93554688 11.79443359 C83.48039043 14.75741281 82.88479057 15.60165547 80.53710938 17.38818359 C77.39659684 18.95843986 74.03565265 18.55329227 70.58666992 18.56518555 C69.76535583 18.57175674 68.94404175 18.57832794 68.09783936 18.58509827 C65.37316807 18.60484859 62.64855194 18.6164976 59.92382812 18.62646484 C58.99413523 18.63054037 58.06444233 18.6346159 57.10657692 18.63881493 C52.18604376 18.6596829 47.26553856 18.67398156 42.3449707 18.68334961 C37.26045425 18.69441659 32.17637515 18.72881771 27.09201336 18.76852131 C23.18436362 18.79465635 19.27681858 18.80303867 15.36908913 18.80663109 C13.49479022 18.81150498 11.62049624 18.82314176 9.74628258 18.84166908 C7.12241256 18.86599497 4.49968048 18.86510771 1.87573242 18.8581543 C1.10203812 18.87096436 0.32834381 18.88377441 -0.46879578 18.89697266 C-4.16014212 18.86133232 -6.28613916 18.4984238 -9.44694519 16.52702332 C-11.46289062 14.38818359 -11.46289062 14.38818359 -12.05664062 11.69677734 C-12.02570313 10.74931641 -11.99476562 9.80185547 -11.96289062 8.82568359 C-11.95257813 7.87564453 -11.94226563 6.92560547 -11.93164062 5.94677734 C-11.46289062 3.38818359 -11.46289062 3.38818359 -10.46252441 1.75253296 C-7.25013434 -0.43927955 -3.75675319 -0.02793332 0 0 Z " fill="#ACC0D4" transform="translate(137.462890625,301.61181640625)"/>
<path d="M0 0 C35.31 0 70.62 0 107 0 C107.33 9.24 107.66 18.48 108 28 C120.87 28.495 120.87 28.495 134 29 C134 29.33 134 29.66 134 30 C121.46 30 108.92 30 96 30 C97.32 29.34 98.64 28.68 100 28 C100 23.05 100 18.1 100 13 C88.16963163 12.95373312 76.33928466 12.91815961 64.50884438 12.89637566 C59.01595497 12.88592237 53.5231273 12.87173507 48.03027344 12.84912109 C42.73294846 12.8274477 37.43568299 12.81544302 32.13831711 12.81024551 C30.11363157 12.80653984 28.08894941 12.79930396 26.06428909 12.78853989 C23.23630898 12.77409806 20.40857724 12.77201898 17.58056641 12.77294922 C16.73683975 12.76575867 15.8931131 12.75856812 15.02381897 12.75115967 C10.53883173 12.57260674 10.53883173 12.57260674 7 15 C6.60391561 17.528272 6.60391561 17.528272 6.625 20.375 C6.59664062 21.33148438 6.56828125 22.28796875 6.5390625 23.2734375 C6.83126835 26.60373083 6.83126835 26.60373083 11 30 C-1.54 30 -14.08 30 -27 30 C-27 29.67 -27 29.34 -27 29 C-26.28344238 28.98541748 -25.56688477 28.97083496 -24.82861328 28.95581055 C-21.59352017 28.88151 -18.35947981 28.78479139 -15.125 28.6875 C-13.99707031 28.66494141 -12.86914062 28.64238281 -11.70703125 28.61914062 C-10.63066406 28.58369141 -9.55429688 28.54824219 -8.4453125 28.51171875 C-6.95281982 28.47244263 -6.95281982 28.47244263 -5.43017578 28.43237305 C-4.62821777 28.28968994 -3.82625977 28.14700684 -3 28 C2.20683312 20.18975032 -0.37517006 9.37925149 0 0 Z " fill="#2E4256" transform="translate(120,290)"/>
<path d="M0 0 C1.41925781 -0.03673828 1.41925781 -0.03673828 2.8671875 -0.07421875 C3.785 -0.07808594 4.7028125 -0.08195312 5.6484375 -0.0859375 C6.90019775 -0.09826416 6.90019775 -0.09826416 8.17724609 -0.11083984 C11.6815305 0.58470434 13.23316885 1.72111511 15.625 4.375 C16.09745154 7.22799147 16.25909629 9.47321698 16.18359375 12.31640625 C16.18009666 13.46253639 16.18009666 13.46253639 16.17652893 14.63182068 C16.16680573 16.24318647 16.14505093 17.85451879 16.11206055 19.46557617 C16.06259738 21.93264307 16.05057625 24.39771609 16.04492188 26.86523438 C16.03083706 28.43231289 16.01463306 29.9993741 15.99609375 31.56640625 C15.99073105 32.30395645 15.98536835 33.04150665 15.97984314 33.80140686 C15.89347005 37.51615709 15.73737013 39.20644481 13.625 42.375 C11.05883789 42.76318359 11.05883789 42.76318359 7.84765625 42.7734375 C6.69458984 42.77730469 5.54152344 42.78117187 4.35351562 42.78515625 C3.14373047 42.77355469 1.93394531 42.76195312 0.6875 42.75 C-0.51841797 42.76160156 -1.72433594 42.77320313 -2.96679688 42.78515625 C-4.69833008 42.77935547 -4.69833008 42.77935547 -6.46484375 42.7734375 C-7.52566162 42.77005371 -8.58647949 42.76666992 -9.67944336 42.76318359 C-12.375 42.375 -12.375 42.375 -14.22167969 41.31079102 C-15.99109657 38.34091242 -15.78283388 35.36021241 -15.73828125 32.00390625 C-15.73877975 31.2851683 -15.73927826 30.56643036 -15.73979187 29.82591248 C-15.73745334 28.30700921 -15.72773767 26.78810194 -15.71118164 25.26928711 C-15.68762038 22.94935263 -15.69061799 20.63057037 -15.69726562 18.31054688 C-15.69168743 16.83332651 -15.68457666 15.35611097 -15.67578125 13.87890625 C-15.67669266 13.18712784 -15.67760406 12.49534943 -15.67854309 11.78260803 C-15.62565976 8.1725458 -15.48928744 5.37086624 -13.375 2.375 C-9.02889975 -0.52240017 -5.11307569 0.00690956 0 0 Z " fill="#151516" transform="translate(242.375,276.625)"/>
<path d="M0 0 C1.36995117 -0.0009668 1.36995117 -0.0009668 2.76757812 -0.00195312 C3.70923828 0.01802734 4.65089844 0.03800781 5.62109375 0.05859375 C6.56662109 0.05150391 7.51214844 0.04441406 8.48632812 0.03710938 C16.46582609 0.11041925 16.46582609 0.11041925 20.05859375 3.49609375 C21.83529384 8.82619403 21.28419323 14.59195794 21.29882812 20.17456055 C21.30854401 22.42208727 21.33958362 24.66870301 21.37109375 26.91601562 C21.37762335 28.34765083 21.38287399 29.77929256 21.38671875 31.2109375 C21.4007373 33.16181274 21.4007373 33.16181274 21.41503906 35.15209961 C21.0356424 38.71141203 20.77734635 40.17906889 18.05859375 42.49609375 C15.36303711 42.99780273 15.36303711 42.99780273 12.1484375 42.9921875 C10.4169043 42.9931543 10.4169043 42.9931543 8.65039062 42.99414062 C7.44447266 42.97416016 6.23855469 42.95417969 4.99609375 42.93359375 C3.18141602 42.94422852 3.18141602 42.94422852 1.33007812 42.95507812 C-5.3339188 42.90665333 -5.3339188 42.90665333 -7.94140625 42.49609375 C-10.39528524 38.81527527 -10.28149131 35.95222889 -10.3125 31.6875 C-10.32152847 30.92436996 -10.33055695 30.16123993 -10.33985901 29.37498474 C-10.35435649 27.7619926 -10.36324701 26.14894172 -10.36694336 24.53588867 C-10.37884903 22.07044374 -10.42804034 19.60749542 -10.47851562 17.14257812 C-10.48797925 15.57423095 -10.49521458 14.00586842 -10.5 12.4375 C-10.52929848 11.33421104 -10.52929848 11.33421104 -10.55918884 10.20863342 C-10.52654082 6.49814607 -10.23547211 4.82176573 -7.71533203 2.03076172 C-4.82320689 0.43070023 -3.2663531 -0.0073087 0 0 Z " fill="#1A1B1C" transform="translate(98.94140625,276.50390625)"/>
<path d="M0 0 C1.09441406 -0.00386719 1.09441406 -0.00386719 2.2109375 -0.0078125 C5.0366567 0.14764778 7.83351271 0.65975212 10.625 1.125 C10.625 19.935 10.625 38.745 10.625 58.125 C3.69736842 60.43421053 3.69736842 60.43421053 -0.5 60.5 C-1.32757813 60.52835937 -2.15515625 60.55671875 -3.0078125 60.5859375 C-5.375 60.125 -5.375 60.125 -7.6640625 58.7109375 C-10.28753469 54.74578091 -9.80312908 51.01320712 -9.625 46.375 C-9.60695312 45.48683594 -9.58890625 44.59867188 -9.5703125 43.68359375 C-9.52327374 41.49629152 -9.45757009 39.31120184 -9.375 37.125 C-8.405625 36.856875 -7.43625 36.58875 -6.4375 36.3125 C-4.9215625 35.7246875 -4.9215625 35.7246875 -3.375 35.125 C-2.48285348 32.44856043 -2.23959789 30.87115622 -2.25 28.125 C-2.24742187 27.444375 -2.24484375 26.76375 -2.2421875 26.0625 C-2.30868874 23.90625219 -2.30868874 23.90625219 -3.375 21.125 C-5.48084438 20.31936362 -5.48084438 20.31936362 -7.9375 19.9375 C-9.17693359 19.69966797 -9.17693359 19.69966797 -10.44140625 19.45703125 C-11.39853516 19.29267578 -11.39853516 19.29267578 -12.375 19.125 C-12.2877395 16.87428094 -12.17955885 14.62436612 -12.0625 12.375 C-12.00449219 11.12203125 -11.94648437 9.8690625 -11.88671875 8.578125 C-11.36368202 5.04862526 -10.94508154 3.54805171 -8.375 1.125 C-5.60202182 0.04976356 -2.95525408 -0.01036931 0 0 Z " fill="#BF392D" transform="translate(139.375,204.875)"/>
<path d="M0 0 C19.47 0 38.94 0 59 0 C59 5.61 59 11.22 59 17 C39.53 17 20.06 17 0 17 C0 11.39 0 5.78 0 0 Z " fill="#2C190C" transform="translate(144,153)"/>
<path d="M0 0 C0.94488281 -0.01417969 1.88976562 -0.02835938 2.86328125 -0.04296875 C5.6875 0.1875 5.6875 0.1875 10.6875 2.1875 C10.6875 6.8075 10.6875 11.4275 10.6875 16.1875 C7.7175 16.6825 7.7175 16.6825 4.6875 17.1875 C3.84919704 20.10825397 3.55222639 22.71414783 3.5625 25.75 C3.55992187 26.51441406 3.55734375 27.27882812 3.5546875 28.06640625 C3.60842616 30.37748495 3.60842616 30.37748495 4.6875 33.1875 C5.6775 33.6825 5.6775 33.6825 6.6875 34.1875 C6.6875 34.8475 6.6875 35.5075 6.6875 36.1875 C8.0075 36.1875 9.3275 36.1875 10.6875 36.1875 C10.82260253 39.10571463 10.9216305 42.01767652 11 44.9375 C11.04189453 45.7625 11.08378906 46.5875 11.12695312 47.4375 C11.14306641 48.23671875 11.15917969 49.0359375 11.17578125 49.859375 C11.20196533 50.5925293 11.22814941 51.32568359 11.25512695 52.08105469 C10.34770089 55.44848354 8.63505363 56.4357441 5.6875 58.1875 C2.97124631 58.53041942 0.6810759 58.65822866 -2.01953125 58.578125 C-2.74492599 58.57246521 -3.47032074 58.56680542 -4.21769714 58.56097412 C-6.52082008 58.53869099 -8.82235224 58.48851487 -11.125 58.4375 C-12.69203472 58.41742434 -14.25909399 58.39917543 -15.82617188 58.3828125 C-19.65555519 58.33885337 -23.48375846 58.26988623 -27.3125 58.1875 C-27.3125 57.8575 -27.3125 57.5275 -27.3125 57.1875 C-25.3325 57.1875 -23.3525 57.1875 -21.3125 57.1875 C-20.9825 56.1975 -20.6525 55.2075 -20.3125 54.1875 C-16.0225 54.1875 -11.7325 54.1875 -7.3125 54.1875 C-7.3125 36.6975 -7.3125 19.2075 -7.3125 1.1875 C-4.75330818 -0.09209591 -2.85765972 0.01933464 0 0 Z " fill="#BF392C" transform="translate(206.3125,206.8125)"/>
<path d="M0 0 C1.99057655 1.59246124 2.05222162 2.81255376 2.5625 5.25 C3.31273438 5.22679687 4.06296875 5.20359375 4.8359375 5.1796875 C19.06602426 4.92877917 19.06602426 4.92877917 24.5625 7.25 C27.15847361 11.02302997 27.00641025 14.83807572 26.5625 19.25 C25.75 21.6875 25.75 21.6875 24.5625 23.25 C20.98899238 24.44116921 17.69526766 24.44985791 13.97265625 24.48828125 C13.23172226 24.496353 12.49078827 24.50442474 11.72740173 24.51274109 C10.16147181 24.52655712 8.59551208 24.53729035 7.02954102 24.54516602 C4.6369543 24.56241382 2.24573776 24.60632273 -0.14648438 24.65039062 C-1.66926069 24.66051529 -3.19204873 24.66903211 -4.71484375 24.67578125 C-5.78532204 24.70204338 -5.78532204 24.70204338 -6.87742615 24.72883606 C-10.28243465 24.71398399 -12.1246445 24.4822682 -14.89135742 22.42822266 C-17.08440988 19.33862625 -16.90053727 17.06208752 -16.8125 13.3125 C-16.79960938 12.10722656 -16.78671875 10.90195313 -16.7734375 9.66015625 C-16.45435077 6.42105488 -15.8936927 4.14128116 -14.4375 1.25 C-10.50707333 -1.92457539 -4.59870613 -1.4149865 0 0 Z " fill="#DFBC95" transform="translate(111.4375,217.75)"/>
<path d="M0 0 C1.90184275 1.58486896 2.89194229 2.78388457 4 5 C4.12419345 7.49253376 4.18515513 9.94490756 4.1875 12.4375 C4.19974609 13.11876953 4.21199219 13.80003906 4.22460938 14.50195312 C4.23555848 18.22829809 4.12005619 19.81991571 2 23 C-1.62763442 24.48303557 -5.64077501 24.16175436 -9.50390625 24.16796875 C-10.22360092 24.17129715 -10.94329559 24.17462555 -11.68479919 24.17805481 C-13.20188764 24.18310474 -14.71898714 24.18546373 -16.23608398 24.18530273 C-18.55796463 24.18749572 -20.8793748 24.20568903 -23.20117188 24.22460938 C-24.67708171 24.2275424 -26.1529938 24.2295278 -27.62890625 24.23046875 C-28.66961021 24.24124702 -28.66961021 24.24124702 -29.7313385 24.25224304 C-33.38774964 24.23487069 -34.86838859 24.08774094 -38 22 C-38.90630855 19.28107436 -39.22201578 17.38656013 -39.3125 14.5625 C-39.34988281 13.80066406 -39.38726562 13.03882813 -39.42578125 12.25390625 C-39 10 -39 10 -37.62109375 7.73046875 C-33.52570408 5.02665709 -29.53643451 5.57570407 -24.75 5.75 C-23.81414062 5.76804688 -22.87828125 5.78609375 -21.9140625 5.8046875 C-19.60832985 5.85174327 -17.30469055 5.91746287 -15 6 C-14.87625 5.20335937 -14.7525 4.40671875 -14.625 3.5859375 C-14 1 -14 1 -12 -0.375 C-7.91615259 -1.22580154 -4.03273997 -1.12524018 0 0 Z " fill="#E4C098" transform="translate(248,218)"/>
<path d="M0 0 C-1 1 -1 1 -3.94140625 1.09765625 C-7.29427083 1.06510417 -10.64713542 1.03255208 -14 1 C-13.67 7.93 -13.34 14.86 -13 22 C-5.74 22.33 1.52 22.66 9 23 C9 23.33 9 23.66 9 24 C4.38 24 -0.24 24 -5 24 C-5 41.82 -5 59.64 -5 78 C-10.28 78 -15.56 78 -21 78 C-21 73.05 -21 68.1 -21 63 C-18.03 63 -15.06 63 -12 63 C-12 60.03 -12 57.06 -12 54 C-14.97 54 -17.94 54 -21 54 C-21 46.08 -21 38.16 -21 30 C-19.02 30 -17.04 30 -15 30 C-15 20.1 -15 10.2 -15 0 C-2 -1 -2 -1 0 0 Z " fill="#2071A3" transform="translate(203,182)"/>
<path d="M0 0 C4.29 0 8.58 0 13 0 C13 9.9 13 19.8 13 30 C14.65 30 16.3 30 18 30 C18 37.92 18 45.84 18 54 C15.36 54 12.72 54 10 54 C10 56.97 10 59.94 10 63 C12.64 63 15.28 63 18 63 C18 67.95 18 72.9 18 78 C13.38 78 8.76 78 4 78 C4 59.85 4 41.7 4 23 C7.465 22.505 7.465 22.505 11 22 C11.33 15.07 11.66 8.14 12 1 C8.04 1 4.08 1 0 1 C0 0.67 0 0.34 0 0 Z " fill="#2271A2" transform="translate(146,182)"/>
<path d="M0 0 C0.66 0 1.32 0 2 0 C2 0.66 2 1.32 2 2 C5.95862931 1.86157705 9.91681327 1.71300994 13.875 1.5625 C15.00292969 1.52318359 16.13085938 1.48386719 17.29296875 1.44335938 C18.36933594 1.40146484 19.44570312 1.35957031 20.5546875 1.31640625 C22.04718018 1.26141968 22.04718018 1.26141968 23.56982422 1.20532227 C26.00779501 1.15040468 26.00779501 1.15040468 28 0 C28.05454409 2.35448675 28.0939279 4.70767875 28.125 7.0625 C28.14820312 8.37347656 28.17140625 9.68445313 28.1953125 11.03515625 C27.99417522 15.11824299 27.27165462 18.14999053 26 22 C21.68751391 22.02886537 17.37505238 22.04675255 13.0625 22.0625 C11.83080078 22.07087891 10.59910156 22.07925781 9.33007812 22.08789062 C8.16025391 22.09111328 6.99042969 22.09433594 5.78515625 22.09765625 C4.15912476 22.10551147 4.15912476 22.10551147 2.50024414 22.11352539 C0 22 0 22 -1 21 C-1.09862603 19.60825641 -1.1307898 18.21163857 -1.1328125 16.81640625 C-1.13410156 15.97142578 -1.13539062 15.12644531 -1.13671875 14.25585938 C-1.13091797 12.92264648 -1.13091797 12.92264648 -1.125 11.5625 C-1.12886719 10.67755859 -1.13273437 9.79261719 -1.13671875 8.88085938 C-1.13478516 7.61145508 -1.13478516 7.61145508 -1.1328125 6.31640625 C-1.13168457 5.53724854 -1.13055664 4.75809082 -1.12939453 3.95532227 C-1 2 -1 2 0 0 Z " fill="#111111" transform="translate(91,297)"/>
<path d="M0 0 C2.64 0 5.28 0 8 0 C8 11.88 8 23.76 8 36 C7.01 35.01 6.02 34.02 5 33 C4.67 34.98 4.34 36.96 4 39 C3.67 39 3.34 39 3 39 C3 33.39 3 27.78 3 22 C-16.47 22 -35.94 22 -56 22 C-56 27.61 -56 33.22 -56 39 C-56.33 39 -56.66 39 -57 39 C-57 33.06 -57 27.12 -57 21 C-34.725 20.505 -34.725 20.505 -12 20 C-12 19.01 -12 18.02 -12 17 C-10.68 16.67 -9.36 16.34 -8 16 C-9.11375 16.020625 -10.2275 16.04125 -11.375 16.0625 C-15 16 -15 16 -17 15 C-17.02688151 13.35425434 -17.04634123 11.70838587 -17.0625 10.0625 C-17.07410156 9.14597656 -17.08570313 8.22945312 -17.09765625 7.28515625 C-17 5 -17 5 -16 4 C-14.5444063 3.90141397 -13.08392081 3.87027857 -11.625 3.875 C-10.83351562 3.87242187 -10.04203125 3.86984375 -9.2265625 3.8671875 C-7 4 -7 4 -4 5 C-4 4.34 -4 3.68 -4 3 C-3.01 3 -2.02 3 -1 3 C-0.67 2.01 -0.34 1.02 0 0 Z " fill="#D5B38C" transform="translate(200,131)"/>
<path d="M0 0 C1.11306519 -0.0038269 2.22613037 -0.00765381 3.3729248 -0.01159668 C5.72307237 -0.01431514 8.07325022 -0.0069587 10.42333984 0.00976562 C14.01859049 0.03117462 17.61184269 0.00996003 21.20703125 -0.015625 C23.49219191 -0.01298171 25.77735132 -0.00785672 28.0625 0 C29.13657104 -0.00809692 30.21064209 -0.01619385 31.31726074 -0.02453613 C38.75553125 0.06882629 38.75553125 0.06882629 42.7175293 2.43066406 C44.53125 4.53125 44.53125 4.53125 45.01953125 6.671875 C44.85677083 8.625 44.69401042 10.578125 44.53125 12.53125 C45.60375 12.61375 46.67625 12.69625 47.78125 12.78125 C51.83845568 13.59269114 53.02584594 14.35131408 55.53125 17.53125 C57.51467115 21.49809231 56.75998705 26.48218738 56.78125 30.84375 C56.801875 31.88982422 56.8225 32.93589844 56.84375 34.01367188 C56.85148437 35.53250977 56.85148437 35.53250977 56.859375 37.08203125 C56.8687207 38.00669189 56.87806641 38.93135254 56.88769531 39.8840332 C56.33281107 44.00499885 54.42807258 46.63442742 51.53125 49.53125 C51.20147394 51.54958943 51.20147394 51.54958943 51.21240234 53.88916016 C51.19253265 54.78994293 51.17266296 55.69072571 51.15219116 56.61880493 C51.14063995 57.59280243 51.12908875 58.56679993 51.1171875 59.5703125 C51.09782135 60.56630463 51.0784552 61.56229675 51.0585022 62.58847046 C50.99860035 65.7776425 50.95227862 68.96685043 50.90625 72.15625 C50.86807999 74.31512013 50.82902884 76.47397488 50.7890625 78.6328125 C50.6928903 83.93215534 50.60787411 89.23159043 50.53125 94.53125 C50.20125 94.53125 49.87125 94.53125 49.53125 94.53125 C49.42973443 88.07183268 49.35973624 81.61262148 49.31152344 75.15258789 C49.29142233 72.95556958 49.26413694 70.75860468 49.22949219 68.56176758 C49.18090907 65.40172134 49.15826595 62.24238313 49.140625 59.08203125 C49.11997986 58.10164383 49.09933472 57.12125641 49.07806396 56.11116028 C49.07618062 50.37257346 49.59664363 47.91157349 53.53125 43.53125 C54.07674962 40.54420435 54.07674962 40.54420435 53.921875 37.35546875 C53.90253906 35.62006836 53.90253906 35.62006836 53.8828125 33.84960938 C53.84929687 32.65142578 53.81578125 31.45324219 53.78125 30.21875 C53.76320313 29.00123047 53.74515625 27.78371094 53.7265625 26.52929688 C53.6795086 23.52961045 53.60776797 20.53032948 53.53125 17.53125 C49.90125 16.87125 46.27125 16.21125 42.53125 15.53125 C42.3359375 12.69921875 42.140625 9.8671875 41.9453125 7.03515625 C41.74035156 5.79572266 41.74035156 5.79572266 41.53125 4.53125 C39.08815106 3.30970053 37.50838335 3.40434751 34.77783203 3.40185547 C33.78985626 3.39870331 32.80188049 3.39555115 31.78396606 3.39230347 C30.1777388 3.39533981 30.1777388 3.39533981 28.5390625 3.3984375 C26.89283401 3.39700241 26.89283401 3.39700241 25.21334839 3.39553833 C22.88816267 3.39485683 20.56297505 3.39670904 18.23779297 3.40087891 C14.67801631 3.40621736 11.11836641 3.40093815 7.55859375 3.39453125 C5.30208305 3.39519224 3.04557244 3.39647383 0.7890625 3.3984375 C-0.27770721 3.39641327 -1.34447693 3.39438904 -2.443573 3.39230347 C-3.93499313 3.39703171 -3.93499313 3.39703171 -5.45654297 3.40185547 C-6.76653763 3.40304886 -6.76653763 3.40304886 -8.10299683 3.40426636 C-10.3589217 3.52535488 -12.30546069 3.90035748 -14.46875 4.53125 C-14.448125 5.789375 -14.4275 7.0475 -14.40625 8.34375 C-14.35988917 11.17176087 -14.55182039 12.78046116 -15.46875 15.53125 C-17.48554084 16.20055861 -19.4617806 16.47751799 -21.55859375 16.80859375 C-23.60384394 17.36420538 -23.60384394 17.36420538 -24.56225586 19.2512207 C-25.60041683 21.86242063 -25.78496306 23.9293578 -25.8828125 26.734375 C-25.92148438 27.7140625 -25.96015625 28.69375 -26 29.703125 C-26.0309375 30.71890625 -26.061875 31.7346875 -26.09375 32.78125 C-26.13242188 33.8125 -26.17109375 34.84375 -26.2109375 35.90625 C-26.30506674 38.4477394 -26.39069979 40.98922433 -26.46875 43.53125 C-25.829375 43.82 -25.19 44.10875 -24.53125 44.40625 C-22.46875 45.53125 -22.46875 45.53125 -21.46875 47.53125 C1.63125 47.86125 24.73125 48.19125 48.53125 48.53125 C48.53125 48.86125 48.53125 49.19125 48.53125 49.53125 C25.43125 49.53125 2.33125 49.53125 -21.46875 49.53125 C-21.46875 64.38125 -21.46875 79.23125 -21.46875 94.53125 C-21.79875 94.53125 -22.12875 94.53125 -22.46875 94.53125 C-22.47421844 93.69892853 -22.47421844 93.69892853 -22.47979736 92.84979248 C-22.5216084 87.07440306 -22.59094341 81.2998094 -22.67626953 75.52490234 C-22.70449499 73.36970987 -22.72570165 71.21441357 -22.73974609 69.05908203 C-22.76115347 65.9607217 -22.8077932 62.86361173 -22.859375 59.765625 C-22.86060364 58.80195007 -22.86183228 57.83827515 -22.86309814 56.84539795 C-22.87680922 51.54033598 -22.87680922 51.54033598 -25.44433594 47.07910156 C-26.11239258 46.56831055 -26.78044922 46.05751953 -27.46875 45.53125 C-29.04197611 40.81157168 -28.653227 36.03635529 -28.65625 31.09375 C-28.66849609 30.04380859 -28.68074219 28.99386719 -28.69335938 27.91210938 C-28.69529297 26.90083984 -28.69722656 25.88957031 -28.69921875 24.84765625 C-28.70332764 23.92412354 -28.70743652 23.00059082 -28.71166992 22.04907227 C-28.45329312 19.37104216 -27.90564106 17.79072938 -26.46875 15.53125 C-23.05505532 12.94791348 -20.7325599 12.16578058 -16.46875 12.53125 C-16.6234375 10.675 -16.6234375 10.675 -16.78125 8.78125 C-16.95703125 6.671875 -16.95703125 6.671875 -16.46875 4.53125 C-11.90009848 -0.75999749 -6.47109221 -0.04878257 0 0 Z " fill="#94584B" transform="translate(159.46875,79.46875)"/>
<path d="M0 0 C0.66 0.33 1.32 0.66 2 1 C1.67 1.99 1.34 2.98 1 4 C2.65 4 4.3 4 6 4 C5.67 5.32 5.34 6.64 5 8 C5.66 8 6.32 8 7 8 C7.33 6.68 7.66 5.36 8 4 C8.02726927 6.35424675 8.04696719 8.70816962 8.0625 11.0625 C8.07410156 12.37347656 8.08570313 13.68445313 8.09765625 15.03515625 C8.00452335 18.8163519 7.61448726 22.27920707 7 26 C5.68 26 4.36 26 3 26 C3 27.32 3 28.64 3 30 C-0.13850064 30.92553743 -2.93680778 31.11664647 -6.203125 31.09765625 C-7.1828125 31.09443359 -8.1625 31.09121094 -9.171875 31.08789062 C-10.18765625 31.07951172 -11.2034375 31.07113281 -12.25 31.0625 C-13.796875 31.05573242 -13.796875 31.05573242 -15.375 31.04882812 C-17.91672573 31.03706088 -20.45833319 31.02062011 -23 31 C-20.73881962 28.25584905 -19.52405508 27.10589714 -15.984375 26.390625 C-12.98958333 26.26041667 -9.99479167 26.13020833 -7 26 C-6.67 20.06 -6.34 14.12 -6 8 C-5.67 8.66 -5.34 9.32 -5 10 C-4.34 10 -3.68 10 -3 10 C-3 9.01 -3 8.02 -3 7 C-2.34 7 -1.68 7 -1 7 C-1.020625 6.030625 -1.04125 5.06125 -1.0625 4.0625 C-1 1 -1 1 0 0 Z " fill="#C0392B" transform="translate(173,234)"/>
<path d="M0 0 C-1 1 -1 1 -3.94140625 1.09765625 C-7.29427083 1.06510417 -10.64713542 1.03255208 -14 1 C-13.67 7.93 -13.34 14.86 -13 22 C-5.74 22.33 1.52 22.66 9 23 C9 23.33 9 23.66 9 24 C4.38 24 -0.24 24 -5 24 C-5 41.82 -5 59.64 -5 78 C-10.28 78 -15.56 78 -21 78 C-21 73.05 -21 68.1 -21 63 C-18.03 63 -15.06 63 -12 63 C-12 60.03 -12 57.06 -12 54 C-14.97 54 -17.94 54 -21 54 C-21 46.08 -21 38.16 -21 30 C-19.02 30 -17.04 30 -15 30 C-15 20.1 -15 10.2 -15 0 C-2 -1 -2 -1 0 0 Z M-13 26 C-13 27.65 -13 29.3 -13 31 C-14.98 31 -16.96 31 -19 31 C-19 38.26 -19 45.52 -19 53 C-16.36 53.33 -13.72 53.66 -11 54 C-10.67 57.3 -10.34 60.6 -10 64 C-14.455 64.495 -14.455 64.495 -19 65 C-19 68.96 -19 72.92 -19 77 C-15.04 77 -11.08 77 -7 77 C-7 60.17 -7 43.34 -7 26 C-10.74691447 24.60229416 -10.74691447 24.60229416 -13 26 Z " fill="#676775" transform="translate(203,182)"/>
<path d="M0 0 C7.92 0 15.84 0 24 0 C24 3.96 24 7.92 24 12 C16.08 12 8.16 12 0 12 C0 8.04 0 4.08 0 0 Z " fill="#313131" transform="translate(230,287)"/>
<path d="M0 0 C7.92 0 15.84 0 24 0 C24 3.96 24 7.92 24 12 C16.08 12 8.16 12 0 12 C0 8.04 0 4.08 0 0 Z " fill="#313131" transform="translate(93,287)"/>
<path d="M0 0 C-1 1 -1 1 -3.68383789 1.11352539 C-4.85164795 1.10828857 -6.01945801 1.10305176 -7.22265625 1.09765625 C-8.48271484 1.09443359 -9.74277344 1.09121094 -11.04101562 1.08789062 C-12.38151109 1.07953403 -13.72200588 1.07106907 -15.0625 1.0625 C-16.40689942 1.0574866 -17.7513006 1.05292342 -19.09570312 1.04882812 C-22.39717941 1.03699488 -25.69856803 1.02050971 -29 1 C-29 4.3 -29 7.6 -29 11 C-28.01 11.495 -28.01 11.495 -27 12 C-27.99 12 -28.98 12 -30 12 C-29.9175 13.2375 -29.835 14.475 -29.75 15.75 C-29.55617913 18.65731302 -29.79059816 19.71211559 -31.52854919 22.10144043 C-34.89822402 24.69001244 -37.85399255 24.5617612 -41.93383789 24.51757812 C-42.7293959 24.5245874 -43.52495392 24.53159668 -44.34461975 24.53881836 C-46.97098825 24.55640593 -49.59627705 24.54477453 -52.22265625 24.53125 C-54.04821479 24.53394444 -55.87377193 24.53782646 -57.69932556 24.54284668 C-61.5234037 24.54874252 -65.34710792 24.54017511 -69.17114258 24.52148438 C-74.07654305 24.4986785 -78.98106893 24.51182753 -83.88643742 24.53577423 C-87.65509147 24.55021619 -91.42353754 24.5456339 -95.1921978 24.53526306 C-97.00113465 24.53259217 -98.8100903 24.53587825 -100.6190052 24.54518127 C-103.14503268 24.55532251 -105.66963551 24.53988192 -108.19555664 24.51757812 C-109.32009247 24.52972351 -109.32009247 24.52972351 -110.46734619 24.54211426 C-113.78107607 24.48781188 -115.52976816 24.45330188 -117.96946716 22.10144043 C-119.66691286 18.64004562 -119.19052148 15.81042965 -119 12 C-119.99 11.67 -120.98 11.34 -122 11 C-121.34 11 -120.68 11 -120 11 C-120 7.7 -120 4.4 -120 1 C-129.24 1 -138.48 1 -148 1 C-148 0.67 -148 0.34 -148 0 C-138.1 0 -128.2 0 -118 0 C-116.13011036 3.73977929 -117.05665689 8.6472077 -117.21484375 12.79101562 C-117.4413282 17.04992602 -117.4413282 17.04992602 -115.62792969 20.72583008 C-113.39578632 22.4729141 -111.92790315 22.33519462 -109.125 22.25 C-108.24328125 22.22421875 -107.3615625 22.1984375 -106.453125 22.171875 C-103.89952634 21.99296044 -101.47588001 21.66023467 -99 21 C-98.505 19.515 -98.505 19.515 -98 18 C-93.38 18 -88.76 18 -84 18 C-84 18.33 -84 18.66 -84 19 C-84.68707031 19.04898437 -85.37414062 19.09796875 -86.08203125 19.1484375 C-86.98308594 19.22320312 -87.88414062 19.29796875 -88.8125 19.375 C-89.70582031 19.44460938 -90.59914062 19.51421875 -91.51953125 19.5859375 C-94.24398499 19.86645036 -94.24398499 19.86645036 -97 22 C-89.11570473 22.06953763 -81.23153778 22.12283008 -73.34701157 22.15543652 C-69.68582063 22.17108671 -66.02483964 22.19231272 -62.36376953 22.22631836 C-58.83002918 22.25893557 -55.29649066 22.27685788 -51.76261139 22.28463173 C-49.75954018 22.29286531 -47.75655007 22.31628107 -45.75360107 22.33988953 C-44.53263733 22.34011612 -43.31167358 22.34034271 -42.05371094 22.34057617 C-40.97893494 22.34723801 -39.90415894 22.35389984 -38.79681396 22.36076355 C-35.63524184 21.95294952 -34.27140227 21.19939526 -32 19 C-31.36530602 16.99151049 -31.36530602 16.99151049 -31.390625 14.76953125 C-31.35839844 13.96708984 -31.32617188 13.16464844 -31.29296875 12.33789062 C-31.27878906 11.50451172 -31.26460938 10.67113281 -31.25 9.8125 C-31.20552734 8.5450293 -31.20552734 8.5450293 -31.16015625 7.25195312 C-31.0895301 5.16848178 -31.04249205 3.08423494 -31 1 C-32.32 0.67 -33.64 0.34 -35 0 C-30.33712319 -0.16748075 -25.67407963 -0.32805376 -21.01074219 -0.48217773 C-19.42376271 -0.53560756 -17.83684605 -0.59093771 -16.25 -0.64819336 C-13.97149196 -0.73007724 -11.69284678 -0.80516524 -9.4140625 -0.87890625 C-8.34679428 -0.91945885 -8.34679428 -0.91945885 -7.25796509 -0.96083069 C-2.22774341 -1.11387171 -2.22774341 -1.11387171 0 0 Z " fill="#824541" transform="translate(248,242)"/>
<path d="M0 0 C1.09441406 -0.00386719 1.09441406 -0.00386719 2.2109375 -0.0078125 C5.0366567 0.14764778 7.83351271 0.65975212 10.625 1.125 C10.625 18.945 10.625 36.765 10.625 55.125 C9.965 55.125 9.305 55.125 8.625 55.125 C8.59994385 54.08794922 8.5748877 53.05089844 8.54907227 51.98242188 C8.45332886 48.05346863 8.35354963 44.12462562 8.25268555 40.19580078 C8.20995554 38.51060605 8.16825204 36.82538491 8.12768555 35.14013672 C7.86138339 24.1132548 7.40292757 13.12861839 6.625 2.125 C5.68769043 2.28347412 4.75038086 2.44194824 3.78466797 2.60522461 C1.10558274 3.04594262 -1.55117751 3.40126125 -4.25 3.6875 C-5.61125 3.831875 -6.9725 3.97625 -8.375 4.125 C-8.705 9.075 -9.035 14.025 -9.375 19.125 C-10.365 18.795 -11.355 18.465 -12.375 18.125 C-12.28766027 16.04089342 -12.17947722 13.95765331 -12.0625 11.875 C-12.00449219 10.71484375 -11.94648437 9.5546875 -11.88671875 8.359375 C-11.34886047 4.95978219 -10.83684908 3.49107921 -8.375 1.125 C-5.60202182 0.04976356 -2.95525408 -0.01036931 0 0 Z " fill="#9B4846" transform="translate(139.375,204.875)"/>
<path d="M0 0 C4.29 0 8.58 0 13 0 C13 9.9 13 19.8 13 30 C12.34 30 11.68 30 11 30 C11 28.68 11 27.36 11 26 C9.02 26 7.04 26 5 26 C5 42.83 5 59.66 5 77 C8.96 77 12.92 77 17 77 C17 73.04 17 69.08 17 65 C14.36 65 11.72 65 9 65 C9 61.37 9 57.74 9 54 C9.33 54 9.66 54 10 54 C10 56.97 10 59.94 10 63 C12.64 63 15.28 63 18 63 C18 67.95 18 72.9 18 78 C13.38 78 8.76 78 4 78 C4 59.85 4 41.7 4 23 C7.465 22.505 7.465 22.505 11 22 C11.33 15.07 11.66 8.14 12 1 C8.04 1 4.08 1 0 1 C0 0.67 0 0.34 0 0 Z " fill="#5F6E7F" transform="translate(146,182)"/>
<path d="M0 0 C5.94 0 11.88 0 18 0 C22.33379852 5.77839803 21.21397731 9.86742294 21 17 C25.62 17 30.24 17 35 17 C35 17.33 35 17.66 35 18 C34.40985107 18.02505615 33.81970215 18.0501123 33.21166992 18.07592773 C30.53673186 18.19200052 27.8621362 18.31467572 25.1875 18.4375 C23.7943457 18.49647461 23.7943457 18.49647461 22.37304688 18.55664062 C21.48037109 18.59853516 20.58769531 18.64042969 19.66796875 18.68359375 C18.84578857 18.72025146 18.0236084 18.75690918 17.17651367 18.79467773 C14.82094822 18.93427772 14.82094822 18.93427772 12 20 C12.33 19.01 12.66 18.02 13 17 C14.98 17 16.96 17 19 17 C19 12.38 19 7.76 19 3 C12.72524512 1.57508171 12.72524512 1.57508171 1 2 C1 19.49 1 36.98 1 55 C-4.61 55 -10.22 55 -16 55 C-16 54.67 -16 54.34 -16 54 C-10.72 54 -5.44 54 0 54 C0 36.18 0 18.36 0 0 Z " fill="#A74445" transform="translate(198,206)"/>
<path d="M0 0 C1.20462891 -0.02126953 1.20462891 -0.02126953 2.43359375 -0.04296875 C4.5625 0.1875 4.5625 0.1875 6.5625 2.1875 C7.10837156 8.19208716 7.10837156 8.19208716 5.5 11.125 C2.51376663 12.76261185 -0.10313234 12.42999947 -3.4375 12.1875 C-4.0975 11.8575 -4.7575 11.5275 -5.4375 11.1875 C-5.46438151 9.54175434 -5.48384123 7.89588587 -5.5 6.25 C-5.51160156 5.33347656 -5.52320313 4.41695312 -5.53515625 3.47265625 C-5.36351574 -0.54373162 -3.5596395 0.02847712 0 0 Z " fill="#281408" transform="translate(158.4375,134.8125)"/>
<path d="M0 0 C0.8146875 0.00257813 1.629375 0.00515625 2.46875 0.0078125 C3.2834375 0.00523437 4.098125 0.00265625 4.9375 0 C6.96875 0.1328125 6.96875 0.1328125 7.96875 1.1328125 C8.04080511 2.81890216 8.05261068 4.50781909 8.03125 6.1953125 C8.02222656 7.11441406 8.01320312 8.03351563 8.00390625 8.98046875 C7.99230469 9.69074219 7.98070312 10.40101563 7.96875 11.1328125 C4.98280576 12.62578462 2.26021376 12.25036478 -1.03125 12.1328125 C-1.69125 11.8028125 -2.35125 11.4728125 -3.03125 11.1328125 C-3.05813151 9.48706684 -3.07759123 7.84119837 -3.09375 6.1953125 C-3.10535156 5.27878906 -3.11695313 4.36226562 -3.12890625 3.41796875 C-3.00402422 0.49572926 -2.91184986 0.19039018 0 0 Z " fill="#231005" transform="translate(186.03125,134.8671875)"/>
<path d="M0 0 C1.65 0 3.3 0 5 0 C5 7.92 5 15.84 5 24 C2.36 24 -0.28 24 -3 24 C-3 23.67 -3 23.34 -3 23 C-0.69 23 1.62 23 4 23 C4 20.69 4 18.38 4 16 C0.04 16 -3.92 16 -8 16 C-8 11.71 -8 7.42 -8 3 C-7.01 3.33 -6.02 3.66 -5 4 C-4.67 3.34 -4.34 2.68 -4 2 C-3.49166409 3.24663331 -2.99368855 4.49749387 -2.5 5.75 C-2.2215625 6.44609375 -1.943125 7.1421875 -1.65625 7.859375 C-1 10 -1 10 -1 14 C0.65 14 2.3 14 4 14 C4 9.71 4 5.42 4 1 C2.68 0.67 1.36 0.34 0 0 Z " fill="#326E9C" transform="translate(159,212)"/>
<path d="M0 0 C0.33 0 0.66 0 1 0 C1 3.63 1 7.26 1 11 C-1.01822917 11.390625 -3.03645833 11.78125 -5.0546875 12.171875 C-7.12477282 12.83597351 -7.12477282 12.83597351 -8.09570312 14.7265625 C-9.13305601 17.33450799 -9.31632635 19.40135539 -9.4140625 22.203125 C-9.45273438 23.1828125 -9.49140625 24.1625 -9.53125 25.171875 C-9.5621875 26.18765625 -9.593125 27.2034375 -9.625 28.25 C-9.66367188 29.28125 -9.70234375 30.3125 -9.7421875 31.375 C-9.83631674 33.9164894 -9.92194979 36.45797433 -10 39 C-9.360625 39.268125 -8.72125 39.53625 -8.0625 39.8125 C-6 41 -6 41 -5 44 C-8 44 -8 44 -9.625 42.6875 C-13.26106598 38.22505539 -12.18417729 31.99513815 -12.1875 26.5625 C-12.19974609 25.51255859 -12.21199219 24.46261719 -12.22460938 23.38085938 C-12.22654297 22.36958984 -12.22847656 21.35832031 -12.23046875 20.31640625 C-12.23457764 19.39287354 -12.23868652 18.46934082 -12.24291992 17.51782227 C-11.98454312 14.83979216 -11.43689106 13.25947938 -10 11 C-6.58630532 8.41666348 -4.2638099 7.63453058 0 8 C0 5.36 0 2.72 0 0 Z " fill="#8B413D" transform="translate(143,84)"/>
<path d="M0 0 C0.33 0 0.66 0 1 0 C1 16.83 1 33.66 1 51 C-2.96 51 -6.92 51 -11 51 C-11 47.04 -11 43.08 -11 39 C-10.67 39 -10.34 39 -10 39 C-10 42.63 -10 46.26 -10 50 C-9.01 49.505 -9.01 49.505 -8 49 C-7.59270772 46.67843403 -7.25561323 44.3431213 -7 42 C-6.34 42 -5.68 42 -5 42 C-4.34 44.64 -3.68 47.28 -3 50 C-2.01 50 -1.02 50 0 50 C0 33.5 0 17 0 0 Z " fill="#386D9A" transform="translate(195,208)"/>
<path d="M0 0 C2.97 0 5.94 0 9 0 C9 2.97 9 5.94 9 9 C6.03 9 3.06 9 0 9 C0 6.03 0 3.06 0 0 Z " fill="#DAC572" transform="translate(182,236)"/>
<path d="M0 0 C2.97 0 5.94 0 9 0 C9 2.97 9 5.94 9 9 C6.03 9 3.06 9 0 9 C0 6.03 0 3.06 0 0 Z " fill="#E5C859" transform="translate(156,236)"/>
<path d="M0 0 C1.76949095 -0.10815225 3.54087487 -0.18566083 5.3125 -0.25 C6.29863281 -0.29640625 7.28476563 -0.3428125 8.30078125 -0.390625 C11 0 11 0 12.84375 1.59375 C15.14564096 6.38417174 14.15581554 11.8061487 14 17 C18.62 17 23.24 17 28 17 C28 17.33 28 17.66 28 18 C27.40985107 18.02505615 26.81970215 18.0501123 26.21166992 18.07592773 C23.53673186 18.19200052 20.8621362 18.31467572 18.1875 18.4375 C17.25873047 18.47681641 16.32996094 18.51613281 15.37304688 18.55664062 C14.48037109 18.59853516 13.58769531 18.64042969 12.66796875 18.68359375 C11.84578857 18.72025146 11.0236084 18.75690918 10.17651367 18.79467773 C7.82094822 18.93427772 7.82094822 18.93427772 5 20 C5.33 19.01 5.66 18.02 6 17 C7.98 17 9.96 17 12 17 C12 12.38 12 7.76 12 3 C6.06 2.01 6.06 2.01 0 1 C0 0.67 0 0.34 0 0 Z " fill="#8D4A40" transform="translate(205,206)"/>
<path d="M0 0 C0.33 0 0.66 0 1 0 C1.02578125 0.60328125 1.0515625 1.2065625 1.078125 1.828125 C1.13484375 2.62734375 1.1915625 3.4265625 1.25 4.25 C1.29640625 5.03890625 1.3428125 5.8278125 1.390625 6.640625 C1.9485906 9.62567392 1.9485906 9.62567392 6 13 C-6.54 13 -19.08 13 -32 13 C-32 12.67 -32 12.34 -32 12 C-31.23856689 11.9906543 -30.47713379 11.98130859 -29.69262695 11.97167969 C-26.2319338 11.91789063 -22.77257982 11.83425816 -19.3125 11.75 C-18.11431641 11.73582031 -16.91613281 11.72164063 -15.68164062 11.70703125 C-14.52470703 11.67480469 -13.36777344 11.64257812 -12.17578125 11.609375 C-11.11270752 11.58842773 -10.04963379 11.56748047 -8.9543457 11.54589844 C-5.29151121 10.86908678 -3.59865259 9.63645863 -1 7 C-0.10944264 3.35817665 -0.10944264 3.35817665 0 0 Z " fill="#38454F" transform="translate(125,307)"/>
<path d="M0 0 C9.9 0 19.8 0 30 0 C31.86038288 3.72076577 30.94420939 8.581574 30.78515625 12.703125 C30.67536808 17.34328999 30.67536808 17.34328999 32.5078125 21.5390625 C33.00023437 22.02117187 33.49265625 22.50328125 34 23 C32.0625 22.625 32.0625 22.625 30 22 C28.39274365 18.78548731 28.94251815 15.56387464 29 12 C28.01 11.67 27.02 11.34 26 11 C26.66 11 27.32 11 28 11 C28 7.7 28 4.4 28 1 C18.76 1 9.52 1 0 1 C0 0.67 0 0.34 0 0 Z " fill="#7F4D44" transform="translate(100,242)"/>
<path d="M0 0 C0.66 1.32 1.32 2.64 2 4 C1.34 4 0.68 4 0 4 C-0.33 5.32 -0.66 6.64 -1 8 C-2.32 7.67 -3.64 7.34 -5 7 C-5 8.98 -5 10.96 -5 13 C-4.34 13.33 -3.68 13.66 -3 14 C-3.33 14.33 -3.66 14.66 -4 15 C-4.07179964 16.51928038 -4.08392007 18.04167482 -4.0625 19.5625 C-4.05347656 20.38878906 -4.04445312 21.21507812 -4.03515625 22.06640625 C-4.02355469 22.70449219 -4.01195312 23.34257812 -4 24 C-4.66 24 -5.32 24 -6 24 C-6 16.74 -6 9.48 -6 2 C-4.02 2 -2.04 2 0 2 C0 1.34 0 0.68 0 0 Z " fill="#2D6EA1" transform="translate(190,211)"/>
<path d="M0 0 C1.32 0.33 2.64 0.66 4 1 C3.67 1.66 3.34 2.32 3 3 C13.23 3 23.46 3 34 3 C34 3.33 34 3.66 34 4 C21.46 4 8.92 4 -4 4 C-2.68 3.34 -1.36 2.68 0 2 C0 1.34 0 0.68 0 0 Z " fill="#3A4249" transform="translate(220,316)"/>
<path d="M0 0 C0.33 0 0.66 0 1 0 C1 3.63 1 7.26 1 11 C1.66 10.67 2.32 10.34 3 10 C3.40729228 7.67843403 3.74438677 5.3431213 4 3 C4.66 3 5.32 3 6 3 C6.16435547 3.84884766 6.16435547 3.84884766 6.33203125 4.71484375 C6.49058594 5.44832031 6.64914063 6.18179688 6.8125 6.9375 C6.96332031 7.66839844 7.11414063 8.39929688 7.26953125 9.15234375 C7.63111328 10.06693359 7.63111328 10.06693359 8 11 C8.99 11.33 9.98 11.66 11 12 C7.37 12 3.74 12 0 12 C0 8.04 0 4.08 0 0 Z " fill="#2D6E9F" transform="translate(184,247)"/>
<path d="M0 0 C2.47385671 2.47385671 2.28571102 3.97504228 2.32226562 7.36132812 C2.31743164 8.3890332 2.31743164 8.3890332 2.3125 9.4375 C2.32861328 10.11876953 2.34472656 10.80003906 2.36132812 11.50195312 C2.36328125 13.49609375 2.36328125 13.49609375 2 17 C1.01 17.99 0.02 18.98 -1 20 C-0.67 13.4 -0.34 6.8 0 0 Z " fill="#A18F7C" transform="translate(250,221)"/>
<path d="M0 0 C2.31 0.66 4.62 1.32 7 2 C7 2.66 7 3.32 7 4 C5.02 4 3.04 4 1 4 C1 5.65 1 7.3 1 9 C-0.98 9 -2.96 9 -5 9 C-5 11.31 -5 13.62 -5 16 C-5.33 16 -5.66 16 -6 16 C-6 13.36 -6 10.72 -6 8 C-4.02 8 -2.04 8 0 8 C0 5.36 0 2.72 0 0 Z " fill="#456B86" transform="translate(189,204)"/>
<path d="M0 0 C1.65 0 3.3 0 5 0 C5.33 0.66 5.66 1.32 6 2 C5.34 2 4.68 2 4 2 C4 3.65 4 5.3 4 7 C3.01 7.33 2.02 7.66 1 8 C0.67 8.66 0.34 9.32 0 10 C0 6.7 0 3.4 0 0 Z " fill="#2E2B36" transform="translate(218,254)"/>
<path d="M0 0 C1.65 0 3.3 0 5 0 C5.0580476 3.27075883 5.09361165 6.54138524 5.125 9.8125 C5.14175781 10.74126953 5.15851563 11.67003906 5.17578125 12.62695312 C5.18222656 13.51962891 5.18867188 14.41230469 5.1953125 15.33203125 C5.20578613 16.15421143 5.21625977 16.9763916 5.22705078 17.82348633 C5 20 5 20 3 23 C1.68 22.67 0.36 22.34 -1 22 C-0.35546875 21.69449219 0.2890625 21.38898438 0.953125 21.07421875 C4.17524549 17.80905467 3.67477205 14.23385171 3.75 9.8125 C3.77964844 8.96751953 3.80929688 8.12253906 3.83984375 7.25195312 C3.9104699 5.16848178 3.95750795 3.08423494 4 1 C2.68 0.67 1.36 0.34 0 0 Z " fill="#A7443C" transform="translate(213,242)"/>
<path d="M0 0 C2.4897016 2.3814537 3.94046531 3.77371348 4.11352539 7.33837891 C4.10567017 8.76802979 4.10567017 8.76802979 4.09765625 10.2265625 C4.09282227 11.7734375 4.09282227 11.7734375 4.08789062 13.3515625 C4.07951172 14.43179688 4.07113281 15.51203125 4.0625 16.625 C4.05798828 17.71296875 4.05347656 18.8009375 4.04882812 19.921875 C4.03701776 22.61463789 4.02054778 25.30729188 4 28 C3.67 28 3.34 28 3 28 C2.98018066 27.40050537 2.96036133 26.80101074 2.93994141 26.18334961 C2.84394997 23.43433529 2.73457495 20.68600507 2.625 17.9375 C2.57859375 16.52307617 2.57859375 16.52307617 2.53125 15.08007812 C2.30731646 9.72433421 1.73292417 5.07901759 0 0 Z " fill="#7E443C" transform="translate(212,94)"/>
<path d="M0 0 C0.33 0 0.66 0 1 0 C1.24915939 1.76813112 1.47366632 3.53974982 1.6875 5.3125 C1.81511719 6.29863281 1.94273437 7.28476563 2.07421875 8.30078125 C2 11 2 11 0.75 12.84375 C-2.04196321 14.68843998 -4.75622628 14.18360983 -8 14 C-5 12 -5 12 -2 11 C-1.34 7.37 -0.68 3.74 0 0 Z " fill="#B74733" transform="translate(138,229)"/>
<path d="M0 0 C1.65 0 3.3 0 5 0 C5 1.98 5 3.96 5 6 C3.35 6 1.7 6 0 6 C0 4.02 0 2.04 0 0 Z " fill="#F4CF3D" transform="translate(184,237)"/>
<path d="M0 0 C2.64 0 5.28 0 8 0 C8 2.97 8 5.94 8 9 C7.34 8.01 6.68 7.02 6 6 C5.34 6 4.68 6 4 6 C4 5.01 4 4.02 4 3 C2.68 2.67 1.36 2.34 0 2 C0 1.34 0 0.68 0 0 Z " fill="#B93F22" transform="translate(174,236)"/>
<path d="M0 0 C6.4 -0.49230769 6.4 -0.49230769 9.4375 2 C10.2109375 2.99 10.2109375 2.99 11 4 C7.25838897 4 3.71046443 3.48661829 0 3 C0 2.01 0 1.02 0 0 Z " fill="#9E433D" transform="translate(202,92)"/>
<path d="M0 0 C4.62 0 9.24 0 14 0 C14 0.33 14 0.66 14 1 C13.32453125 1.03738281 12.6490625 1.07476562 11.953125 1.11328125 C11.06109375 1.17902344 10.1690625 1.24476563 9.25 1.3125 C8.36828125 1.37050781 7.4865625 1.42851562 6.578125 1.48828125 C3.65283081 2.06890782 2.31539078 3.18627722 0 5 C-3.25 5.1875 -3.25 5.1875 -6 5 C-6 4.67 -6 4.34 -6 4 C-4.35 3.67 -2.7 3.34 -1 3 C-0.67 2.01 -0.34 1.02 0 0 Z " fill="#AE413F" transform="translate(150,260)"/>
<path d="M0 0 C1.32 0 2.64 0 4 0 C3.67 1.32 3.34 2.64 3 4 C1.68 4.33 0.36 4.66 -1 5 C-1 7.31 -1 9.62 -1 12 C-1.33 12 -1.66 12 -2 12 C-2.05422947 10.5629191 -2.09289723 9.12524538 -2.125 7.6875 C-2.14820313 6.88699219 -2.17140625 6.08648437 -2.1953125 5.26171875 C-2 3 -2 3 0 0 Z " fill="#EEAC8A" transform="translate(211,225)"/>
<path d="M0 0 C1.32 0.33 2.64 0.66 4 1 C4 1.33 4 1.66 4 2 C6.64 2.33 9.28 2.66 12 3 C12 3.33 12 3.66 12 4 C9.36 4.33 6.72 4.66 4 5 C3.67 7.64 3.34 10.28 3 13 C2.67 13 2.34 13 2 13 C1.93941406 12.22914063 1.87882813 11.45828125 1.81640625 10.6640625 C1.73261719 9.66117188 1.64882812 8.65828125 1.5625 7.625 C1.48128906 6.62726563 1.40007812 5.62953125 1.31640625 4.6015625 C1.15034374 2.02072387 1.15034374 2.02072387 0 0 Z " fill="#B79675" transform="translate(180,131)"/>
<path d="M0 0 C0.66 0 1.32 0 2 0 C2.33 2.97 2.66 5.94 3 9 C2.01 9.33 1.02 9.66 0 10 C0 6.7 0 3.4 0 0 Z " fill="#CCAF91" transform="translate(194,136)"/>
<path d="M0 0 C1.98 0.495 1.98 0.495 4 1 C3.34 2.98 2.68 4.96 2 7 C1.01 7 0.02 7 -1 7 C-0.67 4.69 -0.34 2.38 0 0 Z " fill="#2A6EA7" transform="translate(152,252)"/>
<path d="M0 0 C0.66 0.33 1.32 0.66 2 1 C1.690625 1.495 1.38125 1.99 1.0625 2.5 C-0.41644382 5.97986781 -0.62402851 9.24028509 -1 13 C-1.33 13 -1.66 13 -2 13 C-2 9.04 -2 5.08 -2 1 C-1.34 0.67 -0.68 0.34 0 0 Z " fill="#A74539" transform="translate(134,96)"/>
<path d="M0 0 C0.66 0.33 1.32 0.66 2 1 C1.67 2.32 1.34 3.64 1 5 C-0.98 5.33 -2.96 5.66 -5 6 C-5 5.34 -5 4.68 -5 4 C-3.35 3.67 -1.7 3.34 0 3 C0 2.01 0 1.02 0 0 Z " fill="#F5B291" transform="translate(135,236)"/>
<path d="" fill="#000000" transform="translate(0,0)"/>
<path d="" fill="#000000" transform="translate(0,0)"/>
<path d="" fill="#000000" transform="translate(0,0)"/>
<path d="" fill="#000000" transform="translate(0,0)"/>
<path d="" fill="#000000" transform="translate(0,0)"/>
<path d="" fill="#000000" transform="translate(0,0)"/>
<path d="" fill="#000000" transform="translate(0,0)"/>
<path d="" fill="#000000" transform="translate(0,0)"/>
<path d="" fill="#000000" transform="translate(0,0)"/>
<path d="" fill="#000000" transform="translate(0,0)"/>
<path d="" fill="#000000" transform="translate(0,0)"/>
<path d="" fill="#000000" transform="translate(0,0)"/>
<path d="" fill="#000000" transform="translate(0,0)"/>
<path d="" fill="#000000" transform="translate(0,0)"/>
<path d="" fill="#000000" transform="translate(0,0)"/>
<path d="" fill="#000000" transform="translate(0,0)"/>
<path d="" fill="#000000" transform="translate(0,0)"/>
<path d="" fill="#000000" transform="translate(0,0)"/>
<path d="" fill="#000000" transform="translate(0,0)"/>
<path d="" fill="#000000" transform="translate(0,0)"/>
<path d="" fill="#000000" transform="translate(0,0)"/>
<path d="" fill="#000000" transform="translate(0,0)"/>
<path d="" fill="#000000" transform="translate(0,0)"/>
<path d="" fill="#000000" transform="translate(0,0)"/>
<path d="" fill="#000000" transform="translate(0,0)"/>
<path d="" fill="#000000" transform="translate(0,0)"/>
<path d="" fill="#000000" transform="translate(0,0)"/>
<path d="" fill="#000000" transform="translate(0,0)"/>
<path d="" fill="#000000" transform="translate(0,0)"/>
<path d="" fill="#000000" transform="translate(0,0)"/>
<path d="" fill="#000000" transform="translate(0,0)"/>
<path d="" fill="#000000" transform="translate(0,0)"/>
<path d="" fill="#000000" transform="translate(0,0)"/>
<path d="" fill="#000000" transform="translate(0,0)"/>
<path d="" fill="#000000" transform="translate(0,0)"/>
<path d="" fill="#000000" transform="translate(0,0)"/>
<path d="" fill="#000000" transform="translate(0,0)"/>
<path d="" fill="#000000" transform="translate(0,0)"/>
<path d="" fill="#000000" transform="translate(0,0)"/>
<path d="" fill="#000000" transform="translate(0,0)"/>
<path d="" fill="#000000" transform="translate(0,0)"/>
<path d="" fill="#000000" transform="translate(0,0)"/>
<path d="" fill="#000000" transform="translate(0,0)"/>
<path d="" fill="#000000" transform="translate(0,0)"/>
<path d="" fill="#000000" transform="translate(0,0)"/>
<path d="" fill="#000000" transform="translate(0,0)"/>
<path d="" fill="#000000" transform="translate(0,0)"/>
<path d="" fill="#000000" transform="translate(0,0)"/>
<path d="" fill="#000000" transform="translate(0,0)"/>
<path d="" fill="#000000" transform="translate(0,0)"/>
<path d="" fill="#000000" transform="translate(0,0)"/>
</svg>
