<?xml version="1.0" encoding="UTF-8"?>
<svg version="1.1" xmlns="http://www.w3.org/2000/svg" width="368" height="360">
<path d="M0 0 C0.85464844 -0.01417969 1.70929688 -0.02835938 2.58984375 -0.04296875 C5.0625 0.1875 5.0625 0.1875 9.0625 2.1875 C9.0625 8.7875 9.0625 15.3875 9.0625 22.1875 C12.0325 21.6925 12.0325 21.6925 15.0625 21.1875 C15.05089844 20.35605469 15.03929687 19.52460937 15.02734375 18.66796875 C15.01832031 17.58128906 15.00929687 16.49460937 15 15.375 C14.98839844 14.29605469 14.97679687 13.21710937 14.96484375 12.10546875 C15.0625 9.1875 15.0625 9.1875 16.0625 6.1875 C18.70840014 6.16065321 21.35403096 6.14073643 24 6.125 C25.13211914 6.11243164 25.13211914 6.11243164 26.28710938 6.09960938 C28.21244313 6.09097559 30.13785581 6.13525667 32.0625 6.1875 C34.17202797 8.29702797 33.36179758 13.57495056 33.40429688 16.55273438 C33.46206868 18.83464544 33.46206868 18.83464544 34.0625 22.1875 C34.72121094 22.77402344 35.37992188 23.36054687 36.05859375 23.96484375 C39.46716049 27.74549575 38.74399113 32.52977368 38.8125 37.4375 C38.84214844 38.46875 38.87179688 39.5 38.90234375 40.5625 C38.97294778 43.10424495 39.02569009 45.64507783 39.0625 48.1875 C39.67738281 48.44072021 40.29226562 48.69394043 40.92578125 48.95483398 C41.73402344 49.29844971 42.54226562 49.64206543 43.375 49.99609375 C44.17550781 50.33181396 44.97601563 50.66753418 45.80078125 51.01342773 C50.12425276 53.25776868 52.52160708 56.56482124 54.0625 61.1875 C54.17956233 63.19591665 54.23925967 65.20785989 54.26782227 67.21948242 C54.28776749 68.46054245 54.30771271 69.70160248 54.32826233 70.98027039 C54.34524527 72.3345019 54.36212413 73.68873473 54.37890625 75.04296875 C54.39948228 76.42874259 54.42047892 77.81451025 54.44187927 79.20027161 C54.49703301 82.84490953 54.54647174 86.48960346 54.59472656 90.13433838 C54.64499056 93.8545835 54.70065104 97.57474743 54.75585938 101.29492188 C54.86335899 108.59237913 54.96482207 115.88990397 55.0625 123.1875 C55.81595703 123.23938477 56.56941406 123.29126953 57.34570312 123.34472656 C58.33505859 123.42174805 59.32441406 123.49876953 60.34375 123.578125 C61.32408203 123.65063477 62.30441406 123.72314453 63.31445312 123.79785156 C68.08432584 124.4741768 70.77626253 126.72385047 73.875 130.25 C75.69701116 134.75708025 75.81760137 139.36553033 76.0625 144.1875 C77.08730469 144.21328125 78.11210937 144.2390625 79.16796875 144.265625 C80.52868699 144.32193058 81.88936243 144.37927737 83.25 144.4375 C83.92353516 144.45167969 84.59707031 144.46585938 85.29101562 144.48046875 C90.10439905 144.71526794 92.74775394 145.67299523 96.0625 149.1875 C97.15867309 151.83834164 97.2722821 154.33559745 97.0625 157.1875 C95.70589984 160.15910035 94.35966559 161.89033441 92.0625 164.1875 C91.75555374 167.2960119 91.75555374 167.2960119 91.7890625 170.953125 C91.76876061 172.33203918 91.7479096 173.71094536 91.7265625 175.08984375 C91.70403326 177.25999683 91.68752077 179.42983332 91.68164062 181.60009766 C91.67206116 183.69752103 91.63820936 185.79352337 91.6015625 187.890625 C91.59334473 189.14520508 91.58512695 190.39978516 91.57666016 191.69238281 C90.84520904 196.66458326 88.69618684 199.82657792 84.86328125 203.01953125 C80.98946539 204.63497189 77.40815537 204.7520577 73.25 204.875 C70.548125 204.978125 67.84625 205.08125 65.0625 205.1875 C65.0625 213.4375 65.0625 221.6875 65.0625 230.1875 C68.6925 230.1875 72.3225 230.1875 76.0625 230.1875 C80.42526266 231.414527 82.35135877 232.20107829 85 235.875 C86.2968935 239.9182562 86.28112848 242.96068262 86.0625 247.1875 C86.7225 246.8575 87.3825 246.5275 88.0625 246.1875 C91.66127757 245.9462842 95.26903788 246.00230119 98.875 246 C99.87337891 245.98775391 100.87175781 245.97550781 101.90039062 245.96289062 C103.35155273 245.95999023 103.35155273 245.95999023 104.83203125 245.95703125 C105.71479736 245.95292236 106.59756348 245.94881348 107.50708008 245.94458008 C111.29318365 246.30448961 113.95266058 247.23302597 116.85009766 249.72485352 C118.7504051 253.58478127 118.49015593 257.34437633 118.4609375 261.58984375 C118.46524277 262.96191734 118.46524277 262.96191734 118.46963501 264.36170959 C118.4716743 266.29412455 118.46615387 268.22656021 118.45361328 270.15893555 C118.43757613 273.11098626 118.453457 276.06166405 118.47265625 279.01367188 C118.47067343 280.89323218 118.46682896 282.77279163 118.4609375 284.65234375 C118.46701019 285.53268784 118.47308289 286.41303192 118.4793396 287.3200531 C118.42495802 292.07925194 118.19193067 295.34136572 115.0625 299.1875 C111.71688224 300.86030888 107.94847963 300.33545001 104.26907349 300.33467102 C102.88641936 300.34018605 102.88641936 300.34018605 101.47583282 300.3458125 C98.36816035 300.35687968 95.26052129 300.36069828 92.15283203 300.36450195 C89.93245334 300.37076421 87.7120757 300.37741079 85.49169922 300.38441467 C79.44629098 300.40184418 73.40089066 300.4123813 67.3554635 300.4206202 C63.58209628 300.42576518 59.80873154 300.43184107 56.03536606 300.43813133 C45.59200181 300.45500234 35.14863872 300.46963825 24.70526314 300.47688007 C21.99475223 300.47879002 19.28424134 300.48071035 16.57373047 300.48266602 C15.56318243 300.48339163 15.56318243 300.48339163 14.53221928 300.4841319 C3.6130331 300.49243637 -7.30604367 300.51778054 -18.22518204 300.55024669 C-29.43046713 300.58329265 -40.6356986 300.60099356 -51.84103882 300.60452431 C-58.13457611 300.60688033 -64.42794046 300.61591248 -70.72143173 300.64098549 C-76.63934918 300.6641812 -82.55697877 300.66853374 -88.47492981 300.65822411 C-90.65021342 300.65772659 -92.82551079 300.66411 -95.0007515 300.67778015 C-97.96421941 300.69536593 -100.92663922 300.68845867 -103.8901062 300.67524719 C-105.18961427 300.69170106 -105.18961427 300.69170106 -106.51537502 300.70848733 C-112.31507154 300.64580731 -112.31507154 300.64580731 -115.44046211 298.3445158 C-118.49133023 293.94865462 -118.11472803 289.46196558 -118.140625 284.3203125 C-118.14632507 283.44857391 -118.15202515 282.57683533 -118.15789795 281.67868042 C-118.16734183 279.83446464 -118.1738795 277.99023203 -118.17773438 276.14599609 C-118.18743933 273.33010314 -118.21846786 270.51494041 -118.25 267.69921875 C-118.25653043 265.90625433 -118.26178075 264.11328469 -118.265625 262.3203125 C-118.2779718 261.48057892 -118.2903186 260.64084534 -118.30303955 259.77566528 C-118.28545215 255.14150215 -118.1211039 251.83693368 -114.9375 248.1875 C-111.4047992 246.22656571 -108.41444678 245.94753411 -104.41796875 245.9921875 C-103.39638672 245.99863281 -102.37480469 246.00507813 -101.32226562 246.01171875 C-99.73961914 246.03685547 -99.73961914 246.03685547 -98.125 246.0625 C-97.05056641 246.07152344 -95.97613281 246.08054687 -94.86914062 246.08984375 C-92.22503146 246.11334694 -89.58138128 246.14620425 -86.9375 246.1875 C-86.74994141 245.4238916 -86.56238281 244.6602832 -86.36914062 243.87353516 C-85.98532227 242.37765869 -85.98532227 242.37765869 -85.59375 240.8515625 C-85.34431641 239.8610791 -85.09488281 238.8705957 -84.83789062 237.85009766 C-83.66235984 234.37386699 -82.1285686 232.94258773 -78.9375 231.1875 C-75.9375 230.1875 -75.9375 230.1875 -63.9375 230.1875 C-63.9375 221.6075 -63.9375 213.0275 -63.9375 204.1875 C-69.59186672 204.34479521 -69.59186672 204.34479521 -75.24462891 204.54785156 C-80.6111247 204.62273852 -83.80641335 203.93401101 -87.9375 200.1875 C-90.64677796 195.70982809 -91.30545076 192.38098071 -91.30859375 187.1796875 C-91.32599609 185.86355469 -91.34339844 184.54742187 -91.36132812 183.19140625 C-91.3714222 181.11990408 -91.37498859 179.04857662 -91.37329102 176.97705078 C-91.37686275 174.96116597 -91.4049113 172.94537142 -91.43359375 170.9296875 C-91.43637329 169.13313721 -91.43637329 169.13313721 -91.43920898 167.30029297 C-92.03283714 163.59193479 -93.1545358 162.58834911 -95.9375 160.1875 C-96.50390625 157.78515625 -96.50390625 157.78515625 -96.5 155.25 C-96.52191406 154.41597656 -96.54382813 153.58195313 -96.56640625 152.72265625 C-95.63217851 148.95673201 -94.00828651 147.51089931 -90.9375 145.1875 C-88.1417814 144.66312169 -85.91293325 144.39901091 -83.125 144.375 C-82.43212891 144.34986328 -81.73925781 144.32472656 -81.02539062 144.29882812 C-79.33002878 144.24036737 -77.63370713 144.21096953 -75.9375 144.1875 C-75.89882812 143.10082031 -75.89882812 143.10082031 -75.859375 141.9921875 C-75.5080581 136.0038312 -75.10610608 131.81928454 -70.9375 127.1875 C-66.45750984 123.36633192 -60.64671286 123.1875 -54.9375 123.1875 C-54.93163376 122.45135971 -54.92576752 121.71521942 -54.91972351 120.95677185 C-54.86166878 113.99801895 -54.78951925 107.03953729 -54.70178509 100.08109951 C-54.65717697 96.50420347 -54.61790047 92.92741882 -54.59106445 89.3503418 C-54.56493513 85.89418193 -54.5244665 82.4384529 -54.47431374 78.98256111 C-54.4496637 77.03131509 -54.43962513 75.07990204 -54.42985535 73.12852478 C-54.29743627 65.09596516 -53.90583192 59.61249837 -48.5 53.375 C-44.67369802 50.10864465 -43.02967554 49.1875 -37.9375 49.1875 C-37.96368408 48.5169458 -37.98986816 47.8463916 -38.0168457 47.15551758 C-38.12107238 44.10391872 -38.18590623 41.05269458 -38.25 38 C-38.29189453 36.94490234 -38.33378906 35.88980469 -38.37695312 34.80273438 C-38.50279703 26.82423082 -38.50279703 26.82423082 -35.43359375 23.3671875 C-34.60988281 22.64789063 -33.78617187 21.92859375 -32.9375 21.1875 C-32.37318667 17.90713385 -32.37318667 17.90713385 -32.6875 14.5 C-32.99620237 8.30490474 -32.99620237 8.30490474 -31.9375 6.1875 C-29.29159986 6.16065321 -26.64596904 6.14073643 -24 6.125 C-22.86788086 6.11243164 -22.86788086 6.11243164 -21.71289062 6.09960938 C-19.78755687 6.09097559 -17.86214419 6.13525667 -15.9375 6.1875 C-14.9375 7.1875 -14.9375 7.1875 -14.83984375 10.56640625 C-14.84651631 11.96097077 -14.85847468 13.35551743 -14.875 14.75 C-14.87951172 15.46091797 -14.88402344 16.17183594 -14.88867188 16.90429688 C-14.90049136 18.66540013 -14.91842737 20.42646036 -14.9375 22.1875 C-12.9575 21.8575 -10.9775 21.5275 -8.9375 21.1875 C-8.6075 14.5875 -8.2775 7.9875 -7.9375 1.1875 C-5.02663331 0.2172111 -3.03526315 0.02282153 0 0 Z " fill="#F3CF40" transform="translate(179.9375,32.8125)"/>
<path d="M0 0 C42.57 0 85.14 0 129 0 C129 8.58 129 17.16 129 26 C132.63 26 136.26 26 140 26 C144.36276266 27.227027 146.28885877 28.01357829 148.9375 31.6875 C150.2343935 35.7307562 150.21862848 38.77318262 150 43 C150.66 42.67 151.32 42.34 152 42 C155.59877757 41.7587842 159.20653788 41.81480119 162.8125 41.8125 C163.81087891 41.80025391 164.80925781 41.78800781 165.83789062 41.77539062 C167.28905273 41.77249023 167.28905273 41.77249023 168.76953125 41.76953125 C169.65229736 41.76542236 170.53506348 41.76131348 171.44458008 41.75708008 C175.23068365 42.11698961 177.89016058 43.04552597 180.78759766 45.53735352 C182.6879051 49.39728127 182.42765593 53.15687633 182.3984375 57.40234375 C182.40274277 58.77441734 182.40274277 58.77441734 182.40713501 60.17420959 C182.4091743 62.10662455 182.40365387 64.03906021 182.39111328 65.97143555 C182.37507613 68.92348626 182.390957 71.87416405 182.41015625 74.82617188 C182.40817343 76.70573218 182.40432896 78.58529163 182.3984375 80.46484375 C182.40451019 81.34518784 182.41058289 82.22553192 182.4168396 83.1325531 C182.36245802 87.89175194 182.12943067 91.15386572 179 95 C175.65438223 96.67280888 171.88597963 96.14795001 168.20657349 96.14717102 C166.82391936 96.15268605 166.82391936 96.15268605 165.41333282 96.1583125 C162.30566035 96.16937968 159.19802129 96.17319828 156.09033203 96.17700195 C153.86995334 96.18326421 151.6495757 96.18991079 149.42919922 96.19691467 C143.38379098 96.21434418 137.33839066 96.2248813 131.2929635 96.2331202 C127.51959628 96.23826518 123.74623154 96.24434107 119.97286606 96.25063133 C109.52950181 96.26750234 99.08613872 96.28213825 88.64276314 96.28938007 C85.93225223 96.29129002 83.22174134 96.29321035 80.51123047 96.29516602 C79.50068243 96.29589163 79.50068243 96.29589163 78.46971928 96.2966319 C67.5505331 96.30493637 56.63145633 96.33028054 45.71231796 96.36274669 C34.50703287 96.39579265 23.3018014 96.41349356 12.09646118 96.41702431 C5.80292389 96.41938033 -0.49044046 96.42841248 -6.78393173 96.45348549 C-12.70184918 96.4766812 -18.61947877 96.48103374 -24.53742981 96.47072411 C-26.71271342 96.47022659 -28.88801079 96.47661 -31.0632515 96.49028015 C-34.02671941 96.50786593 -36.98913922 96.50095867 -39.9526062 96.48774719 C-41.25211427 96.50420106 -41.25211427 96.50420106 -42.57787502 96.52098733 C-48.37757154 96.45830731 -48.37757154 96.45830731 -51.50296211 94.1570158 C-54.55383023 89.76115462 -54.17722803 85.27446558 -54.203125 80.1328125 C-54.20882507 79.26107391 -54.21452515 78.38933533 -54.22039795 77.49118042 C-54.22984183 75.64696464 -54.2363795 73.80273203 -54.24023438 71.95849609 C-54.24993933 69.14260314 -54.28096786 66.32744041 -54.3125 63.51171875 C-54.31903043 61.71875433 -54.32428075 59.92578469 -54.328125 58.1328125 C-54.3404718 57.29307892 -54.3528186 56.45334534 -54.36553955 55.58816528 C-54.34795215 50.95400215 -54.1836039 47.64943368 -51 44 C-47.4672992 42.03906571 -44.47694678 41.76003411 -40.48046875 41.8046875 C-39.45888672 41.81113281 -38.43730469 41.81757813 -37.38476562 41.82421875 C-36.32966797 41.84097656 -35.27457031 41.85773438 -34.1875 41.875 C-33.11306641 41.88402344 -32.03863281 41.89304687 -30.93164062 41.90234375 C-28.28753146 41.92584694 -25.64388128 41.95870425 -23 42 C-22.81244141 41.2363916 -22.62488281 40.4727832 -22.43164062 39.68603516 C-22.17576172 38.68878418 -21.91988281 37.6915332 -21.65625 36.6640625 C-21.28209961 35.1783374 -21.28209961 35.1783374 -20.90039062 33.66259766 C-19.72485984 30.18636699 -18.1910686 28.75508773 -15 27 C-12 26 -12 26 0 26 C0 17.42 0 8.84 0 0 Z " fill="#3C0A21" transform="translate(116,237)"/>
<path d="M0 0 C0.33 0 0.66 0 1 0 C1.00546844 1.61159752 1.00546844 1.61159752 1.01104736 3.25575256 C1.04802823 13.39317594 1.10583484 23.53029641 1.18390274 33.66748905 C1.22337025 38.87884319 1.25556238 44.09002854 1.27099609 49.30151367 C1.28616733 54.33324097 1.32062151 59.3645042 1.36830902 64.3960247 C1.38311794 66.31325682 1.39104073 68.23055519 1.39188385 70.14784431 C1.39425673 72.83872773 1.42136173 75.52833201 1.45410156 78.21899414 C1.4490712 79.00734146 1.44404083 79.79568878 1.43885803 80.60792542 C1.54291456 86.15489508 2.8133248 89.43217645 6 94 C10.27884911 96.89447195 13.82601915 97.39880573 18.9296875 97.51171875 C20.86328125 97.56489258 20.86328125 97.56489258 22.8359375 97.61914062 C24.18228642 97.64223493 25.52864072 97.66501755 26.875 97.6875 C28.24482371 97.72070883 29.61461692 97.75520175 30.984375 97.79101562 C34.3228341 97.87330159 37.66103685 97.94251928 41 98 C41.28875 98.639375 41.5775 99.27875 41.875 99.9375 C42.82823451 102.15206079 42.82823451 102.15206079 45 103 C47.97352288 103.23580516 50.95563698 103.18517948 53.9375 103.1875 C54.76185547 103.19974609 55.58621094 103.21199219 56.43554688 103.22460938 C57.22896484 103.22654297 58.02238281 103.22847656 58.83984375 103.23046875 C59.56550537 103.23457764 60.29116699 103.23868652 61.03881836 103.24291992 C63.32232248 103.10882834 63.32232248 103.10882834 66 101 C66.495 99.515 66.495 99.515 67 98 C67.8470752 97.98541748 68.69415039 97.97083496 69.56689453 97.95581055 C72.73181934 97.89448823 75.89611504 97.82028648 79.06054688 97.73754883 C80.4259925 97.70444614 81.79157013 97.67636914 83.15722656 97.65356445 C85.12853224 97.61975009 87.09946191 97.56591714 89.0703125 97.51171875 C90.25383301 97.48553467 91.43735352 97.45935059 92.65673828 97.43237305 C97.07343437 96.86117626 100.3991157 95.52063888 103.65112305 92.43164062 C107.82495024 86.1148724 107.77590142 79.90104687 107.8125 72.5 C107.83763672 71.29601562 107.86277344 70.09203125 107.88867188 68.8515625 C107.94722049 65.90071251 107.98373832 62.95133516 108 60 C113.93330237 59.8626885 118.65532649 60.37418361 124 63 C128.00542488 67.10556051 129.10593967 70.01583021 129.5625 75.625 C129.64628906 76.62789063 129.73007813 77.63078125 129.81640625 78.6640625 C129.87699219 79.43492187 129.93757812 80.20578125 130 81 C131.02480469 81.02578125 132.04960937 81.0515625 133.10546875 81.078125 C134.46618699 81.13443058 135.82686243 81.19177737 137.1875 81.25 C137.86103516 81.26417969 138.53457031 81.27835937 139.22851562 81.29296875 C144.04189905 81.52776794 146.68525394 82.48549523 150 86 C151.09617309 88.65084164 151.2097821 91.14809745 151 94 C149.64339984 96.97160035 148.29716559 98.70283441 146 101 C145.69305374 104.1085119 145.69305374 104.1085119 145.7265625 107.765625 C145.70626061 109.14453918 145.6854096 110.52344536 145.6640625 111.90234375 C145.64153326 114.07249683 145.62502077 116.24233332 145.61914062 118.41259766 C145.60956116 120.51002103 145.57570936 122.60602337 145.5390625 124.703125 C145.53084473 125.95770508 145.52262695 127.21228516 145.51416016 128.50488281 C144.8996576 132.68209962 143.69348715 134.77150908 141 138 C137.01546411 140.95751611 134.12908758 141.37770043 129.21302795 141.38768005 C128.20841598 141.39575836 128.20841598 141.39575836 127.18350881 141.40399987 C124.94645069 141.41827108 122.70998501 141.41117816 120.47290039 141.40405273 C118.86615016 141.40975677 117.25940398 141.41672116 115.65266418 141.42485046 C111.29313387 141.44279349 106.93380471 141.44161135 102.57424855 141.43590808 C98.93354259 141.43281785 95.29287535 141.43890684 91.65217489 141.44494683 C83.06276156 141.45899422 74.47344769 141.457429 65.8840332 141.44604492 C57.02539342 141.4345634 48.16705637 141.4486394 39.30845648 141.4754414 C31.69981062 141.49759896 24.09125978 141.50423565 16.48258394 141.49836498 C11.93954401 141.49499434 7.39669815 141.49741757 2.85368538 141.51461601 C-1.41869316 141.530084 -5.69062327 141.52613143 -9.96298409 141.50731087 C-11.52948547 141.50362455 -13.09602006 141.50673476 -14.66249084 141.51719666 C-16.80419133 141.53040649 -18.94440721 141.5188617 -21.08604431 141.50120544 C-22.28341186 141.50099616 -23.4807794 141.50078688 -24.71443081 141.50057125 C-28.70748616 140.8922113 -30.86536309 139.50482773 -34 137 C-36.88180662 132.6239092 -37.36796207 129.17477388 -37.37109375 123.9921875 C-37.39719727 122.01798828 -37.39719727 122.01798828 -37.42382812 120.00390625 C-37.4339222 117.93240408 -37.43748859 115.86107662 -37.43579102 113.78955078 C-37.43936275 111.77366597 -37.4674113 109.75787142 -37.49609375 107.7421875 C-37.49794678 106.5444873 -37.4997998 105.34678711 -37.50170898 104.11279297 C-38.09533714 100.40443479 -39.2170358 99.40084911 -42 97 C-42.56640625 94.59765625 -42.56640625 94.59765625 -42.5625 92.0625 C-42.58441406 91.22847656 -42.60632813 90.39445312 -42.62890625 89.53515625 C-41.69467851 85.76923201 -40.07078651 84.32339931 -37 82 C-34.2042814 81.47562169 -31.97543325 81.21151091 -29.1875 81.1875 C-28.49462891 81.16236328 -27.80175781 81.13722656 -27.08789062 81.11132812 C-25.39252878 81.05286737 -23.69620713 81.02346953 -22 81 C-21.97421875 80.27554688 -21.9484375 79.55109375 -21.921875 78.8046875 C-21.5705581 72.8163312 -21.16860608 68.63178454 -17 64 C-12.52000984 60.17883192 -6.70921286 60 -1 60 C-0.67 40.2 -0.34 20.4 0 0 Z " fill="#E8208B" transform="translate(126,96)"/>
<path d="M0 0 C52.8 0 105.6 0 160 0 C160.33 10.56 160.66 21.12 161 32 C162.65 33.65 164.3 35.3 166 37 C109.9 37 53.8 37 -4 37 C-2 33 -2 33 -1 32 C-0.67 21.44 -0.34 10.88 0 0 Z " fill="#6B1B42" transform="translate(100,296)"/>
<path d="M0 0 C42.57 0 85.14 0 129 0 C129 8.58 129 17.16 129 26 C132.63 26 136.26 26 140 26 C140 26.33 140 26.66 140 27 C136.04 27 132.08 27 128 27 C128 28.65 128 30.3 128 32 C126.71289062 34.77107239 126.71289062 34.77107239 124 37 C120.20645483 37.76517212 116.45268124 37.69279784 112.59375 37.6628418 C111.4291626 37.67320969 110.2645752 37.68357758 109.06469727 37.69425964 C105.20944125 37.72139683 101.35531736 37.71165317 97.5 37.69921875 C95.50078933 37.70363221 93.50157802 37.70805845 91.50237274 37.71446449 C85.21759521 37.73441511 78.9331981 37.72884918 72.6484375 37.70678711 C66.16562959 37.68441644 59.6838171 37.70202922 53.20110321 37.73983639 C47.63320072 37.77106738 42.06560643 37.7789876 36.49762726 37.76788265 C33.17289331 37.76139427 29.84886108 37.76589301 26.52416992 37.78720665 C22.81746261 37.80711105 19.11285933 37.78884893 15.40625 37.76049805 C14.30482666 37.77421448 13.20340332 37.78793091 12.06860352 37.80206299 C9.25122075 37.7588741 6.73781171 37.66451466 4 37 C0.56128009 33.45399416 0 31.94284941 0 27 C-3.96 27 -7.92 27 -12 27 C-12 26.67 -12 26.34 -12 26 C-8.04 26 -4.08 26 0 26 C0 17.42 0 8.84 0 0 Z " fill="#8B1950" transform="translate(116,237)"/>
<path d="M0 0 C1.20422104 -0.00099701 2.40844208 -0.00199402 3.64915466 -0.00302124 C6.19187022 0.00165497 8.73459544 0.02108155 11.27709961 0.05419922 C15.17320297 0.10143652 19.06657323 0.09531331 22.96289062 0.08203125 C25.4336101 0.09318357 27.90431803 0.10740256 30.375 0.125 C31.54172745 0.12317719 32.7084549 0.12135437 33.91053772 0.11947632 C35.53758888 0.14807236 35.53758888 0.14807236 37.19750977 0.17724609 C38.15061539 0.18646088 39.10372101 0.19567566 40.08570862 0.20516968 C43.39023821 0.88473429 44.58867525 2.07325405 46.62109375 4.7265625 C46.9946517 7.70901914 47.13563894 10.31227691 47.08203125 13.2890625 C47.08111481 14.11736572 47.08019836 14.94566895 47.07925415 15.79907227 C47.07322181 17.5474217 47.05748669 19.29576097 47.03271484 21.04394531 C46.99622176 23.7171851 46.99169551 26.38903717 46.9921875 29.0625 C46.98235517 30.76303279 46.97069766 32.4635562 46.95703125 34.1640625 C46.9548056 34.96207275 46.95257996 35.76008301 46.95028687 36.58227539 C46.88385405 40.47449397 46.81289557 43.45951049 44.62109375 46.7265625 C38.78811305 49.37482161 31.64238599 49.02062118 25.36328125 48.9921875 C23.94234665 48.99505768 23.94234665 48.99505768 22.4927063 48.99798584 C20.50441215 48.99933813 18.51610888 48.99570904 16.52783203 48.98730469 C13.49751889 48.97656755 10.46779527 48.98724499 7.4375 49 C5.49609245 48.9986787 3.55468527 48.99611692 1.61328125 48.9921875 C0.71519745 48.99623596 -0.18288635 49.00028442 -1.10818481 49.00445557 C-6.20823 48.96668863 -10.65970938 48.76476405 -15.37890625 46.7265625 C-17.96425175 42.83448618 -17.71619685 38.33741312 -17.75 33.79296875 C-17.75902847 33.03741196 -17.76805695 32.28185516 -17.77735901 31.50340271 C-17.79181846 29.91075579 -17.80073751 28.31805004 -17.80444336 26.7253418 C-17.81635453 24.29959529 -17.86558776 21.87638338 -17.91601562 19.45117188 C-17.92547972 17.89844983 -17.93271482 16.34571227 -17.9375 14.79296875 C-17.95703232 14.07403946 -17.97656464 13.35511017 -17.99668884 12.61439514 C-17.95893239 8.36436944 -17.25146782 4.96999779 -14.23527527 1.82756042 C-9.97954219 -0.69648153 -4.79261639 -0.07579405 0 0 Z " fill="#F4CBA6" transform="translate(165.37890625,113.2734375)"/>
<path d="M0 0 C1.12591049 -0.00708481 2.25182098 -0.01416962 3.41184998 -0.02146912 C5.27349289 -0.01775299 5.27349289 -0.01775299 7.17274475 -0.01396179 C8.47519638 -0.01907272 9.77764801 -0.02418365 11.11956787 -0.02944946 C14.69807753 -0.04286848 18.27648177 -0.04341491 21.8550117 -0.04088616 C24.8397172 -0.03981836 27.82440121 -0.04469494 30.80910212 -0.04949158 C37.84927791 -0.06059691 44.88940036 -0.0610185 51.92958069 -0.05497742 C59.19824265 -0.04893628 66.46671111 -0.06124974 73.73534006 -0.08254749 C79.9706324 -0.1001473 86.20586306 -0.1061674 92.44117934 -0.10290974 C96.16757531 -0.10109406 99.89383328 -0.10376118 103.62020683 -0.11762428 C107.77456657 -0.13250048 111.92853098 -0.12324676 116.082901 -0.11161804 C117.94150757 -0.12308365 117.94150757 -0.12308365 119.83766174 -0.13478088 C121.53075722 -0.12425941 121.53075722 -0.12425941 123.25805664 -0.11352539 C124.2408557 -0.11369313 125.22365477 -0.11386087 126.23623562 -0.1140337 C128.69252014 0.26069641 128.69252014 0.26069641 130.5050745 1.58315754 C132.43820018 4.31414022 132.12657499 6.91497076 132.13002014 10.19819641 C132.14935608 11.42409485 132.16869202 12.64999329 132.18861389 13.91304016 C131.59805821 17.89812852 130.80734607 18.80778958 127.69252014 21.26069641 C125.12880516 21.76126766 125.12880516 21.76126766 122.17576599 21.76190186 C121.05407516 21.77173599 119.93238434 21.78157013 118.77670288 21.79170227 C117.55057785 21.7820343 116.32445282 21.77236633 115.06117249 21.7624054 C113.76657608 21.76780838 112.47197968 21.77321136 111.13815308 21.77877808 C107.59067756 21.79273663 104.04368681 21.78156184 100.49623823 21.76506686 C96.78558945 21.75121881 93.07496888 21.75767593 89.36430359 21.76119995 C83.1350879 21.76390161 76.90606497 21.75042816 70.67689514 21.72724915 C63.4694986 21.70061621 56.26242386 21.69889979 49.05499494 21.71063751 C42.12553045 21.72140479 35.19618266 21.71523805 28.26672745 21.70108223 C25.31538264 21.6953156 22.36412304 21.69541031 19.41277695 21.70014763 C15.29669822 21.70579243 11.18110305 21.68662932 7.06507874 21.66474915 C5.83490524 21.66925079 4.60473175 21.67375244 3.33728027 21.6783905 C1.66320351 21.66353355 1.66320351 21.66353355 -0.04469299 21.64837646 C-1.01844187 21.64594657 -1.99219074 21.64351667 -2.99544716 21.64101315 C-3.75841795 21.51550862 -4.52138874 21.3900041 -5.30747986 21.26069641 C-7.80756929 17.51056226 -7.60349982 14.53557735 -7.55747986 10.19819641 C-7.56521423 9.46536438 -7.57294861 8.73253235 -7.58091736 7.97749329 C-7.55692716 1.44616214 -6.44888508 0.01347559 0 0 Z " fill="#EDA0BF" transform="translate(118.30747985839844,311.7393035888672)"/>
<path d="M0 0 C1.15886719 -0.00257813 2.31773438 -0.00515625 3.51171875 -0.0078125 C9.76845655 0.06369307 14.65566692 0.35739978 20.125 3.5 C24.95915088 8.58857987 25.29859799 12.88164309 25.36328125 19.640625 C25.371353 20.4410321 25.37942474 21.24143921 25.38774109 22.06610107 C25.40156601 23.76067957 25.41229528 25.45528573 25.42016602 27.14990234 C25.43167482 28.87622277 25.45210935 30.60250793 25.48168945 32.32861328 C25.52453023 34.82869544 25.54055833 37.32772054 25.55078125 39.828125 C25.56828934 40.59191467 25.58579742 41.35570435 25.60383606 42.14263916 C25.578384 48.49838082 23.61870294 52.38287132 19.625 57.375 C15.62478074 60.37516445 10.01464999 59.75476999 5.25 59.8125 C4.45980469 59.84150391 3.66960937 59.87050781 2.85546875 59.90039062 C-2.52474707 59.95857932 -5.72108702 59.23852168 -9.875 55.5 C-12.58557881 51.02324854 -13.242951 47.69308647 -13.24609375 42.4921875 C-13.27219727 40.51798828 -13.27219727 40.51798828 -13.29882812 38.50390625 C-13.3089222 36.43240408 -13.31248859 34.36107662 -13.31079102 32.28955078 C-13.31436275 30.27366597 -13.3424113 28.25787142 -13.37109375 26.2421875 C-13.37294678 25.0444873 -13.3747998 23.84678711 -13.37670898 22.61279297 C-13.97033714 18.90443479 -15.0920358 17.90084911 -17.875 15.5 C-18.44140625 13.09765625 -18.44140625 13.09765625 -18.4375 10.5625 C-18.45941406 9.72847656 -18.48132813 8.89445313 -18.50390625 8.03515625 C-16.17988416 -1.33310672 -7.86981834 -0.1913105 0 0 Z " fill="#EF5F91" transform="translate(101.875,177.5)"/>
<path d="M0 0 C1.12792969 -0.02900391 2.25585938 -0.05800781 3.41796875 -0.08789062 C11.65825417 -0.15127744 11.65825417 -0.15127744 15.71875 2.0859375 C18.37720767 5.40900959 18.80848396 8.11878567 18.5 12.3125 C17.14339984 15.28410035 15.79716559 17.01533441 13.5 19.3125 C13.19305374 22.4210119 13.19305374 22.4210119 13.2265625 26.078125 C13.20626061 27.45703918 13.1854096 28.83594536 13.1640625 30.21484375 C13.14153326 32.38499683 13.12502077 34.55483332 13.11914062 36.72509766 C13.10956116 38.82252103 13.07570936 40.91852337 13.0390625 43.015625 C13.02673584 44.89749512 13.02673584 44.89749512 13.01416016 46.81738281 C12.28212881 51.79352751 10.11640531 54.94144192 6.3125 58.16796875 C2.33320641 59.78732017 -1.2467331 59.71130818 -5.5 59.625 C-6.2940625 59.62822266 -7.088125 59.63144531 -7.90625 59.63476562 C-13.40414506 59.58436825 -17.44897123 59.07866366 -21.75 55.375 C-24.25858892 52.41844877 -24.62611456 49.94033198 -24.67700195 46.19580078 C-24.68983719 45.37129425 -24.70267242 44.54678772 -24.71589661 43.69729614 C-24.72328354 42.80976654 -24.73067047 41.92223694 -24.73828125 41.0078125 C-24.746353 40.09168182 -24.75442474 39.17555115 -24.76274109 38.23165894 C-24.77656873 36.29329311 -24.78729679 34.35490308 -24.79516602 32.41650391 C-24.81239477 29.45558552 -24.85629414 26.49577933 -24.90039062 23.53515625 C-24.91051657 21.65104987 -24.91903298 19.76693401 -24.92578125 17.8828125 C-24.95204338 16.55759079 -24.95204338 16.55759079 -24.97883606 15.20559692 C-24.96439246 11.10386384 -24.86119074 8.89640825 -22.66088867 5.33935547 C-16.07664886 -0.83648443 -8.53616178 0.0731671 0 0 Z " fill="#F05F91" transform="translate(258.5,177.6875)"/>
<path d="M0 0 C0.99902344 -0.00257813 1.99804688 -0.00515625 3.02734375 -0.0078125 C4.05988281 -0.00007813 5.09242187 0.00765625 6.15625 0.015625 C7.70505859 0.00402344 7.70505859 0.00402344 9.28515625 -0.0078125 C10.28417969 -0.00523437 11.28320312 -0.00265625 12.3125 0 C13.21806641 0.00225586 14.12363281 0.00451172 15.05664062 0.00683594 C18.02196132 0.30203127 20.05504963 0.79427253 22.65625 2.265625 C25.42626495 6.62224586 24.97950906 11.76860004 24.9921875 16.765625 C24.9988443 17.67892578 25.0055011 18.59222656 25.01235962 19.53320312 C25.0224616 21.45961499 25.0271774 23.38606168 25.02685547 25.3125 C25.03123537 28.25579387 25.06759889 31.19759551 25.10546875 34.140625 C25.11133612 36.01561989 25.11530605 37.89062187 25.1171875 39.765625 C25.13155853 40.64283203 25.14592957 41.52003906 25.16073608 42.42382812 C25.13120474 46.3801581 24.91718272 48.77264263 23.03955078 52.32006836 C19.90685113 54.87738074 18.0805632 54.89702453 14.0625 54.89453125 C12.14630859 54.89743164 12.14630859 54.89743164 10.19140625 54.90039062 C9.52898926 54.88790283 8.86657227 54.87541504 8.18408203 54.86254883 C6.16166971 54.828217 4.14362637 54.84189489 2.12109375 54.86132812 C-7.68063294 54.78714755 -7.68063294 54.78714755 -10.69335938 52.41772461 C-13.98854708 48.12081934 -13.52082175 43.57111973 -13.546875 38.3984375 C-13.55257507 37.52669891 -13.55827515 36.65496033 -13.56414795 35.75680542 C-13.57359183 33.91258964 -13.5801295 32.06835703 -13.58398438 30.22412109 C-13.59368933 27.40822814 -13.62471786 24.59306541 -13.65625 21.77734375 C-13.66278043 19.98437933 -13.66803075 18.19140969 -13.671875 16.3984375 C-13.6842218 15.55870392 -13.6965686 14.71897034 -13.70928955 13.85379028 C-13.69170215 9.21962715 -13.5273539 5.91505868 -10.34375 2.265625 C-6.8793835 0.35806718 -3.91554218 0.00975402 0 0 Z " fill="#181617" transform="translate(75.34375,278.734375)"/>
<path d="M0 0 C1.49080078 -0.01836914 1.49080078 -0.01836914 3.01171875 -0.03710938 C3.97464844 -0.03904297 4.93757813 -0.04097656 5.9296875 -0.04296875 C6.80608887 -0.04707764 7.68249023 -0.05118652 8.58544922 -0.05541992 C12.36330412 0.30594959 15.02147769 1.23845876 17.91259766 3.72485352 C19.8129051 7.58478127 19.55265593 11.34437633 19.5234375 15.58984375 C19.52630768 16.50455948 19.52917786 17.41927521 19.53213501 18.36170959 C19.5341743 20.29412455 19.52865387 22.22656021 19.51611328 24.15893555 C19.50007613 27.11098626 19.515957 30.06166405 19.53515625 33.01367188 C19.53317343 34.89323218 19.52932896 36.77279163 19.5234375 38.65234375 C19.53254654 39.97285988 19.53254654 39.97285988 19.5418396 41.3200531 C19.48745802 46.07925194 19.25443067 49.34136572 16.125 53.1875 C11.69167832 55.40416084 5.7430482 54.5070093 0.875 54.5625 C-0.35347656 54.59988281 -1.58195312 54.63726562 -2.84765625 54.67578125 C-4.03746094 54.68738281 -5.22726562 54.69898438 -6.453125 54.7109375 C-8.08362793 54.7406665 -8.08362793 54.7406665 -9.74707031 54.77099609 C-13.79167607 54.0164997 -16.5268174 52.55197027 -18.875 49.1875 C-19.68754048 46.14871576 -19.62396348 43.25426905 -19.53125 40.125 C-19.52750366 39.25609131 -19.52375732 38.38718262 -19.51989746 37.49194336 C-19.50648541 35.65951121 -19.47871235 33.82713493 -19.4375 31.99511719 C-19.37520528 29.19672154 -19.35555606 26.40058283 -19.34375 23.6015625 C-19.32540654 21.81768099 -19.30465388 20.03382229 -19.28125 18.25 C-19.27275024 17.41654053 -19.26425049 16.58308105 -19.25549316 15.72436523 C-19.131339 10.65668891 -18.77640046 6.50224839 -15.4375 2.4375 C-11.14621733 -0.99552614 -5.18712649 0.00333792 0 0 Z " fill="#171516" transform="translate(278.875,278.8125)"/>
<path d="M0 0 C0.85464844 -0.01417969 1.70929688 -0.02835938 2.58984375 -0.04296875 C5.0625 0.1875 5.0625 0.1875 9.0625 2.1875 C9.0625 8.7875 9.0625 15.3875 9.0625 22.1875 C11.0425 21.8575 13.0225 21.5275 15.0625 21.1875 C15.05089844 20.35605469 15.03929687 19.52460937 15.02734375 18.66796875 C15.01832031 17.58128906 15.00929687 16.49460937 15 15.375 C14.98839844 14.29605469 14.97679687 13.21710937 14.96484375 12.10546875 C15.0625 9.1875 15.0625 9.1875 16.0625 6.1875 C18.70840014 6.16065321 21.35403096 6.14073643 24 6.125 C25.13211914 6.11243164 25.13211914 6.11243164 26.28710938 6.09960938 C28.21244313 6.09097559 30.13785581 6.13525667 32.0625 6.1875 C34.11413984 8.23913984 33.56593368 12.24014973 33.75 15.0625 C33.80994141 15.79597656 33.86988281 16.52945313 33.93164062 17.28515625 C34.19222055 21.20456396 34.30021586 22.8309262 32.0625 26.1875 C31.4025 26.1875 30.7425 26.1875 30.0625 26.1875 C30.0625 27.8375 30.0625 29.4875 30.0625 31.1875 C29.4025 31.5175 28.7425 31.8475 28.0625 32.1875 C28.0625 31.1975 28.0625 30.2075 28.0625 29.1875 C23.7725 29.1875 19.4825 29.1875 15.0625 29.1875 C14.7325 27.5375 14.4025 25.8875 14.0625 24.1875 C13.093125 24.208125 12.12375 24.22875 11.125 24.25 C8.0625 24.1875 8.0625 24.1875 7.0625 23.1875 C6.92134839 20.51691149 7.02002893 17.86317762 7.0625 15.1875 C6.381875 15.538125 5.70125 15.88875 5 16.25 C0.82857862 17.58130469 -3.00708735 17.15270632 -6.9375 15.1875 C-6.916875 16.321875 -6.89625 17.45625 -6.875 18.625 C-6.9375 22.1875 -6.9375 22.1875 -7.9375 23.1875 C-9.45678038 23.25929964 -10.97917482 23.27142007 -12.5 23.25 C-13.32628906 23.24097656 -14.15257812 23.23195313 -15.00390625 23.22265625 C-15.96103516 23.20525391 -15.96103516 23.20525391 -16.9375 23.1875 C-16.9375 22.5275 -16.9375 21.8675 -16.9375 21.1875 C-17.5975 21.1875 -18.2575 21.1875 -18.9375 21.1875 C-18.9375 21.8475 -18.9375 22.5075 -18.9375 23.1875 C-20.22663487 23.85904933 -21.51890204 24.52458859 -22.8125 25.1875 C-23.53179687 25.55875 -24.25109375 25.93 -24.9921875 26.3125 C-26.9375 27.1875 -26.9375 27.1875 -28.9375 27.1875 C-28.6075 28.1775 -28.2775 29.1675 -27.9375 30.1875 C-30.2475 29.8575 -32.5575 29.5275 -34.9375 29.1875 C-34.9375 36.1175 -34.9375 43.0475 -34.9375 50.1875 C-39.38742574 51.96747029 -41.37461531 52.39972719 -45.9375 52.1875 C-45.6075 51.5275 -45.2775 50.8675 -44.9375 50.1875 C-42.61593403 49.78020772 -40.2806213 49.44311323 -37.9375 49.1875 C-37.96368408 48.5169458 -37.98986816 47.8463916 -38.0168457 47.15551758 C-38.12107238 44.10391872 -38.18590623 41.05269458 -38.25 38 C-38.3128418 36.41735352 -38.3128418 36.41735352 -38.37695312 34.80273438 C-38.50279703 26.82423082 -38.50279703 26.82423082 -35.43359375 23.3671875 C-34.60988281 22.64789063 -33.78617188 21.92859375 -32.9375 21.1875 C-32.37318667 17.90713385 -32.37318667 17.90713385 -32.6875 14.5 C-32.99620237 8.30490474 -32.99620237 8.30490474 -31.9375 6.1875 C-29.29159986 6.16065321 -26.64596904 6.14073643 -24 6.125 C-22.86788086 6.11243164 -22.86788086 6.11243164 -21.71289062 6.09960938 C-19.78755687 6.09097559 -17.86214419 6.13525667 -15.9375 6.1875 C-14.9375 7.1875 -14.9375 7.1875 -14.83984375 10.56640625 C-14.84651631 11.96097077 -14.85847468 13.35551743 -14.875 14.75 C-14.87951172 15.46091797 -14.88402344 16.17183594 -14.88867188 16.90429688 C-14.90049136 18.66540013 -14.91842737 20.42646036 -14.9375 22.1875 C-12.9575 21.8575 -10.9775 21.5275 -8.9375 21.1875 C-8.6075 14.5875 -8.2775 7.9875 -7.9375 1.1875 C-5.02663331 0.2172111 -3.03526315 0.02282153 0 0 Z " fill="#D1B552" transform="translate(179.9375,32.8125)"/>
<path d="M0 0 C0.66 0 1.32 0 2 0 C2 5.28 2 10.56 2 16 C12.89 16 23.78 16 35 16 C35 10.72 35 5.44 35 0 C35.33 0 35.66 0 36 0 C36 11.22 36 22.44 36 34 C35.01 34.33 34.02 34.66 33 35 C31.78130071 37.50447516 31.78130071 37.50447516 31 40 C26.58355402 40.11608127 22.16749983 40.1872132 17.75 40.25 C15.86861328 40.30027344 15.86861328 40.30027344 13.94921875 40.3515625 C12.14130859 40.37089844 12.14130859 40.37089844 10.296875 40.390625 C8.63156738 40.4220459 8.63156738 40.4220459 6.93261719 40.45410156 C4 40 4 40 1.63085938 38.4921875 C-0.66464885 34.98432104 -0.49962258 31.78281095 -0.390625 27.734375 C-0.38496521 26.94097717 -0.37930542 26.14757935 -0.37347412 25.33013916 C-0.35113147 22.80280527 -0.30094176 20.27690335 -0.25 17.75 C-0.22993214 16.03387468 -0.21168187 14.31772708 -0.1953125 12.6015625 C-0.15127395 8.4004922 -0.08226326 4.20048865 0 0 Z " fill="#111111" transform="translate(63,293)"/>
<path d="M0 0 C0.33 0 0.66 0 1 0 C1.0988364 5.21438043 1.17145206 10.42821643 1.21972656 15.64331055 C1.23984903 17.41749569 1.2671503 19.19161446 1.30175781 20.96557617 C1.35024992 23.51497767 1.37296153 26.06350295 1.390625 28.61328125 C1.41127014 29.40712723 1.43191528 30.20097321 1.45318604 31.01887512 C1.45540021 36.44607083 1.45540021 36.44607083 -0.6418457 38.99707031 C-5.61403566 41.11175675 -11.12214438 40.46809598 -16.4375 40.4375 C-17.66533203 40.45748047 -18.89316406 40.47746094 -20.15820312 40.49804688 C-21.93420898 40.49708008 -21.93420898 40.49708008 -23.74609375 40.49609375 C-25.36535767 40.49887329 -25.36535767 40.49887329 -27.01733398 40.50170898 C-30.75179096 39.87354257 -32.41230791 38.74152453 -35 36 C-35.56762695 33.70996094 -35.56762695 33.70996094 -35.48828125 31.234375 C-35.47579346 30.43225586 -35.46330566 29.63013672 -35.45043945 28.80371094 C-35.40491943 27.79598633 -35.35939941 26.78826172 -35.3125 25.75 C-35.209375 22.5325 -35.10625 19.315 -35 16 C-23.78 16 -12.56 16 -1 16 C-1 11.05 -1 6.1 -1 1 C-0.67 0.67 -0.34 0.34 0 0 Z " fill="#111111" transform="translate(296,293)"/>
<path d="M0 0 C0.33 0 0.66 0 1 0 C1.00364563 1.07439835 1.00729126 2.14879669 1.01104736 3.25575256 C1.04802823 13.39317594 1.10583484 23.53029641 1.18390274 33.66748905 C1.22337025 38.87884319 1.25556238 44.09002854 1.27099609 49.30151367 C1.28616733 54.33324097 1.32062151 59.3645042 1.36830902 64.3960247 C1.38311794 66.31325682 1.39104073 68.23055519 1.39188385 70.14784431 C1.39425673 72.83872773 1.42136173 75.52833201 1.45410156 78.21899414 C1.4490712 79.00734146 1.44404083 79.79568878 1.43885803 80.60792542 C1.54291456 86.15489508 2.8133248 89.43217645 6 94 C10.27884911 96.89447195 13.82601915 97.39880573 18.9296875 97.51171875 C20.86328125 97.56489258 20.86328125 97.56489258 22.8359375 97.61914062 C24.18228642 97.64223493 25.52864072 97.66501755 26.875 97.6875 C28.24482371 97.72070883 29.61461692 97.75520175 30.984375 97.79101562 C34.3228341 97.87330159 37.66103685 97.94251928 41 98 C41 98.33 41 98.66 41 99 C36.57097701 99.12433553 32.14289934 99.21467969 27.71264648 99.2746582 C26.20823452 99.29968061 24.70394265 99.33371033 23.19995117 99.37719727 C9.08482143 99.77487245 9.08482143 99.77487245 4.47265625 96.48046875 C3.65667969 95.66191406 2.84070313 94.84335938 2 94 C2 95.98 2 97.96 2 100 C2.66 100 3.32 100 4 100 C4 100.66 4 101.32 4 102 C3.34 102 2.68 102 2 102 C2 111.57 2 121.14 2 131 C1.67 131 1.34 131 1 131 C0.98541748 129.88028809 0.97083496 128.76057617 0.95581055 127.60693359 C0.89765114 123.43571726 0.82041977 119.26503081 0.73754883 115.09423828 C0.70438227 113.29224271 0.67632475 111.49014533 0.65356445 109.68798828 C0.61986568 107.09103177 0.56754351 104.49500134 0.51171875 101.8984375 C0.50532883 101.0982016 0.4989389 100.2979657 0.49235535 99.47348022 C0.34510431 93.81725747 -0.67441431 89.45893349 -4.703125 85.19921875 C-7.92811225 83.51542439 -11.18441595 83.17984278 -14.75 82.8125 C-15.44738281 82.73064453 -16.14476563 82.64878906 -16.86328125 82.56445312 C-18.57426776 82.36522867 -20.28700037 82.18110071 -22 82 C-21.57797652 68.95947457 -21.57797652 68.95947457 -17 64 C-12.52000984 60.17883192 -6.70921286 60 -1 60 C-0.67 40.2 -0.34 20.4 0 0 Z " fill="#E8208A" transform="translate(126,96)"/>
<path d="M0 0 C0.95068359 -0.02900391 1.90136719 -0.05800781 2.88085938 -0.08789062 C7.24522024 -0.12753891 9.94518614 -0.11141257 13.79296875 2.0859375 C16.59093351 5.37426722 16.99974274 8.06768653 16.6875 12.3125 C15.33089984 15.28410035 13.98466559 17.01533441 11.6875 19.3125 C7.93830636 19.82100946 4.15474813 19.72927012 0.375 19.75 C-0.67107422 19.78287109 -1.71714844 19.81574219 -2.79492188 19.84960938 C-10.48335515 19.90344309 -10.48335515 19.90344309 -14.5078125 17.03515625 C-16.72122239 13.69587769 -16.98735453 12.11357714 -16.74609375 8.24609375 C-16.06444607 5.20631354 -14.51017713 3.44553956 -12.3125 1.3125 C-8.57439305 -0.55655348 -4.11418822 0.04133478 0 0 Z " fill="#F9F6F8" transform="translate(260.3125,177.6875)"/>
<path d="M0 0 C0.93714844 -0.00257813 1.87429687 -0.00515625 2.83984375 -0.0078125 C7.80437377 0.06260637 11.52949427 0.18039685 15.5 3.5 C16.63624119 5.77248238 16.76446843 7.28302764 16.875 9.8125 C16.92398438 10.57175781 16.97296875 11.33101562 17.0234375 12.11328125 C16.18381218 15.94172205 14.67307301 17.23295407 11.5 19.5 C7.98039153 20.17753771 4.57230303 20.10810271 1 20 C0.06285156 20.00257813 -0.87429687 20.00515625 -1.83984375 20.0078125 C-7.3409505 19.92978262 -11.41789564 19.58210436 -15.5 15.5 C-15.7734375 13.390625 -15.7734375 13.390625 -15.875 10.75 C-15.92398438 9.88890625 -15.97296875 9.0278125 -16.0234375 8.140625 C-14.31073052 -0.49959829 -7.18810543 -0.21752176 0 0 Z " fill="#FAF7F9" transform="translate(99.5,177.5)"/>
<path d="M0 0 C5.93330237 -0.1373115 10.65532649 0.37418361 16 3 C20.17891964 7.28339263 21.12631472 10.26765483 21.5625 16.125 C21.64628906 17.22070312 21.73007813 18.31640625 21.81640625 19.4453125 C21.87699219 20.28835937 21.93757813 21.13140625 22 22 C20.46279297 22.14695313 20.46279297 22.14695313 18.89453125 22.296875 C17.53375598 22.44702951 16.17308386 22.59812087 14.8125 22.75 C14.13896484 22.811875 13.46542969 22.87375 12.77148438 22.9375 C8.06392493 23.48862891 5.32128065 24.61004625 2 28 C1.649375 29.051875 1.29875 30.10375 0.9375 31.1875 C0.628125 32.115625 0.31875 33.04375 0 34 C-1.75 34.625 -1.75 34.625 -4 35 C-4.88896973 35.65967773 -5.77793945 36.31935547 -6.69384766 36.99902344 C-10.56025037 39.33907931 -12.67112832 39.4671602 -17.1484375 39.390625 C-17.80582916 39.38496521 -18.46322083 39.37930542 -19.14053345 39.37347412 C-21.21946191 39.35126275 -23.29660163 39.3011042 -25.375 39.25 C-26.79294368 39.22991489 -28.21091465 39.21166765 -29.62890625 39.1953125 C-33.08650877 39.15145067 -36.54307951 39.08253437 -40 39 C-40.33 40.32 -40.66 41.64 -41 43 C-41.66 42.67 -42.32 42.34 -43 42 C-42.34 40.68 -41.68 39.36 -41 38 C-40.1529248 37.98541748 -39.30584961 37.97083496 -38.43310547 37.95581055 C-35.26818066 37.89448823 -32.10388496 37.82028648 -28.93945312 37.73754883 C-27.5740075 37.70444614 -26.20842987 37.67636914 -24.84277344 37.65356445 C-22.87146776 37.61975009 -20.90053809 37.56591714 -18.9296875 37.51171875 C-17.74616699 37.48553467 -16.56264648 37.45935059 -15.34326172 37.43237305 C-10.92656563 36.86117626 -7.6008843 35.52063888 -4.34887695 32.43164062 C-0.17504976 26.1148724 -0.22409858 19.90104687 -0.1875 12.5 C-0.16236328 11.29601562 -0.13722656 10.09203125 -0.11132812 8.8515625 C-0.05277951 5.90071251 -0.01626168 2.95133516 0 0 Z " fill="#E8208B" transform="translate(234,156)"/>
<path d="M0 0 C10.56 0 21.12 0 32 0 C32 5.28 32 10.56 32 16 C21.44 16 10.88 16 0 16 C0 10.72 0 5.44 0 0 Z " fill="#292929" transform="translate(263,293)"/>
<path d="M0 0 C10.56 0 21.12 0 32 0 C32 5.28 32 10.56 32 16 C21.44 16 10.88 16 0 16 C0 10.72 0 5.44 0 0 Z " fill="#292929" transform="translate(65,293)"/>
<path d="M0 0 C0.99 0.495 0.99 0.495 2 1 C3.26187966 4.78563897 3.17184833 8.34617755 3.19287109 12.29174805 C3.20513733 13.56060097 3.20513733 13.56060097 3.21765137 14.85508728 C3.24248246 17.65729061 3.2590171 20.45944329 3.2734375 23.26171875 C3.27876118 24.21984781 3.28408485 25.17797688 3.28956985 26.16514015 C3.31629374 31.23825912 3.33566957 36.31135357 3.35009766 41.38452148 C3.36342842 45.57777766 3.39126629 49.77054623 3.43212891 53.96362305 C3.48151087 59.03107952 3.50622579 64.09809421 3.51332474 69.16578102 C3.52002729 71.0934411 3.53522337 73.0210917 3.55921555 74.94861412 C3.59095632 77.65335398 3.59089052 80.35640088 3.58349609 83.0612793 C3.59990143 83.85066895 3.61630676 84.64005859 3.63320923 85.45336914 C3.56737628 91.36602112 1.75724996 95.42904361 -2 100 C-4.6875 101.9375 -4.6875 101.9375 -7 103 C-7.99 103.495 -7.99 103.495 -9 104 C-11.17824961 104.08559118 -13.35915255 104.10713412 -15.5390625 104.09765625 C-17.49199219 104.09282227 -17.49199219 104.09282227 -19.484375 104.08789062 C-20.86458399 104.07953466 -22.24479232 104.07106971 -23.625 104.0625 C-25.01301926 104.05748501 -26.40104022 104.0529221 -27.7890625 104.04882812 C-31.19275132 104.03700976 -34.59635439 104.02053434 -38 104 C-38.103125 104.61875 -38.20625 105.2375 -38.3125 105.875 C-39 108 -39 108 -42 110 C-44.9651256 110.42208861 -47.9454686 110.32432621 -50.9375 110.3125 C-51.74896484 110.32861328 -52.56042969 110.34472656 -53.39648438 110.36132812 C-56.95671746 110.36424874 -59.36971899 110.32713215 -62.56640625 108.66796875 C-64 107 -64 107 -64 104 C-65.28632324 104.02356567 -65.28632324 104.02356567 -66.59863281 104.04760742 C-69.78920247 104.09882423 -72.97956215 104.13639312 -76.17041016 104.16479492 C-77.54971218 104.17985422 -78.92896653 104.20030613 -80.30810547 104.22631836 C-82.29373403 104.26282415 -84.27971618 104.27814853 -86.265625 104.29296875 C-87.45961914 104.3086792 -88.65361328 104.32438965 -89.88378906 104.34057617 C-93.23493371 103.97432368 -94.57585392 103.2746046 -97 101 C-96.1732225 101.16167664 -95.34644501 101.32335327 -94.49461365 101.4899292 C-90.67168431 102.04792067 -86.93917133 102.15511302 -83.08618164 102.16113281 C-82.31626389 102.16609772 -81.54634613 102.17106262 -80.75309753 102.17617798 C-78.22210782 102.19070814 -75.69118071 102.19758502 -73.16015625 102.203125 C-71.39188131 102.20888246 -69.62360636 102.21464011 -67.85533142 102.22039795 C-64.15428376 102.23088084 -60.45325766 102.23674173 -56.75219727 102.24023438 C-52.02005946 102.24572398 -47.28820866 102.26977338 -42.55616093 102.29820633 C-38.90578892 102.31686507 -35.25548577 102.32203995 -31.60507011 102.32357025 C-29.86082827 102.32658824 -28.1165874 102.33458781 -26.37239265 102.34775543 C-23.92911219 102.36488967 -21.48652974 102.36291835 -19.04321289 102.35644531 C-18.32974701 102.3656601 -17.61628113 102.37487488 -16.88119507 102.3843689 C-11.81587154 102.34252017 -8.41705712 101.30992794 -4 99 C-2.5181036 96.9648239 -2.5181036 96.9648239 -2 95 C-1.34 95 -0.68 95 0 95 C0 63.65 0 32.3 0 0 Z " fill="#F8B769" transform="translate(231,90)"/>
<path d="M0 0 C0.33 0 0.66 0 1 0 C1 6.6 1 13.2 1 20 C2.98 19.67 4.96 19.34 7 19 C6.98839844 18.16855469 6.97679687 17.33710937 6.96484375 16.48046875 C6.95130859 14.85044922 6.95130859 14.85044922 6.9375 13.1875 C6.92589844 12.10855469 6.91429687 11.02960937 6.90234375 9.91796875 C7 7 7 7 8 4 C10.64590014 3.97315321 13.29153096 3.95323643 15.9375 3.9375 C17.06961914 3.92493164 17.06961914 3.92493164 18.22460938 3.91210938 C20.14994313 3.90347559 22.07535581 3.94775667 24 4 C26.05163984 6.05163984 25.50343368 10.05264973 25.6875 12.875 C25.74744141 13.60847656 25.80738281 14.34195313 25.86914062 15.09765625 C26.12972055 19.01706396 26.23771586 20.6434262 24 24 C23.34 24 22.68 24 22 24 C22 25.65 22 27.3 22 29 C21.34 29.33 20.68 29.66 20 30 C20 29.01 20 28.02 20 27 C15.71 27 11.42 27 7 27 C6.67 25.35 6.34 23.7 6 22 C4.02 22 2.04 22 0 22 C0 14.74 0 7.48 0 0 Z " fill="#F6C64F" transform="translate(188,35)"/>
<path d="M0 0 C0.33 0 0.66 0 1 0 C1.00364563 1.07439835 1.00729126 2.14879669 1.01104736 3.25575256 C1.04802823 13.39317594 1.10583484 23.53029641 1.18390274 33.66748905 C1.22337025 38.87884319 1.25556238 44.09002854 1.27099609 49.30151367 C1.28616733 54.33324097 1.32062151 59.3645042 1.36830902 64.3960247 C1.38311794 66.31325682 1.39104073 68.23055519 1.39188385 70.14784431 C1.39425673 72.83872773 1.42136173 75.52833201 1.45410156 78.21899414 C1.4490712 79.00734146 1.44404083 79.79568878 1.43885803 80.60792542 C1.54291456 86.15489508 2.8133248 89.43217645 6 94 C10.27884911 96.89447195 13.82601915 97.39880573 18.9296875 97.51171875 C20.86328125 97.56489258 20.86328125 97.56489258 22.8359375 97.61914062 C24.18228642 97.64223493 25.52864072 97.66501755 26.875 97.6875 C28.24482371 97.72070883 29.61461692 97.75520175 30.984375 97.79101562 C34.3228341 97.87330159 37.66103685 97.94251928 41 98 C41 98.33 41 98.66 41 99 C36.57097701 99.12433553 32.14289934 99.21467969 27.71264648 99.2746582 C26.20823452 99.29968061 24.70394265 99.33371033 23.19995117 99.37719727 C9.08482143 99.77487245 9.08482143 99.77487245 4.47265625 96.48046875 C3.65667969 95.66191406 2.84070313 94.84335938 2 94 C2 95.98 2 97.96 2 100 C2.66 100 3.32 100 4 100 C4 100.66 4 101.32 4 102 C3.34 102 2.68 102 2 102 C2 111.57 2 121.14 2 131 C1.67 131 1.34 131 1 131 C0.97494385 129.86457764 0.9498877 128.72915527 0.92407227 127.55932617 C0.82994424 123.34924919 0.72973663 119.13933512 0.62768555 114.92944336 C0.58435713 113.10689096 0.54268053 111.28429852 0.50268555 109.46166992 C0.44493238 106.84281339 0.38125244 104.22415805 0.31640625 101.60546875 C0.29969376 100.78974899 0.28298126 99.97402924 0.26576233 99.1335907 C0.17986755 95.85820456 0.04247866 93.12743599 -1 90 C-1.14986411 88.0093556 -1.24828038 86.01464609 -1.31640625 84.01953125 C-1.35830078 82.85615234 -1.40019531 81.69277344 -1.44335938 80.49414062 C-1.48267578 79.27919922 -1.52199219 78.06425781 -1.5625 76.8125 C-1.60568359 75.58595703 -1.64886719 74.35941406 -1.69335938 73.09570312 C-1.7995309 70.06391619 -1.90157952 67.03204685 -2 64 C-5.63 63.67 -9.26 63.34 -13 63 C-13 63.66 -13 64.32 -13 65 C-14.485 65.495 -14.485 65.495 -16 66 C-16.495 66.99 -16.495 66.99 -17 68 C-17.66 68 -18.32 68 -19 68 C-18.03462169 65.45491173 -17.09382387 64.07916389 -15 62.3125 C-10.56269773 60.37118026 -5.83312482 60 -1 60 C-0.67 40.2 -0.34 20.4 0 0 Z " fill="#BD4D5D" transform="translate(126,96)"/>
<path d="M0 0 C0.66 0 1.32 0 2 0 C3.03789581 1.64333504 4.03567924 3.31243867 5 5 C7.10540926 7.31622777 7.10540926 7.31622777 11 9 C-31.24 9 -73.48 9 -117 9 C-113.24134794 7.12067397 -112.09603448 6.75088202 -108.15313721 6.75949097 C-107.18001083 6.75674164 -106.20688446 6.75399231 -105.20426941 6.75115967 C-103.61283867 6.7619455 -103.61283867 6.7619455 -101.98925781 6.77294922 C-100.30589073 6.77251114 -100.30589073 6.77251114 -98.58851624 6.77206421 C-94.87664069 6.77345829 -91.16496551 6.78902343 -87.453125 6.8046875 C-84.88051462 6.80841735 -82.30790283 6.81126445 -79.73529053 6.81326294 C-73.65446417 6.82012073 -67.57372058 6.83588599 -61.49292541 6.85596192 C-54.56915349 6.87832429 -47.64537812 6.88931519 -40.72157907 6.89935279 C-26.48101407 6.92025234 -12.24050959 6.95542622 2 7 C2 6.34 2 5.68 2 5 C1.34 5 0.68 5 0 5 C0 3.35 0 1.7 0 0 Z " fill="#DC2D85" transform="translate(233,228)"/>
<path d="M0 0 C0.86625 -0.00257812 1.7325 -0.00515625 2.625 -0.0078125 C5 0.125 5 0.125 8 1.125 C8 8.385 8 15.645 8 23.125 C7.67 23.125 7.34 23.125 7 23.125 C7 20.485 7 17.845 7 15.125 C6.319375 15.475625 5.63875 15.82625 4.9375 16.1875 C0.35090721 17.65130621 -3.51880723 16.61873092 -8 15.125 C-8 10.505 -8 5.885 -8 1.125 C-5.05173237 0.14224412 -3.07347496 -0.00914725 0 0 Z " fill="#D2BD61" transform="translate(180,32.875)"/>
<path d="M0 0 C3.3 0 6.6 0 10 0 C10 6.93 10 13.86 10 21 C6.7 21 3.4 21 0 21 C0 14.07 0 7.14 0 0 Z " fill="#D4B02D" transform="translate(175,88)"/>
<path d="M0 0 C0.66 0.33 1.32 0.66 2 1 C1.01 2.98 0.02 4.96 -1 7 C-1.66 7 -2.32 7 -3 7 C-3 37.69 -3 68.38 -3 100 C-2.34 100 -1.68 100 -1 100 C-1.33 100.99 -1.66 101.98 -2 103 C-5.44597783 98.44192152 -5.43945663 94.66883739 -5.41992188 89.18994141 C-5.42839142 88.3128804 -5.43686096 87.4358194 -5.44558716 86.53218079 C-5.46894846 83.63849304 -5.46997946 80.74533735 -5.46875 77.8515625 C-5.47585252 75.83523344 -5.48355165 73.8189064 -5.49182129 71.80258179 C-5.50526442 67.5776406 -5.50683578 63.35288627 -5.50097656 59.12792969 C-5.49508322 53.72180849 -5.52565797 48.3165862 -5.56609344 42.91063881 C-5.59198275 38.74638057 -5.59484668 34.58233834 -5.59120178 30.41801071 C-5.59289213 28.4253552 -5.60252643 26.43268962 -5.62034607 24.44011307 C-5.64255823 21.64908512 -5.63282241 18.85987103 -5.61523438 16.06884766 C-5.62849762 15.25095261 -5.64176086 14.43305756 -5.65542603 13.59037781 C-5.56755122 7.56874299 -3.86514448 4.60573223 0 0 Z " fill="#F1C962" transform="translate(132,85)"/>
<path d="M0 0 C0.33 0 0.66 0 1 0 C1 6.6 1 13.2 1 20 C2.98 19.67 4.96 19.34 7 19 C6.98839844 18.16855469 6.97679687 17.33710937 6.96484375 16.48046875 C6.95130859 14.85044922 6.95130859 14.85044922 6.9375 13.1875 C6.92589844 12.10855469 6.91429687 11.02960937 6.90234375 9.91796875 C7 7 7 7 8 4 C10.64590014 3.97315321 13.29153096 3.95323643 15.9375 3.9375 C17.06961914 3.92493164 17.06961914 3.92493164 18.22460938 3.91210938 C20.14994313 3.90347559 22.07535581 3.94775667 24 4 C26.05163984 6.05163984 25.50343368 10.05264973 25.6875 12.875 C25.74744141 13.60847656 25.80738281 14.34195313 25.86914062 15.09765625 C26.12972055 19.01706396 26.23771586 20.6434262 24 24 C23.34 24 22.68 24 22 24 C22 25.65 22 27.3 22 29 C21.34 29.33 20.68 29.66 20 30 C20 28.35 20 26.7 20 25 C19.01 24.67 18.02 24.34 17 24 C18 21 18 21 21 19 C21.57748803 17.03638136 21.57748803 17.03638136 21.6875 14.875 C21.790625 13.59625 21.89375 12.3175 22 11 C21.34 11 20.68 11 20 11 C20 10.34 20 9.68 20 9 C14.8306511 9.40556131 14.8306511 9.40556131 10 11 C9.67 9.35 9.34 7.7 9 6 C9.01160156 6.99902344 9.02320313 7.99804688 9.03515625 9.02734375 C9.04417969 10.31769531 9.05320313 11.60804687 9.0625 12.9375 C9.07410156 14.22527344 9.08570313 15.51304688 9.09765625 16.83984375 C9 20 9 20 8 21 C5.36 21 2.72 21 0 21 C0 14.07 0 7.14 0 0 Z " fill="#C4AA4A" transform="translate(188,35)"/>
<path d="M0 0 C1.20422104 -0.00099701 2.40844208 -0.00199402 3.64915466 -0.00302124 C6.19187022 0.00165497 8.73459544 0.02108155 11.27709961 0.05419922 C15.17320297 0.10143652 19.06657323 0.09531331 22.96289062 0.08203125 C25.4336101 0.09318357 27.90431803 0.10740256 30.375 0.125 C31.54172745 0.12317719 32.7084549 0.12135437 33.91053772 0.11947632 C35.53758888 0.14807236 35.53758888 0.14807236 37.19750977 0.17724609 C38.15061539 0.18646088 39.10372101 0.19567566 40.08570862 0.20516968 C43.36458033 0.87945784 44.57243734 2.12759231 46.62109375 4.7265625 C47.07519531 7.56738281 47.07519531 7.56738281 47.01171875 10.8046875 C46.99882812 11.96484375 46.9859375 13.125 46.97265625 14.3203125 C46.93914062 15.526875 46.905625 16.7334375 46.87109375 17.9765625 C46.85304688 19.19859375 46.835 20.420625 46.81640625 21.6796875 C46.76927475 24.69610328 46.70348788 27.71093741 46.62109375 30.7265625 C46.29109375 30.7265625 45.96109375 30.7265625 45.62109375 30.7265625 C45.60651123 30.08630127 45.59192871 29.44604004 45.5769043 28.78637695 C45.50217993 25.87001419 45.40560082 22.95476563 45.30859375 20.0390625 C45.27475586 18.52795898 45.27475586 18.52795898 45.24023438 16.98632812 C45.12858847 9.78963255 45.12858847 9.78963255 41.62109375 3.7265625 C38.71623268 2.75980621 35.99505493 2.58219511 32.94775391 2.53369141 C32.02644684 2.51762848 31.10513977 2.50156555 30.15591431 2.48501587 C25.96007238 2.4403497 21.76438347 2.39952677 17.56835938 2.37646484 C15.35698942 2.35988932 13.14567338 2.33257854 10.93457031 2.29443359 C7.73865094 2.23962734 4.54398243 2.21778748 1.34765625 2.203125 C0.36310455 2.18045563 -0.62144714 2.15778625 -1.63583374 2.13442993 C-5.9672828 2.14773808 -9.40390592 2.2225987 -13.00830078 4.80004883 C-15.99177576 8.48315022 -16.10333497 10.37253214 -16.03515625 15.07421875 C-16.03140991 15.76793076 -16.02766357 16.46164276 -16.02380371 17.17637634 C-16.01041195 18.63641723 -15.98267841 20.09638933 -15.94140625 21.5559082 C-15.87899196 23.78600011 -15.85945075 26.01326103 -15.84765625 28.24414062 C-15.96468115 36.28174608 -15.96468115 36.28174608 -13.37890625 43.7265625 C-13.37890625 44.7165625 -13.37890625 45.7065625 -13.37890625 46.7265625 C-14.03890625 46.7265625 -14.69890625 46.7265625 -15.37890625 46.7265625 C-17.46787953 42.44053858 -17.71516017 38.47678281 -17.75 33.79296875 C-17.75902847 33.03741196 -17.76805695 32.28185516 -17.77735901 31.50340271 C-17.79181846 29.91075579 -17.80073751 28.31805004 -17.80444336 26.7253418 C-17.81635453 24.29959529 -17.86558776 21.87638338 -17.91601562 19.45117188 C-17.92547972 17.89844983 -17.93271482 16.34571227 -17.9375 14.79296875 C-17.95703232 14.07403946 -17.97656464 13.35511017 -17.99668884 12.61439514 C-17.95893239 8.36436944 -17.25146782 4.96999779 -14.23527527 1.82756042 C-9.97954219 -0.69648153 -4.79261639 -0.07579405 0 0 Z " fill="#F4CD85" transform="translate(165.37890625,113.2734375)"/>
<path d="M0 0 C8.58 0 17.16 0 26 0 C25 4 25 4 22 6 C19.0348744 6.42208861 16.0545314 6.32432621 13.0625 6.3125 C12.25103516 6.32861328 11.43957031 6.34472656 10.60351562 6.36132812 C7.04328254 6.36424874 4.63028101 6.32713215 1.43359375 4.66796875 C0 3 0 3 0 0 Z " fill="#FDE7F4" transform="translate(167,194)"/>
<path d="M0 0 C0.99 0.495 0.99 0.495 2 1 C3.09295916 4.27887749 3.12041382 6.67267573 3.11352539 10.1237793 C3.11344986 11.38486008 3.11337433 12.64594086 3.11329651 13.94523621 C3.10818989 15.32156412 3.10297389 16.69789163 3.09765625 18.07421875 C3.09579086 19.48240611 3.09436753 20.89059411 3.09336853 22.29878235 C3.08955288 26.0026733 3.07973072 29.70652495 3.06866455 33.41040039 C3.05842997 37.19091256 3.05386652 40.97143109 3.04882812 44.75195312 C3.0381076 52.16798665 3.0210426 59.58398782 3 67 C2.34 67 1.68 67 1 67 C0.67 44.89 0.34 22.78 0 0 Z " fill="#C5AF54" transform="translate(231,90)"/>
<path d="M0 0 C1.65 0 3.3 0 5 0 C6.893457 3.2188769 7.32341105 5.71793635 7.375 9.4375 C7.40335938 10.36433594 7.43171875 11.29117188 7.4609375 12.24609375 C6.81926441 16.07981859 6.01337319 17.49330018 3 20 C-0.58321831 20.75586486 -4.09732262 20.78945559 -7.75 20.8125 C-11.1325 20.874375 -14.515 20.93625 -18 21 C-18.33 31.23 -18.66 41.46 -19 52 C-21.45378929 48.31931607 -21.30646214 46.31946281 -21.4140625 41.92578125 C-21.43342865 41.2419487 -21.4527948 40.55811615 -21.4727478 39.8535614 C-21.53243997 37.67333375 -21.57888631 35.49305298 -21.625 33.3125 C-21.66318943 31.8326595 -21.70224174 30.352841 -21.7421875 28.87304688 C-21.83813202 25.2488995 -21.92220151 21.62458743 -22 18 C-20.98631348 18.0314209 -20.98631348 18.0314209 -19.95214844 18.06347656 C-16.88491746 18.14671643 -13.81792418 18.19868466 -10.75 18.25 C-9.15478516 18.30027344 -9.15478516 18.30027344 -7.52734375 18.3515625 C-5.99013672 18.37089844 -5.99013672 18.37089844 -4.421875 18.390625 C-3.47924805 18.41157227 -2.53662109 18.43251953 -1.56542969 18.45410156 C1.75979712 17.86550984 2.92068066 16.60072419 5 14 C5.58858845 11.75472067 5.58858845 11.75472067 5.4375 9.4375 C5.43621094 8.67308594 5.43492188 7.90867188 5.43359375 7.12109375 C4.90074419 4.51445133 4.00604604 3.69214153 2 2 C1.34 1.34 0.68 0.68 0 0 Z " fill="#C86B8A" transform="translate(110,178)"/>
<path d="M0 0 C4.16468745 -0.03924323 7.94150823 0.01612321 12 1 C12 1.33 12 1.66 12 2 C8.37 2 4.74 2 1 2 C1.09539062 3.80726563 1.19078125 5.61453125 1.2890625 7.4765625 C1.401635 9.85934704 1.5135814 12.24216122 1.625 14.625 C1.68945312 15.81480469 1.75390625 17.00460938 1.8203125 18.23046875 C1.871875 19.38417969 1.9234375 20.53789062 1.9765625 21.7265625 C2.02893066 22.78439941 2.08129883 23.84223633 2.13525391 24.93212891 C1.98650314 28.30613991 1.30433729 30.89195058 0 34 C-1.75 34.625 -1.75 34.625 -4 35 C-4.88896973 35.65967773 -5.77793945 36.31935547 -6.69384766 36.99902344 C-10.56025037 39.33907931 -12.67112832 39.4671602 -17.1484375 39.390625 C-17.80582916 39.38496521 -18.46322083 39.37930542 -19.14053345 39.37347412 C-21.21946191 39.35126275 -23.29660163 39.3011042 -25.375 39.25 C-26.79294368 39.22991489 -28.21091465 39.21166765 -29.62890625 39.1953125 C-33.08650877 39.15145067 -36.54307951 39.08253437 -40 39 C-40.33 40.32 -40.66 41.64 -41 43 C-41.66 42.67 -42.32 42.34 -43 42 C-42.34 40.68 -41.68 39.36 -41 38 C-40.1529248 37.98541748 -39.30584961 37.97083496 -38.43310547 37.95581055 C-35.26818066 37.89448823 -32.10388496 37.82028648 -28.93945312 37.73754883 C-27.5740075 37.70444614 -26.20842987 37.67636914 -24.84277344 37.65356445 C-22.87146776 37.61975009 -20.90053809 37.56591714 -18.9296875 37.51171875 C-17.74616699 37.48553467 -16.56264648 37.45935059 -15.34326172 37.43237305 C-10.92656563 36.86117626 -7.6008843 35.52063888 -4.34887695 32.43164062 C-0.17504976 26.1148724 -0.22409858 19.90104687 -0.1875 12.5 C-0.16236328 11.29601562 -0.13722656 10.09203125 -0.11132812 8.8515625 C-0.05277951 5.90071251 -0.01626168 2.95133516 0 0 Z " fill="#D54473" transform="translate(234,156)"/>
<path d="M0 0 C7.26 0 14.52 0 22 0 C22.09216383 4.30609894 22.1716866 8.60873719 22.21972656 12.91503906 C22.23976332 14.37772252 22.26700104 15.84032666 22.30175781 17.30273438 C22.35063225 19.4129601 22.37304659 21.52212136 22.390625 23.6328125 C22.41157227 24.90012207 22.43251953 26.16743164 22.45410156 27.47314453 C21.80746034 32.49539139 19.63325553 35.59628309 15.83203125 38.86328125 C11.75504542 40.49969901 8.03299403 40.32126027 3.6875 40.1875 C2.43356445 40.16719727 2.43356445 40.16719727 1.15429688 40.14648438 C-0.89741498 40.11131217 -2.94879275 40.05751048 -5 40 C-5 39.67 -5 39.34 -5 39 C0.94 38.67 6.88 38.34 13 38 C13 37.34 13 36.68 13 36 C13.66 36 14.32 36 15 36 C15.66 34.68 16.32 33.36 17 32 C17.66 32 18.32 32 19 32 C19 30.35 19 28.7 19 27 C19.66 27 20.32 27 21 27 C21 18.42 21 9.84 21 1 C14.07 1 7.14 1 0 1 C0 0.67 0 0.34 0 0 Z " fill="#CB6B8C" transform="translate(249,197)"/>
<path d="M0 0 C3.89648316 0.57725676 6.1697945 2.31875268 9 5 C11.37183835 9.39253863 11.25942387 13.7157281 11.1953125 18.58203125 C11.1924826 19.39621017 11.18965271 20.2103891 11.18673706 21.04924011 C11.17558584 23.637146 11.15049083 26.22469958 11.125 28.8125 C11.11496365 30.57226061 11.10583894 32.33202667 11.09765625 34.09179688 C11.0756631 38.39466598 11.04116836 42.69727336 11 47 C10.67 47 10.34 47 10 47 C9.67 34.46 9.34 21.92 9 9 C8.34 9 7.68 9 7 9 C7 7.68 7 6.36 7 5 C6.34 5 5.68 5 5 5 C4.67 6.32 4.34 7.64 4 9 C3.01 8.67 2.02 8.34 1 8 C0.67 5.36 0.34 2.72 0 0 Z " fill="#F45594" transform="translate(116,179)"/>
<path d="M0 0 C3 0.25 3 0.25 5 2.25 C5.3125 5.25 5.3125 5.25 5 8.25 C1.79191085 10.3887261 0.72301503 10.72730962 -3 10.25 C-5.14915785 7.02626323 -5.38286803 5.98296326 -5 2.25 C-3 0.25 -3 0.25 0 0 Z " fill="#4E98BE" transform="translate(180,39.75)"/>
<path d="M0 0 C1 1 1 1 1.1875 3.9375 C1 7 1 7 -1 9 C-4 9.25 -4 9.25 -7 9 C-7.66 8.34 -8.32 7.68 -9 7 C-8.75 3.4375 -8.75 3.4375 -8 0 C-5.11795733 -1.44102133 -3.08226581 -0.65580124 0 0 Z " fill="#D56124" transform="translate(160,46)"/>
<path d="M0 0 C2 2 2 2 2.25 5 C2 8 2 8 0 10 C-3 10.3125 -3 10.3125 -6 10 C-8 7 -8 7 -7.75 3.875 C-7.37875 2.451875 -7.37875 2.451875 -7 1 C-4.48718205 -0.25640898 -2.78302919 -0.20872719 0 0 Z " fill="#DF5630" transform="translate(207,45)"/>
<path d="M0 0 C0.66 0.33 1.32 0.66 2 1 C2 12.55 2 24.1 2 36 C5.63 36 9.26 36 13 36 C13 36.33 13 36.66 13 37 C7.39 37 1.78 37 -4 37 C-2 33 -2 33 -1 32 C-0.84028023 29.62661361 -0.7407567 27.27881728 -0.68359375 24.90234375 C-0.66281265 24.19348526 -0.64203156 23.48462677 -0.62062073 22.75428772 C-0.55505402 20.48212695 -0.4962077 18.20984736 -0.4375 15.9375 C-0.39432151 14.40037817 -0.35070745 12.8632685 -0.30664062 11.32617188 C-0.19936551 7.5509041 -0.09811863 3.7755164 0 0 Z " fill="#59213B" transform="translate(100,296)"/>
<path d="M0 0 C0.33 0 0.66 0 1 0 C1.33 7.26 1.66 14.52 2 22 C6.455 23.98 6.455 23.98 11 26 C11.99 26.99 12.98 27.98 14 29 C13.34 30.32 12.68 31.64 12 33 C12 31.68 12 30.36 12 29 C10.68 29 9.36 29 8 29 C8 28.01 8 27.02 8 26 C5.36 26 2.72 26 0 26 C-1.04616643 22.8615007 -1.04169366 20.94961697 -0.87890625 17.67578125 C-0.83056641 16.64775391 -0.78222656 15.61972656 -0.73242188 14.56054688 C-0.67634766 13.48869141 -0.62027344 12.41683594 -0.5625 11.3125 C-0.51029297 10.22904297 -0.45808594 9.14558594 -0.40429688 8.02929688 C-0.27458784 5.35257409 -0.13962067 2.67622112 0 0 Z " fill="#B6A248" transform="translate(217,59)"/>
<path d="M0 0 C0.33 0 0.66 0 1 0 C1.00410889 0.94319092 1.00821777 1.88638184 1.01245117 2.8581543 C1.03948859 6.37193676 1.08862841 9.88398682 1.15258789 13.3972168 C1.17572451 14.91501168 1.19015348 16.43296613 1.19555664 17.95092773 C1.20487922 20.1388643 1.24593151 22.32430687 1.29296875 24.51171875 C1.31653442 26.48338013 1.31653442 26.48338013 1.34057617 28.49487305 C1.79756252 32.73786353 1.79756252 32.73786353 7 37 C1.72 37 -3.56 37 -9 37 C-9 36.67 -9 36.34 -9 36 C-6.36 35.67 -3.72 35.34 -1 35 C-0.67 23.45 -0.34 11.9 0 0 Z " fill="#58223B" transform="translate(259,296)"/>
<path d="M0 0 C0.33 0 0.66 0 1 0 C1.22171552 2.60365928 1.42784859 5.20696493 1.625 7.8125 C1.68945312 8.55048828 1.75390625 9.28847656 1.8203125 10.04882812 C2.2265625 15.66015625 2.2265625 15.66015625 0 19 C-0.66 19 -1.32 19 -2 19 C-2 20.65 -2 22.3 -2 24 C-2.66 24.33 -3.32 24.66 -4 25 C-4 23.35 -4 21.7 -4 20 C-4.99 19.67 -5.98 19.34 -7 19 C-6 16 -6 16 -3 14 C-2.42251197 12.03638136 -2.42251197 12.03638136 -2.3125 9.875 C-2.209375 8.59625 -2.10625 7.3175 -2 6 C-1.67 6 -1.34 6 -1 6 C-0.67 4.02 -0.34 2.04 0 0 Z " fill="#D3B245" transform="translate(212,40)"/>
<path d="M0 0 C1.23556641 0.01740234 1.23556641 0.01740234 2.49609375 0.03515625 C3.32238281 0.04417969 4.14867187 0.05320313 5 0.0625 C5.63808594 0.07410156 6.27617187 0.08570313 6.93359375 0.09765625 C6.93359375 0.75765625 6.93359375 1.41765625 6.93359375 2.09765625 C7.92359375 2.42765625 8.91359375 2.75765625 9.93359375 3.09765625 C9.93359375 5.40765625 9.93359375 7.71765625 9.93359375 10.09765625 C9.27359375 10.09765625 8.61359375 10.09765625 7.93359375 10.09765625 C7.93359375 10.75765625 7.93359375 11.41765625 7.93359375 12.09765625 C5.13489348 13.49700638 3.02860583 13.3503103 -0.06640625 13.09765625 C-1.7421875 11.87109375 -1.7421875 11.87109375 -3.06640625 10.09765625 C-3.39453125 7.87109375 -3.39453125 7.87109375 -3.31640625 5.47265625 C-3.3009375 4.67601562 -3.28546875 3.879375 -3.26953125 3.05859375 C-2.98821801 0.34283905 -2.73661507 0.12932963 0 0 Z M-0.81640625 2.28515625 C-2.48644565 4.70671338 -2.43603038 6.21458807 -2.06640625 9.09765625 C-0.18140354 11.41328712 -0.18140354 11.41328712 2.93359375 11.34765625 C6.04859104 11.41328712 6.04859104 11.41328712 7.93359375 9.09765625 C8.35026042 6.09765625 8.35026042 6.09765625 7.93359375 3.09765625 C4.73236552 0.96350409 2.61070391 -0.04038279 -0.81640625 2.28515625 Z " fill="#FDBC54" transform="translate(153.06640625,43.90234375)"/>
<path d="M0 0 C4.62 0 9.24 0 14 0 C14 1.98 14 3.96 14 6 C13.01 5.67 12.02 5.34 11 5 C9.10787263 4.77820215 7.21115528 4.59385985 5.3125 4.4375 C4.31863281 4.35371094 3.32476562 4.26992188 2.30078125 4.18359375 C1.16189453 4.09271484 1.16189453 4.09271484 0 4 C0 2.68 0 1.36 0 0 Z " fill="#F3CE43" transform="translate(173,35)"/>
<path d="M0 0 C8.58 0 17.16 0 26 0 C25.67 0.66 25.34 1.32 25 2 C22.27119539 2.19555932 19.54228931 2.38170447 16.8125 2.5625 C15.65911133 2.64661133 15.65911133 2.64661133 14.48242188 2.73242188 C10.45938647 2.99141557 6.93927628 3.06573607 3 2 C2.67 2.99 2.34 3.98 2 5 C1.34 4.34 0.68 3.68 0 3 C0 2.01 0 1.02 0 0 Z " fill="#FDF3DD" transform="translate(167,194)"/>
<path d="M0 0 C0.598125 0.763125 1.19625 1.52625 1.8125 2.3125 C4.64823013 5.79639702 6.79895838 8.2961365 11 10 C14.19441452 10.36651541 14.19441452 10.36651541 17.734375 10.4140625 C19.02988281 10.45273438 20.32539063 10.49140625 21.66015625 10.53125 C23.02343284 10.56270267 24.38671418 10.59395007 25.75 10.625 C27.12893028 10.66320469 28.50783734 10.70225787 29.88671875 10.7421875 C33.25767718 10.83648004 36.62862978 10.9220822 40 11 C40 11.33 40 11.66 40 12 C35.53432237 12.09917794 31.06923493 12.17161225 26.6027832 12.21972656 C25.0847659 12.23979203 23.56682541 12.26705134 22.04907227 12.30175781 C19.86194878 12.35050393 17.67585048 12.37301805 15.48828125 12.390625 C14.17384033 12.41157227 12.85939941 12.43251953 11.50512695 12.45410156 C6.59047759 11.8173914 4.41554293 9.56197841 1.1875 6 C0 4 0 4 0 0 Z " fill="#DE526B" transform="translate(127,183)"/>
<path d="M0 0 C0.33 0 0.66 0 1 0 C1.33 4.95 1.66 9.9 2 15 C2.33 15 2.66 15 3 15 C3 17.97 3 20.94 3 24 C-0.82989106 25.80230168 -3.78121808 26.19622241 -8 26 C-7.67 25.34 -7.34 24.68 -7 24 C-3.535 23.505 -3.535 23.505 0 23 C0 15.41 0 7.82 0 0 Z " fill="#AF9841" transform="translate(142,59)"/>
<path d="M0 0 C3.80396915 1.0566581 6.10984781 2.53604486 8.21875 5.9375 C9.90680576 10.39396722 9.84728616 15.28114237 10 20 C8.02 20 6.04 20 4 20 C4.99 19.67 5.98 19.34 7 19 C6.8328976 10.40349197 6.8328976 10.40349197 3 3 C2.01 2.67 1.02 2.34 0 2 C0 1.34 0 0.68 0 0 Z " fill="#BC387A" transform="translate(246,158)"/>
<path d="M0 0 C0.66 0.33 1.32 0.66 2 1 C1.67 1.33 1.34 1.66 1 2 C0.89897352 4.53519278 0.8602956 7.04252339 0.8671875 9.578125 C0.86623077 10.34171326 0.86527405 11.10530151 0.86428833 11.89202881 C0.86360627 13.51281822 0.86546237 15.13361033 0.86962891 16.75439453 C0.87494759 19.22564931 0.86970008 21.69671989 0.86328125 24.16796875 C0.8639426 25.7421879 0.86522494 27.31640693 0.8671875 28.890625 C0.86516327 29.62726379 0.86313904 30.36390259 0.86105347 31.12286377 C0.87801381 34.87375507 1.10032165 38.35304169 2 42 C1.01 41.34 0.02 40.68 -1 40 C-1.27902671 37.0321878 -1.3717594 34.27585726 -1.328125 31.30859375 C-1.32625183 30.44814957 -1.32437866 29.58770538 -1.32244873 28.70118713 C-1.31572136 26.88123707 -1.30179329 25.06130163 -1.28125 23.24145508 C-1.25008737 20.4453397 -1.24028002 17.64978744 -1.234375 14.85351562 C-1.2252057 13.08853475 -1.21483016 11.32355963 -1.203125 9.55859375 C-1.19887512 8.71695175 -1.19462524 7.87530975 -1.19024658 7.00816345 C-1.11714861 1.11714861 -1.11714861 1.11714861 0 0 Z " fill="#F0CD5B" transform="translate(148,118)"/>
<path d="M0 0 C1.32 0 2.64 0 4 0 C4 7.26 4 14.52 4 22 C3.67 22 3.34 22 3 22 C3 19.36 3 16.72 3 14 C2.34 14 1.68 14 1 14 C0.34 11.69 -0.32 9.38 -1 7 C-3.97 6.505 -3.97 6.505 -7 6 C-7 5.67 -7 5.34 -7 5 C-0.375 4.75 -0.375 4.75 3 7 C3 5.02 3 3.04 3 1 C2.01 0.67 1.02 0.34 0 0 Z " fill="#DACB70" transform="translate(184,34)"/>
<path d="M0 0 C-0.33 0.99 -0.66 1.98 -1 3 C-4.96 2.67 -8.92 2.34 -13 2 C-13 2.66 -13 3.32 -13 4 C-13.99 4.33 -14.98 4.66 -16 5 C-16.33 5.66 -16.66 6.32 -17 7 C-17.66 7 -18.32 7 -19 7 C-17.54163185 3.15521125 -15.63541701 1.8177085 -12 0 C-8.15449432 -1.36453427 -3.70790918 -1.85395459 0 0 Z " fill="#B33776" transform="translate(126,157)"/>
<path d="M0 0 C1.98 0 3.96 0 6 0 C6 1.98 6 3.96 6 6 C4.34385343 6.38218767 2.67542976 6.71395102 1 7 C0 6 0 6 -0.0625 2.9375 C-0.041875 1.968125 -0.02125 0.99875 0 0 Z " fill="#E64D33" transform="translate(153,47)"/>
<path d="M0 0 C0 1.98 0 3.96 0 6 C-0.99 5.67 -1.98 5.34 -3 5 C-3 4.34 -3 3.68 -3 3 C-5.97 3 -8.94 3 -12 3 C-12 2.34 -12 1.68 -12 1 C-7.93631321 0.22596442 -4.13574827 -0.0984702 0 0 Z " fill="#F5CE3F" transform="translate(163,41)"/>
<path d="M0 0 C3.74959217 -0.14528105 7.49846105 -0.23406281 11.25 -0.3125 C12.84521484 -0.3753418 12.84521484 -0.3753418 14.47265625 -0.43945312 C22.38800648 -0.56390832 22.38800648 -0.56390832 25.734375 2.51953125 C26.15203125 3.33808594 26.5696875 4.15664062 27 5 C24.525 4.505 24.525 4.505 22 4 C21.67 3.01 21.34 2.02 21 1 C14.07 1 7.14 1 0 1 C0 0.67 0 0.34 0 0 Z " fill="#DB347E" transform="translate(144,195)"/>
<path d="M0 0 C0.61488281 0.08378906 1.22976562 0.16757812 1.86328125 0.25390625 C3.07564453 0.40666016 3.07564453 0.40666016 4.3125 0.5625 C5.11300781 0.66691406 5.91351563 0.77132812 6.73828125 0.87890625 C9.16817116 1.14755178 9.16817116 1.14755178 12 0 C11.67 0.99 11.34 1.98 11 3 C9.02 3 7.04 3 5 3 C4.67 3.99 4.34 4.98 4 6 C2.68 5.67 1.36 5.34 0 5 C0 3.35 0 1.7 0 0 Z " fill="#E6D058" transform="translate(173,48)"/>
<path d="M0 0 C1.32 0.33 2.64 0.66 4 1 C4 9.25 4 17.5 4 26 C3.67 26 3.34 26 3 26 C2.67 18.41 2.34 10.82 2 3 C1.34 2.67 0.68 2.34 0 2 C0 1.34 0 0.68 0 0 Z " fill="#E1C965" transform="translate(213,56)"/>
<path d="M0 0 C0.33 0.66 0.66 1.32 1 2 C0.34 2 -0.32 2 -1 2 C-1.309375 2.639375 -1.61875 3.27875 -1.9375 3.9375 C-3 6 -3 6 -4 7 C-4.23192865 8.51469448 -4.41215238 10.03754562 -4.5625 11.5625 C-4.64628906 12.38878906 -4.73007813 13.21507812 -4.81640625 14.06640625 C-4.87699219 14.70449219 -4.93757813 15.34257812 -5 16 C-5.66 16 -6.32 16 -7 16 C-6.58473282 5.30687023 -6.58473282 5.30687023 -2 1 C-1.34 0.67 -0.68 0.34 0 0 Z " fill="#39202B" transform="translate(101,264)"/>
<path d="M0 0 C0.33 0 0.66 0 1 0 C1.07347656 1.26457031 1.07347656 1.26457031 1.1484375 2.5546875 C1.22320312 3.65039062 1.29796875 4.74609375 1.375 5.875 C1.44460937 6.96554688 1.51421875 8.05609375 1.5859375 9.1796875 C1.73253491 12.13046474 1.73253491 12.13046474 4 14 C2.02 14 0.04 14 -2 14 C-1.85923685 12.0412957 -1.7122324 10.08303907 -1.5625 8.125 C-1.48128906 7.03445312 -1.40007812 5.94390625 -1.31640625 4.8203125 C-1 2 -1 2 0 0 Z " fill="#AF3A75" transform="translate(106,164)"/>
<path d="M0 0 C0.33 0 0.66 0 1 0 C1.66 2.97 2.32 5.94 3 9 C0.36 9 -2.28 9 -5 9 C-4 6 -4 6 -1 4 C-0.27617533 1.94074861 -0.27617533 1.94074861 0 0 Z " fill="#D3BB4A" transform="translate(148,50)"/>
<path d="M0 0 C0.33 0 0.66 0 1 0 C1.06058594 1.12019531 1.12117187 2.24039063 1.18359375 3.39453125 C1.26801424 4.86719984 1.35266149 6.33985544 1.4375 7.8125 C1.47681641 8.55048828 1.51613281 9.28847656 1.55664062 10.04882812 C1.74381035 13.23071342 1.98720793 15.96162378 3 19 C2.34 19.99 1.68 20.98 1 22 C-0.20029908 19.59940183 -0.11459743 18.10639351 -0.09765625 15.4296875 C-0.09443359 14.53378906 -0.09121094 13.63789063 -0.08789062 12.71484375 C-0.07951172 11.77769531 -0.07113281 10.84054688 -0.0625 9.875 C-0.05798828 8.93011719 -0.05347656 7.98523438 -0.04882812 7.01171875 C-0.03702357 4.67441613 -0.02055759 2.33723939 0 0 Z " fill="#F85898" transform="translate(234,208)"/>
<path d="M0 0 C0.99 0 1.98 0 3 0 C3 2.97 3 5.94 3 9 C3.66 9.33 4.32 9.66 5 10 C3.68 10 2.36 10 1 10 C1 8.35 1 6.7 1 5 C0.34 4.67 -0.32 4.34 -1 4 C-0.67 2.68 -0.34 1.36 0 0 Z " fill="#F9C358" transform="translate(130,180)"/>
<path d="M0 0 C1.65 0 3.3 0 5 0 C7.02558881 3.34939881 7.21738987 5.86962551 7.125 9.75 C7.10695313 10.73484375 7.08890625 11.7196875 7.0703125 12.734375 C7.03550781 13.85585937 7.03550781 13.85585937 7 15 C6.34 14.67 5.68 14.34 5 14 C5.05220703 13.07767578 5.05220703 13.07767578 5.10546875 12.13671875 C5.14607422 10.92435547 5.14607422 10.92435547 5.1875 9.6875 C5.22230469 8.88699219 5.25710937 8.08648437 5.29296875 7.26171875 C4.93163845 4.47224887 4.13059047 3.75915581 2 2 C1.34 1.34 0.68 0.68 0 0 Z " fill="#E26C99" transform="translate(110,178)"/>
<path d="M0 0 C0.66 0.33 1.32 0.66 2 1 C1.01 2.98 0.02 4.96 -1 7 C-1.66 7 -2.32 7 -3 7 C-3.33 7.99 -3.66 8.98 -4 10 C-4.33 9.01 -4.66 8.02 -5 7 C-4.00390625 5.17578125 -4.00390625 5.17578125 -2.5625 3.3125 C-2.08941406 2.68988281 -1.61632812 2.06726563 -1.12890625 1.42578125 C-0.75636719 0.95527344 -0.38382813 0.48476562 0 0 Z " fill="#C8B358" transform="translate(132,85)"/>
<path d="M0 0 C3.3 0.33 6.6 0.66 10 1 C9.01 2.485 9.01 2.485 8 4 C6.68 4 5.36 4 4 4 C4 3.34 4 2.68 4 2 C2.68 2 1.36 2 0 2 C0 1.34 0 0.68 0 0 Z " fill="#F2D03B" transform="translate(197,56)"/>
<path d="M0 0 C0.33 0 0.66 0 1 0 C1.0825 1.216875 1.165 2.43375 1.25 3.6875 C1.73758372 7.78465871 3.09510536 10.00139908 6 13 C1.125 12.125 1.125 12.125 0 11 C-0.07226502 9.14712498 -0.0838122 7.29166122 -0.0625 5.4375 C-0.05347656 4.42558594 -0.04445312 3.41367188 -0.03515625 2.37109375 C-0.02355469 1.58863281 -0.01195312 0.80617187 0 0 Z " fill="#DF6B93" transform="translate(243,184)"/>
<path d="M0 0 C2.62187494 1.04874998 3.79371361 1.64931313 5.25 4.125 C5.4975 4.74375 5.745 5.3625 6 6 C5.34 6.66 4.68 7.32 4 8 C4 6.68 4 5.36 4 4 C2.68 4 1.36 4 0 4 C0 2.68 0 1.36 0 0 Z " fill="#CDB757" transform="translate(225,84)"/>
<path d="M0 0 C1.65 0 3.3 0 5 0 C5 0.99 5 1.98 5 3 C4.01 3 3.02 3 2 3 C1.67 3.66 1.34 4.32 1 5 C0.67 3.35 0.34 1.7 0 0 Z " fill="#E84A42" transform="translate(154,47)"/>
<path d="M0 0 C1.32 0 2.64 0 4 0 C3.67 1.32 3.34 2.64 3 4 C1.35 4 -0.3 4 -2 4 C-2 3.34 -2 2.68 -2 2 C-1.34 2 -0.68 2 0 2 C0 1.34 0 0.68 0 0 Z " fill="#EDD04F" transform="translate(180,35)"/>
<path d="M0 0 C3.875 4.75 3.875 4.75 5 7 C3.35 6.67 1.7 6.34 0 6 C0 4.02 0 2.04 0 0 Z " fill="#4C0526" transform="translate(116,268)"/>
<path d="" fill="#000000" transform="translate(0,0)"/>
<path d="" fill="#000000" transform="translate(0,0)"/>
<path d="" fill="#000000" transform="translate(0,0)"/>
<path d="" fill="#000000" transform="translate(0,0)"/>
<path d="" fill="#000000" transform="translate(0,0)"/>
<path d="" fill="#000000" transform="translate(0,0)"/>
<path d="" fill="#000000" transform="translate(0,0)"/>
<path d="" fill="#000000" transform="translate(0,0)"/>
<path d="" fill="#000000" transform="translate(0,0)"/>
<path d="" fill="#000000" transform="translate(0,0)"/>
<path d="" fill="#000000" transform="translate(0,0)"/>
<path d="" fill="#000000" transform="translate(0,0)"/>
<path d="" fill="#000000" transform="translate(0,0)"/>
<path d="" fill="#000000" transform="translate(0,0)"/>
<path d="" fill="#000000" transform="translate(0,0)"/>
<path d="" fill="#000000" transform="translate(0,0)"/>
<path d="" fill="#000000" transform="translate(0,0)"/>
<path d="" fill="#000000" transform="translate(0,0)"/>
<path d="" fill="#000000" transform="translate(0,0)"/>
<path d="" fill="#FFFFFF" transform="translate(0,0)"/>
<path d="" fill="#000000" transform="translate(0,0)"/>
<path d="" fill="#000000" transform="translate(0,0)"/>
<path d="" fill="#000000" transform="translate(0,0)"/>
<path d="" fill="#000000" transform="translate(0,0)"/>
<path d="" fill="#000000" transform="translate(0,0)"/>
<path d="" fill="#000000" transform="translate(0,0)"/>
<path d="" fill="#000000" transform="translate(0,0)"/>
<path d="" fill="#000000" transform="translate(0,0)"/>
<path d="" fill="#000000" transform="translate(0,0)"/>
<path d="" fill="#000000" transform="translate(0,0)"/>
<path d="" fill="#000000" transform="translate(0,0)"/>
<path d="" fill="#000000" transform="translate(0,0)"/>
<path d="" fill="#000000" transform="translate(0,0)"/>
<path d="" fill="#000000" transform="translate(0,0)"/>
<path d="" fill="#000000" transform="translate(0,0)"/>
<path d="" fill="#000000" transform="translate(0,0)"/>
<path d="" fill="#000000" transform="translate(0,0)"/>
<path d="" fill="#000000" transform="translate(0,0)"/>
<path d="" fill="#000000" transform="translate(0,0)"/>
<path d="" fill="#000000" transform="translate(0,0)"/>
<path d="" fill="#000000" transform="translate(0,0)"/>
<path d="" fill="#000000" transform="translate(0,0)"/>
<path d="" fill="#000000" transform="translate(0,0)"/>
<path d="" fill="#000000" transform="translate(0,0)"/>
<path d="" fill="#000000" transform="translate(0,0)"/>
<path d="" fill="#000000" transform="translate(0,0)"/>
<path d="" fill="#000000" transform="translate(0,0)"/>
<path d="" fill="#000000" transform="translate(0,0)"/>
<path d="" fill="#000000" transform="translate(0,0)"/>
<path d="" fill="#000000" transform="translate(0,0)"/>
</svg>
