<?xml version="1.0" encoding="UTF-8"?>
<svg version="1.1" xmlns="http://www.w3.org/2000/svg" width="354" height="348">
<path d="M0 0 C0.99773437 0.02320312 1.99546875 0.04640625 3.0234375 0.0703125 C4.02632813 0.08835937 5.02921875 0.10640625 6.0625 0.125 C6.83335937 0.14820312 7.60421875 0.17140625 8.3984375 0.1953125 C10.24975233 4.12389004 10.61848693 7.18306362 10.5234375 11.5078125 C10.50539063 12.57644531 10.48734375 13.64507812 10.46875 14.74609375 C10.44554687 15.55433594 10.42234375 16.36257812 10.3984375 17.1953125 C11.3884375 17.1953125 12.3784375 17.1953125 13.3984375 17.1953125 C13.7284375 13.8953125 14.0584375 10.5953125 14.3984375 7.1953125 C18.80758533 6.09302554 22.88226151 6.11876714 27.3984375 6.1953125 C27.3984375 10.1553125 27.3984375 14.1153125 27.3984375 18.1953125 C29.0484375 18.5253125 30.6984375 18.8553125 32.3984375 19.1953125 C33.3984375 20.1953125 33.3984375 20.1953125 33.49609375 23.79296875 C33.4894197 25.28128117 33.47745933 26.76957682 33.4609375 28.2578125 C33.45642578 29.01642578 33.45191406 29.77503906 33.44726562 30.55664062 C33.4354443 32.43623121 33.41750828 34.31578149 33.3984375 36.1953125 C34.13449219 36.16050781 34.87054688 36.12570313 35.62890625 36.08984375 C45.65238541 35.81178158 45.65238541 35.81178158 49.3984375 39.1953125 C51.49387556 42.18879545 51.5984108 44.59579309 51.3984375 48.1953125 C52.72875 48.040625 52.72875 48.040625 54.0859375 47.8828125 C58.43782056 48.29336751 59.65817104 49.90699275 62.3984375 53.1953125 C63.58117513 55.56078777 63.53747488 57.01874452 63.55957031 59.6574707 C63.56917786 60.58215652 63.5787854 61.50684235 63.58868408 62.45954895 C63.5950589 63.96263863 63.5950589 63.96263863 63.6015625 65.49609375 C63.60726257 66.5246196 63.61296265 67.55314545 63.61883545 68.61283875 C63.62829369 70.79258187 63.63482269 72.97233936 63.63867188 75.15209961 C63.64836767 78.48381602 63.67937966 81.8149131 63.7109375 85.14648438 C63.71746843 87.26301717 63.72271855 89.37955437 63.7265625 91.49609375 C63.7389093 92.49208084 63.7512561 93.48806793 63.76397705 94.51423645 C63.73581956 103.27872749 63.73581956 103.27872749 60.3984375 107.1953125 C56.85245482 109.55930096 55.16514651 109.49349624 50.9609375 109.5078125 C49.82785156 109.52457031 48.69476563 109.54132813 47.52734375 109.55859375 C44.17518037 109.16939126 42.8322478 108.46168621 40.3984375 106.1953125 C39.9653125 107.3090625 39.5321875 108.4228125 39.0859375 109.5703125 C37.3984375 113.1953125 37.3984375 113.1953125 34.3984375 115.1953125 C32.3137207 115.42236328 32.3137207 115.42236328 29.94921875 115.390625 C29.10166016 115.38417969 28.25410156 115.37773437 27.38085938 115.37109375 C26.49978516 115.35433594 25.61871094 115.33757812 24.7109375 115.3203125 C23.81826172 115.31128906 22.92558594 115.30226563 22.00585938 115.29296875 C19.80327084 115.26941165 17.60082025 115.23354094 15.3984375 115.1953125 C15.3984375 120.8053125 15.3984375 126.4153125 15.3984375 132.1953125 C17.0278125 132.0303125 18.6571875 131.8653125 20.3359375 131.6953125 C27.31225863 131.17112483 34.27867872 131.01441159 41.2734375 130.9453125 C42.35488037 130.92404297 43.43632324 130.90277344 44.55053711 130.88085938 C50.61669473 130.85455218 55.08744861 131.15942663 60.3984375 134.1953125 C63.07456284 137.56205083 63.3984375 138.80734903 63.3984375 143.1953125 C67.0284375 143.1953125 70.6584375 143.1953125 74.3984375 143.1953125 C74.7284375 141.8753125 75.0584375 140.5553125 75.3984375 139.1953125 C78.10406493 137.84249879 80.31737405 137.98921888 83.3359375 137.9453125 C84.92728516 137.90664063 84.92728516 137.90664063 86.55078125 137.8671875 C89.3984375 138.1953125 89.3984375 138.1953125 91.21484375 139.5234375 C93.71191203 143.05064946 93.5622293 146.45542722 93.5859375 150.6328125 C93.60011719 151.76589844 93.61429688 152.89898437 93.62890625 154.06640625 C93.40748611 157.07246607 93.0657031 158.72073934 91.3984375 161.1953125 C88.99301821 162.39802214 87.29477159 162.39847913 84.609375 162.51171875 C83.19785156 162.57456055 83.19785156 162.57456055 81.7578125 162.63867188 C80.77296875 162.67798828 79.788125 162.71730469 78.7734375 162.7578125 C77.78085938 162.80099609 76.78828125 162.84417969 75.765625 162.88867188 C73.31003912 162.99492319 70.85435047 163.09696214 68.3984375 163.1953125 C68.7284375 163.8553125 69.0584375 164.5153125 69.3984375 165.1953125 C69.63303699 169.26312548 69.62685446 173.33268286 69.63867188 177.40673828 C69.64833506 179.42392891 69.6793378 181.44008166 69.7109375 183.45703125 C69.71867187 185.37708984 69.71867187 185.37708984 69.7265625 187.3359375 C69.7359082 188.50672852 69.74525391 189.67751953 69.75488281 190.88378906 C69.25344493 195.54235309 67.71108461 198.88266539 64.3984375 202.1953125 C65.56761719 202.23269531 66.73679688 202.27007812 67.94140625 202.30859375 C69.48961425 202.3742753 71.03778992 202.44072189 72.5859375 202.5078125 C73.73932617 202.54165039 73.73932617 202.54165039 74.91601562 202.57617188 C79.4559339 202.79050278 82.79505055 203.13768125 86.3984375 206.1953125 C88.31363404 211.45352236 87.62310111 217.53098877 87.63867188 223.03979492 C87.64839003 225.12263749 87.67944615 227.20449751 87.7109375 229.28710938 C87.71867187 231.26614258 87.71867187 231.26614258 87.7265625 233.28515625 C87.7359082 234.49034912 87.74525391 235.69554199 87.75488281 236.93725586 C87.33459938 240.77881912 86.1501545 243.4435955 83.3984375 246.1953125 C80.78787312 246.3617692 78.20222924 246.46229497 75.58837891 246.52050781 C74.75720425 246.54205177 73.92602959 246.56359573 73.06966782 246.58579254 C70.25489287 246.65526738 67.44003119 246.71530474 64.625 246.7734375 C63.64134083 246.79476997 62.65768166 246.81610245 61.64421463 246.83808136 C36.29887194 247.37110053 10.95618372 247.22570716 -14.39208984 247.00830078 C-20.3624602 246.95772185 -26.33273386 246.92232033 -32.30323756 246.89436698 C-38.14096614 246.86620316 -43.97847906 246.82175793 -49.81605148 246.77106476 C-52.26969507 246.75191269 -54.72338147 246.73759469 -57.17708206 246.72826385 C-60.56056537 246.71403018 -63.94336823 246.6812265 -67.32666016 246.64355469 C-68.32986298 246.64341873 -69.3330658 246.64328278 -70.3666687 246.6431427 C-71.7393692 246.62216774 -71.7393692 246.62216774 -73.13980103 246.60076904 C-73.9340127 246.59486126 -74.72822437 246.58895348 -75.54650307 246.58286667 C-78.14255266 246.09328966 -79.00240597 245.26602746 -80.6015625 243.1953125 C-82.3326869 238.00193931 -81.82702857 232.43622044 -81.84179688 226.99902344 C-81.85149714 224.83489465 -81.88253017 222.67171831 -81.9140625 220.5078125 C-81.92059377 219.12500562 -81.92584376 217.74219197 -81.9296875 216.359375 C-81.9390332 215.10592285 -81.94837891 213.8524707 -81.95800781 212.56103516 C-81.57481512 208.94275125 -80.78463453 207.07263598 -78.6015625 204.1953125 C-75.30196109 202.5455118 -71.61028366 202.81272889 -67.9765625 202.6328125 C-67.17476562 202.58962891 -66.37296875 202.54644531 -65.546875 202.50195312 C-63.5653114 202.39579793 -61.58345979 202.29504395 -59.6015625 202.1953125 C-60.25511719 201.34453125 -60.90867187 200.49375 -61.58203125 199.6171875 C-64.93490176 193.74263891 -64.05901 186.99693962 -63.9140625 180.4453125 C-63.90255416 179.10548259 -63.89277403 177.76563666 -63.88476562 176.42578125 C-63.77102827 166.7037098 -63.77102827 166.7037098 -62.6015625 163.1953125 C-63.5915625 163.21851563 -64.5815625 163.24171875 -65.6015625 163.265625 C-79.22798469 163.48980051 -79.22798469 163.48980051 -85.6015625 161.1953125 C-87.30501995 157.78839759 -86.82818616 154.01263733 -86.8515625 150.2578125 C-86.8825 149.0212793 -86.8825 149.0212793 -86.9140625 147.75976562 C-86.91921875 146.96634766 -86.924375 146.17292969 -86.9296875 145.35546875 C-86.94370605 144.26697632 -86.94370605 144.26697632 -86.95800781 143.15649414 C-86.49679233 140.61886128 -85.62731878 139.74806322 -83.6015625 138.1953125 C-80.82421875 137.76171875 -80.82421875 137.76171875 -77.6640625 137.7578125 C-76.62378906 137.73847656 -75.58351563 137.71914062 -74.51171875 137.69921875 C-70.93726557 138.30855506 -70.06136009 139.64533903 -67.6015625 142.1953125 C-65.24631589 142.67453609 -65.24631589 142.67453609 -62.8515625 142.4453125 C-62.05234375 142.40921875 -61.253125 142.373125 -60.4296875 142.3359375 C-59.82640625 142.28953125 -59.223125 142.243125 -58.6015625 142.1953125 C-58.1890625 141.1021875 -57.7765625 140.0090625 -57.3515625 138.8828125 C-56.09300479 135.54763456 -54.63148562 134.08019717 -51.6015625 132.1953125 C-42.41783692 130.45969398 -32.59932303 131.07159177 -23.2890625 131.1328125 C-21.95117358 131.13784643 -20.6132828 131.14240593 -19.27539062 131.14648438 C-16.05076119 131.15812564 -12.82615545 131.17605481 -9.6015625 131.1953125 C-9.6015625 125.9153125 -9.6015625 120.6353125 -9.6015625 115.1953125 C-10.91511719 115.25332031 -12.22867188 115.31132812 -13.58203125 115.37109375 C-15.31767273 115.41800298 -17.05335273 115.46350189 -18.7890625 115.5078125 C-19.65337891 115.54970703 -20.51769531 115.59160156 -21.40820312 115.63476562 C-25.98212195 115.72238859 -27.93811686 115.70982136 -31.6640625 112.8203125 C-33.40466787 110.46207297 -34.28203024 109.07110282 -34.6015625 106.1953125 C-35.12878906 106.68 -35.65601563 107.1646875 -36.19921875 107.6640625 C-40.78856376 110.58930355 -46.36702733 109.9250956 -51.6015625 109.1953125 C-54.65410985 107.52353201 -56.04976001 105.29891747 -57.6015625 102.1953125 C-57.70129203 100.70518511 -57.73987064 99.21072991 -57.74682617 97.71728516 C-57.75320602 96.78937164 -57.75958588 95.86145813 -57.76615906 94.90542603 C-57.76727188 93.90022919 -57.7683847 92.89503235 -57.76953125 91.859375 C-57.77285965 90.82847748 -57.77618805 89.79757996 -57.77961731 88.73544312 C-57.78468674 86.55149787 -57.78702563 84.36754487 -57.78686523 82.18359375 C-57.78904897 78.84101585 -57.80719709 75.49876934 -57.82617188 72.15625 C-57.82910632 70.03645946 -57.83109077 67.91666736 -57.83203125 65.796875 C-57.83921677 64.79572662 -57.84640228 63.79457825 -57.85380554 62.76309204 C-57.85072891 61.82887421 -57.84765228 60.89465637 -57.84448242 59.93212891 C-57.84590744 59.11209381 -57.84733246 58.29205872 -57.84880066 57.44717407 C-57.56989075 54.90684408 -56.97995355 53.34169189 -55.6015625 51.1953125 C-51.89065126 48.93649696 -50.00145401 48.1953125 -45.6015625 48.1953125 C-45.5190625 47.1228125 -45.4365625 46.0503125 -45.3515625 44.9453125 C-44.54012136 40.88810682 -43.78149842 39.70071656 -40.6015625 37.1953125 C-37.95697871 35.87302061 -35.92394949 36.09854056 -32.9765625 36.1328125 C-31.47222656 36.14634766 -31.47222656 36.14634766 -29.9375 36.16015625 C-29.16664063 36.17175781 -28.39578125 36.18335938 -27.6015625 36.1953125 C-27.62476563 35.14730469 -27.64796875 34.09929687 -27.671875 33.01953125 C-27.69063553 31.64063213 -27.70883543 30.2617253 -27.7265625 28.8828125 C-27.74332031 28.19251953 -27.76007813 27.50222656 -27.77734375 26.79101562 C-27.81374044 23.02395854 -27.74535114 21.41099546 -25.6015625 18.1953125 C-24.2815625 18.1953125 -22.9615625 18.1953125 -21.6015625 18.1953125 C-21.61316406 17.41285156 -21.62476563 16.63039063 -21.63671875 15.82421875 C-21.64574219 14.81230469 -21.65476562 13.80039063 -21.6640625 12.7578125 C-21.67566406 11.74847656 -21.68726563 10.73914063 -21.69921875 9.69921875 C-21.6015625 7.1953125 -21.6015625 7.1953125 -20.6015625 6.1953125 C-18.58192051 6.12287197 -16.55989126 6.11154062 -14.5390625 6.1328125 C-13.43433594 6.14183594 -12.32960938 6.15085937 -11.19140625 6.16015625 C-10.33675781 6.17175781 -9.48210937 6.18335937 -8.6015625 6.1953125 C-7.70710546 10.27319145 -7.51960132 14.01529255 -7.6015625 18.1953125 C-6.2815625 18.1953125 -4.9615625 18.1953125 -3.6015625 18.1953125 C-3.69695312 17.06351563 -3.79234375 15.93171875 -3.890625 14.765625 C-4.00316135 13.28389638 -4.11511008 11.80212305 -4.2265625 10.3203125 C-4.29101562 9.57394531 -4.35546875 8.82757813 -4.421875 8.05859375 C-4.56243615 6.1083078 -4.58916099 4.15061783 -4.6015625 2.1953125 C-2.6015625 0.1953125 -2.6015625 0.1953125 0 0 Z " fill="#F38EB0" transform="translate(169.6015625,75.8046875)"/>
<path d="M0 0 C0.99773437 0.02320312 1.99546875 0.04640625 3.0234375 0.0703125 C4.52777344 0.09738281 4.52777344 0.09738281 6.0625 0.125 C6.83335937 0.14820312 7.60421875 0.17140625 8.3984375 0.1953125 C10.24975233 4.12389004 10.61848693 7.18306362 10.5234375 11.5078125 C10.50539063 12.57644531 10.48734375 13.64507812 10.46875 14.74609375 C10.44554687 15.55433594 10.42234375 16.36257812 10.3984375 17.1953125 C11.3884375 17.1953125 12.3784375 17.1953125 13.3984375 17.1953125 C13.7284375 13.8953125 14.0584375 10.5953125 14.3984375 7.1953125 C18.80758533 6.09302554 22.88226151 6.11876714 27.3984375 6.1953125 C27.3984375 10.1553125 27.3984375 14.1153125 27.3984375 18.1953125 C29.0484375 18.5253125 30.6984375 18.8553125 32.3984375 19.1953125 C33.3984375 20.1953125 33.3984375 20.1953125 33.49609375 23.79296875 C33.4894197 25.28128117 33.47745933 26.76957682 33.4609375 28.2578125 C33.45642578 29.01642578 33.45191406 29.77503906 33.44726562 30.55664062 C33.4354443 32.43623121 33.41750828 34.31578149 33.3984375 36.1953125 C34.13449219 36.16050781 34.87054688 36.12570313 35.62890625 36.08984375 C45.65238541 35.81178158 45.65238541 35.81178158 49.3984375 39.1953125 C51.49387556 42.18879545 51.5984108 44.59579309 51.3984375 48.1953125 C52.72875 48.040625 52.72875 48.040625 54.0859375 47.8828125 C58.43782056 48.29336751 59.65817104 49.90699275 62.3984375 53.1953125 C63.58117513 55.56078777 63.53747488 57.01874452 63.55957031 59.6574707 C63.56917786 60.58215652 63.5787854 61.50684235 63.58868408 62.45954895 C63.59293396 63.46160873 63.59718384 64.46366852 63.6015625 65.49609375 C63.60726257 66.5246196 63.61296265 67.55314545 63.61883545 68.61283875 C63.62829369 70.79258187 63.63482269 72.97233936 63.63867188 75.15209961 C63.64836767 78.48381602 63.67937966 81.8149131 63.7109375 85.14648438 C63.71746843 87.26301717 63.72271855 89.37955437 63.7265625 91.49609375 C63.7389093 92.49208084 63.7512561 93.48806793 63.76397705 94.51423645 C63.73581956 103.27872749 63.73581956 103.27872749 60.3984375 107.1953125 C56.90398584 109.52494694 55.22984187 109.55155947 51.0859375 109.6328125 C49.97605469 109.67277344 48.86617188 109.71273437 47.72265625 109.75390625 C43.58731426 109.0590133 40.93414629 107.49286812 38.3984375 104.1953125 C37.5938045 101.24350567 37.69556477 98.43574092 37.8125 95.39453125 C37.82098969 94.55815628 37.82947937 93.72178131 37.83822632 92.86006165 C37.8717028 90.19964474 37.94696413 87.54230636 38.0234375 84.8828125 C38.05354487 83.0749137 38.08091933 81.26696719 38.10546875 79.45898438 C38.17147437 75.03658183 38.27495037 70.61646829 38.3984375 66.1953125 C34.1084375 66.5253125 29.8184375 66.8553125 25.3984375 67.1953125 C25.7284375 67.5253125 26.0584375 67.8553125 26.3984375 68.1953125 C26.5859375 71.1328125 26.5859375 71.1328125 26.3984375 74.1953125 C24.3984375 76.1953125 24.3984375 76.1953125 20.9609375 76.5078125 C17.3984375 76.1953125 17.3984375 76.1953125 15.3984375 75.0078125 C14.3984375 73.1953125 14.3984375 73.1953125 14.6484375 70.5703125 C15.3984375 68.1953125 15.3984375 68.1953125 16.3984375 67.1953125 C3.5284375 66.7003125 3.5284375 66.7003125 -9.6015625 66.1953125 C-9.1065625 69.6603125 -9.1065625 69.6603125 -8.6015625 73.1953125 C-9.6015625 75.1328125 -9.6015625 75.1328125 -11.6015625 76.1953125 C-17.74002404 76.62608173 -17.74002404 76.62608173 -20.6015625 75.1953125 C-20.6015625 72.5553125 -20.6015625 69.9153125 -20.6015625 67.1953125 C-26.5415625 67.6903125 -26.5415625 67.6903125 -32.6015625 68.1953125 C-32.6015625 78.7553125 -32.6015625 89.3153125 -32.6015625 100.1953125 C-30.9515625 100.1953125 -29.3015625 100.1953125 -27.6015625 100.1953125 C-27.6015625 100.8553125 -27.6015625 101.5153125 -27.6015625 102.1953125 C-28.9215625 102.1953125 -30.2415625 102.1953125 -31.6015625 102.1953125 C-31.9315625 104.8353125 -32.2615625 107.4753125 -32.6015625 110.1953125 C-33.2615625 108.8753125 -33.9215625 107.5553125 -34.6015625 106.1953125 C-35.12878906 106.68 -35.65601563 107.1646875 -36.19921875 107.6640625 C-40.78856376 110.58930355 -46.36702733 109.9250956 -51.6015625 109.1953125 C-54.65410985 107.52353201 -56.04976001 105.29891747 -57.6015625 102.1953125 C-57.70129203 100.70518511 -57.73987064 99.21072991 -57.74682617 97.71728516 C-57.75320602 96.78937164 -57.75958588 95.86145813 -57.76615906 94.90542603 C-57.76727188 93.90022919 -57.7683847 92.89503235 -57.76953125 91.859375 C-57.77285965 90.82847748 -57.77618805 89.79757996 -57.77961731 88.73544312 C-57.78468674 86.55149787 -57.78702563 84.36754487 -57.78686523 82.18359375 C-57.78904897 78.84101585 -57.80719709 75.49876934 -57.82617188 72.15625 C-57.82910632 70.03645946 -57.83109077 67.91666736 -57.83203125 65.796875 C-57.83921677 64.79572662 -57.84640228 63.79457825 -57.85380554 62.76309204 C-57.85072891 61.82887421 -57.84765228 60.89465637 -57.84448242 59.93212891 C-57.84590744 59.11209381 -57.84733246 58.29205872 -57.84880066 57.44717407 C-57.56989075 54.90684408 -56.97995355 53.34169189 -55.6015625 51.1953125 C-51.89065126 48.93649696 -50.00145401 48.1953125 -45.6015625 48.1953125 C-45.4778125 46.5865625 -45.4778125 46.5865625 -45.3515625 44.9453125 C-44.54012136 40.88810682 -43.78149842 39.70071656 -40.6015625 37.1953125 C-37.95697871 35.87302061 -35.92394949 36.09854056 -32.9765625 36.1328125 C-31.47222656 36.14634766 -31.47222656 36.14634766 -29.9375 36.16015625 C-29.16664063 36.17175781 -28.39578125 36.18335938 -27.6015625 36.1953125 C-27.62476563 35.14730469 -27.64796875 34.09929687 -27.671875 33.01953125 C-27.69063553 31.64063213 -27.70883543 30.2617253 -27.7265625 28.8828125 C-27.74332031 28.19251953 -27.76007813 27.50222656 -27.77734375 26.79101562 C-27.81374044 23.02395854 -27.74535114 21.41099546 -25.6015625 18.1953125 C-24.2815625 18.1953125 -22.9615625 18.1953125 -21.6015625 18.1953125 C-21.61316406 17.41285156 -21.62476563 16.63039063 -21.63671875 15.82421875 C-21.64574219 14.81230469 -21.65476563 13.80039063 -21.6640625 12.7578125 C-21.67566406 11.74847656 -21.68726563 10.73914063 -21.69921875 9.69921875 C-21.6015625 7.1953125 -21.6015625 7.1953125 -20.6015625 6.1953125 C-18.58192051 6.12287197 -16.55989126 6.11154062 -14.5390625 6.1328125 C-12.88197266 6.14634766 -12.88197266 6.14634766 -11.19140625 6.16015625 C-10.33675781 6.17175781 -9.48210937 6.18335937 -8.6015625 6.1953125 C-7.70710546 10.27319145 -7.51960132 14.01529255 -7.6015625 18.1953125 C-6.2815625 18.1953125 -4.9615625 18.1953125 -3.6015625 18.1953125 C-3.69695312 17.06351563 -3.79234375 15.93171875 -3.890625 14.765625 C-4.00316135 13.28389638 -4.11511008 11.80212305 -4.2265625 10.3203125 C-4.29101562 9.57394531 -4.35546875 8.82757813 -4.421875 8.05859375 C-4.56243615 6.1083078 -4.58916099 4.15061783 -4.6015625 2.1953125 C-2.6015625 0.1953125 -2.6015625 0.1953125 0 0 Z " fill="#F3CF41" transform="translate(169.6015625,75.8046875)"/>
<path d="M0 0 C1.14497452 0.48748466 1.14497452 0.48748466 2.31307983 0.9848175 C7.26137106 2.34731477 11.88186676 2.2708261 16.99072266 2.24291992 C18.08732712 2.24481827 19.18393158 2.24671661 20.31376648 2.24867249 C23.93060505 2.25237064 27.54724185 2.24169035 31.1640625 2.23046875 C33.67939226 2.2292764 36.19472246 2.22882391 38.71005249 2.2290802 C43.97729828 2.22751704 49.24449231 2.21948332 54.51171875 2.20581055 C60.59773003 2.19007055 66.68367812 2.18481312 72.76970828 2.1855461 C78.63233307 2.18615676 84.49493667 2.18094012 90.35755539 2.17275429 C92.84947969 2.16956914 95.34140584 2.16760057 97.83333206 2.16686058 C101.31160915 2.1646964 104.78980642 2.15595083 108.26806641 2.14526367 C109.30089249 2.14571686 110.33371857 2.14617004 111.39784241 2.14663696 C112.34546951 2.14237198 113.29309662 2.13810699 114.2694397 2.13371277 C115.09126047 2.13203692 115.91308125 2.13036108 116.75980568 2.12863445 C118.96684625 2.00190373 120.87262466 1.57624721 123 1 C125.98571856 0.89787498 128.95529415 1.09190716 131.9375 1.25 C132.73607422 1.27707031 133.53464844 1.30414063 134.35742188 1.33203125 C138.9357774 1.56720776 142.37510228 1.90713228 146 5 C147.91311046 10.26009987 147.22465995 16.33437927 147.24023438 21.84448242 C147.24995253 23.92732499 147.28100865 26.00918501 147.3125 28.09179688 C147.32023437 30.07083008 147.32023437 30.07083008 147.328125 32.08984375 C147.3374707 33.29503662 147.34681641 34.50022949 147.35644531 35.74194336 C146.93616188 39.58350662 145.751717 42.248283 143 45 C140.38943562 45.1664567 137.80379174 45.26698247 135.18994141 45.32519531 C133.94317942 45.35751125 133.94317942 45.35751125 132.67123032 45.39048004 C129.85645537 45.45995488 127.04159369 45.51999224 124.2265625 45.578125 C123.24290333 45.59945747 122.25924416 45.62078995 121.24577713 45.64276886 C95.90043444 46.17578803 70.55774622 46.03039466 45.20947266 45.81298828 C39.2391023 45.76240935 33.26882864 45.72700783 27.29832494 45.69905448 C21.46059636 45.67089066 15.62308344 45.62644543 9.78551102 45.57575226 C7.33186743 45.55660019 4.87818103 45.54228219 2.42448044 45.53295135 C-0.95900287 45.51871768 -4.34180573 45.485914 -7.72509766 45.44824219 C-8.72830048 45.44810623 -9.7315033 45.44797028 -10.7651062 45.4478302 C-11.68023987 45.43384689 -12.59537354 45.41986359 -13.53823853 45.40545654 C-14.3324502 45.39954876 -15.12666187 45.39364098 -15.94494057 45.38755417 C-18.54099016 44.89797716 -19.40084347 44.07071496 -21 42 C-22.7311244 36.80662681 -22.22546607 31.24090794 -22.24023438 25.80371094 C-22.24993464 23.63958215 -22.28096767 21.47640581 -22.3125 19.3125 C-22.31903127 17.92969312 -22.32428126 16.54687947 -22.328125 15.1640625 C-22.34214355 13.28388428 -22.34214355 13.28388428 -22.35644531 11.36572266 C-21.97325262 7.74743875 -21.18307203 5.87732348 -19 3 C-15.70039859 1.3501993 -12.00872116 1.61741639 -8.375 1.4375 C-7.57320312 1.39431641 -6.77140625 1.35113281 -5.9453125 1.30664062 C-3.9637489 1.20048543 -1.98189729 1.09973145 0 1 C0 0.67 0 0.34 0 0 Z " fill="#5B1B3A" transform="translate(110,277)"/>
<path d="M0 0 C8.91 0 17.82 0 27 0 C26.34 0.99 25.68 1.98 25 3 C24.83300768 6.12521833 24.83300768 6.12521833 25 9 C26.47906892 9.02689216 27.95827483 9.04634621 29.4375 9.0625 C30.67306641 9.07990234 30.67306641 9.07990234 31.93359375 9.09765625 C33.99163938 9.23267348 33.99163938 9.23267348 35 8 C35.24733137 3.85723125 35.24733137 3.85723125 34 0 C38.62 0 43.24 0 48 0 C48.26684154 6.17389863 48.49989859 12.34780926 48.7019043 18.52416992 C48.77533382 20.62444872 48.85794176 22.72442771 48.94995117 24.82397461 C49.08072204 27.84456731 49.17829657 30.86470521 49.26953125 33.88671875 C49.31721146 34.82335861 49.36489166 35.75999847 49.41401672 36.72502136 C49.51908018 41.26028214 49.48695047 43.32168654 46.7734375 47.1015625 C43.91129412 49.0607198 42.75170753 49.60379958 39.35546875 49.48828125 C38.51435547 49.47216797 37.67324219 49.45605469 36.80664062 49.43945312 C35.51016602 49.37661133 35.51016602 49.37661133 34.1875 49.3125 C33.30384766 49.28994141 32.42019531 49.26738281 31.50976562 49.24414062 C29.3391109 49.18547428 27.1693331 49.09579979 25 49 C25 54.61 25 60.22 25 66 C31.435 65.505 31.435 65.505 38 65 C38 65.66 38 66.32 38 67 C39.32 67.66 40.64 68.32 42 69 C42.107834 71.93847653 42.18721916 74.87301151 42.25 77.8125 C42.28351563 78.64587891 42.31703125 79.47925781 42.3515625 80.33789062 C42.37089844 81.54155273 42.37089844 81.54155273 42.390625 82.76953125 C42.4220459 83.87711792 42.4220459 83.87711792 42.45410156 85.00708008 C42 87 42 87 40.28863525 88.60029602 C37.59098747 90.25014754 36.06919086 90.37971191 32.92773438 90.38818359 C31.91988892 90.39764008 30.91204346 90.40709656 29.87365723 90.4168396 C28.79128784 90.41076691 27.70891846 90.40469421 26.59375 90.3984375 C25.47689819 90.40130768 24.36004639 90.40417786 23.20935059 90.40713501 C20.84903455 90.40917566 18.48870161 90.40364576 16.12841797 90.39111328 C12.51361307 90.37506045 8.89992634 90.39096278 5.28515625 90.41015625 C2.99218503 90.40817382 0.69921451 90.40433015 -1.59375 90.3984375 C-2.67611938 90.40451019 -3.75848877 90.41058289 -4.87365723 90.4168396 C-5.88150269 90.40738312 -6.88934814 90.39792664 -7.92773438 90.38818359 C-8.81279663 90.38579681 -9.69785889 90.38341003 -10.60974121 90.38095093 C-13.4931474 89.92140392 -14.87803372 88.97361107 -17 87 C-17.81014878 84.06974563 -17.60320757 81.09162205 -17.5625 78.0625 C-17.58634766 77.25103516 -17.61019531 76.43957031 -17.63476562 75.60351562 C-17.62476021 71.53798335 -17.53588846 69.63856782 -14.859375 66.44921875 C-9.91716537 63.94435567 -5.46427851 64.75981193 0 65 C0 59.72 0 54.44 0 49 C-1.32515625 49.03480469 -2.6503125 49.06960937 -4.015625 49.10546875 C-5.76040398 49.13361035 -7.50519668 49.16091011 -9.25 49.1875 C-10.12269531 49.21263672 -10.99539062 49.23777344 -11.89453125 49.26367188 C-18.30593999 49.33708495 -18.30593999 49.33708495 -21.58984375 47.7421875 C-24.12406929 44.61126065 -23.31005516 41.90669499 -23 38 C-22.67 37.34 -22.34 36.68 -22 36 C-20.68 36 -19.36 36 -18 36 C-18 35.34 -18 34.68 -18 34 C-19.65 34 -21.3 34 -23 34 C-23 23.44 -23 12.88 -23 2 C-20.47524538 0.73762269 -18.68799534 0.90143596 -15.875 0.9375 C-14.96492187 0.94652344 -14.05484375 0.95554688 -13.1171875 0.96484375 C-12.41851562 0.97644531 -11.71984375 0.98804688 -11 1 C-11 3.64 -11 6.28 -11 9 C-7.37 9 -3.74 9 0 9 C0 6.03 0 3.06 0 0 Z " fill="#F0C8A5" transform="translate(160,142)"/>
<path d="M0 0 C34.98 0 69.96 0 106 0 C106.33 8.58 106.66 17.16 107 26 C109.60088622 28.60088622 110.82137113 28.29962225 114.4453125 28.4140625 C116.05986328 28.47207031 116.05986328 28.47207031 117.70703125 28.53125 C119.39892578 28.57765625 119.39892578 28.57765625 121.125 28.625 C122.82849609 28.68300781 122.82849609 28.68300781 124.56640625 28.7421875 C127.37743956 28.83667601 130.18846233 28.92223541 133 29 C133 29.33 133 29.66 133 30 C105.06998186 31.03942093 77.1700893 31.04606149 49.22785187 30.71766281 C46.56140703 30.68748763 43.89494772 30.66104834 41.22845459 30.63552856 C36.97530084 30.59399649 32.72240291 30.54186538 28.4694767 30.4814415 C26.8827124 30.46016459 25.29590328 30.44197833 23.70906639 30.4270668 C21.51486833 30.40548342 19.32118299 30.3716761 17.12719727 30.3347168 C15.89058853 30.31837692 14.6539798 30.30203705 13.37989807 30.28520203 C9.9496285 29.99574956 7.23437899 29.12913524 4 28 C2.68 28 1.36 28 0 28 C0 18.76 0 9.52 0 0 Z " fill="#8D3464" transform="translate(120,292)"/>
<path d="M0 0 C0.86368698 -0.00525696 1.72737396 -0.01051392 2.61723328 -0.01593018 C5.47612519 -0.02914898 8.33446166 -0.02038547 11.19335938 -0.01025391 C13.17728787 -0.0122741 15.16121565 -0.01518508 17.1451416 -0.01895142 C21.30467798 -0.02337732 25.46402121 -0.01693511 29.62353516 -0.00292969 C34.96040471 0.01416229 40.29682168 0.00432254 45.63367462 -0.01364708 C49.73084943 -0.0244777 53.82791659 -0.02104189 57.9250946 -0.0132637 C59.8931229 -0.0112597 61.8611609 -0.01372797 63.82917786 -0.02070236 C66.57778888 -0.02830494 69.32566275 -0.01672949 72.07421875 0 C73.2992939 -0.00910904 73.2992939 -0.00910904 74.54911804 -0.0184021 C80.03004821 0.04353056 80.03004821 0.04353056 82.5411377 1.75033569 C84.00319937 4.1546557 83.93461824 6.0970847 83.91210938 8.88818359 C83.92371094 10.32677734 83.92371094 10.32677734 83.93554688 11.79443359 C83.53710938 14.38818359 83.53710938 14.38818359 82.5411377 16.02603149 C79.32427592 18.212555 75.83233161 17.80431061 72.07421875 17.77636719 C71.21053177 17.78162415 70.34684479 17.7868811 69.45698547 17.79229736 C66.59809356 17.80551617 63.73975709 17.79675265 60.88085938 17.78662109 C58.89693088 17.78864129 56.9130031 17.79155227 54.92907715 17.7953186 C50.76954077 17.79974451 46.61019754 17.7933023 42.45068359 17.77929688 C37.11381404 17.76220489 31.77739707 17.77204465 26.44054413 17.79001427 C22.34336932 17.80084489 18.24630216 17.79740907 14.14912415 17.78963089 C12.18109585 17.78762689 10.21305785 17.79009515 8.24504089 17.79706955 C5.49642987 17.80467213 2.748556 17.79309668 0 17.77636719 C-1.22507515 17.78547623 -1.22507515 17.78547623 -2.47489929 17.79476929 C-7.95582946 17.73283662 -7.95582946 17.73283662 -10.46691895 16.02603149 C-11.92898062 13.62171148 -11.86039949 11.67928249 -11.83789062 8.88818359 C-11.845625 7.92912109 -11.85335937 6.97005859 -11.86132812 5.98193359 C-11.46289062 3.38818359 -11.46289062 3.38818359 -10.46691895 1.75033569 C-7.25005717 -0.43618781 -3.75811286 -0.02794343 0 0 Z " fill="#F8C7D9" transform="translate(136.462890625,303.61181640625)"/>
<path d="M0 0 C3.76916798 0.83759288 5.54365897 1.29006964 7.67431641 4.60473633 C9.15907393 8.40741089 9.43424682 11.68082528 9.3984375 15.69921875 C9.40130768 16.41608353 9.40417786 17.1329483 9.40713501 17.87153625 C9.4091653 19.37668657 9.40370825 20.8818639 9.39111328 22.38696289 C9.37497189 24.69151359 9.39103178 26.99432967 9.41015625 29.29882812 C9.40817502 30.76562886 9.40433383 32.23242852 9.3984375 33.69921875 C9.40754654 34.73051155 9.40754654 34.73051155 9.4168396 35.78263855 C9.37608664 38.54544186 9.27533453 40.55668846 7.79907227 42.93359375 C5.36886806 44.37410562 3.63538131 44.3723914 0.81640625 44.36328125 C-0.19357422 44.36263672 -1.20355469 44.36199219 -2.24414062 44.36132812 C-3.82485352 44.3371582 -3.82485352 44.3371582 -5.4375 44.3125 C-6.48744141 44.31572266 -7.53738281 44.31894531 -8.61914062 44.32226562 C-17.65575408 44.25891142 -17.65575408 44.25891142 -21 42 C-22.7311244 36.80662681 -22.22546607 31.24090794 -22.24023438 25.80371094 C-22.24993464 23.63958215 -22.28096767 21.47640581 -22.3125 19.3125 C-22.31903127 17.92969312 -22.32428126 16.54687947 -22.328125 15.1640625 C-22.34214355 13.28388428 -22.34214355 13.28388428 -22.35644531 11.36572266 C-21.97325262 7.74743875 -21.18307203 5.87732348 -19 3 C-15.70039859 1.3501993 -12.00872116 1.61741639 -8.375 1.4375 C-7.57320312 1.39431641 -6.77140625 1.35113281 -5.9453125 1.30664062 C-3.9637489 1.20048543 -1.98189729 1.09973145 0 1 C0 0.67 0 0.34 0 0 Z " fill="#171516" transform="translate(110,277)"/>
<path d="M0 0 C0.85078125 0.02707031 1.7015625 0.05414063 2.578125 0.08203125 C7.27749931 0.30894808 10.92400474 0.53558978 14.625 3.75 C16.53293677 9.01477509 15.84965083 15.0811536 15.86523438 20.59448242 C15.87495253 22.67732499 15.90600865 24.75918501 15.9375 26.84179688 C15.94265625 28.16115234 15.9478125 29.48050781 15.953125 30.83984375 C15.96714355 32.64763306 15.96714355 32.64763306 15.98144531 34.49194336 C15.58422778 38.12267486 15.02546548 39.99304558 12.625 42.75 C10.03710938 43.36523438 10.03710938 43.36523438 6.96875 43.34375 C5.86402344 43.34117187 4.75929687 43.33859375 3.62109375 43.3359375 C1.89052734 43.29339844 1.89052734 43.29339844 0.125 43.25 C-1.60556641 43.25386719 -1.60556641 43.25386719 -3.37109375 43.2578125 C-11.67470479 43.16092089 -11.67470479 43.16092089 -14.20361328 41.67700195 C-15.99082387 38.73693252 -15.80293343 35.7886426 -15.7734375 32.44921875 C-15.77630768 31.73522415 -15.77917786 31.02122955 -15.78213501 30.28559875 C-15.78417525 28.7751079 -15.77864805 27.26459061 -15.76611328 25.75415039 C-15.7501282 23.4559317 -15.76592477 21.15949043 -15.78515625 18.86132812 C-15.78317242 17.39062115 -15.77932586 15.91991527 -15.7734375 14.44921875 C-15.77951019 13.76776291 -15.78558289 13.08630707 -15.7918396 12.38420105 C-15.72532457 7.80837107 -14.85625758 4.60232546 -12.375 0.75 C-8.18086766 -0.64804411 -4.37764479 -0.21691033 0 0 Z " fill="#121111" transform="translate(241.375,278.25)"/>
<path d="M0 0 C1.38294718 0.01329757 2.76582404 0.03715018 4.1484375 0.0703125 C4.85484375 0.07933594 5.56125 0.08835938 6.2890625 0.09765625 C8.03399848 0.12123647 9.77876045 0.15710789 11.5234375 0.1953125 C11.5234375 1.8453125 11.5234375 3.4953125 11.5234375 5.1953125 C19.4434375 5.1953125 27.3634375 5.1953125 35.5234375 5.1953125 C35.5234375 3.5453125 35.5234375 1.8953125 35.5234375 0.1953125 C38.14870939 0.14149144 40.77288463 0.10172937 43.3984375 0.0703125 C44.14480469 0.05355469 44.89117187 0.03679687 45.66015625 0.01953125 C47.61538211 0.0019166 49.57085771 0.09211061 51.5234375 0.1953125 C54.66609976 3.33797476 53.89178205 6.85668609 53.8984375 11.1328125 C53.92292969 11.95716797 53.94742188 12.78152344 53.97265625 13.63085938 C53.97845703 14.82098633 53.97845703 14.82098633 53.984375 16.03515625 C53.99259277 16.76081787 54.00081055 17.48647949 54.00927734 18.23413086 C53.30965415 21.05828822 51.96834872 21.6966138 49.5234375 23.1953125 C47.13317871 23.57626343 47.13317871 23.57626343 44.45117188 23.58349609 C43.44332642 23.59295258 42.43548096 23.60240906 41.39709473 23.6121521 C40.31472534 23.60607941 39.23235596 23.60000671 38.1171875 23.59375 C36.44190979 23.59805527 36.44190979 23.59805527 34.73278809 23.60244751 C32.37247205 23.60448816 30.01213911 23.59895826 27.65185547 23.58642578 C24.03705057 23.57037295 20.42336384 23.58627528 16.80859375 23.60546875 C14.51562253 23.60348632 12.22265201 23.59964265 9.9296875 23.59375 C8.30613342 23.60285904 8.30613342 23.60285904 6.64978027 23.6121521 C5.64193481 23.60269562 4.63408936 23.59323914 3.59570312 23.58349609 C2.71064087 23.58110931 1.82557861 23.57872253 0.91369629 23.57626343 C-1.97022186 23.11663483 -3.3568594 22.17269651 -5.4765625 20.1953125 C-5.96240234 18.23413086 -5.96240234 18.23413086 -5.9375 16.03515625 C-5.93363281 15.24173828 -5.92976562 14.44832031 -5.92578125 13.63085938 C-5.88904297 12.39432617 -5.88904297 12.39432617 -5.8515625 11.1328125 C-5.85027344 10.30458984 -5.84898437 9.47636719 -5.84765625 8.62304688 C-5.72607412 0.32168956 -5.72607412 0.32168956 0 0 Z " fill="#FDFCFD" transform="translate(148.4765625,208.8046875)"/>
<path d="M0 0 C1.59134766 -0.03867188 1.59134766 -0.03867188 3.21484375 -0.078125 C6.0625 0.25 6.0625 0.25 7.87890625 1.578125 C10.37597453 5.10533696 10.2262918 8.51011472 10.25 12.6875 C10.26417969 13.82058594 10.27835937 14.95367187 10.29296875 16.12109375 C10.07154861 19.12715357 9.7297656 20.77542684 8.0625 23.25 C3.76860017 25.39694991 -1.97078579 24.43585465 -6.7409668 24.43530273 C-8.86332281 24.43748798 -10.98515795 24.4556452 -13.10742188 24.47460938 C-14.45572739 24.47754367 -15.80403537 24.47952823 -17.15234375 24.48046875 C-18.99493774 24.48663208 -18.99493774 24.48663208 -20.87475586 24.49291992 C-23.9375 24.25 -23.9375 24.25 -26.9375 22.25 C-27.37109375 19.5703125 -27.37109375 19.5703125 -27.375 16.375 C-27.39433594 15.32570312 -27.41367188 14.27640625 -27.43359375 13.1953125 C-26.9375 10.25 -26.9375 10.25 -25.36328125 7.8828125 C-22.02332447 5.63466124 -19.67318901 5.85238189 -15.6875 6 C-14.42421875 6.03609375 -13.1609375 6.0721875 -11.859375 6.109375 C-10.41304687 6.17898437 -10.41304687 6.17898437 -8.9375 6.25 C-8.81375 5.445625 -8.69 4.64125 -8.5625 3.8125 C-8.253125 2.5440625 -8.253125 2.5440625 -7.9375 1.25 C-5.23187257 -0.10281371 -3.01856345 0.04390638 0 0 Z " fill="#ECC6A4" transform="translate(252.9375,213.75)"/>
<path d="M0 0 C1.051875 -0.00773438 2.10375 -0.01546875 3.1875 -0.0234375 C6 0.375 6 0.375 7.875 1.7109375 C9 3.375 9 3.375 9 6.375 C9.89203125 6.35179687 10.7840625 6.32859375 11.703125 6.3046875 C12.87359375 6.28664062 14.0440625 6.26859375 15.25 6.25 C16.99023438 6.21519531 16.99023438 6.21519531 18.765625 6.1796875 C21.82786046 6.3646051 23.44202751 6.76676977 26 8.375 C26.0810206 10.47853495 26.13919907 12.58295952 26.1875 14.6875 C26.23970703 16.44513672 26.23970703 16.44513672 26.29296875 18.23828125 C26 21.375 26 21.375 24.796875 23.03466797 C22.44187994 24.7913151 20.8792585 24.83025179 17.95703125 24.95703125 C16.96509766 25.00150391 15.97316406 25.04597656 14.95117188 25.09179688 C13.91541016 25.12337891 12.87964844 25.15496094 11.8125 25.1875 C10.79607422 25.23841797 9.77964844 25.28933594 8.73242188 25.34179688 C2.75630375 25.56942177 -2.3191186 25.31758107 -8 23.375 C-9.70345745 19.96808509 -9.22662366 16.19232483 -9.25 12.4375 C-9.270625 11.61314453 -9.29125 10.78878906 -9.3125 9.93945312 C-9.31765625 9.14603516 -9.3228125 8.35261719 -9.328125 7.53515625 C-9.3374707 6.80949463 -9.34681641 6.08383301 -9.35644531 5.33618164 C-8.41059126 0.13204082 -4.5994252 -0.0338193 0 0 Z " fill="#F0C8A6" transform="translate(92,213.625)"/>
<path d="M0 0 C0.90169922 -0.01224609 1.80339844 -0.02449219 2.73242188 -0.03710938 C4.03083008 -0.04000977 4.03083008 -0.04000977 5.35546875 -0.04296875 C6.13946045 -0.04707764 6.92345215 -0.05118652 7.73120117 -0.05541992 C9.8125 0.1875 9.8125 0.1875 12.8125 2.1875 C11.8225 2.8475 10.8325 3.5075 9.8125 4.1875 C9.3660182 6.06634666 9.3660182 6.06634666 9.44921875 8.21484375 C9.44986328 9.00697266 9.45050781 9.79910156 9.45117188 10.61523438 C9.46728516 11.44345703 9.48339844 12.27167969 9.5 13.125 C9.49677734 13.94935547 9.49355469 14.77371094 9.49023438 15.62304688 C9.47870149 20.69578166 9.47870149 20.69578166 11.8125 25.1875 C2.9025 25.1875 -6.0075 25.1875 -15.1875 25.1875 C-15.6825 20.2375 -15.6825 20.2375 -16.1875 15.1875 C-19.87356605 14.26598349 -23.1602113 13.88941021 -26.9375 13.625 C-28.10796875 13.54121094 -29.2784375 13.45742187 -30.484375 13.37109375 C-31.82242188 13.28021484 -31.82242188 13.28021484 -33.1875 13.1875 C-32.8575 12.5275 -32.5275 11.8675 -32.1875 11.1875 C-29.2175 11.1875 -26.2475 11.1875 -23.1875 11.1875 C-22.775 10.094375 -22.3625 9.00125 -21.9375 7.875 C-20.5384392 4.65390652 -19.40172257 2.84052875 -16.1875 1.1875 C-10.80950571 -0.0141456 -5.48115054 0.00396897 0 0 Z " fill="#E7208A" transform="translate(134.1875,206.8125)"/>
<path d="M0 0 C0.82048828 -0.020625 1.64097656 -0.04125 2.48632812 -0.0625 C7.95182391 -0.09739542 11.73419011 0.63622501 16.5625 3.25 C19.23862534 6.61673833 19.5625 7.86203653 19.5625 12.25 C23.1925 12.25 26.8225 12.25 30.5625 12.25 C30.5625 12.58 30.5625 12.91 30.5625 13.25 C29.58667969 13.28738281 28.61085937 13.32476562 27.60546875 13.36328125 C25.69701172 13.46189453 25.69701172 13.46189453 23.75 13.5625 C21.85314453 13.64951172 21.85314453 13.64951172 19.91796875 13.73828125 C16.70240515 14.03047976 16.70240515 14.03047976 14.67578125 15.29296875 C12.94463866 18.04559916 12.94463866 18.04559916 12.5625 25.25 C3.6525 25.25 -5.2575 25.25 -14.4375 25.25 C-13.7775 24.26 -13.1175 23.27 -12.4375 22.25 C-12.01588485 19.26384046 -12.11315716 16.26281745 -12.125 13.25 C-12.10888672 12.43015625 -12.09277344 11.6103125 -12.07617188 10.765625 C-12.07552734 9.97671875 -12.07488281 9.1878125 -12.07421875 8.375 C-12.07123779 7.65570313 -12.06825684 6.93640625 -12.06518555 6.1953125 C-12.53641654 3.73316919 -13.5510325 2.83624139 -15.4375 1.25 C-10.26360026 0.21018871 -5.25503883 0.03286967 0 0 Z " fill="#E8208B" transform="translate(213.4375,206.75)"/>
<path d="M0 0 C0.85078125 0.02707031 1.7015625 0.05414063 2.578125 0.08203125 C7.27749931 0.30894808 10.92400474 0.53558978 14.625 3.75 C15.94274512 7.32382913 15.73862694 10.93404277 15.72265625 14.703125 C15.7212413 15.36334656 15.71982635 16.02356812 15.71836853 16.70379639 C15.71279245 18.80257794 15.70024447 20.90125095 15.6875 23 C15.6824819 24.42708179 15.67791954 25.85416525 15.67382812 27.28125 C15.66283088 30.77086832 15.6455828 34.26042356 15.625 37.75 C15.295 37.75 14.965 37.75 14.625 37.75 C14.295 28.84 13.965 19.93 13.625 10.75 C10.75755824 13.61744176 11.9921383 18.71147875 11.625 22.75 C3.705 22.75 -4.215 22.75 -12.375 22.75 C-12.705 18.46 -13.035 14.17 -13.375 9.75 C-13.705 19.65 -14.035 29.55 -14.375 39.75 C-14.705 39.75 -15.035 39.75 -15.375 39.75 C-15.44947267 35.16019186 -15.50375322 30.57073986 -15.53979492 25.98046875 C-15.55482869 24.42083606 -15.57526135 22.86124528 -15.60131836 21.30175781 C-15.63794211 19.05262884 -15.65478021 16.80406153 -15.66796875 14.5546875 C-15.68345261 13.8638205 -15.69893646 13.17295349 -15.71488953 12.46115112 C-15.71647804 7.83263551 -14.89731475 4.64064376 -12.375 0.75 C-8.18086766 -0.64804411 -4.37764479 -0.21691033 0 0 Z " fill="#1F1C1D" transform="translate(241.375,278.25)"/>
<path d="M0 0 C0.99773437 0.02320312 1.99546875 0.04640625 3.0234375 0.0703125 C4.52777344 0.09738281 4.52777344 0.09738281 6.0625 0.125 C6.83335937 0.14820312 7.60421875 0.17140625 8.3984375 0.1953125 C10.24975233 4.12389004 10.61848693 7.18306362 10.5234375 11.5078125 C10.50539062 12.57644531 10.48734375 13.64507812 10.46875 14.74609375 C10.44554687 15.55433594 10.42234375 16.36257812 10.3984375 17.1953125 C11.3884375 17.1953125 12.3784375 17.1953125 13.3984375 17.1953125 C13.7284375 13.8953125 14.0584375 10.5953125 14.3984375 7.1953125 C14.7284375 7.1953125 15.0584375 7.1953125 15.3984375 7.1953125 C15.3984375 11.1553125 15.3984375 15.1153125 15.3984375 19.1953125 C13.0884375 19.1953125 10.7784375 19.1953125 8.3984375 19.1953125 C8.3984375 18.2053125 8.3984375 17.2153125 8.3984375 16.1953125 C5.4284375 16.1953125 2.4584375 16.1953125 -0.6015625 16.1953125 C-0.69921875 9.26171875 -0.69921875 9.26171875 -0.6015625 7.1953125 C0.3984375 6.1953125 0.3984375 6.1953125 3.9609375 6.1328125 C5.0953125 6.1534375 6.2296875 6.1740625 7.3984375 6.1953125 C7.3984375 4.8753125 7.3984375 3.5553125 7.3984375 2.1953125 C6.0990625 2.3396875 4.7996875 2.4840625 3.4609375 2.6328125 C2.73003906 2.71402344 1.99914062 2.79523438 1.24609375 2.87890625 C-0.61296479 3.01417864 -0.61296479 3.01417864 -1.6015625 4.1953125 C-1.83809773 6.72127509 -2.02329942 9.22638457 -2.1640625 11.7578125 C-2.22883789 12.82418945 -2.22883789 12.82418945 -2.29492188 13.91210938 C-2.40128027 15.67293162 -2.50195096 17.4340957 -2.6015625 19.1953125 C-4.9115625 19.1953125 -7.2215625 19.1953125 -9.6015625 19.1953125 C-9.6015625 20.1853125 -9.6015625 21.1753125 -9.6015625 22.1953125 C-14.5515625 22.1953125 -19.5015625 22.1953125 -24.6015625 22.1953125 C-24.9315625 27.4753125 -25.2615625 32.7553125 -25.6015625 38.1953125 C-28.30338542 38.390625 -31.00520833 38.5859375 -33.70703125 38.78125 C-36.64784062 39.20193258 -38.94170819 39.88192085 -41.6015625 41.1953125 C-41.9315625 41.8553125 -42.2615625 42.5153125 -42.6015625 43.1953125 C-43.2615625 43.1953125 -43.9215625 43.1953125 -44.6015625 43.1953125 C-44.31520409 40.42718124 -43.78232139 39.3640208 -41.7265625 37.4453125 C-37.0668453 35.58142562 -32.55865293 35.96091418 -27.6015625 36.1953125 C-27.62476563 35.14730469 -27.64796875 34.09929687 -27.671875 33.01953125 C-27.69063553 31.64063213 -27.70883543 30.2617253 -27.7265625 28.8828125 C-27.74332031 28.19251953 -27.76007813 27.50222656 -27.77734375 26.79101562 C-27.81374044 23.02395854 -27.74535114 21.41099546 -25.6015625 18.1953125 C-24.2815625 18.1953125 -22.9615625 18.1953125 -21.6015625 18.1953125 C-21.61316406 17.41285156 -21.62476563 16.63039063 -21.63671875 15.82421875 C-21.64574219 14.81230469 -21.65476563 13.80039063 -21.6640625 12.7578125 C-21.67566406 11.74847656 -21.68726563 10.73914063 -21.69921875 9.69921875 C-21.6015625 7.1953125 -21.6015625 7.1953125 -20.6015625 6.1953125 C-18.58192051 6.12287197 -16.55989126 6.11154062 -14.5390625 6.1328125 C-13.43433594 6.14183594 -12.32960937 6.15085937 -11.19140625 6.16015625 C-10.33675781 6.17175781 -9.48210937 6.18335937 -8.6015625 6.1953125 C-7.70710546 10.27319145 -7.51960132 14.01529255 -7.6015625 18.1953125 C-6.2815625 18.1953125 -4.9615625 18.1953125 -3.6015625 18.1953125 C-3.69695312 17.06351563 -3.79234375 15.93171875 -3.890625 14.765625 C-4.00316135 13.28389638 -4.11511008 11.80212305 -4.2265625 10.3203125 C-4.29101562 9.57394531 -4.35546875 8.82757813 -4.421875 8.05859375 C-4.56243615 6.1083078 -4.58916099 4.15061783 -4.6015625 2.1953125 C-2.6015625 0.1953125 -2.6015625 0.1953125 0 0 Z " fill="#DEBB54" transform="translate(169.6015625,75.8046875)"/>
<path d="M0 0 C1.6746508 0.00212242 1.6746508 0.00212242 3.38313293 0.00428772 C6.90779434 0.00983258 10.43238943 0.02237445 13.95703125 0.03515625 C16.36393137 0.04017839 18.77083249 0.04474004 21.17773438 0.04882812 C27.04168884 0.05978387 32.90560531 0.07646603 38.76953125 0.09765625 C38.76953125 0.42765625 38.76953125 0.75765625 38.76953125 1.09765625 C37.11953125 1.42765625 35.46953125 1.75765625 33.76953125 2.09765625 C34.26453125 2.59265625 34.26453125 2.59265625 34.76953125 3.09765625 C34.95703125 6.03515625 34.95703125 6.03515625 34.76953125 9.09765625 C32.76953125 11.09765625 32.76953125 11.09765625 29.33203125 11.41015625 C25.76953125 11.09765625 25.76953125 11.09765625 23.76953125 9.91015625 C22.76953125 8.09765625 22.76953125 8.09765625 23.01953125 5.47265625 C23.76953125 3.09765625 23.76953125 3.09765625 24.76953125 2.09765625 C11.89953125 1.60265625 11.89953125 1.60265625 -1.23046875 1.09765625 C-0.90046875 3.40765625 -0.57046875 5.71765625 -0.23046875 8.09765625 C-1.23046875 10.03515625 -1.23046875 10.03515625 -3.23046875 11.09765625 C-9.36893029 11.52842548 -9.36893029 11.52842548 -12.23046875 10.09765625 C-12.23046875 7.45765625 -12.23046875 4.81765625 -12.23046875 2.09765625 C-18.17046875 2.59265625 -18.17046875 2.59265625 -24.23046875 3.09765625 C-24.23046875 13.65765625 -24.23046875 24.21765625 -24.23046875 35.09765625 C-22.58046875 35.09765625 -20.93046875 35.09765625 -19.23046875 35.09765625 C-19.23046875 35.75765625 -19.23046875 36.41765625 -19.23046875 37.09765625 C-20.55046875 37.09765625 -21.87046875 37.09765625 -23.23046875 37.09765625 C-23.56046875 39.73765625 -23.89046875 42.37765625 -24.23046875 45.09765625 C-24.56046875 45.09765625 -24.89046875 45.09765625 -25.23046875 45.09765625 C-26.44941541 36.01424634 -26.13718737 27.09690145 -25.79296875 17.97265625 C-25.73962371 16.42840639 -25.68688465 14.88413547 -25.63476562 13.33984375 C-25.50698159 9.59217948 -25.37101303 5.84486625 -25.23046875 2.09765625 C-18.2039959 -1.41558018 -7.68473656 -0.03746085 0 0 Z " fill="#E9C470" transform="translate(161.23046875,140.90234375)"/>
<path d="M0 0 C7.92 0 15.84 0 24 0 C24 3.96 24 7.92 24 12 C16.08 12 8.16 12 0 12 C0 8.04 0 4.08 0 0 Z " fill="#313131" transform="translate(229,289)"/>
<path d="M0 0 C7.92 0 15.84 0 24 0 C24 3.96 24 7.92 24 12 C16.08 12 8.16 12 0 12 C0 8.04 0 4.08 0 0 Z " fill="#313131" transform="translate(92,289)"/>
<path d="M0 0 C0.99773437 0.02320312 1.99546875 0.04640625 3.0234375 0.0703125 C4.52777344 0.09738281 4.52777344 0.09738281 6.0625 0.125 C6.83335937 0.14820312 7.60421875 0.17140625 8.3984375 0.1953125 C10.24975233 4.12389004 10.61848693 7.18306362 10.5234375 11.5078125 C10.50539062 12.57644531 10.48734375 13.64507812 10.46875 14.74609375 C10.44554687 15.55433594 10.42234375 16.36257812 10.3984375 17.1953125 C11.3884375 17.1953125 12.3784375 17.1953125 13.3984375 17.1953125 C13.7284375 13.8953125 14.0584375 10.5953125 14.3984375 7.1953125 C14.7284375 7.1953125 15.0584375 7.1953125 15.3984375 7.1953125 C15.3984375 11.1553125 15.3984375 15.1153125 15.3984375 19.1953125 C13.0884375 19.1953125 10.7784375 19.1953125 8.3984375 19.1953125 C8.3984375 18.2053125 8.3984375 17.2153125 8.3984375 16.1953125 C5.4284375 16.1953125 2.4584375 16.1953125 -0.6015625 16.1953125 C-0.69921875 9.26171875 -0.69921875 9.26171875 -0.6015625 7.1953125 C0.3984375 6.1953125 0.3984375 6.1953125 3.9609375 6.1328125 C5.0953125 6.1534375 6.2296875 6.1740625 7.3984375 6.1953125 C7.3984375 4.8753125 7.3984375 3.5553125 7.3984375 2.1953125 C6.0990625 2.3396875 4.7996875 2.4840625 3.4609375 2.6328125 C2.73003906 2.71402344 1.99914062 2.79523438 1.24609375 2.87890625 C-0.61296479 3.01417864 -0.61296479 3.01417864 -1.6015625 4.1953125 C-1.83809773 6.72127509 -2.02329942 9.22638457 -2.1640625 11.7578125 C-2.20724609 12.46873047 -2.25042969 13.17964844 -2.29492188 13.91210938 C-2.40128027 15.67293162 -2.50195096 17.4340957 -2.6015625 19.1953125 C-4.9115625 19.1953125 -7.2215625 19.1953125 -9.6015625 19.1953125 C-9.6015625 15.2353125 -9.6015625 11.2753125 -9.6015625 7.1953125 C-13.2315625 7.1953125 -16.8615625 7.1953125 -20.6015625 7.1953125 C-20.6015625 6.8653125 -20.6015625 6.5353125 -20.6015625 6.1953125 C-16.6415625 6.1953125 -12.6815625 6.1953125 -8.6015625 6.1953125 C-7.75428047 10.43172263 -7.51772172 13.91943252 -7.6015625 18.1953125 C-6.2815625 18.1953125 -4.9615625 18.1953125 -3.6015625 18.1953125 C-3.69695312 17.06351563 -3.79234375 15.93171875 -3.890625 14.765625 C-4.00316135 13.28389638 -4.11511008 11.80212305 -4.2265625 10.3203125 C-4.29101562 9.57394531 -4.35546875 8.82757813 -4.421875 8.05859375 C-4.56243615 6.1083078 -4.58916099 4.15061783 -4.6015625 2.1953125 C-2.6015625 0.1953125 -2.6015625 0.1953125 0 0 Z " fill="#968B57" transform="translate(169.6015625,75.8046875)"/>
<path d="M0 0 C0.33 0 0.66 0 1 0 C1.029729 1.16571533 1.029729 1.16571533 1.06005859 2.35498047 C1.15507009 5.86200691 1.26484559 9.36841794 1.375 12.875 C1.4059375 14.09832031 1.436875 15.32164062 1.46875 16.58203125 C1.50742188 17.74863281 1.54609375 18.91523438 1.5859375 20.1171875 C1.6173584 21.19597168 1.6487793 22.27475586 1.68115234 23.38623047 C1.74676322 26.15761654 1.74676322 26.15761654 4 28 C6.52037964 28.37135915 6.52037964 28.37135915 9.4453125 28.4140625 C11.05986328 28.47207031 11.05986328 28.47207031 12.70703125 28.53125 C14.39892578 28.57765625 14.39892578 28.57765625 16.125 28.625 C17.82849609 28.68300781 17.82849609 28.68300781 19.56640625 28.7421875 C22.37743956 28.83667601 25.18846233 28.92223541 28 29 C28 29.33 28 29.66 28 30 C-0.95151587 31.07743616 -29.85071154 30.97783536 -58.8125 30.5625 C-59.70668892 30.54968616 -60.60087784 30.53687233 -61.52216339 30.5236702 C-72.68166416 30.36251301 -83.84091314 30.1876085 -95 30 C-95 29.67 -95 29.34 -95 29 C-65.63 28.67 -36.26 28.34 -6 28 C-5.34 26.02 -4.68 24.04 -4 22 C-3.47792969 21.40703125 -2.95585937 20.8140625 -2.41796875 20.203125 C-0.13694332 16.65905243 -0.4254426 12.88047207 -0.3125 8.75 C-0.27833984 7.90953125 -0.24417969 7.0690625 -0.20898438 6.203125 C-0.12676432 4.13587796 -0.06169843 2.06796126 0 0 Z " fill="#955F78" transform="translate(225,292)"/>
<path d="M0 0 C35.31 0 70.62 0 107 0 C107 0.33 107 0.66 107 1 C72.02 1 37.04 1 1 1 C1 10.24 1 19.48 1 29 C2.98 28.67 4.96 28.34 7 28 C8.32 28.99 9.64 29.98 11 31 C-1.54 31 -14.08 31 -27 31 C-27.33 30.34 -27.66 29.68 -28 29 C-27.25314941 29.01047363 -26.50629883 29.02094727 -25.73681641 29.03173828 C-22.36624492 29.0732077 -18.995727 29.09929729 -15.625 29.125 C-14.449375 29.14175781 -13.27375 29.15851563 -12.0625 29.17578125 C-10.94101563 29.18222656 -9.81953125 29.18867188 -8.6640625 29.1953125 C-7.62717285 29.20578613 -6.5902832 29.21625977 -5.52197266 29.22705078 C-2.82891377 29.25615026 -2.82891377 29.25615026 -1 27 C-0.67 18.09 -0.34 9.18 0 0 Z " fill="#6A2046" transform="translate(119,291)"/>
<path d="M0 0 C0.82048828 -0.020625 1.64097656 -0.04125 2.48632812 -0.0625 C7.95182391 -0.09739542 11.73419011 0.63622501 16.5625 3.25 C19.23862534 6.61673833 19.5625 7.86203653 19.5625 12.25 C23.1925 12.25 26.8225 12.25 30.5625 12.25 C30.5625 12.58 30.5625 12.91 30.5625 13.25 C29.58667969 13.28738281 28.61085937 13.32476562 27.60546875 13.36328125 C25.69701172 13.46189453 25.69701172 13.46189453 23.75 13.5625 C21.85314453 13.64951172 21.85314453 13.64951172 19.91796875 13.73828125 C16.70240515 14.03047976 16.70240515 14.03047976 14.67578125 15.29296875 C12.94463866 18.04559916 12.94463866 18.04559916 12.5625 25.25 C3.6525 25.25 -5.2575 25.25 -14.4375 25.25 C-13.7775 24.26 -13.1175 23.27 -12.4375 22.25 C-12.01588485 19.26384046 -12.11315716 16.26281745 -12.125 13.25 C-12.10888672 12.43015625 -12.09277344 11.6103125 -12.07617188 10.765625 C-12.07552734 9.97671875 -12.07488281 9.1878125 -12.07421875 8.375 C-12.07123779 7.65570313 -12.06825684 6.93640625 -12.06518555 6.1953125 C-12.53641654 3.73316919 -13.5510325 2.83624139 -15.4375 1.25 C-10.26360026 0.21018871 -5.25503883 0.03286967 0 0 Z M-9.4375 3.25 C-9.4375 4.57 -9.4375 5.89 -9.4375 7.25 C-8.7775 7.91 -8.1175 8.57 -7.4375 9.25 C-7.7675 10.24 -8.0975 11.23 -8.4375 12.25 C-9.0975 11.59 -9.7575 10.93 -10.4375 10.25 C-10.4375 14.87 -10.4375 19.49 -10.4375 24.25 C-3.1775 24.25 4.0825 24.25 11.5625 24.25 C12.2225 20.95 12.8825 17.65 13.5625 14.25 C14.8825 13.59 16.2025 12.93 17.5625 12.25 C17.98059201 9.41848027 17.98059201 9.41848027 17.5625 6.25 C15.43965317 3.87665725 13.72959656 2.44131812 10.52807617 1.91650391 C8.17290273 1.81993643 5.85546229 1.85195052 3.5 1.9375 C2.29633789 1.95200195 2.29633789 1.95200195 1.06835938 1.96679688 C-2.60691537 2.03694735 -5.88219395 2.25906254 -9.4375 3.25 Z " fill="#BB417A" transform="translate(213.4375,206.75)"/>
<path d="M0 0 C2.64 0 5.28 0 8 0 C8 3.96 8 7.92 8 12 C9.65 12.33 11.3 12.66 13 13 C14 14 14 14 14.09765625 17.59765625 C14.0909822 19.08596867 14.07902183 20.57426432 14.0625 22.0625 C14.05798828 22.82111328 14.05347656 23.57972656 14.04882812 24.36132812 C14.0370068 26.24091871 14.01907078 28.12046899 14 30 C17.63 30 21.26 30 25 30 C25 30.33 25 30.66 25 31 C20.71 31 16.42 31 12 31 C12 26.05 12 21.1 12 16 C7.38 16 2.76 16 -2 16 C-2 13.03 -2 10.06 -2 7 C0.97 7 3.94 7 7 7 C7 5.02 7 3.04 7 1 C4.69 1 2.38 1 0 1 C0 0.67 0 0.34 0 0 Z " fill="#B46736" transform="translate(189,82)"/>
<path d="M0 0 C1.5625 1.25 1.5625 1.25 2.5625 3.0625 C2.5625 5.25 2.5625 5.25 1.25 8 C-2.26909463 10.94621876 -4.60167893 10.91012121 -9.08203125 10.671875 C-11.4375 10.25 -11.4375 10.25 -14.125 8.5625 C-15.4375 6.25 -15.4375 6.25 -15.4375 3.625 C-14.4375 1.25 -14.4375 1.25 -12.875 -0.0625 C-8.54702285 -1.28321151 -4.3044642 -1.32445052 0 0 Z " fill="#EDA8A3" transform="translate(152.4375,155.75)"/>
<path d="M0 0 C1.58246707 -0.08153933 3.16616273 -0.13943557 4.75 -0.1875 C6.07257813 -0.23970703 6.07257813 -0.23970703 7.421875 -0.29296875 C10.49201421 0.05591071 11.80981386 0.85037286 14 3 C14.25 5.6875 14.25 5.6875 14 8 C13.34 8 12.68 8 12 8 C12 8.66 12 9.32 12 10 C9.51245214 11.24377393 7.77344699 11.13306235 5 11.125 C4.113125 11.12757813 3.22625 11.13015625 2.3125 11.1328125 C0 11 0 11 -2 10 C-3.27536232 4.55072464 -3.27536232 4.55072464 -2 2 C-1.34 2 -0.68 2 0 2 C0 1.34 0 0.68 0 0 Z " fill="#F2A3AB" transform="translate(194,155)"/>
<path d="M0 0 C0.28875 0.61875 0.5775 1.2375 0.875 1.875 C1.93720042 4.13325765 1.93720042 4.13325765 4 6 C4 6.99 4 7.98 4 9 C0.7 8.67 -2.6 8.34 -6 8 C-6 8.66 -6 9.32 -6 10 C-6.99 10.495 -6.99 10.495 -8 11 C-8.33 26.51 -8.66 42.02 -9 58 C-10.485 58.495 -10.485 58.495 -12 59 C-12.05069859 52.37975331 -12.08573295 45.75955666 -12.10986328 39.13916016 C-12.11992253 36.88686248 -12.13357146 34.63457786 -12.15087891 32.38232422 C-12.17513031 29.14547502 -12.1864839 25.90879845 -12.1953125 22.671875 C-12.20563507 21.66445251 -12.21595764 20.65703003 -12.22659302 19.61907959 C-12.22674408 18.67840637 -12.22689514 17.73773315 -12.22705078 16.76855469 C-12.231492 15.94248718 -12.23593323 15.11641968 -12.24050903 14.26531982 C-11.96959842 11.71365188 -11.38576008 10.15365934 -10 8 C-6.28908876 5.74118446 -4.39989151 5 0 5 C0 3.35 0 1.7 0 0 Z " fill="#AF993F" transform="translate(124,119)"/>
<path d="M0 0 C4.60470588 1.45411765 4.60470588 1.45411765 6.3125 3.8125 C7.09802451 6.31189617 7.14472595 8.39493282 7 11 C7.886875 10.896875 8.77375 10.79375 9.6875 10.6875 C14.03938306 11.09805501 15.25973354 12.71168025 18 16 C19.19791173 18.39582346 19.1206744 19.86777538 19.11352539 22.54150391 C19.11344986 23.48232819 19.11337433 24.42315247 19.11329651 25.39248657 C19.10813522 26.41023163 19.10297394 27.42797668 19.09765625 28.4765625 C19.0962413 29.51694672 19.09482635 30.55733093 19.09336853 31.62924194 C19.08775866 34.96119021 19.07520447 38.29307195 19.0625 41.625 C19.05748627 43.88020736 19.05292314 46.13541578 19.04882812 48.390625 C19.03778603 53.92710614 19.02103827 59.46354832 19 65 C18.67 65 18.34 65 18 65 C18 50.15 18 35.3 18 20 C17.34 20 16.68 20 16 20 C15.67 19.01 15.34 18.02 15 17 C12.47309629 13.49041152 9.05037554 12.99348834 5 12 C5 10.68 5 9.36 5 8 C4.01 7.67 3.02 7.34 2 7 C0.8125 3.4375 0.8125 3.4375 0 0 Z " fill="#887840" transform="translate(214,113)"/>
<path d="M0 0 C3.63 0 7.26 0 11 0 C11 1.98 11 3.96 11 6 C8.03 6 5.06 6 2 6 C2 8.97 2 11.94 2 15 C4.97 15 7.94 15 11 15 C11 15.33 11 15.66 11 16 C4.59646678 16.2361959 -0.84629161 15.823321 -7 14 C-7 13.34 -7 12.68 -7 12 C-4.69 12 -2.38 12 0 12 C0 8.04 0 4.08 0 0 Z " fill="#F3CA58" transform="translate(185,83)"/>
<path d="M0 0 C0.90169922 -0.01224609 1.80339844 -0.02449219 2.73242188 -0.03710938 C4.03083008 -0.04000977 4.03083008 -0.04000977 5.35546875 -0.04296875 C6.13946045 -0.04707764 6.92345215 -0.05118652 7.73120117 -0.05541992 C9.8125 0.1875 9.8125 0.1875 12.8125 2.1875 C9.682679 3.23077367 7.68167896 3.24867112 4.41015625 3.14453125 C3.35505859 3.12326172 2.29996094 3.10199219 1.21289062 3.08007812 C-1.00877813 3.02677887 -3.23019634 2.96171076 -5.45117188 2.88476562 C-6.50755859 2.86736328 -7.56394531 2.84996094 -8.65234375 2.83203125 C-9.617771 2.80471924 -10.58319824 2.77740723 -11.57788086 2.74926758 C-14.96643068 3.31830555 -16.1003678 4.51140528 -18.1875 7.1875 C-18.99065654 10.33231791 -18.99065654 10.33231791 -19.1875 13.1875 C-17.8675 13.1875 -16.5475 13.1875 -15.1875 13.1875 C-15.5175 14.5075 -15.8475 15.8275 -16.1875 17.1875 C-16.1875 16.5275 -16.1875 15.8675 -16.1875 15.1875 C-19.74821312 14.13867609 -23.24277897 13.88363047 -26.9375 13.625 C-28.10796875 13.54121094 -29.2784375 13.45742187 -30.484375 13.37109375 C-31.82242188 13.28021484 -31.82242188 13.28021484 -33.1875 13.1875 C-32.8575 12.5275 -32.5275 11.8675 -32.1875 11.1875 C-29.2175 11.1875 -26.2475 11.1875 -23.1875 11.1875 C-22.775 10.094375 -22.3625 9.00125 -21.9375 7.875 C-20.5384392 4.65390652 -19.40172257 2.84052875 -16.1875 1.1875 C-10.80950571 -0.0141456 -5.48115054 0.00396897 0 0 Z " fill="#9B3D69" transform="translate(134.1875,206.8125)"/>
<path d="M0 0 C1.20462891 -0.02126953 1.20462891 -0.02126953 2.43359375 -0.04296875 C4.5625 0.1875 4.5625 0.1875 6.5625 2.1875 C6.3125 5.25 6.3125 5.25 5.5625 8.1875 C2.57655576 9.68047212 -0.14603624 9.30505228 -3.4375 9.1875 C-4.0975 8.8575 -4.7575 8.5275 -5.4375 8.1875 C-5.47991723 5.85455225 -5.47842937 3.52047433 -5.4375 1.1875 C-3.84855928 -0.40144072 -2.18948576 0.01751589 0 0 Z " fill="#6C4B3F" transform="translate(154.4375,142.8125)"/>
<path d="M0 0 C1.98 0 3.96 0 6 0 C5.360625 0.78375 4.72125 1.5675 4.0625 2.375 C2.01857687 4.79539281 2.01857687 4.79539281 1 7 C-4.28 7 -9.56 7 -15 7 C-15 7.66 -15 8.32 -15 9 C-15.99 9.495 -15.99 9.495 -17 10 C-17.46651207 12.12576782 -17.46651207 12.12576782 -17.625 14.5625 C-17.69976562 15.38878906 -17.77453125 16.21507812 -17.8515625 17.06640625 C-17.90054688 17.70449219 -17.94953125 18.34257812 -18 19 C-17.21625 19.309375 -16.4325 19.61875 -15.625 19.9375 C-13 21 -13 21 -11 22 C-11 21.01 -11 20.02 -11 19 C-10.34 19 -9.68 19 -9 19 C-8.67 20.32 -8.34 21.64 -8 23 C-9.258125 23.04125 -10.51625 23.0825 -11.8125 23.125 C-12.52019531 23.14820313 -13.22789062 23.17140625 -13.95703125 23.1953125 C-16 23 -16 23 -19 21 C-19.43359375 18.3203125 -19.43359375 18.3203125 -19.4375 15.125 C-19.45683594 14.07570312 -19.47617188 13.02640625 -19.49609375 11.9453125 C-19 9 -19 9 -17.42578125 6.6328125 C-14.08582447 4.38466124 -11.73568901 4.60238189 -7.75 4.75 C-6.48671875 4.78609375 -5.2234375 4.8221875 -3.921875 4.859375 C-2.47554687 4.92898437 -2.47554687 4.92898437 -1 5 C-0.67 3.35 -0.34 1.7 0 0 Z " fill="#E2BFAA" transform="translate(245,215)"/>
<path d="M0 0 C0.8146875 0.00257813 1.629375 0.00515625 2.46875 0.0078125 C3.2834375 0.00523437 4.098125 0.00265625 4.9375 0 C6.96875 0.1328125 6.96875 0.1328125 7.96875 1.1328125 C8.15625 4.0703125 8.15625 4.0703125 7.96875 7.1328125 C5.96875 9.1328125 5.96875 9.1328125 2.53125 9.4453125 C-1.03125 9.1328125 -1.03125 9.1328125 -3.03125 7.9453125 C-4.03125 6.1328125 -4.03125 6.1328125 -3.78125 3.5078125 C-2.7298858 0.17849253 -2.7298858 0.17849253 0 0 Z " fill="#6E4B40" transform="translate(188.03125,142.8671875)"/>
<path d="M0 0 C1.65 0 3.3 0 5 0 C3.68 0.33 2.36 0.66 1 1 C1.33 1.66 1.66 2.32 2 3 C2.23459949 7.06781298 2.22841696 11.13737036 2.24023438 15.21142578 C2.24989756 17.22861641 2.2809003 19.24476916 2.3125 21.26171875 C2.31765625 22.54175781 2.3228125 23.82179688 2.328125 25.140625 C2.34214355 26.89681152 2.34214355 26.89681152 2.35644531 28.68847656 C1.95585902 32.41008789 0.93934853 34.81654109 -1 38 C-1.99 38.495 -1.99 38.495 -3 39 C-2.67 37.35 -2.34 35.7 -2 34 C-2.66 33.67 -3.32 33.34 -4 33 C-3.2733313 32.46959106 -3.2733313 32.46959106 -2.53198242 31.9284668 C-0.27022891 29.08136066 -0.56420465 26.74330063 -0.48828125 23.14453125 C-0.46135445 22.15207649 -0.46135445 22.15207649 -0.43388367 21.13957214 C-0.37979102 19.03061253 -0.34589069 16.92187901 -0.3125 14.8125 C-0.27932573 13.38082792 -0.24483595 11.94918567 -0.20898438 10.51757812 C-0.12406743 7.0119361 -0.05725079 3.50621527 0 0 Z " fill="#9A707C" transform="translate(237,238)"/>
<path d="M0 0 C0.33 0 0.66 0 1 0 C1 9.24 1 18.48 1 28 C2.98 27.67 4.96 27.34 7 27 C8.32 27.99 9.64 28.98 11 30 C-1.54 30 -14.08 30 -27 30 C-27.33 29.34 -27.66 28.68 -28 28 C-27.25314941 28.01047363 -26.50629883 28.02094727 -25.73681641 28.03173828 C-22.36624492 28.0732077 -18.995727 28.09929729 -15.625 28.125 C-14.449375 28.14175781 -13.27375 28.15851563 -12.0625 28.17578125 C-10.94101563 28.18222656 -9.81953125 28.18867188 -8.6640625 28.1953125 C-7.62717285 28.20578613 -6.5902832 28.21625977 -5.52197266 28.22705078 C-2.82891377 28.25615026 -2.82891377 28.25615026 -1 26 C-0.62792646 23.28384136 -0.62792646 23.28384136 -0.5859375 20.1171875 C-0.54726562 18.95058594 -0.50859375 17.78398437 -0.46875 16.58203125 C-0.4378125 15.35871094 -0.406875 14.13539063 -0.375 12.875 C-0.33632812 11.64394531 -0.29765625 10.41289062 -0.2578125 9.14453125 C-0.1633001 6.09650624 -0.07774506 3.04849138 0 0 Z " fill="#673B51" transform="translate(119,292)"/>
<path d="M0 0 C0 0.66 0 1.32 0 2 C-1.32 2.33 -2.64 2.66 -4 3 C-4.33 8.28 -4.66 13.56 -5 19 C-7.70182292 19.1953125 -10.40364583 19.390625 -13.10546875 19.5859375 C-16.04627812 20.00662008 -18.34014569 20.68660835 -21 22 C-21.33 22.66 -21.66 23.32 -22 24 C-22.66 24 -23.32 24 -24 24 C-23.71364159 21.23186874 -23.18075889 20.1687083 -21.125 18.25 C-16.4652828 16.38611312 -11.95709043 16.76560168 -7 17 C-7.03480469 15.94039062 -7.06960937 14.88078125 -7.10546875 13.7890625 C-7.13360399 12.40105748 -7.16090443 11.01303537 -7.1875 9.625 C-7.21263672 8.92632812 -7.23777344 8.22765625 -7.26367188 7.5078125 C-7.29296875 5.4765625 -7.29296875 5.4765625 -7 2 C-4 0 -4 0 0 0 Z " fill="#BCA64E" transform="translate(149,95)"/>
<path d="M0 0 C3.63 0 7.26 0 11 0 C10.01 0.33 9.02 0.66 8 1 C7.67 11.23 7.34 21.46 7 32 C6.34 32 5.68 32 5 32 C4.97526132 28.06731133 4.95712165 24.13465287 4.94506836 20.2019043 C4.93757271 18.20685232 4.92486655 16.21182214 4.91210938 14.21679688 C4.90888672 12.96318359 4.90566406 11.70957031 4.90234375 10.41796875 C4.89710693 9.26063232 4.89187012 8.1032959 4.88647461 6.91088867 C5 4 5 4 6 1 C4.02 1 2.04 1 0 1 C0 0.67 0 0.34 0 0 Z " fill="#A77383" transform="translate(101,238)"/>
<path d="M0 0 C2.64 0 5.28 0 8 0 C8 2.97 8 5.94 8 9 C5.36 9 2.72 9 0 9 C0 6.03 0 3.06 0 0 Z " fill="#D55B2D" transform="translate(152,89)"/>
<path d="M0 0 C0.66 0.33 1.32 0.66 2 1 C2 2.32 2 3.64 2 5 C6.62 5 11.24 5 16 5 C16 3.68 16 2.36 16 1 C16.99 0.67 17.98 0.34 19 0 C19.33 0.99 19.66 1.98 20 3 C18.35549439 5.43630461 17.50272355 6.55631316 15 8 C9.29313502 8.88416218 4.03519014 9.33764513 -0.90625 6.08984375 C-1.5971875 5.40019531 -2.288125 4.71054688 -3 4 C-3 3.34 -3 2.68 -3 2 C-2.01 2 -1.02 2 0 2 C0 1.34 0 0.68 0 0 Z " fill="#DDC358" transform="translate(212,177)"/>
<path d="M0 0 C0.99 0.33 1.98 0.66 3 1 C3 2.65 3 4.3 3 6 C-1.04141194 6.63394697 -4.9065307 7.12404452 -9 7 C-9 5.02 -9 3.04 -9 1 C-6.01002175 -0.49498913 -3.29957225 -0.11577446 0 0 Z " fill="#F5A0B1" transform="translate(149,157)"/>
<path d="M0 0 C0.33 0 0.66 0 1 0 C1.04898438 1.12019531 1.09796875 2.24039063 1.1484375 3.39453125 C1.22347856 4.86721203 1.29902582 6.33986707 1.375 7.8125 C1.4059375 8.55048828 1.436875 9.28847656 1.46875 10.04882812 C1.67346148 13.81893115 1.86433827 15.79650741 4 19 C0.37 19 -3.26 19 -7 19 C-6.85848172 16.9163691 -6.71162064 14.83310062 -6.5625 12.75 C-6.48128906 11.58984375 -6.40007812 10.4296875 -6.31640625 9.234375 C-6.06752213 6.69022624 -5.71885058 4.44046752 -5 2 C-4.34 2.33 -3.68 2.66 -3 3 C-3.03480469 3.91523438 -3.06960937 4.83046875 -3.10546875 5.7734375 C-3.13253906 6.96195313 -3.15960938 8.15046875 -3.1875 9.375 C-3.22230469 10.55835938 -3.25710937 11.74171875 -3.29296875 12.9609375 C-3.19628906 13.96382812 -3.09960938 14.96671875 -3 16 C-2.01 16.66 -1.02 17.32 0 18 C0 12.06 0 6.12 0 0 Z " fill="#E5238E" transform="translate(142,213)"/>
<path d="M0 0 C0.99 0.33 1.98 0.66 3 1 C3.0810206 3.10353495 3.13919907 5.20795952 3.1875 7.3125 C3.22230469 8.48425781 3.25710937 9.65601563 3.29296875 10.86328125 C3 14 3 14 1.75976562 15.67773438 C-0.47163482 17.35438044 -1.68072407 17.34871025 -4.44921875 17.29296875 C-5.29677734 17.28330078 -6.14433594 17.27363281 -7.01757812 17.26367188 C-8.33918945 17.2259668 -8.33918945 17.2259668 -9.6875 17.1875 C-10.58017578 17.17396484 -11.47285156 17.16042969 -12.39257812 17.14648438 C-14.59566166 17.11114079 -16.79752582 17.06180493 -19 17 C-19 16.67 -19 16.34 -19 16 C-18.31292969 15.95101562 -17.62585938 15.90203125 -16.91796875 15.8515625 C-16.01691406 15.77679688 -15.11585937 15.70203125 -14.1875 15.625 C-13.29417969 15.55539063 -12.40085937 15.48578125 -11.48046875 15.4140625 C-8.75601501 15.13354964 -8.75601501 15.13354964 -6 13 C-3.95703125 12.8046875 -3.95703125 12.8046875 -1.8125 12.875 C0.0746875 12.936875 0.0746875 12.936875 2 13 C1.85851011 11.3954444 1.71164314 9.79136233 1.5625 8.1875 C1.48128906 7.29417969 1.40007812 6.40085938 1.31640625 5.48046875 C1.06510233 2.87256441 1.06510233 2.87256441 0 0 Z " fill="#F7C5B1" transform="translate(115,221)"/>
<path d="M0 0 C0.33 0.99 0.66 1.98 1 3 C0.67 3.66 0.34 4.32 0 5 C1.45922693 4.88590407 2.91740598 4.75834456 4.375 4.625 C5.18710938 4.55539063 5.99921875 4.48578125 6.8359375 4.4140625 C9.20334191 4.17107412 9.20334191 4.17107412 11 2 C13.125 2.375 13.125 2.375 15 3 C12.2120443 5.65195786 10.60632889 6.92085048 6.73828125 7.42578125 C5.04251953 7.36970703 5.04251953 7.36970703 3.3125 7.3125 C1.60513672 7.27576172 1.60513672 7.27576172 -0.13671875 7.23828125 C-3 7 -3 7 -5 6 C-5.625 3.9375 -5.625 3.9375 -6 2 C-4.02 1.34 -2.04 0.68 0 0 Z " fill="#C4AE52" transform="translate(121,178)"/>
<path d="M0 0 C2.64 0 5.28 0 8 0 C8 2.31 8 4.62 8 7 C5.29120665 8.35439668 2.99066732 8.06501451 0 8 C0 5.36 0 2.72 0 0 Z " fill="#4196CC" transform="translate(170,84)"/>
<path d="M0 0 C2.31 0.33 4.62 0.66 7 1 C7 6.28 7 11.56 7 17 C10.63 17 14.26 17 18 17 C18 17.33 18 17.66 18 18 C13.71 18 9.42 18 5 18 C5 13.05 5 8.1 5 3 C3.35 3 1.7 3 0 3 C0 2.01 0 1.02 0 0 Z " fill="#B6994C" transform="translate(196,95)"/>
<path d="M0 0 C2.01822917 0.06510417 4.03645833 0.13020833 6.0546875 0.1953125 C6.0546875 1.5153125 6.0546875 2.8353125 6.0546875 4.1953125 C3.7446875 4.5253125 1.4346875 4.8553125 -0.9453125 5.1953125 C-1.2753125 8.1653125 -1.6053125 11.1353125 -1.9453125 14.1953125 C-2.6053125 14.1953125 -3.2653125 14.1953125 -3.9453125 14.1953125 C-3.99920337 12.23727743 -4.03805467 10.27882341 -4.0703125 8.3203125 C-4.09351563 7.22976562 -4.11671875 6.13921875 -4.140625 5.015625 C-3.91574599 1.76837207 -3.42743504 0.34411998 0 0 Z " fill="#E9D05B" transform="translate(170.9453125,77.8046875)"/>
<path d="M0 0 C0.99 0.66 1.98 1.32 3 2 C5.61289494 2.36749389 5.61289494 2.36749389 8.54296875 2.4140625 C10.15268555 2.47207031 10.15268555 2.47207031 11.79492188 2.53125 C12.91447266 2.5621875 14.03402344 2.593125 15.1875 2.625 C16.31865234 2.66367187 17.44980469 2.70234375 18.61523438 2.7421875 C21.4099925 2.83652533 24.20474278 2.92211652 27 3 C27 3.33 27 3.66 27 4 C15.78 4.33 4.56 4.66 -7 5 C-6.67 3.68 -6.34 2.36 -6 1 C-3.03 1.495 -3.03 1.495 0 2 C0 1.34 0 0.68 0 0 Z " fill="#543B47" transform="translate(226,318)"/>
<path d="M0 0 C4.62 0 9.24 0 14 0 C14 5.28 14 10.56 14 16 C13.67 16 13.34 16 13 16 C13 11.38 13 6.76 13 2 C11.55625 2.0825 10.1125 2.165 8.625 2.25 C7.81289062 2.29640625 7.00078125 2.3428125 6.1640625 2.390625 C3.81161073 2.7922092 3.81161073 2.7922092 2.7109375 5.046875 C2.47632813 5.69140625 2.24171875 6.3359375 2 7 C1.34 4.69 0.68 2.38 0 0 Z " fill="#EFC88F" transform="translate(194,142)"/>
<path d="M0 0 C1.47906892 -0.02689216 2.95827483 -0.04634621 4.4375 -0.0625 C5.26121094 -0.07410156 6.08492187 -0.08570313 6.93359375 -0.09765625 C9 0 9 0 10 1 C10.125 4 10.125 4 10 7 C9 8 9 8 6.4375 8.0625 C5.633125 8.041875 4.82875 8.02125 4 8 C4.66 6.68 5.32 5.36 6 4 C4.02 3.01 2.04 2.02 0 1 C0 0.67 0 0.34 0 0 Z " fill="#62402E" transform="translate(186,143)"/>
<path d="M0 0 C0.66 0 1.32 0 2 0 C2 0.99 2 1.98 2 3 C1.01 3.495 1.01 3.495 0 4 C-0.46651207 6.12576782 -0.46651207 6.12576782 -0.625 8.5625 C-0.69976562 9.38878906 -0.77453125 10.21507812 -0.8515625 11.06640625 C-0.90054688 11.70449219 -0.94953125 12.34257812 -1 13 C-0.21625 13.309375 0.5675 13.61875 1.375 13.9375 C4 15 4 15 6 16 C6 15.01 6 14.02 6 13 C6.66 13 7.32 13 8 13 C8.33 14.32 8.66 15.64 9 17 C7.741875 17.04125 6.48375 17.0825 5.1875 17.125 C4.47980469 17.14820313 3.77210938 17.17140625 3.04296875 17.1953125 C1 17 1 17 -2 15 C-2.36328125 12.28515625 -2.36328125 12.28515625 -2.3125 9.0625 C-2.30863281 8.00160156 -2.30476562 6.94070312 -2.30078125 5.84765625 C-2 3 -2 3 0 0 Z " fill="#FAC3B1" transform="translate(228,221)"/>
<path d="M0 0 C0.28875 0.61875 0.5775 1.2375 0.875 1.875 C1.93720042 4.13325765 1.93720042 4.13325765 4 6 C4 6.99 4 7.98 4 9 C0.7 8.67 -2.6 8.34 -6 8 C-6 8.66 -6 9.32 -6 10 C-7.32 10 -8.64 10 -10 10 C-10 9.34 -10 8.68 -10 8 C-6.27034861 5.96564469 -4.33094958 5 0 5 C0 3.35 0 1.7 0 0 Z " fill="#C2A849" transform="translate(124,119)"/>
<path d="M0 0 C1.98 0 3.96 0 6 0 C6 2.31 6 4.62 6 7 C4.02 7 2.04 7 0 7 C0 4.69 0 2.38 0 0 Z " fill="#E44E37" transform="translate(189,90)"/>
<path d="M0 0 C0.33 0 0.66 0 1 0 C1 3.3 1 6.6 1 10 C1.99 10 2.98 10 4 10 C4.33 6.7 4.66 3.4 5 0 C5.33 0 5.66 0 6 0 C6 3.96 6 7.92 6 12 C3.69 12 1.38 12 -1 12 C-1 11.01 -1 10.02 -1 9 C-1.66 8.67 -2.32 8.34 -3 8 C-2.34 8 -1.68 8 -1 8 C-1.020625 6.865625 -1.04125 5.73125 -1.0625 4.5625 C-1 1 -1 1 0 0 Z " fill="#7F7B55" transform="translate(179,83)"/>
<path d="M0 0 C0.66 0.33 1.32 0.66 2 1 C1.67 1.66 1.34 2.32 1 3 C0.98400564 4.4509942 1.0341851 5.90308507 1.12109375 7.3515625 C1.16943359 8.20234375 1.21777344 9.053125 1.26757812 9.9296875 C1.32365234 10.81914062 1.37972656 11.70859375 1.4375 12.625 C1.48970703 13.5221875 1.54191406 14.419375 1.59570312 15.34375 C1.7255435 17.56284012 1.86051339 19.78149871 2 22 C1.34 22 0.68 22 0 22 C-1.1353654 19.72926921 -1.12892412 18.45716721 -1.1328125 15.9375 C-1.13410156 15.14085937 -1.13539062 14.34421875 -1.13671875 13.5234375 C-1.13285156 12.69070312 -1.12898438 11.85796875 -1.125 11 C-1.13080078 9.75089844 -1.13080078 9.75089844 -1.13671875 8.4765625 C-1.13542969 7.67992187 -1.13414063 6.88328125 -1.1328125 6.0625 C-1.13168457 5.33160156 -1.13055664 4.60070312 -1.12939453 3.84765625 C-1 2 -1 2 0 0 Z " fill="#D0B9A2" transform="translate(84,215)"/>
<path d="M0 0 C0.66 0.33 1.32 0.66 2 1 C0.75023244 4.65316671 0.32901247 5.78065836 -3 8 C-6.13671875 8.1953125 -6.13671875 8.1953125 -9.6875 8.125 C-10.86699219 8.10695312 -12.04648438 8.08890625 -13.26171875 8.0703125 C-14.16535156 8.04710937 -15.06898438 8.02390625 -16 8 C-16 7.67 -16 7.34 -16 7 C-15.24074219 6.93941406 -14.48148438 6.87882813 -13.69921875 6.81640625 C-12.70535156 6.73261719 -11.71148437 6.64882812 -10.6875 6.5625 C-9.70136719 6.48128906 -8.71523437 6.40007812 -7.69921875 6.31640625 C-4.90624401 6.08187441 -4.90624401 6.08187441 -2 5 C-2 3.68 -2 2.36 -2 1 C-1.34 0.67 -0.68 0.34 0 0 Z " fill="#AB944A" transform="translate(230,177)"/>
<path d="M0 0 C4.875 1.75 4.875 1.75 6 4 C6.13415472 6.6723621 6.04318541 9.32250488 6 12 C5.896875 11.360625 5.79375 10.72125 5.6875 10.0625 C5.460625 9.381875 5.23375 8.70125 5 8 C4.01 7.67 3.02 7.34 2 7 C0.8125 3.4375 0.8125 3.4375 0 0 Z " fill="#CCB450" transform="translate(214,113)"/>
<path d="M0 0 C1.93681161 -0.08107583 3.8745934 -0.13922475 5.8125 -0.1875 C6.89144531 -0.22230469 7.97039062 -0.25710937 9.08203125 -0.29296875 C12 0 12 0 13.88671875 1.32421875 C15 3 15 3 15 6 C15.66 6.33 16.32 6.66 17 7 C15.02 7.99 15.02 7.99 13 9 C12.67 6.69 12.34 4.38 12 2 C8.04 1.67 4.08 1.34 0 1 C0 0.67 0 0.34 0 0 Z " fill="#CFB59D" transform="translate(86,214)"/>
<path d="M0 0 C0.33 0 0.66 0 1 0 C1.04898438 1.12019531 1.09796875 2.24039063 1.1484375 3.39453125 C1.22347856 4.86721203 1.29902582 6.33986707 1.375 7.8125 C1.4059375 8.55048828 1.436875 9.28847656 1.46875 10.04882812 C1.67346148 13.81893115 1.86433827 15.79650741 4 19 C0.37 19 -3.26 19 -7 19 C-7 18.67 -7 18.34 -7 18 C-4.69 18 -2.38 18 0 18 C0 12.06 0 6.12 0 0 Z " fill="#D85899" transform="translate(142,213)"/>
<path d="M0 0 C1.32 0 2.64 0 4 0 C3.49701212 4.40114397 1.91227269 6.71195019 -1 10 C-1.02689216 8.52093108 -1.04634621 7.04172517 -1.0625 5.5625 C-1.07410156 4.73878906 -1.08570313 3.91507813 -1.09765625 3.06640625 C-1 1 -1 1 0 0 Z " fill="#F8C9A9" transform="translate(228,224)"/>
<path d="M0 0 C3.3 0 6.6 0 10 0 C10 0.66 10 1.32 10 2 C6.37 2.33 2.74 2.66 -1 3 C-1 4.32 -1 5.64 -1 7 C-1.66 7 -2.32 7 -3 7 C-2.67 5.35 -2.34 3.7 -2 2 C-1.34 2 -0.68 2 0 2 C0 1.34 0 0.68 0 0 Z " fill="#EBA7A3" transform="translate(194,155)"/>
<path d="M0 0 C4.29 0 8.58 0 13 0 C13 0.66 13 1.32 13 2 C11.20909747 2.19466332 9.41723495 2.38051213 7.625 2.5625 C6.12839844 2.71912109 6.12839844 2.71912109 4.6015625 2.87890625 C2 3 2 3 0 2 C0 1.34 0 0.68 0 0 Z " fill="#ECCE5E" transform="translate(201,113)"/>
<path d="M0 0 C0.33 0 0.66 0 1 0 C1.33 3.3 1.66 6.6 2 10 C0.35 10.33 -1.3 10.66 -3 11 C-2.835 10.4225 -2.67 9.845 -2.5 9.25 C-1.85537969 6.73335631 -1.85537969 6.73335631 -2 3 C-1.34 2.67 -0.68 2.34 0 2 C0 1.34 0 0.68 0 0 Z " fill="#8E3D66" transform="translate(124,309)"/>
<path d="M0 0 C1.65 0 3.3 0 5 0 C5 1.98 5 3.96 5 6 C3.35 6 1.7 6 0 6 C0 4.02 0 2.04 0 0 Z " fill="#E9493B" transform="translate(154,91)"/>
<path d="M0 0 C3.39417765 3.12621626 5.6062718 5.56541027 7 10 C2.12314139 8.64531705 0.51407619 6.28324091 -2 2 C-1.34 1.34 -0.68 0.68 0 0 Z " fill="#C9889D" transform="translate(108,269)"/>
<path d="M0 0 C0.33 0 0.66 0 1 0 C1.63019694 8.19256018 1.63019694 8.19256018 -1 11.5625 C-1.99 12.2740625 -1.99 12.2740625 -3 13 C-2.67 11.35 -2.34 9.7 -2 8 C-2.66 7.67 -3.32 7.34 -4 7 C-3.525625 6.5875 -3.05125 6.175 -2.5625 5.75 C-0.83733482 3.817815 -0.43415125 2.51807725 0 0 Z " fill="#CF88A0" transform="translate(237,264)"/>
<path d="M0 0 C7.425 0.99 7.425 0.99 15 2 C15 2.33 15 2.66 15 3 C9.39 3 3.78 3 -2 3 C-1.34 2.01 -0.68 1.02 0 0 Z " fill="#EACDB0" transform="translate(187,187)"/>
<path d="M0 0 C2.05078125 0.03255208 4.1015625 0.06510417 6.15234375 0.09765625 C4.15234375 1.43098958 2.15234375 2.76432292 0.15234375 4.09765625 C0.15234375 5.08765625 0.15234375 6.07765625 0.15234375 7.09765625 C-0.83765625 7.09765625 -1.82765625 7.09765625 -2.84765625 7.09765625 C-2.89019981 5.09810879 -2.88846408 3.09723989 -2.84765625 1.09765625 C-1.84765625 0.09765625 -1.84765625 0.09765625 0 0 Z " fill="#60412B" transform="translate(151.84765625,142.90234375)"/>
<path d="M0 0 C0.33 0 0.66 0 1 0 C1.08069658 2.95887459 1.14034665 5.9155659 1.1875 8.875 C1.22520508 10.13763672 1.22520508 10.13763672 1.26367188 11.42578125 C1.27333984 12.23144531 1.28300781 13.03710938 1.29296875 13.8671875 C1.3086792 14.61081543 1.32438965 15.35444336 1.34057617 16.12060547 C1.17199097 17.05090576 1.17199097 17.05090576 1 18 C0.01 18.66 -0.98 19.32 -2 20 C-1.84152588 19.42024414 -1.68305176 18.84048828 -1.51977539 18.24316406 C-0.71911382 14.78779602 -0.62776918 11.28089697 -0.4375 7.75 C-0.39431641 7.00492188 -0.35113281 6.25984375 -0.30664062 5.4921875 C-0.20103275 3.661651 -0.10005799 1.83084824 0 0 Z " fill="#FFE9FB" transform="translate(201,211)"/>
<path d="M0 0 C0.99 0 1.98 0 3 0 C2.84660156 0.51046875 2.69320312 1.0209375 2.53515625 1.546875 C1.83094597 4.7749338 1.65111796 7.95418001 1.4375 11.25 C1.35371094 12.51328125 1.26992187 13.7765625 1.18359375 15.078125 C1.12300781 16.04234375 1.06242188 17.0065625 1 18 C0.67 18 0.34 18 0 18 C0 12.06 0 6.12 0 0 Z " fill="#D63686" transform="translate(141,209)"/>
<path d="M0 0 C0.66 0 1.32 0 2 0 C2 0.99 2 1.98 2 3 C1.01 3.495 1.01 3.495 0 4 C0 7.63 0 11.26 0 15 C-0.66 15 -1.32 15 -2 15 C-2.05406122 13.06280622 -2.09282025 11.12518079 -2.125 9.1875 C-2.14820313 8.10855469 -2.17140625 7.02960938 -2.1953125 5.91796875 C-2 3 -2 3 0 0 Z " fill="#F8ACAF" transform="translate(228,221)"/>
<path d="M0 0 C3.71599191 -0.20086443 4.77208445 -0.1519437 8 2 C8.1875 5.625 8.1875 5.625 8 9 C5.10067643 6.60490662 4.49831724 4.68754757 4 1 C2.68 0.67 1.36 0.34 0 0 Z " fill="#EBCDAE" transform="translate(253,215)"/>
<path d="M0 0 C2.91517292 1.07401108 4.77810176 1.77810176 7 4 C6.625 6.125 6.625 6.125 6 8 C5.01 7.34 4.02 6.68 3 6 C3 4.68 3 3.36 3 2 C2.01 1.67 1.02 1.34 0 1 C0 0.67 0 0.34 0 0 Z " fill="#DA2E89" transform="translate(224,209)"/>
<path d="M0 0 C1.65 0 3.3 0 5 0 C5 1.32 5 2.64 5 4 C3.35 4.33 1.7 4.66 0 5 C0 3.35 0 1.7 0 0 Z " fill="#EFD135" transform="translate(196,98)"/>
<path d="M0 0 C0.598125 0.20625 1.19625 0.4125 1.8125 0.625 C-0.1875 2.625 -0.1875 2.625 -3.1875 3.625 C-3.5175 4.285 -3.8475 4.945 -4.1875 5.625 C-4.8475 5.625 -5.5075 5.625 -6.1875 5.625 C-5.875 3.75 -5.875 3.75 -5.1875 1.625 C-2.1875 -0.375 -2.1875 -0.375 0 0 Z " fill="#B9A456" transform="translate(131.1875,113.375)"/>
<path d="M0 0 C0.33 0.99 0.66 1.98 1 3 C-5.4 5.21538462 -5.4 5.21538462 -8.4375 4.125 C-8.953125 3.75375 -9.46875 3.3825 -10 3 C-8.72125 2.87625 -7.4425 2.7525 -6.125 2.625 C-2.65209064 2.30957601 -2.65209064 2.30957601 0 0 Z " fill="#FBC5B0" transform="translate(153,163)"/>
<path d="" fill="#000000" transform="translate(0,0)"/>
<path d="" fill="#000000" transform="translate(0,0)"/>
<path d="" fill="#000000" transform="translate(0,0)"/>
<path d="" fill="#000000" transform="translate(0,0)"/>
<path d="" fill="#000000" transform="translate(0,0)"/>
<path d="" fill="#000000" transform="translate(0,0)"/>
<path d="" fill="#000000" transform="translate(0,0)"/>
<path d="" fill="#000000" transform="translate(0,0)"/>
<path d="" fill="#000000" transform="translate(0,0)"/>
<path d="" fill="#000000" transform="translate(0,0)"/>
<path d="" fill="#000000" transform="translate(0,0)"/>
<path d="" fill="#000000" transform="translate(0,0)"/>
<path d="" fill="#000000" transform="translate(0,0)"/>
<path d="" fill="#000000" transform="translate(0,0)"/>
<path d="" fill="#000000" transform="translate(0,0)"/>
<path d="" fill="#000000" transform="translate(0,0)"/>
<path d="" fill="#000000" transform="translate(0,0)"/>
<path d="" fill="#000000" transform="translate(0,0)"/>
<path d="" fill="#000000" transform="translate(0,0)"/>
<path d="" fill="#000000" transform="translate(0,0)"/>
<path d="" fill="#000000" transform="translate(0,0)"/>
<path d="" fill="#000000" transform="translate(0,0)"/>
<path d="" fill="#000000" transform="translate(0,0)"/>
<path d="" fill="#000000" transform="translate(0,0)"/>
<path d="" fill="#000000" transform="translate(0,0)"/>
<path d="" fill="#000000" transform="translate(0,0)"/>
<path d="" fill="#000000" transform="translate(0,0)"/>
<path d="" fill="#000000" transform="translate(0,0)"/>
<path d="" fill="#000000" transform="translate(0,0)"/>
<path d="" fill="#000000" transform="translate(0,0)"/>
<path d="" fill="#000000" transform="translate(0,0)"/>
<path d="" fill="#000000" transform="translate(0,0)"/>
<path d="" fill="#000000" transform="translate(0,0)"/>
<path d="" fill="#000000" transform="translate(0,0)"/>
<path d="" fill="#000000" transform="translate(0,0)"/>
<path d="" fill="#000000" transform="translate(0,0)"/>
<path d="" fill="#000000" transform="translate(0,0)"/>
<path d="" fill="#000000" transform="translate(0,0)"/>
<path d="" fill="#000000" transform="translate(0,0)"/>
<path d="" fill="#000000" transform="translate(0,0)"/>
<path d="" fill="#000000" transform="translate(0,0)"/>
<path d="" fill="#000000" transform="translate(0,0)"/>
<path d="" fill="#000000" transform="translate(0,0)"/>
<path d="" fill="#000000" transform="translate(0,0)"/>
<path d="" fill="#000000" transform="translate(0,0)"/>
<path d="" fill="#000000" transform="translate(0,0)"/>
<path d="" fill="#000000" transform="translate(0,0)"/>
<path d="" fill="#000000" transform="translate(0,0)"/>
<path d="" fill="#000000" transform="translate(0,0)"/>
<path d="" fill="#000000" transform="translate(0,0)"/>
<path d="" fill="#000000" transform="translate(0,0)"/>
<path d="" fill="#000000" transform="translate(0,0)"/>
<path d="" fill="#000000" transform="translate(0,0)"/>
<path d="" fill="#000000" transform="translate(0,0)"/>
<path d="" fill="#000000" transform="translate(0,0)"/>
<path d="" fill="#000000" transform="translate(0,0)"/>
<path d="" fill="#000000" transform="translate(0,0)"/>
<path d="" fill="#000000" transform="translate(0,0)"/>
<path d="" fill="#000000" transform="translate(0,0)"/>
<path d="" fill="#000000" transform="translate(0,0)"/>
<path d="" fill="#000000" transform="translate(0,0)"/>
<path d="" fill="#000000" transform="translate(0,0)"/>
<path d="" fill="#000000" transform="translate(0,0)"/>
<path d="" fill="#000000" transform="translate(0,0)"/>
<path d="" fill="#000000" transform="translate(0,0)"/>
<path d="" fill="#000000" transform="translate(0,0)"/>
<path d="" fill="#000000" transform="translate(0,0)"/>
<path d="" fill="#000000" transform="translate(0,0)"/>
<path d="" fill="#000000" transform="translate(0,0)"/>
<path d="" fill="#000000" transform="translate(0,0)"/>
<path d="" fill="#000000" transform="translate(0,0)"/>
<path d="" fill="#000000" transform="translate(0,0)"/>
</svg>
